<svg width="121.294mm" height="104.419mm" viewBox="0 0 121.294 104.419" xmlns="http://www.w3.org/2000/svg"><g id="svgGroup" stroke-linecap="round" fill-rule="evenodd" font-size="9pt" stroke="#000" stroke-width="0.25mm" fill="none" style="stroke:#000;stroke-width:0.25mm;fill:none"><path d="M 0 61.75 L 18 61.75 L 18 79.75 L 0 79.75 L 0 61.75 Z M 0 42.75 L 18 42.75 L 18 60.75 L 0 60.75 L 0 42.75 Z M 0 23.75 L 18 23.75 L 18 41.75 L 0 41.75 L 0 23.75 Z M 19 42.75 L 37 42.75 L 37 60.75 L 19 60.75 L 19 42.75 Z M 19 23.75 L 37 23.75 L 37 41.75 L 19 41.75 L 19 23.75 Z M 19 4.75 L 37 4.75 L 37 22.75 L 19 22.75 L 19 4.75 Z M 38 38 L 56 38 L 56 56 L 38 56 L 38 38 Z M 38 19 L 56 19 L 56 37 L 38 37 L 38 19 Z M 38 0 L 56 0 L 56 18 L 38 18 L 38 0 Z M 57 47.5 L 75 47.5 L 75 65.5 L 57 65.5 L 57 47.5 Z M 57 28.5 L 75 28.5 L 75 46.5 L 57 46.5 L 57 28.5 Z M 57 9.5 L 75 9.5 L 75 27.5 L 57 27.5 L 57 9.5 Z M 76 52.25 L 94 52.25 L 94 70.25 L 76 70.25 L 76 52.25 Z M 76 33.25 L 94 33.25 L 94 51.25 L 76 51.25 L 76 33.25 Z M 76 14.25 L 94 14.25 L 94 32.25 L 76 32.25 L 76 14.25 Z M 57 71.25 L 75 71.25 L 75 89.25 L 57 89.25 L 57 71.25 Z M 97 14.5 L 115 14.5 L 115 32.5 L 97 32.5 L 97 14.5 Z M 105.706 79.831 L 121.294 88.831 L 112.294 104.419 L 96.706 95.419 L 105.706 79.831 Z M 81.636 71.602 L 99.023 76.261 L 94.364 93.648 L 76.977 88.989 L 81.636 71.602 Z" vector-effect="non-scaling-stroke"/></g></svg>