%TF.GenerationSoftware,KiCad,Pcbnew,9.0.7*%
%TF.CreationDate,2026-01-26T01:07:57-05:00*%
%TF.ProjectId,v3,76332e6b-6963-4616-945f-706362585858,rev?*%
%TF.SameCoordinates,Original*%
%TF.FileFunction,Legend,Bot*%
%TF.FilePolarity,Positive*%
%FSLAX46Y46*%
G04 Gerber Fmt 4.6, Leading zero omitted, Abs format (unit mm)*
G04 Created by KiCad (PCBNEW 9.0.7) date 2026-01-26 01:07:57*
%MOMM*%
%LPD*%
G01*
G04 APERTURE LIST*
%ADD10C,0.150000*%
%ADD11C,0.100000*%
%ADD12C,0.120000*%
G04 APERTURE END LIST*
D10*
X190398094Y-66194819D02*
X190398094Y-65194819D01*
X190398094Y-65194819D02*
X190017142Y-65194819D01*
X190017142Y-65194819D02*
X189921904Y-65242438D01*
X189921904Y-65242438D02*
X189874285Y-65290057D01*
X189874285Y-65290057D02*
X189826666Y-65385295D01*
X189826666Y-65385295D02*
X189826666Y-65528152D01*
X189826666Y-65528152D02*
X189874285Y-65623390D01*
X189874285Y-65623390D02*
X189921904Y-65671009D01*
X189921904Y-65671009D02*
X190017142Y-65718628D01*
X190017142Y-65718628D02*
X190398094Y-65718628D01*
X189207618Y-65194819D02*
X189112380Y-65194819D01*
X189112380Y-65194819D02*
X189017142Y-65242438D01*
X189017142Y-65242438D02*
X188969523Y-65290057D01*
X188969523Y-65290057D02*
X188921904Y-65385295D01*
X188921904Y-65385295D02*
X188874285Y-65575771D01*
X188874285Y-65575771D02*
X188874285Y-65813866D01*
X188874285Y-65813866D02*
X188921904Y-66004342D01*
X188921904Y-66004342D02*
X188969523Y-66099580D01*
X188969523Y-66099580D02*
X189017142Y-66147200D01*
X189017142Y-66147200D02*
X189112380Y-66194819D01*
X189112380Y-66194819D02*
X189207618Y-66194819D01*
X189207618Y-66194819D02*
X189302856Y-66147200D01*
X189302856Y-66147200D02*
X189350475Y-66099580D01*
X189350475Y-66099580D02*
X189398094Y-66004342D01*
X189398094Y-66004342D02*
X189445713Y-65813866D01*
X189445713Y-65813866D02*
X189445713Y-65575771D01*
X189445713Y-65575771D02*
X189398094Y-65385295D01*
X189398094Y-65385295D02*
X189350475Y-65290057D01*
X189350475Y-65290057D02*
X189302856Y-65242438D01*
X189302856Y-65242438D02*
X189207618Y-65194819D01*
X188134761Y-89054819D02*
X188134761Y-88388152D01*
X188134761Y-88054819D02*
X188182380Y-88102438D01*
X188182380Y-88102438D02*
X188134761Y-88150057D01*
X188134761Y-88150057D02*
X188087142Y-88102438D01*
X188087142Y-88102438D02*
X188134761Y-88054819D01*
X188134761Y-88054819D02*
X188134761Y-88150057D01*
X187658571Y-88388152D02*
X187658571Y-89054819D01*
X187658571Y-88483390D02*
X187610952Y-88435771D01*
X187610952Y-88435771D02*
X187515714Y-88388152D01*
X187515714Y-88388152D02*
X187372857Y-88388152D01*
X187372857Y-88388152D02*
X187277619Y-88435771D01*
X187277619Y-88435771D02*
X187230000Y-88531009D01*
X187230000Y-88531009D02*
X187230000Y-89054819D01*
X186753809Y-88388152D02*
X186753809Y-89054819D01*
X186753809Y-88483390D02*
X186706190Y-88435771D01*
X186706190Y-88435771D02*
X186610952Y-88388152D01*
X186610952Y-88388152D02*
X186468095Y-88388152D01*
X186468095Y-88388152D02*
X186372857Y-88435771D01*
X186372857Y-88435771D02*
X186325238Y-88531009D01*
X186325238Y-88531009D02*
X186325238Y-89054819D01*
X193911904Y-65242438D02*
X194007142Y-65194819D01*
X194007142Y-65194819D02*
X194149999Y-65194819D01*
X194149999Y-65194819D02*
X194292856Y-65242438D01*
X194292856Y-65242438D02*
X194388094Y-65337676D01*
X194388094Y-65337676D02*
X194435713Y-65432914D01*
X194435713Y-65432914D02*
X194483332Y-65623390D01*
X194483332Y-65623390D02*
X194483332Y-65766247D01*
X194483332Y-65766247D02*
X194435713Y-65956723D01*
X194435713Y-65956723D02*
X194388094Y-66051961D01*
X194388094Y-66051961D02*
X194292856Y-66147200D01*
X194292856Y-66147200D02*
X194149999Y-66194819D01*
X194149999Y-66194819D02*
X194054761Y-66194819D01*
X194054761Y-66194819D02*
X193911904Y-66147200D01*
X193911904Y-66147200D02*
X193864285Y-66099580D01*
X193864285Y-66099580D02*
X193864285Y-65766247D01*
X193864285Y-65766247D02*
X194054761Y-65766247D01*
X193435713Y-66194819D02*
X193435713Y-65194819D01*
X193435713Y-65194819D02*
X192864285Y-66194819D01*
X192864285Y-66194819D02*
X192864285Y-65194819D01*
X192388094Y-66194819D02*
X192388094Y-65194819D01*
X192388094Y-65194819D02*
X192149999Y-65194819D01*
X192149999Y-65194819D02*
X192007142Y-65242438D01*
X192007142Y-65242438D02*
X191911904Y-65337676D01*
X191911904Y-65337676D02*
X191864285Y-65432914D01*
X191864285Y-65432914D02*
X191816666Y-65623390D01*
X191816666Y-65623390D02*
X191816666Y-65766247D01*
X191816666Y-65766247D02*
X191864285Y-65956723D01*
X191864285Y-65956723D02*
X191911904Y-66051961D01*
X191911904Y-66051961D02*
X192007142Y-66147200D01*
X192007142Y-66147200D02*
X192149999Y-66194819D01*
X192149999Y-66194819D02*
X192388094Y-66194819D01*
X187896666Y-78894819D02*
X187896666Y-77894819D01*
X187468095Y-78894819D02*
X187468095Y-78371009D01*
X187468095Y-78371009D02*
X187515714Y-78275771D01*
X187515714Y-78275771D02*
X187610952Y-78228152D01*
X187610952Y-78228152D02*
X187753809Y-78228152D01*
X187753809Y-78228152D02*
X187849047Y-78275771D01*
X187849047Y-78275771D02*
X187896666Y-78323390D01*
X186849047Y-78894819D02*
X186944285Y-78847200D01*
X186944285Y-78847200D02*
X186991904Y-78799580D01*
X186991904Y-78799580D02*
X187039523Y-78704342D01*
X187039523Y-78704342D02*
X187039523Y-78418628D01*
X187039523Y-78418628D02*
X186991904Y-78323390D01*
X186991904Y-78323390D02*
X186944285Y-78275771D01*
X186944285Y-78275771D02*
X186849047Y-78228152D01*
X186849047Y-78228152D02*
X186706190Y-78228152D01*
X186706190Y-78228152D02*
X186610952Y-78275771D01*
X186610952Y-78275771D02*
X186563333Y-78323390D01*
X186563333Y-78323390D02*
X186515714Y-78418628D01*
X186515714Y-78418628D02*
X186515714Y-78704342D01*
X186515714Y-78704342D02*
X186563333Y-78799580D01*
X186563333Y-78799580D02*
X186610952Y-78847200D01*
X186610952Y-78847200D02*
X186706190Y-78894819D01*
X186706190Y-78894819D02*
X186849047Y-78894819D01*
X193697619Y-68734819D02*
X194030952Y-68258628D01*
X194269047Y-68734819D02*
X194269047Y-67734819D01*
X194269047Y-67734819D02*
X193888095Y-67734819D01*
X193888095Y-67734819D02*
X193792857Y-67782438D01*
X193792857Y-67782438D02*
X193745238Y-67830057D01*
X193745238Y-67830057D02*
X193697619Y-67925295D01*
X193697619Y-67925295D02*
X193697619Y-68068152D01*
X193697619Y-68068152D02*
X193745238Y-68163390D01*
X193745238Y-68163390D02*
X193792857Y-68211009D01*
X193792857Y-68211009D02*
X193888095Y-68258628D01*
X193888095Y-68258628D02*
X194269047Y-68258628D01*
X193316666Y-68687200D02*
X193173809Y-68734819D01*
X193173809Y-68734819D02*
X192935714Y-68734819D01*
X192935714Y-68734819D02*
X192840476Y-68687200D01*
X192840476Y-68687200D02*
X192792857Y-68639580D01*
X192792857Y-68639580D02*
X192745238Y-68544342D01*
X192745238Y-68544342D02*
X192745238Y-68449104D01*
X192745238Y-68449104D02*
X192792857Y-68353866D01*
X192792857Y-68353866D02*
X192840476Y-68306247D01*
X192840476Y-68306247D02*
X192935714Y-68258628D01*
X192935714Y-68258628D02*
X193126190Y-68211009D01*
X193126190Y-68211009D02*
X193221428Y-68163390D01*
X193221428Y-68163390D02*
X193269047Y-68115771D01*
X193269047Y-68115771D02*
X193316666Y-68020533D01*
X193316666Y-68020533D02*
X193316666Y-67925295D01*
X193316666Y-67925295D02*
X193269047Y-67830057D01*
X193269047Y-67830057D02*
X193221428Y-67782438D01*
X193221428Y-67782438D02*
X193126190Y-67734819D01*
X193126190Y-67734819D02*
X192888095Y-67734819D01*
X192888095Y-67734819D02*
X192745238Y-67782438D01*
X192459523Y-67734819D02*
X191888095Y-67734819D01*
X192173809Y-68734819D02*
X192173809Y-67734819D01*
X196836665Y-83974819D02*
X196836665Y-83308152D01*
X196836665Y-83403390D02*
X196789046Y-83355771D01*
X196789046Y-83355771D02*
X196693808Y-83308152D01*
X196693808Y-83308152D02*
X196550951Y-83308152D01*
X196550951Y-83308152D02*
X196455713Y-83355771D01*
X196455713Y-83355771D02*
X196408094Y-83451009D01*
X196408094Y-83451009D02*
X196408094Y-83974819D01*
X196408094Y-83451009D02*
X196360475Y-83355771D01*
X196360475Y-83355771D02*
X196265237Y-83308152D01*
X196265237Y-83308152D02*
X196122380Y-83308152D01*
X196122380Y-83308152D02*
X196027141Y-83355771D01*
X196027141Y-83355771D02*
X195979522Y-83451009D01*
X195979522Y-83451009D02*
X195979522Y-83974819D01*
X195503332Y-83974819D02*
X195503332Y-83308152D01*
X195503332Y-82974819D02*
X195550951Y-83022438D01*
X195550951Y-83022438D02*
X195503332Y-83070057D01*
X195503332Y-83070057D02*
X195455713Y-83022438D01*
X195455713Y-83022438D02*
X195503332Y-82974819D01*
X195503332Y-82974819D02*
X195503332Y-83070057D01*
X187920475Y-83974819D02*
X187920475Y-82974819D01*
X187920475Y-82974819D02*
X187682380Y-82974819D01*
X187682380Y-82974819D02*
X187539523Y-83022438D01*
X187539523Y-83022438D02*
X187444285Y-83117676D01*
X187444285Y-83117676D02*
X187396666Y-83212914D01*
X187396666Y-83212914D02*
X187349047Y-83403390D01*
X187349047Y-83403390D02*
X187349047Y-83546247D01*
X187349047Y-83546247D02*
X187396666Y-83736723D01*
X187396666Y-83736723D02*
X187444285Y-83831961D01*
X187444285Y-83831961D02*
X187539523Y-83927200D01*
X187539523Y-83927200D02*
X187682380Y-83974819D01*
X187682380Y-83974819D02*
X187920475Y-83974819D01*
X186968094Y-83689104D02*
X186491904Y-83689104D01*
X187063332Y-83974819D02*
X186729999Y-82974819D01*
X186729999Y-82974819D02*
X186396666Y-83974819D01*
X188134761Y-73148152D02*
X188134761Y-74148152D01*
X188134761Y-73195771D02*
X188039523Y-73148152D01*
X188039523Y-73148152D02*
X187849047Y-73148152D01*
X187849047Y-73148152D02*
X187753809Y-73195771D01*
X187753809Y-73195771D02*
X187706190Y-73243390D01*
X187706190Y-73243390D02*
X187658571Y-73338628D01*
X187658571Y-73338628D02*
X187658571Y-73624342D01*
X187658571Y-73624342D02*
X187706190Y-73719580D01*
X187706190Y-73719580D02*
X187753809Y-73767200D01*
X187753809Y-73767200D02*
X187849047Y-73814819D01*
X187849047Y-73814819D02*
X188039523Y-73814819D01*
X188039523Y-73814819D02*
X188134761Y-73767200D01*
X187229999Y-73814819D02*
X187229999Y-73148152D01*
X187229999Y-72814819D02*
X187277618Y-72862438D01*
X187277618Y-72862438D02*
X187229999Y-72910057D01*
X187229999Y-72910057D02*
X187182380Y-72862438D01*
X187182380Y-72862438D02*
X187229999Y-72814819D01*
X187229999Y-72814819D02*
X187229999Y-72910057D01*
X186753809Y-73148152D02*
X186753809Y-73814819D01*
X186753809Y-73243390D02*
X186706190Y-73195771D01*
X186706190Y-73195771D02*
X186610952Y-73148152D01*
X186610952Y-73148152D02*
X186468095Y-73148152D01*
X186468095Y-73148152D02*
X186372857Y-73195771D01*
X186372857Y-73195771D02*
X186325238Y-73291009D01*
X186325238Y-73291009D02*
X186325238Y-73814819D01*
X199842858Y-61109819D02*
X200319048Y-61109819D01*
X200319048Y-61109819D02*
X200319048Y-60109819D01*
X198747619Y-61109819D02*
X198747619Y-60109819D01*
X198319048Y-61109819D02*
X198319048Y-60586009D01*
X198319048Y-60586009D02*
X198366667Y-60490771D01*
X198366667Y-60490771D02*
X198461905Y-60443152D01*
X198461905Y-60443152D02*
X198604762Y-60443152D01*
X198604762Y-60443152D02*
X198700000Y-60490771D01*
X198700000Y-60490771D02*
X198747619Y-60538390D01*
X197414286Y-61109819D02*
X197414286Y-60586009D01*
X197414286Y-60586009D02*
X197461905Y-60490771D01*
X197461905Y-60490771D02*
X197557143Y-60443152D01*
X197557143Y-60443152D02*
X197747619Y-60443152D01*
X197747619Y-60443152D02*
X197842857Y-60490771D01*
X197414286Y-61062200D02*
X197509524Y-61109819D01*
X197509524Y-61109819D02*
X197747619Y-61109819D01*
X197747619Y-61109819D02*
X197842857Y-61062200D01*
X197842857Y-61062200D02*
X197890476Y-60966961D01*
X197890476Y-60966961D02*
X197890476Y-60871723D01*
X197890476Y-60871723D02*
X197842857Y-60776485D01*
X197842857Y-60776485D02*
X197747619Y-60728866D01*
X197747619Y-60728866D02*
X197509524Y-60728866D01*
X197509524Y-60728866D02*
X197414286Y-60681247D01*
X196938095Y-60443152D02*
X196938095Y-61109819D01*
X196938095Y-60538390D02*
X196890476Y-60490771D01*
X196890476Y-60490771D02*
X196795238Y-60443152D01*
X196795238Y-60443152D02*
X196652381Y-60443152D01*
X196652381Y-60443152D02*
X196557143Y-60490771D01*
X196557143Y-60490771D02*
X196509524Y-60586009D01*
X196509524Y-60586009D02*
X196509524Y-61109819D01*
X195604762Y-61109819D02*
X195604762Y-60109819D01*
X195604762Y-61062200D02*
X195700000Y-61109819D01*
X195700000Y-61109819D02*
X195890476Y-61109819D01*
X195890476Y-61109819D02*
X195985714Y-61062200D01*
X195985714Y-61062200D02*
X196033333Y-61014580D01*
X196033333Y-61014580D02*
X196080952Y-60919342D01*
X196080952Y-60919342D02*
X196080952Y-60633628D01*
X196080952Y-60633628D02*
X196033333Y-60538390D01*
X196033333Y-60538390D02*
X195985714Y-60490771D01*
X195985714Y-60490771D02*
X195890476Y-60443152D01*
X195890476Y-60443152D02*
X195700000Y-60443152D01*
X195700000Y-60443152D02*
X195604762Y-60490771D01*
X194366666Y-61109819D02*
X194366666Y-60109819D01*
X194366666Y-60490771D02*
X194271428Y-60443152D01*
X194271428Y-60443152D02*
X194080952Y-60443152D01*
X194080952Y-60443152D02*
X193985714Y-60490771D01*
X193985714Y-60490771D02*
X193938095Y-60538390D01*
X193938095Y-60538390D02*
X193890476Y-60633628D01*
X193890476Y-60633628D02*
X193890476Y-60919342D01*
X193890476Y-60919342D02*
X193938095Y-61014580D01*
X193938095Y-61014580D02*
X193985714Y-61062200D01*
X193985714Y-61062200D02*
X194080952Y-61109819D01*
X194080952Y-61109819D02*
X194271428Y-61109819D01*
X194271428Y-61109819D02*
X194366666Y-61062200D01*
X193033333Y-61109819D02*
X193033333Y-60586009D01*
X193033333Y-60586009D02*
X193080952Y-60490771D01*
X193080952Y-60490771D02*
X193176190Y-60443152D01*
X193176190Y-60443152D02*
X193366666Y-60443152D01*
X193366666Y-60443152D02*
X193461904Y-60490771D01*
X193033333Y-61062200D02*
X193128571Y-61109819D01*
X193128571Y-61109819D02*
X193366666Y-61109819D01*
X193366666Y-61109819D02*
X193461904Y-61062200D01*
X193461904Y-61062200D02*
X193509523Y-60966961D01*
X193509523Y-60966961D02*
X193509523Y-60871723D01*
X193509523Y-60871723D02*
X193461904Y-60776485D01*
X193461904Y-60776485D02*
X193366666Y-60728866D01*
X193366666Y-60728866D02*
X193128571Y-60728866D01*
X193128571Y-60728866D02*
X193033333Y-60681247D01*
X192128571Y-61062200D02*
X192223809Y-61109819D01*
X192223809Y-61109819D02*
X192414285Y-61109819D01*
X192414285Y-61109819D02*
X192509523Y-61062200D01*
X192509523Y-61062200D02*
X192557142Y-61014580D01*
X192557142Y-61014580D02*
X192604761Y-60919342D01*
X192604761Y-60919342D02*
X192604761Y-60633628D01*
X192604761Y-60633628D02*
X192557142Y-60538390D01*
X192557142Y-60538390D02*
X192509523Y-60490771D01*
X192509523Y-60490771D02*
X192414285Y-60443152D01*
X192414285Y-60443152D02*
X192223809Y-60443152D01*
X192223809Y-60443152D02*
X192128571Y-60490771D01*
X191699999Y-61109819D02*
X191699999Y-60109819D01*
X191604761Y-60728866D02*
X191319047Y-61109819D01*
X191319047Y-60443152D02*
X191699999Y-60824104D01*
X190176189Y-61062200D02*
X190080951Y-61109819D01*
X190080951Y-61109819D02*
X189890475Y-61109819D01*
X189890475Y-61109819D02*
X189795237Y-61062200D01*
X189795237Y-61062200D02*
X189747618Y-60966961D01*
X189747618Y-60966961D02*
X189747618Y-60919342D01*
X189747618Y-60919342D02*
X189795237Y-60824104D01*
X189795237Y-60824104D02*
X189890475Y-60776485D01*
X189890475Y-60776485D02*
X190033332Y-60776485D01*
X190033332Y-60776485D02*
X190128570Y-60728866D01*
X190128570Y-60728866D02*
X190176189Y-60633628D01*
X190176189Y-60633628D02*
X190176189Y-60586009D01*
X190176189Y-60586009D02*
X190128570Y-60490771D01*
X190128570Y-60490771D02*
X190033332Y-60443152D01*
X190033332Y-60443152D02*
X189890475Y-60443152D01*
X189890475Y-60443152D02*
X189795237Y-60490771D01*
X189319046Y-61109819D02*
X189319046Y-60443152D01*
X189319046Y-60109819D02*
X189366665Y-60157438D01*
X189366665Y-60157438D02*
X189319046Y-60205057D01*
X189319046Y-60205057D02*
X189271427Y-60157438D01*
X189271427Y-60157438D02*
X189319046Y-60109819D01*
X189319046Y-60109819D02*
X189319046Y-60205057D01*
X188414285Y-61109819D02*
X188414285Y-60109819D01*
X188414285Y-61062200D02*
X188509523Y-61109819D01*
X188509523Y-61109819D02*
X188699999Y-61109819D01*
X188699999Y-61109819D02*
X188795237Y-61062200D01*
X188795237Y-61062200D02*
X188842856Y-61014580D01*
X188842856Y-61014580D02*
X188890475Y-60919342D01*
X188890475Y-60919342D02*
X188890475Y-60633628D01*
X188890475Y-60633628D02*
X188842856Y-60538390D01*
X188842856Y-60538390D02*
X188795237Y-60490771D01*
X188795237Y-60490771D02*
X188699999Y-60443152D01*
X188699999Y-60443152D02*
X188509523Y-60443152D01*
X188509523Y-60443152D02*
X188414285Y-60490771D01*
X187557142Y-61062200D02*
X187652380Y-61109819D01*
X187652380Y-61109819D02*
X187842856Y-61109819D01*
X187842856Y-61109819D02*
X187938094Y-61062200D01*
X187938094Y-61062200D02*
X187985713Y-60966961D01*
X187985713Y-60966961D02*
X187985713Y-60586009D01*
X187985713Y-60586009D02*
X187938094Y-60490771D01*
X187938094Y-60490771D02*
X187842856Y-60443152D01*
X187842856Y-60443152D02*
X187652380Y-60443152D01*
X187652380Y-60443152D02*
X187557142Y-60490771D01*
X187557142Y-60490771D02*
X187509523Y-60586009D01*
X187509523Y-60586009D02*
X187509523Y-60681247D01*
X187509523Y-60681247D02*
X187985713Y-60776485D01*
X186033332Y-61490771D02*
X186080951Y-61443152D01*
X186080951Y-61443152D02*
X186176189Y-61300295D01*
X186176189Y-61300295D02*
X186223808Y-61205057D01*
X186223808Y-61205057D02*
X186271427Y-61062200D01*
X186271427Y-61062200D02*
X186319046Y-60824104D01*
X186319046Y-60824104D02*
X186319046Y-60633628D01*
X186319046Y-60633628D02*
X186271427Y-60395533D01*
X186271427Y-60395533D02*
X186223808Y-60252676D01*
X186223808Y-60252676D02*
X186176189Y-60157438D01*
X186176189Y-60157438D02*
X186080951Y-60014580D01*
X186080951Y-60014580D02*
X186033332Y-59966961D01*
X185652379Y-61109819D02*
X185652379Y-60109819D01*
X185652379Y-60109819D02*
X185319046Y-60824104D01*
X185319046Y-60824104D02*
X184985713Y-60109819D01*
X184985713Y-60109819D02*
X184985713Y-61109819D01*
X184128570Y-61109819D02*
X184128570Y-60347914D01*
X184319046Y-60538390D02*
X184128570Y-60347914D01*
X184128570Y-60347914D02*
X183938094Y-60538390D01*
X183366665Y-61490771D02*
X183319046Y-61443152D01*
X183319046Y-61443152D02*
X183223808Y-61300295D01*
X183223808Y-61300295D02*
X183176189Y-61205057D01*
X183176189Y-61205057D02*
X183128570Y-61062200D01*
X183128570Y-61062200D02*
X183080951Y-60824104D01*
X183080951Y-60824104D02*
X183080951Y-60633628D01*
X183080951Y-60633628D02*
X183128570Y-60395533D01*
X183128570Y-60395533D02*
X183176189Y-60252676D01*
X183176189Y-60252676D02*
X183223808Y-60157438D01*
X183223808Y-60157438D02*
X183319046Y-60014580D01*
X183319046Y-60014580D02*
X183366665Y-59966961D01*
X196812856Y-90928152D02*
X196431904Y-90928152D01*
X196669999Y-90594819D02*
X196669999Y-91451961D01*
X196669999Y-91451961D02*
X196622380Y-91547200D01*
X196622380Y-91547200D02*
X196527142Y-91594819D01*
X196527142Y-91594819D02*
X196431904Y-91594819D01*
X196098570Y-91594819D02*
X196098570Y-90594819D01*
X195669999Y-91594819D02*
X195669999Y-91071009D01*
X195669999Y-91071009D02*
X195717618Y-90975771D01*
X195717618Y-90975771D02*
X195812856Y-90928152D01*
X195812856Y-90928152D02*
X195955713Y-90928152D01*
X195955713Y-90928152D02*
X196050951Y-90975771D01*
X196050951Y-90975771D02*
X196098570Y-91023390D01*
X191011904Y-70322438D02*
X191107142Y-70274819D01*
X191107142Y-70274819D02*
X191249999Y-70274819D01*
X191249999Y-70274819D02*
X191392856Y-70322438D01*
X191392856Y-70322438D02*
X191488094Y-70417676D01*
X191488094Y-70417676D02*
X191535713Y-70512914D01*
X191535713Y-70512914D02*
X191583332Y-70703390D01*
X191583332Y-70703390D02*
X191583332Y-70846247D01*
X191583332Y-70846247D02*
X191535713Y-71036723D01*
X191535713Y-71036723D02*
X191488094Y-71131961D01*
X191488094Y-71131961D02*
X191392856Y-71227200D01*
X191392856Y-71227200D02*
X191249999Y-71274819D01*
X191249999Y-71274819D02*
X191154761Y-71274819D01*
X191154761Y-71274819D02*
X191011904Y-71227200D01*
X191011904Y-71227200D02*
X190964285Y-71179580D01*
X190964285Y-71179580D02*
X190964285Y-70846247D01*
X190964285Y-70846247D02*
X191154761Y-70846247D01*
X190535713Y-71274819D02*
X190535713Y-70274819D01*
X190535713Y-70274819D02*
X189964285Y-71274819D01*
X189964285Y-71274819D02*
X189964285Y-70274819D01*
X189488094Y-71274819D02*
X189488094Y-70274819D01*
X189488094Y-70274819D02*
X189249999Y-70274819D01*
X189249999Y-70274819D02*
X189107142Y-70322438D01*
X189107142Y-70322438D02*
X189011904Y-70417676D01*
X189011904Y-70417676D02*
X188964285Y-70512914D01*
X188964285Y-70512914D02*
X188916666Y-70703390D01*
X188916666Y-70703390D02*
X188916666Y-70846247D01*
X188916666Y-70846247D02*
X188964285Y-71036723D01*
X188964285Y-71036723D02*
X189011904Y-71131961D01*
X189011904Y-71131961D02*
X189107142Y-71227200D01*
X189107142Y-71227200D02*
X189249999Y-71274819D01*
X189249999Y-71274819D02*
X189488094Y-71274819D01*
X193840476Y-63654819D02*
X194173809Y-63178628D01*
X194411904Y-63654819D02*
X194411904Y-62654819D01*
X194411904Y-62654819D02*
X194030952Y-62654819D01*
X194030952Y-62654819D02*
X193935714Y-62702438D01*
X193935714Y-62702438D02*
X193888095Y-62750057D01*
X193888095Y-62750057D02*
X193840476Y-62845295D01*
X193840476Y-62845295D02*
X193840476Y-62988152D01*
X193840476Y-62988152D02*
X193888095Y-63083390D01*
X193888095Y-63083390D02*
X193935714Y-63131009D01*
X193935714Y-63131009D02*
X194030952Y-63178628D01*
X194030952Y-63178628D02*
X194411904Y-63178628D01*
X193459523Y-63369104D02*
X192983333Y-63369104D01*
X193554761Y-63654819D02*
X193221428Y-62654819D01*
X193221428Y-62654819D02*
X192888095Y-63654819D01*
X192649999Y-62654819D02*
X192411904Y-63654819D01*
X192411904Y-63654819D02*
X192221428Y-62940533D01*
X192221428Y-62940533D02*
X192030952Y-63654819D01*
X192030952Y-63654819D02*
X191792857Y-62654819D01*
X191011904Y-67782438D02*
X191107142Y-67734819D01*
X191107142Y-67734819D02*
X191249999Y-67734819D01*
X191249999Y-67734819D02*
X191392856Y-67782438D01*
X191392856Y-67782438D02*
X191488094Y-67877676D01*
X191488094Y-67877676D02*
X191535713Y-67972914D01*
X191535713Y-67972914D02*
X191583332Y-68163390D01*
X191583332Y-68163390D02*
X191583332Y-68306247D01*
X191583332Y-68306247D02*
X191535713Y-68496723D01*
X191535713Y-68496723D02*
X191488094Y-68591961D01*
X191488094Y-68591961D02*
X191392856Y-68687200D01*
X191392856Y-68687200D02*
X191249999Y-68734819D01*
X191249999Y-68734819D02*
X191154761Y-68734819D01*
X191154761Y-68734819D02*
X191011904Y-68687200D01*
X191011904Y-68687200D02*
X190964285Y-68639580D01*
X190964285Y-68639580D02*
X190964285Y-68306247D01*
X190964285Y-68306247D02*
X191154761Y-68306247D01*
X190535713Y-68734819D02*
X190535713Y-67734819D01*
X190535713Y-67734819D02*
X189964285Y-68734819D01*
X189964285Y-68734819D02*
X189964285Y-67734819D01*
X189488094Y-68734819D02*
X189488094Y-67734819D01*
X189488094Y-67734819D02*
X189249999Y-67734819D01*
X189249999Y-67734819D02*
X189107142Y-67782438D01*
X189107142Y-67782438D02*
X189011904Y-67877676D01*
X189011904Y-67877676D02*
X188964285Y-67972914D01*
X188964285Y-67972914D02*
X188916666Y-68163390D01*
X188916666Y-68163390D02*
X188916666Y-68306247D01*
X188916666Y-68306247D02*
X188964285Y-68496723D01*
X188964285Y-68496723D02*
X189011904Y-68591961D01*
X189011904Y-68591961D02*
X189107142Y-68687200D01*
X189107142Y-68687200D02*
X189249999Y-68734819D01*
X189249999Y-68734819D02*
X189488094Y-68734819D01*
X190398094Y-63654819D02*
X190398094Y-62654819D01*
X190398094Y-62654819D02*
X190017142Y-62654819D01*
X190017142Y-62654819D02*
X189921904Y-62702438D01*
X189921904Y-62702438D02*
X189874285Y-62750057D01*
X189874285Y-62750057D02*
X189826666Y-62845295D01*
X189826666Y-62845295D02*
X189826666Y-62988152D01*
X189826666Y-62988152D02*
X189874285Y-63083390D01*
X189874285Y-63083390D02*
X189921904Y-63131009D01*
X189921904Y-63131009D02*
X190017142Y-63178628D01*
X190017142Y-63178628D02*
X190398094Y-63178628D01*
X188874285Y-63654819D02*
X189445713Y-63654819D01*
X189159999Y-63654819D02*
X189159999Y-62654819D01*
X189159999Y-62654819D02*
X189255237Y-62797676D01*
X189255237Y-62797676D02*
X189350475Y-62892914D01*
X189350475Y-62892914D02*
X189445713Y-62940533D01*
X187896666Y-81434819D02*
X187896666Y-80434819D01*
X187896666Y-80815771D02*
X187801428Y-80768152D01*
X187801428Y-80768152D02*
X187610952Y-80768152D01*
X187610952Y-80768152D02*
X187515714Y-80815771D01*
X187515714Y-80815771D02*
X187468095Y-80863390D01*
X187468095Y-80863390D02*
X187420476Y-80958628D01*
X187420476Y-80958628D02*
X187420476Y-81244342D01*
X187420476Y-81244342D02*
X187468095Y-81339580D01*
X187468095Y-81339580D02*
X187515714Y-81387200D01*
X187515714Y-81387200D02*
X187610952Y-81434819D01*
X187610952Y-81434819D02*
X187801428Y-81434819D01*
X187801428Y-81434819D02*
X187896666Y-81387200D01*
X186849047Y-81434819D02*
X186944285Y-81387200D01*
X186944285Y-81387200D02*
X186991904Y-81339580D01*
X186991904Y-81339580D02*
X187039523Y-81244342D01*
X187039523Y-81244342D02*
X187039523Y-80958628D01*
X187039523Y-80958628D02*
X186991904Y-80863390D01*
X186991904Y-80863390D02*
X186944285Y-80815771D01*
X186944285Y-80815771D02*
X186849047Y-80768152D01*
X186849047Y-80768152D02*
X186706190Y-80768152D01*
X186706190Y-80768152D02*
X186610952Y-80815771D01*
X186610952Y-80815771D02*
X186563333Y-80863390D01*
X186563333Y-80863390D02*
X186515714Y-80958628D01*
X186515714Y-80958628D02*
X186515714Y-81244342D01*
X186515714Y-81244342D02*
X186563333Y-81339580D01*
X186563333Y-81339580D02*
X186610952Y-81387200D01*
X186610952Y-81387200D02*
X186706190Y-81434819D01*
X186706190Y-81434819D02*
X186849047Y-81434819D01*
X187872856Y-75688152D02*
X187491904Y-75688152D01*
X187729999Y-75354819D02*
X187729999Y-76211961D01*
X187729999Y-76211961D02*
X187682380Y-76307200D01*
X187682380Y-76307200D02*
X187587142Y-76354819D01*
X187587142Y-76354819D02*
X187491904Y-76354819D01*
X187015713Y-76354819D02*
X187110951Y-76307200D01*
X187110951Y-76307200D02*
X187158570Y-76259580D01*
X187158570Y-76259580D02*
X187206189Y-76164342D01*
X187206189Y-76164342D02*
X187206189Y-75878628D01*
X187206189Y-75878628D02*
X187158570Y-75783390D01*
X187158570Y-75783390D02*
X187110951Y-75735771D01*
X187110951Y-75735771D02*
X187015713Y-75688152D01*
X187015713Y-75688152D02*
X186872856Y-75688152D01*
X186872856Y-75688152D02*
X186777618Y-75735771D01*
X186777618Y-75735771D02*
X186729999Y-75783390D01*
X186729999Y-75783390D02*
X186682380Y-75878628D01*
X186682380Y-75878628D02*
X186682380Y-76164342D01*
X186682380Y-76164342D02*
X186729999Y-76259580D01*
X186729999Y-76259580D02*
X186777618Y-76307200D01*
X186777618Y-76307200D02*
X186872856Y-76354819D01*
X186872856Y-76354819D02*
X187015713Y-76354819D01*
X188182380Y-90928152D02*
X187801428Y-90928152D01*
X188039523Y-91594819D02*
X188039523Y-90737676D01*
X188039523Y-90737676D02*
X187991904Y-90642438D01*
X187991904Y-90642438D02*
X187896666Y-90594819D01*
X187896666Y-90594819D02*
X187801428Y-90594819D01*
X187039523Y-91594819D02*
X187039523Y-91071009D01*
X187039523Y-91071009D02*
X187087142Y-90975771D01*
X187087142Y-90975771D02*
X187182380Y-90928152D01*
X187182380Y-90928152D02*
X187372856Y-90928152D01*
X187372856Y-90928152D02*
X187468094Y-90975771D01*
X187039523Y-91547200D02*
X187134761Y-91594819D01*
X187134761Y-91594819D02*
X187372856Y-91594819D01*
X187372856Y-91594819D02*
X187468094Y-91547200D01*
X187468094Y-91547200D02*
X187515713Y-91451961D01*
X187515713Y-91451961D02*
X187515713Y-91356723D01*
X187515713Y-91356723D02*
X187468094Y-91261485D01*
X187468094Y-91261485D02*
X187372856Y-91213866D01*
X187372856Y-91213866D02*
X187134761Y-91213866D01*
X187134761Y-91213866D02*
X187039523Y-91166247D01*
X186563332Y-91594819D02*
X186563332Y-90928152D01*
X186563332Y-91118628D02*
X186515713Y-91023390D01*
X186515713Y-91023390D02*
X186468094Y-90975771D01*
X186468094Y-90975771D02*
X186372856Y-90928152D01*
X186372856Y-90928152D02*
X186277618Y-90928152D01*
X196479523Y-81434819D02*
X196479523Y-80768152D01*
X196479523Y-80958628D02*
X196431904Y-80863390D01*
X196431904Y-80863390D02*
X196384285Y-80815771D01*
X196384285Y-80815771D02*
X196289047Y-80768152D01*
X196289047Y-80768152D02*
X196193809Y-80768152D01*
X195860475Y-81434819D02*
X195860475Y-80768152D01*
X195860475Y-80434819D02*
X195908094Y-80482438D01*
X195908094Y-80482438D02*
X195860475Y-80530057D01*
X195860475Y-80530057D02*
X195812856Y-80482438D01*
X195812856Y-80482438D02*
X195860475Y-80434819D01*
X195860475Y-80434819D02*
X195860475Y-80530057D01*
X196336666Y-86419580D02*
X196384285Y-86467200D01*
X196384285Y-86467200D02*
X196527142Y-86514819D01*
X196527142Y-86514819D02*
X196622380Y-86514819D01*
X196622380Y-86514819D02*
X196765237Y-86467200D01*
X196765237Y-86467200D02*
X196860475Y-86371961D01*
X196860475Y-86371961D02*
X196908094Y-86276723D01*
X196908094Y-86276723D02*
X196955713Y-86086247D01*
X196955713Y-86086247D02*
X196955713Y-85943390D01*
X196955713Y-85943390D02*
X196908094Y-85752914D01*
X196908094Y-85752914D02*
X196860475Y-85657676D01*
X196860475Y-85657676D02*
X196765237Y-85562438D01*
X196765237Y-85562438D02*
X196622380Y-85514819D01*
X196622380Y-85514819D02*
X196527142Y-85514819D01*
X196527142Y-85514819D02*
X196384285Y-85562438D01*
X196384285Y-85562438D02*
X196336666Y-85610057D01*
X195955713Y-86467200D02*
X195812856Y-86514819D01*
X195812856Y-86514819D02*
X195574761Y-86514819D01*
X195574761Y-86514819D02*
X195479523Y-86467200D01*
X195479523Y-86467200D02*
X195431904Y-86419580D01*
X195431904Y-86419580D02*
X195384285Y-86324342D01*
X195384285Y-86324342D02*
X195384285Y-86229104D01*
X195384285Y-86229104D02*
X195431904Y-86133866D01*
X195431904Y-86133866D02*
X195479523Y-86086247D01*
X195479523Y-86086247D02*
X195574761Y-86038628D01*
X195574761Y-86038628D02*
X195765237Y-85991009D01*
X195765237Y-85991009D02*
X195860475Y-85943390D01*
X195860475Y-85943390D02*
X195908094Y-85895771D01*
X195908094Y-85895771D02*
X195955713Y-85800533D01*
X195955713Y-85800533D02*
X195955713Y-85705295D01*
X195955713Y-85705295D02*
X195908094Y-85610057D01*
X195908094Y-85610057D02*
X195860475Y-85562438D01*
X195860475Y-85562438D02*
X195765237Y-85514819D01*
X195765237Y-85514819D02*
X195527142Y-85514819D01*
X195527142Y-85514819D02*
X195384285Y-85562438D01*
X197074761Y-89054819D02*
X197074761Y-88388152D01*
X197074761Y-88054819D02*
X197122380Y-88102438D01*
X197122380Y-88102438D02*
X197074761Y-88150057D01*
X197074761Y-88150057D02*
X197027142Y-88102438D01*
X197027142Y-88102438D02*
X197074761Y-88054819D01*
X197074761Y-88054819D02*
X197074761Y-88150057D01*
X196598571Y-88388152D02*
X196598571Y-89054819D01*
X196598571Y-88483390D02*
X196550952Y-88435771D01*
X196550952Y-88435771D02*
X196455714Y-88388152D01*
X196455714Y-88388152D02*
X196312857Y-88388152D01*
X196312857Y-88388152D02*
X196217619Y-88435771D01*
X196217619Y-88435771D02*
X196170000Y-88531009D01*
X196170000Y-88531009D02*
X196170000Y-89054819D01*
X195265238Y-89054819D02*
X195265238Y-88054819D01*
X195265238Y-89007200D02*
X195360476Y-89054819D01*
X195360476Y-89054819D02*
X195550952Y-89054819D01*
X195550952Y-89054819D02*
X195646190Y-89007200D01*
X195646190Y-89007200D02*
X195693809Y-88959580D01*
X195693809Y-88959580D02*
X195741428Y-88864342D01*
X195741428Y-88864342D02*
X195741428Y-88578628D01*
X195741428Y-88578628D02*
X195693809Y-88483390D01*
X195693809Y-88483390D02*
X195646190Y-88435771D01*
X195646190Y-88435771D02*
X195550952Y-88388152D01*
X195550952Y-88388152D02*
X195360476Y-88388152D01*
X195360476Y-88388152D02*
X195265238Y-88435771D01*
X194483332Y-70274819D02*
X194149999Y-71274819D01*
X194149999Y-71274819D02*
X193816666Y-70274819D01*
X192911904Y-71179580D02*
X192959523Y-71227200D01*
X192959523Y-71227200D02*
X193102380Y-71274819D01*
X193102380Y-71274819D02*
X193197618Y-71274819D01*
X193197618Y-71274819D02*
X193340475Y-71227200D01*
X193340475Y-71227200D02*
X193435713Y-71131961D01*
X193435713Y-71131961D02*
X193483332Y-71036723D01*
X193483332Y-71036723D02*
X193530951Y-70846247D01*
X193530951Y-70846247D02*
X193530951Y-70703390D01*
X193530951Y-70703390D02*
X193483332Y-70512914D01*
X193483332Y-70512914D02*
X193435713Y-70417676D01*
X193435713Y-70417676D02*
X193340475Y-70322438D01*
X193340475Y-70322438D02*
X193197618Y-70274819D01*
X193197618Y-70274819D02*
X193102380Y-70274819D01*
X193102380Y-70274819D02*
X192959523Y-70322438D01*
X192959523Y-70322438D02*
X192911904Y-70370057D01*
X191911904Y-71179580D02*
X191959523Y-71227200D01*
X191959523Y-71227200D02*
X192102380Y-71274819D01*
X192102380Y-71274819D02*
X192197618Y-71274819D01*
X192197618Y-71274819D02*
X192340475Y-71227200D01*
X192340475Y-71227200D02*
X192435713Y-71131961D01*
X192435713Y-71131961D02*
X192483332Y-71036723D01*
X192483332Y-71036723D02*
X192530951Y-70846247D01*
X192530951Y-70846247D02*
X192530951Y-70703390D01*
X192530951Y-70703390D02*
X192483332Y-70512914D01*
X192483332Y-70512914D02*
X192435713Y-70417676D01*
X192435713Y-70417676D02*
X192340475Y-70322438D01*
X192340475Y-70322438D02*
X192197618Y-70274819D01*
X192197618Y-70274819D02*
X192102380Y-70274819D01*
X192102380Y-70274819D02*
X191959523Y-70322438D01*
X191959523Y-70322438D02*
X191911904Y-70370057D01*
X187325238Y-86419580D02*
X187372857Y-86467200D01*
X187372857Y-86467200D02*
X187515714Y-86514819D01*
X187515714Y-86514819D02*
X187610952Y-86514819D01*
X187610952Y-86514819D02*
X187753809Y-86467200D01*
X187753809Y-86467200D02*
X187849047Y-86371961D01*
X187849047Y-86371961D02*
X187896666Y-86276723D01*
X187896666Y-86276723D02*
X187944285Y-86086247D01*
X187944285Y-86086247D02*
X187944285Y-85943390D01*
X187944285Y-85943390D02*
X187896666Y-85752914D01*
X187896666Y-85752914D02*
X187849047Y-85657676D01*
X187849047Y-85657676D02*
X187753809Y-85562438D01*
X187753809Y-85562438D02*
X187610952Y-85514819D01*
X187610952Y-85514819D02*
X187515714Y-85514819D01*
X187515714Y-85514819D02*
X187372857Y-85562438D01*
X187372857Y-85562438D02*
X187325238Y-85610057D01*
X186420476Y-86514819D02*
X186896666Y-86514819D01*
X186896666Y-86514819D02*
X186896666Y-85514819D01*
X199154819Y-105352380D02*
X198678628Y-105019047D01*
X199154819Y-104780952D02*
X198154819Y-104780952D01*
X198154819Y-104780952D02*
X198154819Y-105161904D01*
X198154819Y-105161904D02*
X198202438Y-105257142D01*
X198202438Y-105257142D02*
X198250057Y-105304761D01*
X198250057Y-105304761D02*
X198345295Y-105352380D01*
X198345295Y-105352380D02*
X198488152Y-105352380D01*
X198488152Y-105352380D02*
X198583390Y-105304761D01*
X198583390Y-105304761D02*
X198631009Y-105257142D01*
X198631009Y-105257142D02*
X198678628Y-105161904D01*
X198678628Y-105161904D02*
X198678628Y-104780952D01*
X199107200Y-105733333D02*
X199154819Y-105876190D01*
X199154819Y-105876190D02*
X199154819Y-106114285D01*
X199154819Y-106114285D02*
X199107200Y-106209523D01*
X199107200Y-106209523D02*
X199059580Y-106257142D01*
X199059580Y-106257142D02*
X198964342Y-106304761D01*
X198964342Y-106304761D02*
X198869104Y-106304761D01*
X198869104Y-106304761D02*
X198773866Y-106257142D01*
X198773866Y-106257142D02*
X198726247Y-106209523D01*
X198726247Y-106209523D02*
X198678628Y-106114285D01*
X198678628Y-106114285D02*
X198631009Y-105923809D01*
X198631009Y-105923809D02*
X198583390Y-105828571D01*
X198583390Y-105828571D02*
X198535771Y-105780952D01*
X198535771Y-105780952D02*
X198440533Y-105733333D01*
X198440533Y-105733333D02*
X198345295Y-105733333D01*
X198345295Y-105733333D02*
X198250057Y-105780952D01*
X198250057Y-105780952D02*
X198202438Y-105828571D01*
X198202438Y-105828571D02*
X198154819Y-105923809D01*
X198154819Y-105923809D02*
X198154819Y-106161904D01*
X198154819Y-106161904D02*
X198202438Y-106304761D01*
X198154819Y-106590476D02*
X198154819Y-107161904D01*
X199154819Y-106876190D02*
X198154819Y-106876190D01*
X190789580Y-99308207D02*
X190837200Y-99260588D01*
X190837200Y-99260588D02*
X190884819Y-99117731D01*
X190884819Y-99117731D02*
X190884819Y-99022493D01*
X190884819Y-99022493D02*
X190837200Y-98879636D01*
X190837200Y-98879636D02*
X190741961Y-98784398D01*
X190741961Y-98784398D02*
X190646723Y-98736779D01*
X190646723Y-98736779D02*
X190456247Y-98689160D01*
X190456247Y-98689160D02*
X190313390Y-98689160D01*
X190313390Y-98689160D02*
X190122914Y-98736779D01*
X190122914Y-98736779D02*
X190027676Y-98784398D01*
X190027676Y-98784398D02*
X189932438Y-98879636D01*
X189932438Y-98879636D02*
X189884819Y-99022493D01*
X189884819Y-99022493D02*
X189884819Y-99117731D01*
X189884819Y-99117731D02*
X189932438Y-99260588D01*
X189932438Y-99260588D02*
X189980057Y-99308207D01*
X190884819Y-100212969D02*
X190884819Y-99736779D01*
X190884819Y-99736779D02*
X189884819Y-99736779D01*
X192424819Y-98593922D02*
X193424819Y-98927255D01*
X193424819Y-98927255D02*
X192424819Y-99260588D01*
X193329580Y-100165350D02*
X193377200Y-100117731D01*
X193377200Y-100117731D02*
X193424819Y-99974874D01*
X193424819Y-99974874D02*
X193424819Y-99879636D01*
X193424819Y-99879636D02*
X193377200Y-99736779D01*
X193377200Y-99736779D02*
X193281961Y-99641541D01*
X193281961Y-99641541D02*
X193186723Y-99593922D01*
X193186723Y-99593922D02*
X192996247Y-99546303D01*
X192996247Y-99546303D02*
X192853390Y-99546303D01*
X192853390Y-99546303D02*
X192662914Y-99593922D01*
X192662914Y-99593922D02*
X192567676Y-99641541D01*
X192567676Y-99641541D02*
X192472438Y-99736779D01*
X192472438Y-99736779D02*
X192424819Y-99879636D01*
X192424819Y-99879636D02*
X192424819Y-99974874D01*
X192424819Y-99974874D02*
X192472438Y-100117731D01*
X192472438Y-100117731D02*
X192520057Y-100165350D01*
X193329580Y-101165350D02*
X193377200Y-101117731D01*
X193377200Y-101117731D02*
X193424819Y-100974874D01*
X193424819Y-100974874D02*
X193424819Y-100879636D01*
X193424819Y-100879636D02*
X193377200Y-100736779D01*
X193377200Y-100736779D02*
X193281961Y-100641541D01*
X193281961Y-100641541D02*
X193186723Y-100593922D01*
X193186723Y-100593922D02*
X192996247Y-100546303D01*
X192996247Y-100546303D02*
X192853390Y-100546303D01*
X192853390Y-100546303D02*
X192662914Y-100593922D01*
X192662914Y-100593922D02*
X192567676Y-100641541D01*
X192567676Y-100641541D02*
X192472438Y-100736779D01*
X192472438Y-100736779D02*
X192424819Y-100879636D01*
X192424819Y-100879636D02*
X192424819Y-100974874D01*
X192424819Y-100974874D02*
X192472438Y-101117731D01*
X192472438Y-101117731D02*
X192520057Y-101165350D01*
X195012438Y-99260588D02*
X194964819Y-99165350D01*
X194964819Y-99165350D02*
X194964819Y-99022493D01*
X194964819Y-99022493D02*
X195012438Y-98879636D01*
X195012438Y-98879636D02*
X195107676Y-98784398D01*
X195107676Y-98784398D02*
X195202914Y-98736779D01*
X195202914Y-98736779D02*
X195393390Y-98689160D01*
X195393390Y-98689160D02*
X195536247Y-98689160D01*
X195536247Y-98689160D02*
X195726723Y-98736779D01*
X195726723Y-98736779D02*
X195821961Y-98784398D01*
X195821961Y-98784398D02*
X195917200Y-98879636D01*
X195917200Y-98879636D02*
X195964819Y-99022493D01*
X195964819Y-99022493D02*
X195964819Y-99117731D01*
X195964819Y-99117731D02*
X195917200Y-99260588D01*
X195917200Y-99260588D02*
X195869580Y-99308207D01*
X195869580Y-99308207D02*
X195536247Y-99308207D01*
X195536247Y-99308207D02*
X195536247Y-99117731D01*
X195964819Y-99736779D02*
X194964819Y-99736779D01*
X194964819Y-99736779D02*
X195964819Y-100308207D01*
X195964819Y-100308207D02*
X194964819Y-100308207D01*
X195964819Y-100784398D02*
X194964819Y-100784398D01*
X194964819Y-100784398D02*
X194964819Y-101022493D01*
X194964819Y-101022493D02*
X195012438Y-101165350D01*
X195012438Y-101165350D02*
X195107676Y-101260588D01*
X195107676Y-101260588D02*
X195202914Y-101308207D01*
X195202914Y-101308207D02*
X195393390Y-101355826D01*
X195393390Y-101355826D02*
X195536247Y-101355826D01*
X195536247Y-101355826D02*
X195726723Y-101308207D01*
X195726723Y-101308207D02*
X195821961Y-101260588D01*
X195821961Y-101260588D02*
X195917200Y-101165350D01*
X195917200Y-101165350D02*
X195964819Y-101022493D01*
X195964819Y-101022493D02*
X195964819Y-100784398D01*
X188344819Y-98736779D02*
X187344819Y-98736779D01*
X187344819Y-98736779D02*
X187344819Y-98974874D01*
X187344819Y-98974874D02*
X187392438Y-99117731D01*
X187392438Y-99117731D02*
X187487676Y-99212969D01*
X187487676Y-99212969D02*
X187582914Y-99260588D01*
X187582914Y-99260588D02*
X187773390Y-99308207D01*
X187773390Y-99308207D02*
X187916247Y-99308207D01*
X187916247Y-99308207D02*
X188106723Y-99260588D01*
X188106723Y-99260588D02*
X188201961Y-99212969D01*
X188201961Y-99212969D02*
X188297200Y-99117731D01*
X188297200Y-99117731D02*
X188344819Y-98974874D01*
X188344819Y-98974874D02*
X188344819Y-98736779D01*
X188059104Y-99689160D02*
X188059104Y-100165350D01*
X188344819Y-99593922D02*
X187344819Y-99927255D01*
X187344819Y-99927255D02*
X188344819Y-100260588D01*
X199652380Y-114604819D02*
X199461904Y-114604819D01*
X199461904Y-114604819D02*
X199366666Y-114652438D01*
X199366666Y-114652438D02*
X199271428Y-114747676D01*
X199271428Y-114747676D02*
X199223809Y-114938152D01*
X199223809Y-114938152D02*
X199223809Y-115271485D01*
X199223809Y-115271485D02*
X199271428Y-115461961D01*
X199271428Y-115461961D02*
X199366666Y-115557200D01*
X199366666Y-115557200D02*
X199461904Y-115604819D01*
X199461904Y-115604819D02*
X199652380Y-115604819D01*
X199652380Y-115604819D02*
X199747618Y-115557200D01*
X199747618Y-115557200D02*
X199842856Y-115461961D01*
X199842856Y-115461961D02*
X199890475Y-115271485D01*
X199890475Y-115271485D02*
X199890475Y-114938152D01*
X199890475Y-114938152D02*
X199842856Y-114747676D01*
X199842856Y-114747676D02*
X199747618Y-114652438D01*
X199747618Y-114652438D02*
X199652380Y-114604819D01*
X198461904Y-115081009D02*
X198795237Y-115081009D01*
X198795237Y-115604819D02*
X198795237Y-114604819D01*
X198795237Y-114604819D02*
X198319047Y-114604819D01*
X197604761Y-115081009D02*
X197938094Y-115081009D01*
X197938094Y-115604819D02*
X197938094Y-114604819D01*
X197938094Y-114604819D02*
X197461904Y-114604819D01*
X199319047Y-124604819D02*
X199128571Y-124604819D01*
X199128571Y-124604819D02*
X199033333Y-124652438D01*
X199033333Y-124652438D02*
X198938095Y-124747676D01*
X198938095Y-124747676D02*
X198890476Y-124938152D01*
X198890476Y-124938152D02*
X198890476Y-125271485D01*
X198890476Y-125271485D02*
X198938095Y-125461961D01*
X198938095Y-125461961D02*
X199033333Y-125557200D01*
X199033333Y-125557200D02*
X199128571Y-125604819D01*
X199128571Y-125604819D02*
X199319047Y-125604819D01*
X199319047Y-125604819D02*
X199414285Y-125557200D01*
X199414285Y-125557200D02*
X199509523Y-125461961D01*
X199509523Y-125461961D02*
X199557142Y-125271485D01*
X199557142Y-125271485D02*
X199557142Y-124938152D01*
X199557142Y-124938152D02*
X199509523Y-124747676D01*
X199509523Y-124747676D02*
X199414285Y-124652438D01*
X199414285Y-124652438D02*
X199319047Y-124604819D01*
X198461904Y-125604819D02*
X198461904Y-124604819D01*
X198461904Y-124604819D02*
X197890476Y-125604819D01*
X197890476Y-125604819D02*
X197890476Y-124604819D01*
D11*
%TO.C,D8*%
X138150000Y-76750000D02*
X138750000Y-77150000D01*
X138150000Y-77150000D02*
X137650000Y-77150000D01*
X138150000Y-77550000D02*
X138150000Y-76750000D01*
X138750000Y-77150000D02*
X138150000Y-77550000D01*
X138750000Y-77150000D02*
X138750000Y-76600000D01*
X138750000Y-77150000D02*
X138750000Y-77700000D01*
X139150000Y-77150000D02*
X138750000Y-77150000D01*
%TO.C,D5*%
X119150000Y-81500000D02*
X119750000Y-81900000D01*
X119150000Y-81900000D02*
X118650000Y-81900000D01*
X119150000Y-82300000D02*
X119150000Y-81500000D01*
X119750000Y-81900000D02*
X119150000Y-82300000D01*
X119750000Y-81900000D02*
X119750000Y-81350000D01*
X119750000Y-81900000D02*
X119750000Y-82450000D01*
X120150000Y-81900000D02*
X119750000Y-81900000D01*
%TO.C,D18*%
X197719839Y-143944486D02*
X198119839Y-143251666D01*
X197919839Y-143598076D02*
X197486826Y-143348076D01*
X198119839Y-143251666D02*
X198439454Y-143898076D01*
X198439454Y-143898076D02*
X197719839Y-143944486D01*
X198439454Y-143898076D02*
X198164454Y-144374390D01*
X198439454Y-143898076D02*
X198714454Y-143421762D01*
X198785864Y-144098076D02*
X198439454Y-143898076D01*
%TO.C,D11*%
X157150000Y-86250000D02*
X157750000Y-86650000D01*
X157150000Y-86650000D02*
X156650000Y-86650000D01*
X157150000Y-87050000D02*
X157150000Y-86250000D01*
X157750000Y-86650000D02*
X157150000Y-87050000D01*
X157750000Y-86650000D02*
X157750000Y-86100000D01*
X157750000Y-86650000D02*
X157750000Y-87200000D01*
X158150000Y-86650000D02*
X157750000Y-86650000D01*
%TO.C,D13*%
X176150000Y-110000000D02*
X176750000Y-110400000D01*
X176150000Y-110400000D02*
X175650000Y-110400000D01*
X176150000Y-110800000D02*
X176150000Y-110000000D01*
X176750000Y-110400000D02*
X176150000Y-110800000D01*
X176750000Y-110400000D02*
X176750000Y-109850000D01*
X176750000Y-110400000D02*
X176750000Y-110950000D01*
X177150000Y-110400000D02*
X176750000Y-110400000D01*
%TO.C,D9*%
X138150000Y-57750000D02*
X138750000Y-58150000D01*
X138150000Y-58150000D02*
X137650000Y-58150000D01*
X138150000Y-58550000D02*
X138150000Y-57750000D01*
X138750000Y-58150000D02*
X138150000Y-58550000D01*
X138750000Y-58150000D02*
X138750000Y-57600000D01*
X138750000Y-58150000D02*
X138750000Y-58700000D01*
X139150000Y-58150000D02*
X138750000Y-58150000D01*
%TO.C,D12*%
X157150000Y-67250000D02*
X157750000Y-67650000D01*
X157150000Y-67650000D02*
X156650000Y-67650000D01*
X157150000Y-68050000D02*
X157150000Y-67250000D01*
X157750000Y-67650000D02*
X157150000Y-68050000D01*
X157750000Y-67650000D02*
X157750000Y-67100000D01*
X157750000Y-67650000D02*
X157750000Y-68200000D01*
X158150000Y-67650000D02*
X157750000Y-67650000D01*
D12*
%TO.C,JST1*%
X185240000Y-102840000D02*
X186240000Y-102840000D01*
X185240000Y-103760000D02*
X185240000Y-102840000D01*
X185240000Y-107960000D02*
X185240000Y-108960000D01*
X185240000Y-108960000D02*
X186240000Y-108960000D01*
X193060000Y-102840000D02*
X192060000Y-102840000D01*
X193060000Y-103760000D02*
X193060000Y-102840000D01*
X193060000Y-108040000D02*
X193060000Y-108960000D01*
X193060000Y-108960000D02*
X192060000Y-108960000D01*
D11*
X193600000Y-106900000D02*
X194600000Y-106900000D01*
X194100000Y-104400000D02*
X194100000Y-105400000D01*
X194100000Y-107400000D02*
X194100000Y-106400000D01*
%TO.C,D16*%
X157150000Y-129000000D02*
X157750000Y-129400000D01*
X157150000Y-129400000D02*
X156650000Y-129400000D01*
X157150000Y-129800000D02*
X157150000Y-129000000D01*
X157750000Y-129400000D02*
X157150000Y-129800000D01*
X157750000Y-129400000D02*
X157750000Y-128850000D01*
X157750000Y-129400000D02*
X157750000Y-129950000D01*
X158150000Y-129400000D02*
X157750000Y-129400000D01*
%TO.C,D6*%
X119150000Y-62500000D02*
X119750000Y-62900000D01*
X119150000Y-62900000D02*
X118650000Y-62900000D01*
X119150000Y-63300000D02*
X119150000Y-62500000D01*
X119750000Y-62900000D02*
X119150000Y-63300000D01*
X119750000Y-62900000D02*
X119750000Y-62350000D01*
X119750000Y-62900000D02*
X119750000Y-63450000D01*
X120150000Y-62900000D02*
X119750000Y-62900000D01*
D12*
%TO.C,MCU1*%
X182750000Y-61870000D02*
X182750000Y-92470000D01*
X182750000Y-64470000D02*
X185410000Y-64470000D01*
X185410000Y-61870000D02*
X182750000Y-61870000D01*
X185410000Y-61870000D02*
X185410000Y-92470000D01*
X185410000Y-92470000D02*
X182750000Y-92470000D01*
X197990000Y-61870000D02*
X197990000Y-92470000D01*
X200650000Y-61870000D02*
X197990000Y-61870000D01*
X200650000Y-61870000D02*
X200650000Y-92470000D01*
X200650000Y-92470000D02*
X197990000Y-92470000D01*
D11*
%TO.C,D3*%
X100150000Y-81500000D02*
X100750000Y-81900000D01*
X100150000Y-81900000D02*
X99650000Y-81900000D01*
X100150000Y-82300000D02*
X100150000Y-81500000D01*
X100750000Y-81900000D02*
X100150000Y-82300000D01*
X100750000Y-81900000D02*
X100750000Y-81350000D01*
X100750000Y-81900000D02*
X100750000Y-82450000D01*
X101150000Y-81900000D02*
X100750000Y-81900000D01*
D10*
%TO.C,RST1*%
X196950000Y-102900000D02*
X197200000Y-102900000D01*
X196950000Y-108900000D02*
X196950000Y-102900000D01*
X197200000Y-108900000D02*
X196950000Y-108900000D01*
X200200000Y-102900000D02*
X200450000Y-102900000D01*
X200450000Y-102900000D02*
X200450000Y-108900000D01*
X200450000Y-108900000D02*
X200200000Y-108900000D01*
D11*
%TO.C,D15*%
X176150000Y-72000000D02*
X176750000Y-72400000D01*
X176150000Y-72400000D02*
X175650000Y-72400000D01*
X176150000Y-72800000D02*
X176150000Y-72000000D01*
X176750000Y-72400000D02*
X176150000Y-72800000D01*
X176750000Y-72400000D02*
X176750000Y-71850000D01*
X176750000Y-72400000D02*
X176750000Y-72950000D01*
X177150000Y-72400000D02*
X176750000Y-72400000D01*
%TO.C,D1*%
X100150000Y-119500000D02*
X100750000Y-119900000D01*
X100150000Y-119900000D02*
X99650000Y-119900000D01*
X100150000Y-120300000D02*
X100150000Y-119500000D01*
X100750000Y-119900000D02*
X100150000Y-120300000D01*
X100750000Y-119900000D02*
X100750000Y-119350000D01*
X100750000Y-119900000D02*
X100750000Y-120450000D01*
X101150000Y-119900000D02*
X100750000Y-119900000D01*
%TO.C,D17*%
X178084311Y-133469712D02*
X178291366Y-132696971D01*
X178187839Y-133083341D02*
X177704876Y-132953932D01*
X178291366Y-132696971D02*
X178767394Y-133238633D01*
X178767394Y-133238633D02*
X178084311Y-133469712D01*
X178767394Y-133238633D02*
X178625044Y-133769892D01*
X178767394Y-133238633D02*
X178909745Y-132707372D01*
X179153764Y-133342160D02*
X178767394Y-133238633D01*
%TO.C,D2*%
X100150000Y-100500000D02*
X100750000Y-100900000D01*
X100150000Y-100900000D02*
X99650000Y-100900000D01*
X100150000Y-101300000D02*
X100150000Y-100500000D01*
X100750000Y-100900000D02*
X100150000Y-101300000D01*
X100750000Y-100900000D02*
X100750000Y-100350000D01*
X100750000Y-100900000D02*
X100750000Y-101450000D01*
X101150000Y-100900000D02*
X100750000Y-100900000D01*
%TO.C,D4*%
X119150000Y-100500000D02*
X119750000Y-100900000D01*
X119150000Y-100900000D02*
X118650000Y-100900000D01*
X119150000Y-101300000D02*
X119150000Y-100500000D01*
X119750000Y-100900000D02*
X119150000Y-101300000D01*
X119750000Y-100900000D02*
X119750000Y-100350000D01*
X119750000Y-100900000D02*
X119750000Y-101450000D01*
X120150000Y-100900000D02*
X119750000Y-100900000D01*
D12*
%TO.C,DISP1*%
X186560000Y-95270000D02*
X186560000Y-97930000D01*
X196840000Y-95270000D02*
X186560000Y-95270000D01*
X196840000Y-95270000D02*
X196840000Y-97930000D01*
X196840000Y-97930000D02*
X186560000Y-97930000D01*
%TO.C,PWR1*%
X197275000Y-118550000D02*
X197275000Y-120250000D01*
X197275000Y-121550000D02*
X197275000Y-121750000D01*
X198325000Y-116700000D02*
X199115000Y-116700000D01*
X199115000Y-123600000D02*
X198325000Y-123600000D01*
X200125000Y-117300000D02*
X200125000Y-123000000D01*
D11*
%TO.C,D10*%
X157150000Y-105250000D02*
X157750000Y-105650000D01*
X157150000Y-105650000D02*
X156650000Y-105650000D01*
X157150000Y-106050000D02*
X157150000Y-105250000D01*
X157750000Y-105650000D02*
X157150000Y-106050000D01*
X157750000Y-105650000D02*
X157750000Y-105100000D01*
X157750000Y-105650000D02*
X157750000Y-106200000D01*
X158150000Y-105650000D02*
X157750000Y-105650000D01*
%TO.C,D14*%
X176150000Y-91000000D02*
X176750000Y-91400000D01*
X176150000Y-91400000D02*
X175650000Y-91400000D01*
X176150000Y-91800000D02*
X176150000Y-91000000D01*
X176750000Y-91400000D02*
X176150000Y-91800000D01*
X176750000Y-91400000D02*
X176750000Y-90850000D01*
X176750000Y-91400000D02*
X176750000Y-91950000D01*
X177150000Y-91400000D02*
X176750000Y-91400000D01*
%TO.C,D7*%
X138150000Y-95750000D02*
X138750000Y-96150000D01*
X138150000Y-96150000D02*
X137650000Y-96150000D01*
X138150000Y-96550000D02*
X138150000Y-95750000D01*
X138750000Y-96150000D02*
X138150000Y-96550000D01*
X138750000Y-96150000D02*
X138750000Y-95600000D01*
X138750000Y-96150000D02*
X138750000Y-96700000D01*
X139150000Y-96150000D02*
X138750000Y-96150000D01*
%TO.C,S4*%
X113700000Y-95380000D02*
X111820000Y-95380000D01*
X114920000Y-94130000D02*
X113700000Y-95380000D01*
%TO.C,S8*%
X132700000Y-71630000D02*
X130820000Y-71630000D01*
X133920000Y-70380000D02*
X132700000Y-71630000D01*
%TO.C,S2*%
X94700000Y-95380000D02*
X92820000Y-95380000D01*
X95920000Y-94130000D02*
X94700000Y-95380000D01*
%TO.C,S3*%
X94700000Y-76380000D02*
X92820000Y-76380000D01*
X95920000Y-75130000D02*
X94700000Y-76380000D01*
%TO.C,S1*%
X94700000Y-114380000D02*
X92820000Y-114380000D01*
X95920000Y-113130000D02*
X94700000Y-114380000D01*
%TO.C,S12*%
X151700000Y-62130000D02*
X149820000Y-62130000D01*
X152920000Y-60880000D02*
X151700000Y-62130000D01*
%TO.C,S10*%
X151700000Y-100130000D02*
X149820000Y-100130000D01*
X152920000Y-98880000D02*
X151700000Y-100130000D01*
%TO.C,S15*%
X170700000Y-66880000D02*
X168820000Y-66880000D01*
X171920000Y-65630000D02*
X170700000Y-66880000D01*
%TO.C,S14*%
X170700000Y-85880000D02*
X168820000Y-85880000D01*
X171920000Y-84630000D02*
X170700000Y-85880000D01*
%TO.C,S11*%
X151700000Y-81130000D02*
X149820000Y-81130000D01*
X152920000Y-79880000D02*
X151700000Y-81130000D01*
%TO.C,S9*%
X132700000Y-52630000D02*
X130820000Y-52630000D01*
X133920000Y-51380000D02*
X132700000Y-52630000D01*
%TO.C,S7*%
X132700000Y-90630000D02*
X130820000Y-90630000D01*
X133920000Y-89380000D02*
X132700000Y-90630000D01*
%TO.C,S5*%
X113700000Y-76380000D02*
X111820000Y-76380000D01*
X114920000Y-75130000D02*
X113700000Y-76380000D01*
%TO.C,S6*%
X113700000Y-57380000D02*
X111820000Y-57380000D01*
X114920000Y-56130000D02*
X113700000Y-57380000D01*
%TO.C,S17*%
X174352224Y-126340867D02*
X172536283Y-125854287D01*
X175854177Y-125449219D02*
X174352224Y-126340867D01*
%TO.C,S16*%
X151700000Y-123880000D02*
X149820000Y-123880000D01*
X152920000Y-122630000D02*
X151700000Y-123880000D01*
%TO.C,S13*%
X170700000Y-104880000D02*
X168820000Y-104880000D01*
X171920000Y-103630000D02*
X170700000Y-104880000D01*
%TO.C,S18*%
X195960000Y-136092616D02*
X194331872Y-135152616D01*
X197641551Y-135620084D02*
X195960000Y-136092616D01*
%TD*%
M02*
