%TF.GenerationSoftware,KiCad,Pcbnew,9.0.7*%
%TF.CreationDate,2026-01-26T01:07:57-05:00*%
%TF.ProjectId,v3,76332e6b-6963-4616-945f-706362585858,rev?*%
%TF.SameCoordinates,Original*%
%TF.FileFunction,Profile,NP*%
%FSLAX46Y46*%
G04 Gerber Fmt 4.6, Leading zero omitted, Abs format (unit mm)*
G04 Created by KiCad (PCBNEW 9.0.7) date 2026-01-26 01:07:57*
%MOMM*%
%LPD*%
G01*
G04 APERTURE LIST*
%TA.AperFunction,Profile*%
%ADD10C,0.150000*%
%TD*%
G04 APERTURE END LIST*
D10*
X101200000Y-68400000D02*
X86200000Y-68400000D01*
X86200000Y-127400000D02*
X125619941Y-127400000D01*
X143200000Y-52150000D02*
X143200000Y-46650000D01*
X84200000Y-70400000D02*
G75*
G02*
X86200000Y-68400000I2000000J0D01*
G01*
X141200000Y-44650000D02*
G75*
G02*
X143200000Y-46650000I0J-2000000D01*
G01*
X141200000Y-44650000D02*
X124200000Y-44650000D01*
X145200000Y-54150000D02*
G75*
G02*
X143200000Y-52150000I0J2000000D01*
G01*
X126690045Y-127710362D02*
X140829180Y-136665147D01*
X103200000Y-51400000D02*
G75*
G02*
X105200000Y-49400000I2000000J0D01*
G01*
X141635088Y-136957982D02*
X179964029Y-142065932D01*
X160200000Y-54150000D02*
G75*
G02*
X162200000Y-56150000I0J-2000000D01*
G01*
X164200000Y-58900000D02*
G75*
G02*
X162200000Y-56900000I0J2000000D01*
G01*
X180699832Y-142316355D02*
X196811216Y-151618267D01*
X200200000Y-58900000D02*
G75*
G02*
X202200000Y-60900000I0J-2000000D01*
G01*
X84200000Y-70400000D02*
X84200000Y-125400000D01*
X200200000Y-58900000D02*
X164200000Y-58900000D01*
X207815077Y-133349193D02*
G75*
G02*
X208224725Y-135849596I-1322377J-1500407D01*
G01*
X86200000Y-127400000D02*
G75*
G02*
X84200000Y-125400000I0J2000000D01*
G01*
X122200000Y-47400000D02*
G75*
G02*
X120200000Y-49400000I-2000000J0D01*
G01*
X207815077Y-133349193D02*
X202877551Y-128997201D01*
X103200000Y-51400000D02*
X103200000Y-66400000D01*
X202877551Y-128997201D02*
G75*
G02*
X202200023Y-127496825I1322349J1500301D01*
G01*
X179964029Y-142065932D02*
G75*
G02*
X180699826Y-142316365I-264329J-1982768D01*
G01*
X162200000Y-56900000D02*
X162200000Y-56150000D01*
X103200000Y-66400000D02*
G75*
G02*
X101200000Y-68400000I-2000000J0D01*
G01*
X202200000Y-127496825D02*
X202200000Y-60900000D01*
X120200000Y-49400000D02*
X105200000Y-49400000D01*
X160200000Y-54150000D02*
X145200000Y-54150000D01*
X122200000Y-46650000D02*
X122200000Y-47400000D01*
X122200000Y-46650000D02*
G75*
G02*
X124200000Y-44650000I2000000J0D01*
G01*
X141635088Y-136957982D02*
G75*
G02*
X140829175Y-136665155I264212J1982582D01*
G01*
X125619941Y-127400000D02*
G75*
G02*
X126690058Y-127710341I-41J-2000300D01*
G01*
X199543267Y-150886216D02*
G75*
G02*
X196811208Y-151618281I-1732067J1000016D01*
G01*
X199543267Y-150886216D02*
X208224679Y-135849569D01*
M02*
