M48
; DRILL file {KiCad 9.0.7} date 2026-01-26T01:07:58-0500
; FORMAT={-:-/ absolute / metric / decimal}
; #@! TF.CreationDate,2026-01-26T01:07:58-05:00
; #@! TF.GenerationSoftware,Kicad,Pcbnew,9.0.7
; #@! TF.FileFunction,NonPlated,1,2,NPTH
FMAT,2
METRIC
; #@! TA.AperFunction,NonPlated,NPTH,ComponentDrill
T1C0.900
; #@! TA.AperFunction,NonPlated,NPTH,ComponentDrill
T2C1.900
; #@! TA.AperFunction,NonPlated,NPTH,ComponentDrill
T3C2.200
; #@! TA.AperFunction,NonPlated,NPTH,ComponentDrill
T4C3.000
; #@! TA.AperFunction,NonPlated,NPTH,ComponentDrill
T5C4.100
%
G90
G05
T1
X198.725Y-118.65
X198.725Y-121.65
T2
X89.62Y-78.9
X89.62Y-97.9
X89.62Y-116.9
X99.78Y-78.9
X99.78Y-97.9
X99.78Y-116.9
X108.62Y-59.9
X108.62Y-78.9
X108.62Y-97.9
X118.78Y-59.9
X118.78Y-78.9
X118.78Y-97.9
X127.62Y-55.15
X127.62Y-74.15
X127.62Y-93.15
X137.78Y-55.15
X137.78Y-74.15
X137.78Y-93.15
X146.62Y-64.65
X146.62Y-83.65
X146.62Y-102.65
X146.62Y-126.4
X156.78Y-64.65
X156.78Y-83.65
X156.78Y-102.65
X156.78Y-126.4
X165.62Y-69.4
X165.62Y-88.4
X165.62Y-107.4
X168.793Y-127.46
X175.78Y-69.4
X175.78Y-88.4
X175.78Y-107.4
X178.607Y-130.09
X190.301Y-135.735
X199.099Y-140.815
T3
X104.2Y-107.4
X123.2Y-67.025
X142.2Y-112.15
X178.2Y-78.9
X187.835Y-124.748
T4
X90.89Y-76.36
X90.89Y-95.36
X90.89Y-114.36
X92.16Y-73.82
X92.16Y-92.82
X92.16Y-111.82
X97.24Y-73.82
X97.24Y-92.82
X97.24Y-111.82
X98.51Y-76.36
X98.51Y-95.36
X98.51Y-114.36
X109.89Y-57.36
X109.89Y-76.36
X109.89Y-95.36
X111.16Y-54.82
X111.16Y-73.82
X111.16Y-92.82
X116.24Y-54.82
X116.24Y-73.82
X116.24Y-92.82
X117.51Y-57.36
X117.51Y-76.36
X117.51Y-95.36
X128.89Y-52.61
X128.89Y-71.61
X128.89Y-90.61
X130.16Y-50.07
X130.16Y-69.07
X130.16Y-88.07
X135.24Y-50.07
X135.24Y-69.07
X135.24Y-88.07
X136.51Y-52.61
X136.51Y-71.61
X136.51Y-90.61
X147.89Y-62.11
X147.89Y-81.11
X147.89Y-100.11
X147.89Y-123.86
X149.16Y-59.57
X149.16Y-78.57
X149.16Y-97.57
X149.16Y-121.32
X154.24Y-59.57
X154.24Y-78.57
X154.24Y-97.57
X154.24Y-121.32
X155.51Y-62.11
X155.51Y-81.11
X155.51Y-100.11
X155.51Y-123.86
X166.89Y-66.86
X166.89Y-85.86
X166.89Y-104.86
X168.16Y-64.32
X168.16Y-83.32
X168.16Y-102.32
X170.677Y-125.335
X172.561Y-123.211
X173.24Y-64.32
X173.24Y-83.32
X173.24Y-102.32
X174.51Y-66.86
X174.51Y-85.86
X174.51Y-104.86
X177.468Y-124.525
X178.038Y-127.308
X192.67Y-134.17
X195.04Y-132.606
X199.27Y-137.98
X199.44Y-135.146
T5
X94.7Y-78.9
X94.7Y-97.9
X94.7Y-116.9
X113.7Y-59.9
X113.7Y-78.9
X113.7Y-97.9
X132.7Y-55.15
X132.7Y-74.15
X132.7Y-93.15
X151.7Y-64.65
X151.7Y-83.65
X151.7Y-102.65
X151.7Y-126.4
X170.7Y-69.4
X170.7Y-88.4
X170.7Y-107.4
X173.7Y-128.775
X194.7Y-138.275
M30
