M48
; DRILL file {KiCad 9.0.7} date 2026-01-26T01:07:58-0500
; FORMAT={-:-/ absolute / metric / decimal}
; #@! TF.CreationDate,2026-01-26T01:07:58-05:00
; #@! TF.GenerationSoftware,Kicad,Pcbnew,9.0.7
; #@! TF.FileFunction,Plated,1,2,PTH
FMAT,2
METRIC
; #@! TA.AperFunction,Plated,PTH,ViaDrill
T1C0.300
; #@! TA.AperFunction,Plated,PTH,ComponentDrill
T2C0.400
; #@! TA.AperFunction,Plated,PTH,ComponentDrill
T3C0.750
; #@! TA.AperFunction,Plated,PTH,ComponentDrill
T4C1.000
%
G90
G05
T1
X94.7Y-71.941
X94.7Y-72.97
X94.7Y-90.941
X94.7Y-91.97
X94.7Y-109.941
X94.7Y-110.97
X113.7Y-52.941
X113.7Y-53.97
X113.7Y-71.941
X113.7Y-72.97
X113.7Y-90.941
X113.7Y-91.97
X132.7Y-48.191
X132.7Y-49.22
X132.7Y-67.191
X132.7Y-68.22
X132.7Y-86.191
X132.7Y-87.22
X151.7Y-57.691
X151.7Y-58.72
X151.7Y-76.691
X151.7Y-77.72
X151.7Y-95.691
X151.7Y-96.72
X151.7Y-119.441
X151.7Y-120.47
X170.7Y-62.441
X170.7Y-63.47
X170.7Y-81.441
X170.7Y-82.47
X170.7Y-100.441
X170.7Y-101.47
X175.235Y-123.047
X175.501Y-122.053
X181.8Y-77.2
X182.2Y-102.2
X191.8Y-100.2
X194.0Y-78.6
X197.665Y-133.139
X198.179Y-132.248
T2
X188.3Y-63.2
X188.3Y-65.74
X188.3Y-68.28
X188.3Y-70.82
X195.1Y-63.2
X195.1Y-65.74
X195.1Y-68.28
X195.1Y-70.82
T3
X186.7Y-104.9
X186.7Y-106.9
T4
X184.08Y-63.2
X184.08Y-65.74
X184.08Y-68.28
X184.08Y-70.82
X184.08Y-73.36
X184.08Y-75.9
X184.08Y-78.44
X184.08Y-80.98
X184.08Y-83.52
X184.08Y-86.06
X184.08Y-88.6
X184.08Y-91.14
X187.89Y-96.6
X190.43Y-96.6
X192.97Y-96.6
X195.51Y-96.6
X198.7Y-102.65
X198.7Y-109.15
X199.32Y-63.2
X199.32Y-65.74
X199.32Y-68.28
X199.32Y-70.82
X199.32Y-73.36
X199.32Y-75.9
X199.32Y-78.44
X199.32Y-80.98
X199.32Y-83.52
X199.32Y-86.06
X199.32Y-88.6
X199.32Y-91.14
M30
