<svg width="978" height="407" viewBox="0 0 978 407" fill="none" xmlns="http://www.w3.org/2000/svg">
<path fill-rule="evenodd" clip-rule="evenodd" d="M64.752 90.2638H8.05906C6.05427 90.2638 4.13159 91.0602 2.714 92.4778C1.2964 93.8954 0.5 95.8181 0.5 97.8228L0.5 305.697C0.5 307.702 1.2964 309.624 2.714 311.042C4.13159 312.46 6.05427 313.256 8.05906 313.256H157.048C158.48 313.256 159.882 313.662 161.092 314.428L214.531 348.273C215.454 348.858 216.494 349.236 217.577 349.381L362.443 368.686C363.423 368.816 364.368 369.137 365.224 369.631L426.116 404.789C427.853 405.791 429.916 406.063 431.852 405.544C433.789 405.025 435.44 403.758 436.442 402.022L469.256 345.193C470.129 343.681 470.452 341.913 470.17 340.19C469.887 338.467 469.017 336.894 467.706 335.74L449.047 319.292C448.242 318.583 447.597 317.711 447.155 316.733C446.713 315.756 446.485 314.695 446.484 313.623V61.9173C446.484 59.9125 445.688 57.9899 444.27 56.5723C442.853 55.1547 440.93 54.3583 438.925 54.3583H302.862C300.857 54.3583 298.935 53.5619 297.517 52.1443C296.1 50.7267 295.303 48.804 295.303 46.7992V43.9646C295.303 41.9598 294.507 40.0371 293.089 38.6195C291.672 37.2019 289.749 36.4055 287.744 36.4055H231.051C229.046 36.4055 227.124 35.6091 225.706 34.1915C224.289 32.7739 223.492 30.8512 223.492 28.8465V8.05906C223.492 6.05427 222.696 4.13159 221.278 2.714C219.861 1.2964 217.938 0.5 215.933 0.5L151.681 0.5C149.676 0.5 147.754 1.2964 146.336 2.714C144.918 4.13159 144.122 6.05427 144.122 8.05906V10.8937C144.122 12.8985 143.326 14.8212 141.908 16.2388C140.49 17.6564 138.568 18.4528 136.563 18.4528H79.8701C77.8653 18.4528 75.9426 19.2492 74.525 20.6668C73.1074 22.0843 72.311 24.007 72.311 26.0118V82.7047C72.311 84.7095 71.5146 86.6322 70.097 88.0498C68.6794 89.4674 66.7568 90.2638 64.752 90.2638ZM13.7283 307.587H66.6417C68.6465 307.587 70.5692 306.79 71.9868 305.373C73.4044 303.955 74.2008 302.032 74.2008 300.028V247.114C74.2008 245.109 73.4044 243.187 71.9868 241.769C70.5692 240.352 68.6465 239.555 66.6417 239.555H13.7283C11.7236 239.555 9.80089 240.352 8.38329 241.769C6.96569 243.187 6.16929 245.109 6.16929 247.114V300.028C6.16929 302.032 6.96569 303.955 8.38329 305.373C9.80089 306.79 11.7236 307.587 13.7283 307.587ZM13.7283 235.776H66.6417C68.6465 235.776 70.5692 234.979 71.9868 233.562C73.4044 232.144 74.2008 230.221 74.2008 228.217V175.303C74.2008 173.298 73.4044 171.376 71.9868 169.958C70.5692 168.54 68.6465 167.744 66.6417 167.744H13.7283C11.7236 167.744 9.80089 168.54 8.38329 169.958C6.96569 171.376 6.16929 173.298 6.16929 175.303V228.217C6.16929 230.221 6.96569 232.144 8.38329 233.562C9.80089 234.979 11.7236 235.776 13.7283 235.776ZM13.7283 163.965H66.6417C68.6465 163.965 70.5692 163.168 71.9868 161.751C73.4044 160.333 74.2008 158.41 74.2008 156.406V103.492C74.2008 101.487 73.4044 99.5647 71.9868 98.1471C70.5692 96.7295 68.6465 95.9331 66.6417 95.9331H13.7283C11.7236 95.9331 9.80089 96.7295 8.38329 98.1471C6.96569 99.5647 6.16929 101.487 6.16929 103.492V156.406C6.16929 158.41 6.96569 160.333 8.38329 161.751C9.80089 163.168 11.7236 163.965 13.7283 163.965ZM85.5394 235.776H138.453C140.458 235.776 142.38 234.979 143.798 233.562C145.215 232.144 146.012 230.221 146.012 228.217V175.303C146.012 173.298 145.215 171.376 143.798 169.958C142.38 168.54 140.458 167.744 138.453 167.744H85.5394C83.5346 167.744 81.6119 168.54 80.1943 169.958C78.7767 171.376 77.9803 173.298 77.9803 175.303V228.217C77.9803 230.221 78.7767 232.144 80.1943 233.562C81.6119 234.979 83.5346 235.776 85.5394 235.776ZM85.5394 163.965H138.453C140.458 163.965 142.38 163.168 143.798 161.751C145.215 160.333 146.012 158.41 146.012 156.406V103.492C146.012 101.487 145.215 99.5647 143.798 98.1471C142.38 96.7295 140.458 95.9331 138.453 95.9331H85.5394C83.5346 95.9331 81.6119 96.7295 80.1943 98.1471C78.7767 99.5647 77.9803 101.487 77.9803 103.492V156.406C77.9803 158.41 78.7767 160.333 80.1943 161.751C81.6119 163.168 83.5346 163.965 85.5394 163.965ZM85.5394 92.1535H138.453C140.458 92.1535 142.38 91.3571 143.798 89.9395C145.215 88.5219 146.012 86.5993 146.012 84.5945V31.6811C146.012 29.6763 145.215 27.7536 143.798 26.336C142.38 24.9184 140.458 24.122 138.453 24.122H85.5394C83.5346 24.122 81.6119 24.9184 80.1943 26.336C78.7767 27.7536 77.9803 29.6763 77.9803 31.6811V84.5945C77.9803 86.5993 78.7767 88.5219 80.1943 89.9395C81.6119 91.3571 83.5346 92.1535 85.5394 92.1535ZM157.35 217.823H210.264C212.269 217.823 214.191 217.026 215.609 215.609C217.026 214.191 217.823 212.269 217.823 210.264V157.35C217.823 155.346 217.026 153.423 215.609 152.005C214.191 150.588 212.269 149.791 210.264 149.791H157.35C155.346 149.791 153.423 150.588 152.005 152.005C150.588 153.423 149.791 155.346 149.791 157.35V210.264C149.791 212.269 150.588 214.191 152.005 215.609C153.423 217.026 155.346 217.823 157.35 217.823ZM157.35 146.012H210.264C212.269 146.012 214.191 145.215 215.609 143.798C217.026 142.38 217.823 140.458 217.823 138.453V85.5394C217.823 83.5346 217.026 81.6119 215.609 80.1943C214.191 78.7767 212.269 77.9803 210.264 77.9803H157.35C155.346 77.9803 153.423 78.7767 152.005 80.1943C150.588 81.6119 149.791 83.5346 149.791 85.5394V138.453C149.791 140.458 150.588 142.38 152.005 143.798C153.423 145.215 155.346 146.012 157.35 146.012ZM157.35 74.2008H210.264C212.269 74.2008 214.191 73.4044 215.609 71.9868C217.026 70.5692 217.823 68.6465 217.823 66.6417V13.7283C217.823 11.7236 217.026 9.80088 215.609 8.38329C214.191 6.96569 212.269 6.16929 210.264 6.16929H157.35C155.346 6.16929 153.423 6.96569 152.005 8.38329C150.588 9.80088 149.791 11.7236 149.791 13.7283V66.6417C149.791 68.6465 150.588 70.5692 152.005 71.9868C153.423 73.4044 155.346 74.2008 157.35 74.2008ZM229.161 253.728H282.075C284.08 253.728 286.002 252.932 287.42 251.514C288.837 250.097 289.634 248.174 289.634 246.169V193.256C289.634 191.251 288.837 189.328 287.42 187.911C286.002 186.493 284.08 185.697 282.075 185.697H229.161C227.157 185.697 225.234 186.493 223.816 187.911C222.399 189.328 221.602 191.251 221.602 193.256V246.169C221.602 248.174 222.399 250.097 223.816 251.514C225.234 252.932 227.157 253.728 229.161 253.728ZM229.161 181.917H282.075C284.08 181.917 286.002 181.121 287.42 179.703C288.837 178.286 289.634 176.363 289.634 174.358V121.445C289.634 119.44 288.837 117.517 287.42 116.1C286.002 114.682 284.08 113.886 282.075 113.886H229.161C227.157 113.886 225.234 114.682 223.816 116.1C222.399 117.517 221.602 119.44 221.602 121.445V174.358C221.602 176.363 222.399 178.286 223.816 179.703C225.234 181.121 227.157 181.917 229.161 181.917ZM229.161 110.106H282.075C284.08 110.106 286.002 109.31 287.42 107.892C288.837 106.475 289.634 104.552 289.634 102.547V49.6339C289.634 47.6291 288.837 45.7064 287.42 44.2888C286.002 42.8712 284.08 42.0748 282.075 42.0748H229.161C227.157 42.0748 225.234 42.8712 223.816 44.2888C222.399 45.7064 221.602 47.6291 221.602 49.6339V102.547C221.602 104.552 222.399 106.475 223.816 107.892C225.234 109.31 227.157 110.106 229.161 110.106ZM300.972 271.681H353.886C355.891 271.681 357.813 270.885 359.231 269.467C360.649 268.05 361.445 266.127 361.445 264.122V211.209C361.445 209.204 360.649 207.281 359.231 205.864C357.813 204.446 355.891 203.65 353.886 203.65H300.972C298.968 203.65 297.045 204.446 295.627 205.864C294.21 207.281 293.413 209.204 293.413 211.209V264.122C293.413 266.127 294.21 268.05 295.627 269.467C297.045 270.885 298.968 271.681 300.972 271.681ZM300.972 199.87H353.886C355.891 199.87 357.813 199.074 359.231 197.656C360.649 196.238 361.445 194.316 361.445 192.311V139.398C361.445 137.393 360.649 135.47 359.231 134.053C357.813 132.635 355.891 131.839 353.886 131.839H300.972C298.968 131.839 297.045 132.635 295.627 134.053C294.21 135.47 293.413 137.393 293.413 139.398V192.311C293.413 194.316 294.21 196.238 295.627 197.656C297.045 199.074 298.968 199.87 300.972 199.87ZM300.972 128.059H353.886C355.891 128.059 357.813 127.263 359.231 125.845C360.649 124.427 361.445 122.505 361.445 120.5V67.5866C361.445 65.5818 360.649 63.6592 359.231 62.2416C357.813 60.824 355.891 60.0276 353.886 60.0276H300.972C298.968 60.0276 297.045 60.824 295.627 62.2416C294.21 63.6592 293.413 65.5818 293.413 67.5866V120.5C293.413 122.505 294.21 124.427 295.627 125.845C297.045 127.263 298.968 128.059 300.972 128.059ZM229.161 343.492H282.075C284.08 343.492 286.002 342.696 287.42 341.278C288.837 339.861 289.634 337.938 289.634 335.933V283.02C289.634 281.015 288.837 279.092 287.42 277.675C286.002 276.257 284.08 275.461 282.075 275.461H229.161C227.157 275.461 225.234 276.257 223.816 277.675C222.399 279.092 221.602 281.015 221.602 283.02V335.933C221.602 337.938 222.399 339.861 223.816 341.278C225.234 342.696 227.157 343.492 229.161 343.492ZM378.218 370.588L424.041 397.044C425.778 398.047 427.841 398.318 429.777 397.799C431.714 397.281 433.365 396.014 434.367 394.278L460.824 348.455C461.826 346.719 462.098 344.655 461.579 342.719C461.06 340.782 459.793 339.131 458.057 338.129L412.234 311.672C410.498 310.67 408.435 310.398 406.498 310.917C404.562 311.436 402.911 312.703 401.909 314.439L375.452 360.262C374.45 361.998 374.178 364.061 374.697 365.998C375.216 367.934 376.482 369.585 378.218 370.588ZM304.408 344.464L355.519 358.157C356.478 358.414 357.478 358.48 358.462 358.35C359.446 358.221 360.396 357.899 361.256 357.403C362.115 356.906 362.869 356.246 363.474 355.458C364.078 354.67 364.521 353.771 364.778 352.812L378.472 301.702C378.729 300.743 378.795 299.743 378.665 298.758C378.536 297.774 378.214 296.825 377.718 295.965C377.221 295.105 376.561 294.351 375.773 293.747C374.985 293.142 374.086 292.699 373.127 292.442L322.017 278.749C321.058 278.492 320.058 278.426 319.073 278.555C318.089 278.685 317.14 279.007 316.28 279.503C315.42 279.999 314.666 280.66 314.062 281.448C313.457 282.235 313.014 283.134 312.757 284.093L299.064 335.204C298.807 336.163 298.741 337.163 298.87 338.147C299 339.131 299.322 340.081 299.818 340.941C300.314 341.8 300.975 342.554 301.763 343.159C302.55 343.763 303.449 344.207 304.408 344.464Z" fill="url(#paint0_linear_2022_202)" fill-opacity="0.07" stroke="url(#paint1_linear_2022_202)" stroke-linecap="round"/>
<path fill-rule="evenodd" clip-rule="evenodd" d="M913.017 90.2638H969.71C971.715 90.2638 973.637 91.0602 975.055 92.4778C976.473 93.8954 977.269 95.8181 977.269 97.8228V305.697C977.269 307.702 976.473 309.624 975.055 311.042C973.637 312.46 971.715 313.256 969.71 313.256H820.721C819.289 313.256 817.887 313.662 816.677 314.428L763.238 348.273C762.315 348.858 761.275 349.236 760.192 349.381L615.326 368.686C614.346 368.816 613.401 369.137 612.545 369.631L551.653 404.789C549.916 405.791 547.853 406.063 545.917 405.544C543.98 405.025 542.329 403.758 541.327 402.022L508.513 345.193C507.64 343.681 507.317 341.913 507.6 340.19C507.882 338.467 508.752 336.894 510.063 335.74L528.722 319.292C529.527 318.583 530.172 317.711 530.614 316.733C531.056 315.756 531.284 314.695 531.285 313.623V61.9173C531.285 59.9125 532.081 57.9899 533.499 56.5723C534.916 55.1547 536.839 54.3583 538.844 54.3583H674.907C676.912 54.3583 678.834 53.5619 680.252 52.1443C681.669 50.7267 682.466 48.804 682.466 46.7992V43.9646C682.466 41.9598 683.262 40.0371 684.68 38.6195C686.097 37.2019 688.02 36.4055 690.025 36.4055H746.718C748.723 36.4055 750.645 35.6091 752.063 34.1915C753.481 32.7739 754.277 30.8512 754.277 28.8465V8.05906C754.277 6.05427 755.073 4.13159 756.491 2.714C757.908 1.2964 759.831 0.5 761.836 0.5L826.088 0.5C828.093 0.5 830.015 1.2964 831.433 2.714C832.851 4.13159 833.647 6.05427 833.647 8.05906V10.8937C833.647 12.8985 834.443 14.8212 835.861 16.2388C837.279 17.6564 839.201 18.4528 841.206 18.4528H897.899C899.904 18.4528 901.826 19.2492 903.244 20.6668C904.662 22.0843 905.458 24.007 905.458 26.0118V82.7047C905.458 84.7095 906.254 86.6322 907.672 88.0498C909.09 89.4674 911.012 90.2638 913.017 90.2638ZM964.041 307.587H911.127C909.123 307.587 907.2 306.79 905.782 305.373C904.365 303.955 903.568 302.032 903.568 300.028V247.114C903.568 245.109 904.365 243.187 905.782 241.769C907.2 240.352 909.123 239.555 911.127 239.555H964.041C966.045 239.555 967.968 240.352 969.386 241.769C970.803 243.187 971.6 245.109 971.6 247.114V300.028C971.6 302.032 970.803 303.955 969.386 305.373C967.968 306.79 966.045 307.587 964.041 307.587ZM964.041 235.776H911.127C909.123 235.776 907.2 234.979 905.782 233.562C904.365 232.144 903.568 230.221 903.568 228.217V175.303C903.568 173.298 904.365 171.376 905.782 169.958C907.2 168.54 909.123 167.744 911.127 167.744H964.041C966.045 167.744 967.968 168.54 969.386 169.958C970.803 171.376 971.6 173.298 971.6 175.303V228.217C971.6 230.221 970.803 232.144 969.386 233.562C967.968 234.979 966.045 235.776 964.041 235.776ZM964.041 163.965H911.127C909.123 163.965 907.2 163.168 905.782 161.751C904.365 160.333 903.568 158.41 903.568 156.406V103.492C903.568 101.487 904.365 99.5647 905.782 98.1471C907.2 96.7295 909.123 95.9331 911.127 95.9331H964.041C966.045 95.9331 967.968 96.7295 969.386 98.1471C970.803 99.5647 971.6 101.487 971.6 103.492V156.406C971.6 158.41 970.803 160.333 969.386 161.751C967.968 163.168 966.045 163.965 964.041 163.965ZM892.23 235.776H839.316C837.311 235.776 835.389 234.979 833.971 233.562C832.554 232.144 831.757 230.221 831.757 228.217V175.303C831.757 173.298 832.554 171.376 833.971 169.958C835.389 168.54 837.311 167.744 839.316 167.744H892.23C894.234 167.744 896.157 168.54 897.575 169.958C898.992 171.376 899.789 173.298 899.789 175.303V228.217C899.789 230.221 898.992 232.144 897.575 233.562C896.157 234.979 894.234 235.776 892.23 235.776ZM892.23 163.965H839.316C837.311 163.965 835.389 163.168 833.971 161.751C832.554 160.333 831.757 158.41 831.757 156.406V103.492C831.757 101.487 832.554 99.5647 833.971 98.1471C835.389 96.7295 837.311 95.9331 839.316 95.9331H892.23C894.234 95.9331 896.157 96.7295 897.575 98.1471C898.992 99.5647 899.789 101.487 899.789 103.492V156.406C899.789 158.41 898.992 160.333 897.575 161.751C896.157 163.168 894.234 163.965 892.23 163.965ZM892.23 92.1535H839.316C837.311 92.1535 835.389 91.3571 833.971 89.9395C832.554 88.522 831.757 86.5993 831.757 84.5945V31.6811C831.757 29.6763 832.554 27.7536 833.971 26.336C835.389 24.9184 837.311 24.122 839.316 24.122H892.23C894.234 24.122 896.157 24.9184 897.575 26.336C898.992 27.7536 899.789 29.6763 899.789 31.6811V84.5945C899.789 86.5993 898.992 88.522 897.575 89.9395C896.157 91.3571 894.234 92.1535 892.23 92.1535ZM820.419 217.823H767.505C765.5 217.823 763.578 217.026 762.16 215.609C760.743 214.191 759.946 212.269 759.946 210.264V157.35C759.946 155.346 760.743 153.423 762.16 152.005C763.578 150.588 765.5 149.791 767.505 149.791H820.419C822.423 149.791 824.346 150.588 825.764 152.005C827.181 153.423 827.978 155.346 827.978 157.35V210.264C827.978 212.269 827.181 214.191 825.764 215.609C824.346 217.026 822.423 217.823 820.419 217.823ZM820.419 146.012H767.505C765.5 146.012 763.578 145.215 762.16 143.798C760.743 142.38 759.946 140.458 759.946 138.453V85.5394C759.946 83.5346 760.743 81.6119 762.16 80.1943C763.578 78.7767 765.5 77.9803 767.505 77.9803H820.419C822.423 77.9803 824.346 78.7767 825.764 80.1943C827.181 81.6119 827.978 83.5346 827.978 85.5394V138.453C827.978 140.458 827.181 142.38 825.764 143.798C824.346 145.215 822.423 146.012 820.419 146.012ZM820.419 74.2008H767.505C765.5 74.2008 763.578 73.4044 762.16 71.9868C760.743 70.5692 759.946 68.6465 759.946 66.6417V13.7283C759.946 11.7236 760.743 9.80089 762.16 8.38329C763.578 6.96569 765.5 6.16929 767.505 6.16929H820.419C822.423 6.16929 824.346 6.96569 825.764 8.38329C827.181 9.80089 827.978 11.7236 827.978 13.7283V66.6417C827.978 68.6465 827.181 70.5692 825.764 71.9868C824.346 73.4044 822.423 74.2008 820.419 74.2008ZM748.608 253.728H695.694C693.689 253.728 691.767 252.932 690.349 251.514C688.932 250.097 688.135 248.174 688.135 246.169V193.256C688.135 191.251 688.932 189.328 690.349 187.911C691.767 186.493 693.689 185.697 695.694 185.697H748.608C750.612 185.697 752.535 186.493 753.953 187.911C755.37 189.328 756.167 191.251 756.167 193.256V246.169C756.167 248.174 755.37 250.097 753.953 251.514C752.535 252.932 750.612 253.728 748.608 253.728ZM748.608 181.917H695.694C693.689 181.917 691.767 181.121 690.349 179.703C688.932 178.286 688.135 176.363 688.135 174.358V121.445C688.135 119.44 688.932 117.517 690.349 116.1C691.767 114.682 693.689 113.886 695.694 113.886H748.608C750.612 113.886 752.535 114.682 753.953 116.1C755.37 117.517 756.167 119.44 756.167 121.445V174.358C756.167 176.363 755.37 178.286 753.953 179.703C752.535 181.121 750.612 181.917 748.608 181.917ZM748.608 110.106H695.694C693.689 110.106 691.767 109.31 690.349 107.892C688.932 106.475 688.135 104.552 688.135 102.547V49.6339C688.135 47.6291 688.932 45.7064 690.349 44.2888C691.767 42.8712 693.689 42.0748 695.694 42.0748H748.608C750.612 42.0748 752.535 42.8712 753.953 44.2888C755.37 45.7064 756.167 47.6291 756.167 49.6339V102.547C756.167 104.552 755.37 106.475 753.953 107.892C752.535 109.31 750.612 110.106 748.608 110.106ZM676.797 271.681H623.883C621.878 271.681 619.956 270.885 618.538 269.467C617.121 268.05 616.324 266.127 616.324 264.122V211.209C616.324 209.204 617.121 207.281 618.538 205.864C619.956 204.446 621.878 203.65 623.883 203.65H676.797C678.801 203.65 680.724 204.446 682.142 205.864C683.559 207.281 684.356 209.204 684.356 211.209V264.122C684.356 266.127 683.559 268.05 682.142 269.467C680.724 270.885 678.801 271.681 676.797 271.681ZM676.797 199.87H623.883C621.878 199.87 619.956 199.074 618.538 197.656C617.121 196.238 616.324 194.316 616.324 192.311V139.398C616.324 137.393 617.121 135.47 618.538 134.053C619.956 132.635 621.878 131.839 623.883 131.839H676.797C678.801 131.839 680.724 132.635 682.142 134.053C683.559 135.47 684.356 137.393 684.356 139.398V192.311C684.356 194.316 683.559 196.238 682.142 197.656C680.724 199.074 678.801 199.87 676.797 199.87ZM676.797 128.059H623.883C621.878 128.059 619.956 127.263 618.538 125.845C617.121 124.427 616.324 122.505 616.324 120.5V67.5866C616.324 65.5818 617.121 63.6592 618.538 62.2416C619.956 60.824 621.878 60.0276 623.883 60.0276H676.797C678.801 60.0276 680.724 60.824 682.142 62.2416C683.559 63.6592 684.356 65.5818 684.356 67.5866V120.5C684.356 122.505 683.559 124.427 682.142 125.845C680.724 127.263 678.801 128.059 676.797 128.059ZM748.608 343.492H695.694C693.689 343.492 691.767 342.696 690.349 341.278C688.932 339.861 688.135 337.938 688.135 335.933V283.02C688.135 281.015 688.932 279.092 690.349 277.675C691.767 276.257 693.689 275.461 695.694 275.461H748.608C750.612 275.461 752.535 276.257 753.953 277.675C755.37 279.092 756.167 281.015 756.167 283.02V335.933C756.167 337.938 755.37 339.861 753.953 341.278C752.535 342.696 750.612 343.492 748.608 343.492ZM599.551 370.588L553.728 397.044C551.991 398.047 549.928 398.318 547.992 397.799C546.055 397.281 544.404 396.014 543.402 394.278L516.945 348.455C515.943 346.719 515.671 344.655 516.19 342.719C516.709 340.782 517.976 339.131 519.712 338.129L565.535 311.672C567.271 310.67 569.334 310.398 571.271 310.917C573.207 311.436 574.858 312.703 575.861 314.439L602.317 360.262C603.32 361.998 603.591 364.061 603.072 365.998C602.554 367.934 601.287 369.585 599.551 370.588ZM673.361 344.463L622.25 358.157C621.292 358.414 620.291 358.48 619.307 358.35C618.323 358.221 617.373 357.899 616.514 357.403C615.654 356.906 614.9 356.246 614.295 355.458C613.691 354.67 613.248 353.771 612.991 352.812L599.297 301.702C599.04 300.743 598.974 299.743 599.104 298.758C599.233 297.774 599.555 296.825 600.051 295.965C600.548 295.105 601.209 294.351 601.996 293.747C602.784 293.142 603.683 292.699 604.642 292.442L655.752 278.749C656.711 278.492 657.711 278.426 658.696 278.555C659.68 278.685 660.629 279.007 661.489 279.503C662.349 279.999 663.103 280.66 663.707 281.448C664.312 282.235 664.755 283.134 665.012 284.093L678.705 335.204C678.962 336.163 679.028 337.163 678.899 338.147C678.77 339.131 678.448 340.081 677.951 340.941C677.455 341.8 676.794 342.554 676.007 343.159C675.219 343.763 674.32 344.206 673.361 344.463Z" fill="url(#paint2_linear_2022_202)" fill-opacity="0.07" stroke="url(#paint3_linear_2022_202)" stroke-linecap="round"/>
<path d="M146.498 281.5L152.754 270.5H159.01L154.318 278.75H166.83L165.266 281.5H146.498Z" fill="white" fill-opacity="0.06"/>
<path d="M132.421 270.5L126.165 281.5H144.933L146.498 278.75H133.985L138.677 270.5H132.421Z" fill="white" fill-opacity="0.06"/>
<path d="M112.089 270.5L105.833 281.5H124.601L130.857 270.5H124.601L119.909 278.75H113.653L118.345 270.5H112.089Z" fill="white" fill-opacity="0.06"/>
<path d="M85.5 281.5L91.7562 270.5H98.0123L101.14 276L104.268 270.5H110.525L104.268 281.5H98.0123L94.8842 276L91.7562 281.5H85.5Z" fill="white" fill-opacity="0.06"/>
<path d="M173.399 270.5H192.167L185.911 281.5H167.143L168.707 278.75H181.219L182.001 277.375H172.617L174.103 274.625H183.487L184.347 273.25H171.835L173.399 270.5Z" fill="white" fill-opacity="0.06"/>
<path fill-rule="evenodd" clip-rule="evenodd" d="M212.5 270.5H193.732L187.475 281.5H206.244L210.076 274.625H197.563L198.424 273.25H210.936L212.5 270.5ZM202.334 277.375H196.078L195.296 278.75H201.552L202.334 277.375Z" fill="white" fill-opacity="0.06"/>
<defs>
<linearGradient id="paint0_linear_2022_202" x1="235.385" y1="0.5" x2="235.385" y2="405.801" gradientUnits="userSpaceOnUse">
<stop stop-color="white"/>
<stop offset="1" stop-color="#333333"/>
</linearGradient>
<linearGradient id="paint1_linear_2022_202" x1="235.385" y1="0.5" x2="235.385" y2="405.801" gradientUnits="userSpaceOnUse">
<stop stop-color="#7F7F7F"/>
<stop offset="1" stop-color="#E5E5E5"/>
</linearGradient>
<linearGradient id="paint2_linear_2022_202" x1="742.385" y1="0.5" x2="742.385" y2="405.801" gradientUnits="userSpaceOnUse">
<stop stop-color="white"/>
<stop offset="1" stop-color="#333333"/>
</linearGradient>
<linearGradient id="paint3_linear_2022_202" x1="742.385" y1="0.5" x2="742.385" y2="405.801" gradientUnits="userSpaceOnUse">
<stop stop-color="#7F7F7F"/>
<stop offset="1" stop-color="#E5E5E5"/>
</linearGradient>
</defs>
</svg>
