<svg width="406" height="46" viewBox="0 0 406 46" fill="none" xmlns="http://www.w3.org/2000/svg">
<g clip-path="url(#clip0_2001_9)">
<path d="M195 34L215 0H235L220 25.5H260L255 34H195Z" fill="white"/>
<path d="M150 0L130 34H190L195 25.5H155L170 0H150Z" fill="white"/>
<path d="M85 0L65 34H125L145 0H125L110 25.5H90L105 0H85Z" fill="white"/>
<path d="M0 34L20 0H40L50 17L60 0H80L60 34H40L30 17L20 34H0Z" fill="white"/>
<path d="M281 0H341L321 34H261L266 25.5H306L308.5 21.25H278.5L283.25 12.75H313.25L316 8.5H276L281 0Z" fill="white"/>
<path fill-rule="evenodd" clip-rule="evenodd" d="M406 0H346L326 34H386L398.25 12.75H358.25L361 8.5H401L406 0ZM373.5 21.25H353.5L351 25.5H371L373.5 21.25Z" fill="white"/>
<path d="M246.612 38.7852C247.335 38.7852 247.896 39.1025 248.102 39.625H248.146V36.9834H249.029V44H248.18V43.1797H248.136C247.984 43.7021 247.345 44.0732 246.593 44.0732C245.396 44.0732 244.62 43.2383 244.62 41.9297V40.9336C244.62 39.625 245.416 38.7852 246.612 38.7852ZM246.793 39.542C245.992 39.542 245.509 40.1279 245.509 41.1143V41.7393C245.509 42.7354 246.002 43.3164 246.817 43.3164C247.623 43.3164 248.146 42.7451 248.146 41.8223V40.9336C248.146 40.1182 247.574 39.542 246.793 39.542ZM252.735 44.083C251.354 44.083 250.538 43.209 250.538 41.8223V41.041C250.538 39.6445 251.437 38.7803 252.667 38.7803C253.912 38.7803 254.801 39.6592 254.801 41.041V41.6611H251.417V41.9199C251.417 42.7158 251.876 43.3359 252.73 43.3359C253.331 43.3359 253.736 43.0479 253.824 42.7305H254.732C254.654 43.2773 254.034 44.083 252.735 44.083ZM251.417 41.0215H253.922V40.9385C253.922 40.084 253.424 39.5225 252.672 39.5225C251.92 39.5225 251.417 40.084 251.417 40.9385V41.0215ZM256.021 40.3379C256.021 39.249 256.935 38.7803 257.936 38.7803C259.044 38.7803 259.776 39.3516 259.776 40.2158H258.956C258.927 39.8594 258.595 39.4736 257.906 39.4736C257.306 39.4736 256.876 39.752 256.876 40.25C256.876 40.8604 257.569 40.9385 258.15 41.0459C259.112 41.2119 259.908 41.4805 259.908 42.4814C259.908 43.502 259.088 44.083 257.857 44.083C256.715 44.083 255.929 43.5703 255.929 42.6523H256.793C256.861 43.1064 257.179 43.3945 257.896 43.3945C258.707 43.3945 259.039 43.0283 259.039 42.584C259.039 42.0127 258.468 41.9053 257.755 41.7637C256.798 41.5684 256.021 41.3486 256.021 40.3379ZM261.29 37.2812C261.29 36.9248 261.559 36.6709 261.91 36.6709C262.281 36.6709 262.55 36.9248 262.55 37.2812C262.55 37.6328 262.281 37.8867 261.91 37.8867C261.559 37.8867 261.29 37.6328 261.29 37.2812ZM261.476 44V38.8633H262.359V44H261.476ZM266.08 45.1377C266.983 45.1377 267.428 44.6543 267.428 43.8486V43.1016H267.379C267.179 43.5459 266.651 43.9072 265.938 43.9072C264.801 43.9072 263.912 43.1016 263.912 41.749V40.9531C263.912 39.6006 264.796 38.7852 265.934 38.7852C266.705 38.7852 267.252 39.2197 267.423 39.6396H267.467V38.8633H268.312V43.8438C268.312 45.2598 267.364 45.8799 266.051 45.8799C264.737 45.8799 264.093 45.2207 264.024 44.4736H264.923C264.991 44.835 265.406 45.1377 266.08 45.1377ZM266.153 39.542C265.318 39.542 264.801 40.1768 264.801 41.1143V41.5977C264.801 42.5352 265.367 43.165 266.163 43.165C266.983 43.165 267.428 42.4863 267.428 41.7539V40.9775C267.428 40.2256 266.959 39.542 266.153 39.542ZM270.055 44V38.8633H270.929V39.7959H270.978C271.104 39.3906 271.461 38.7803 272.535 38.7803C273.57 38.7803 274.278 39.3418 274.278 40.4941V44H273.395V40.7725C273.395 39.9668 272.979 39.5518 272.281 39.5518C271.378 39.5518 270.938 40.25 270.938 41.1387V44H270.055ZM277.94 44.083C276.559 44.083 275.743 43.209 275.743 41.8223V41.041C275.743 39.6445 276.642 38.7803 277.872 38.7803C279.117 38.7803 280.006 39.6592 280.006 41.041V41.6611H276.622V41.9199C276.622 42.7158 277.081 43.3359 277.936 43.3359C278.536 43.3359 278.941 43.0479 279.029 42.7305H279.938C279.859 43.2773 279.239 44.083 277.94 44.083ZM276.622 41.0215H279.127V40.9385C279.127 40.084 278.629 39.5225 277.877 39.5225C277.125 39.5225 276.622 40.084 276.622 40.9385V41.0215ZM283.214 38.7852C283.937 38.7852 284.498 39.1025 284.703 39.625H284.747V36.9834H285.631V44H284.781V43.1797H284.737C284.586 43.7021 283.946 44.0732 283.194 44.0732C281.998 44.0732 281.222 43.2383 281.222 41.9297V40.9336C281.222 39.625 282.018 38.7852 283.214 38.7852ZM283.395 39.542C282.594 39.542 282.11 40.1279 282.11 41.1143V41.7393C282.11 42.7354 282.604 43.3164 283.419 43.3164C284.225 43.3164 284.747 42.7451 284.747 41.8223V40.9336C284.747 40.1182 284.176 39.542 283.395 39.542ZM292.076 44.0781C291.354 44.0781 290.782 43.7656 290.553 43.2383H290.509V44H289.659V36.9834H290.543V39.6787H290.587C290.748 39.1416 291.358 38.7852 292.101 38.7852C293.312 38.7852 294.068 39.6299 294.068 40.9873V41.8711C294.068 43.2334 293.302 44.0781 292.076 44.0781ZM291.905 43.3213C292.711 43.3213 293.18 42.7354 293.18 41.7197V41.1729C293.18 40.1377 292.706 39.542 291.881 39.542C291.061 39.542 290.543 40.1279 290.543 41.0605V41.9053C290.543 42.7354 291.114 43.3213 291.905 43.3213ZM299.61 38.8633C299.527 39.1318 297.794 44 297.794 44.0098L297.687 44.2881C297.276 45.3818 296.759 45.8018 295.865 45.8018C295.709 45.8018 295.484 45.7871 295.357 45.7578V45.0449C295.436 45.0547 295.631 45.0693 295.733 45.0693C296.31 45.0693 296.607 44.8398 296.764 44.2588L296.817 44.0684L294.933 38.8633H295.914L297.271 43.1357H297.311L298.673 38.8633H299.61ZM303.165 37.335H305.333C307.276 37.335 308.268 38.4873 308.268 40.665C308.268 42.8428 307.276 44 305.333 44H303.165V37.335ZM304.063 38.1211V43.209H305.27C306.661 43.209 307.335 42.3691 307.335 40.6699C307.335 38.9707 306.656 38.1211 305.27 38.1211H304.063ZM313.937 38.8633C313.854 39.1318 312.12 44 312.12 44.0098L312.013 44.2881C311.603 45.3818 311.085 45.8018 310.191 45.8018C310.035 45.8018 309.811 45.7871 309.684 45.7578V45.0449C309.762 45.0547 309.957 45.0693 310.06 45.0693C310.636 45.0693 310.934 44.8398 311.09 44.2588L311.144 44.0684L309.259 38.8633H310.24L311.598 43.1357H311.637L312.999 38.8633H313.937ZM315.201 44V36.9834H316.085V44H315.201ZM319.244 44.083C318.248 44.083 317.564 43.458 317.564 42.5059C317.564 41.6074 318.189 40.9971 319.371 40.9971H320.714V40.4893C320.714 39.8301 320.299 39.5273 319.64 39.5273C318.99 39.5273 318.717 39.7812 318.614 40.1377H317.76C317.838 39.2686 318.521 38.7803 319.669 38.7803C320.729 38.7803 321.603 39.2344 321.603 40.4941V44H320.753V43.3164H320.714C320.465 43.7314 320.001 44.083 319.244 44.083ZM319.488 43.3408C320.182 43.3408 320.714 42.8721 320.714 42.2422V41.6709H319.444C318.751 41.6709 318.468 42.0176 318.468 42.4766C318.468 43.0723 318.956 43.3408 319.488 43.3408ZM323.316 44V38.8633H324.19V39.7959H324.239C324.366 39.3906 324.723 38.7803 325.797 38.7803C326.832 38.7803 327.54 39.3418 327.54 40.4941V44H326.656V40.7725C326.656 39.9668 326.241 39.5518 325.543 39.5518C324.64 39.5518 324.2 40.25 324.2 41.1387V44H323.316ZM331.573 37.335H333.741C335.685 37.335 336.676 38.4873 336.676 40.665C336.676 42.8428 335.685 44 333.741 44H331.573V37.335ZM332.472 38.1211V43.209H333.678C335.069 43.209 335.743 42.3691 335.743 40.6699C335.743 38.9707 335.064 38.1211 333.678 38.1211H332.472ZM338.038 37.2812C338.038 36.9248 338.307 36.6709 338.658 36.6709C339.029 36.6709 339.298 36.9248 339.298 37.2812C339.298 37.6328 339.029 37.8867 338.658 37.8867C338.307 37.8867 338.038 37.6328 338.038 37.2812ZM338.224 44V38.8633H339.107V44H338.224ZM341.026 44V37.335H343.556C344.693 37.335 345.416 37.9648 345.416 38.9756C345.416 39.7324 345.021 40.2402 344.342 40.4453V40.4844C345.226 40.6016 345.792 41.1924 345.792 42.1299C345.792 43.3018 344.894 44 343.468 44H341.026ZM341.92 38.1064V40.1963H342.926C344.024 40.1963 344.513 39.8545 344.513 39.127C344.513 38.4824 344.103 38.1064 343.399 38.1064H341.92ZM341.92 40.9482V43.2285H343.062C344.352 43.2285 344.874 42.9014 344.874 42.1299C344.874 41.3828 344.371 40.9482 343.492 40.9482H341.92ZM349.171 44.083C347.789 44.083 346.974 43.209 346.974 41.8223V41.041C346.974 39.6445 347.872 38.7803 349.103 38.7803C350.348 38.7803 351.236 39.6592 351.236 41.041V41.6611H347.853V41.9199C347.853 42.7158 348.312 43.3359 349.166 43.3359C349.767 43.3359 350.172 43.0479 350.26 42.7305H351.168C351.09 43.2773 350.47 44.083 349.171 44.083ZM347.853 41.0215H350.357V40.9385C350.357 40.084 349.859 39.5225 349.107 39.5225C348.355 39.5225 347.853 40.084 347.853 40.9385V41.0215ZM352.701 44V38.8633H353.575V39.7959H353.624C353.751 39.3906 354.107 38.7803 355.182 38.7803C356.217 38.7803 356.925 39.3418 356.925 40.4941V44H356.041V40.7725C356.041 39.9668 355.626 39.5518 354.928 39.5518C354.024 39.5518 353.585 40.25 353.585 41.1387V44H352.701ZM360.587 44.083C359.205 44.083 358.39 43.209 358.39 41.8223V41.041C358.39 39.6445 359.288 38.7803 360.519 38.7803C361.764 38.7803 362.652 39.6592 362.652 41.041V41.6611H359.269V41.9199C359.269 42.7158 359.728 43.3359 360.582 43.3359C361.183 43.3359 361.588 43.0479 361.676 42.7305H362.584C362.506 43.2773 361.886 44.083 360.587 44.083ZM359.269 41.0215H361.773V40.9385C361.773 40.084 361.275 39.5225 360.523 39.5225C359.771 39.5225 359.269 40.084 359.269 40.9385V41.0215ZM365.86 38.7852C366.583 38.7852 367.145 39.1025 367.35 39.625H367.394V36.9834H368.277V44H367.428V43.1797H367.384C367.232 43.7021 366.593 44.0732 365.841 44.0732C364.645 44.0732 363.868 43.2383 363.868 41.9297V40.9336C363.868 39.625 364.664 38.7852 365.86 38.7852ZM366.041 39.542C365.24 39.542 364.757 40.1279 364.757 41.1143V41.7393C364.757 42.7354 365.25 43.3164 366.065 43.3164C366.871 43.3164 367.394 42.7451 367.394 41.8223V40.9336C367.394 40.1182 366.822 39.542 366.041 39.542ZM369.972 37.2812C369.972 36.9248 370.24 36.6709 370.592 36.6709C370.963 36.6709 371.231 36.9248 371.231 37.2812C371.231 37.6328 370.963 37.8867 370.592 37.8867C370.24 37.8867 369.972 37.6328 369.972 37.2812ZM370.157 44V38.8633H371.041V44H370.157ZM373.185 38.8779V37.5889H374.059V38.8779H375.221V39.5957H374.059V42.5547C374.059 43.1602 374.264 43.3164 374.889 43.3164C375.016 43.3164 375.211 43.3018 375.294 43.292V44C375.221 44.0195 374.859 44.0439 374.664 44.0439C373.443 44.0439 373.18 43.5752 373.18 42.5596V39.5957H372.394V38.8779H373.185ZM376.954 38.8779V37.5889H377.828V38.8779H378.99V39.5957H377.828V42.5547C377.828 43.1602 378.033 43.3164 378.658 43.3164C378.785 43.3164 378.98 43.3018 379.063 43.292V44C378.99 44.0195 378.629 44.0439 378.434 44.0439C377.213 44.0439 376.949 43.5752 376.949 42.5596V39.5957H376.163V38.8779H376.954ZM382.408 38.7803C383.683 38.7803 384.625 39.6152 384.625 41.0459V41.8076C384.625 43.2578 383.683 44.083 382.408 44.083C381.109 44.083 380.187 43.2725 380.187 41.8076V41.0508C380.187 39.6641 381.124 38.7803 382.408 38.7803ZM382.413 39.5322C381.588 39.5322 381.07 40.1865 381.07 41.124V41.7441C381.07 42.6963 381.554 43.3359 382.413 43.3359C383.263 43.3359 383.736 42.6963 383.736 41.7441V41.124C383.736 40.1865 383.238 39.5322 382.413 39.5322Z" fill="white"/>
</g>
<defs>
<clipPath id="clip0_2001_9">
<rect width="406" height="46" fill="white"/>
</clipPath>
</defs>
</svg>
