<svg width="406" height="68" viewBox="0 0 406 68" fill="none" xmlns="http://www.w3.org/2000/svg">
<g clip-path="url(#clip0_2001_9)">
<path d="M195 55L215 0H235L220 41.25H260L255 55H195Z" fill="white"/>
<path d="M150 0L130 55H190L195 41.25H155L170 0H150Z" fill="white"/>
<path d="M85 0L65 55H125L145 0H125L110 41.25H90L105 0H85Z" fill="white"/>
<path d="M0 55L20 0H40L50 27.5L60 0H80L60 55H40L30 27.5L20 55H0Z" fill="white"/>
<path d="M281 0H341L321 55H261L266 41.25H306L308.5 34.375H278.5L283.25 20.625H313.25L316 13.75H276L281 0Z" fill="white"/>
<path fill-rule="evenodd" clip-rule="evenodd" d="M406 0H346L326 55H386L398.25 20.625H358.25L361 13.75H401L406 0ZM373.5 34.375H353.5L351 41.25H371L373.5 34.375Z" fill="white"/>
<path d="M216.25 64.16H216.21C215.877 64.8 215.347 65.12 214.62 65.12C213.987 65.12 213.49 64.8833 213.13 64.41C212.777 63.9367 212.6 63.2733 212.6 62.42C212.6 61.5667 212.777 60.9033 213.13 60.43C213.49 59.9567 213.987 59.72 214.62 59.72C215.347 59.72 215.877 60.04 216.21 60.68H216.25V57.6H217.05V65H216.25V64.16ZM214.93 64.41C215.11 64.41 215.28 64.3867 215.44 64.34C215.6 64.2933 215.74 64.2267 215.86 64.14C215.98 64.0467 216.073 63.9367 216.14 63.81C216.213 63.6767 216.25 63.5233 216.25 63.35V61.49C216.25 61.3167 216.213 61.1667 216.14 61.04C216.073 60.9067 215.98 60.7967 215.86 60.71C215.74 60.6167 215.6 60.5467 215.44 60.5C215.28 60.4533 215.11 60.43 214.93 60.43C214.463 60.43 214.1 60.5733 213.84 60.86C213.587 61.14 213.46 61.5133 213.46 61.98V62.86C213.46 63.3267 213.587 63.7033 213.84 63.99C214.1 64.27 214.463 64.41 214.93 64.41ZM221.086 65.12C220.713 65.12 220.376 65.0567 220.076 64.93C219.783 64.8033 219.529 64.6233 219.316 64.39C219.109 64.15 218.949 63.8667 218.836 63.54C218.723 63.2067 218.666 62.8367 218.666 62.43C218.666 62.0167 218.723 61.6433 218.836 61.31C218.956 60.9767 219.119 60.6933 219.326 60.46C219.533 60.22 219.779 60.0367 220.066 59.91C220.359 59.7833 220.683 59.72 221.036 59.72C221.383 59.72 221.696 59.7833 221.976 59.91C222.263 60.0367 222.506 60.2133 222.706 60.44C222.906 60.66 223.059 60.9233 223.166 61.23C223.273 61.5367 223.326 61.8733 223.326 62.24V62.62H219.506V62.86C219.506 63.0867 219.543 63.2967 219.616 63.49C219.689 63.6833 219.793 63.85 219.926 63.99C220.066 64.13 220.233 64.24 220.426 64.32C220.626 64.3933 220.846 64.43 221.086 64.43C221.433 64.43 221.733 64.35 221.986 64.19C222.239 64.03 222.433 63.81 222.566 63.53L223.156 63.93C223.003 64.2767 222.746 64.5633 222.386 64.79C222.033 65.01 221.599 65.12 221.086 65.12ZM221.036 60.38C220.816 60.38 220.613 60.42 220.426 60.5C220.239 60.58 220.076 60.69 219.936 60.83C219.803 60.97 219.696 61.1367 219.616 61.33C219.543 61.5167 219.506 61.7233 219.506 61.95V62.02H222.466V61.91C222.466 61.6833 222.429 61.4767 222.356 61.29C222.289 61.1033 222.193 60.9433 222.066 60.81C221.946 60.67 221.796 60.5633 221.616 60.49C221.443 60.4167 221.249 60.38 221.036 60.38ZM227.052 65.12C226.512 65.12 226.046 65.03 225.652 64.85C225.266 64.6633 224.936 64.4167 224.662 64.11L225.202 63.64C225.449 63.9 225.719 64.1 226.012 64.24C226.306 64.38 226.659 64.45 227.072 64.45C227.472 64.45 227.799 64.38 228.052 64.24C228.312 64.0933 228.442 63.8667 228.442 63.56C228.442 63.4267 228.416 63.3167 228.362 63.23C228.316 63.1367 228.249 63.0633 228.162 63.01C228.076 62.9567 227.979 62.9167 227.872 62.89C227.766 62.8567 227.652 62.83 227.532 62.81L226.722 62.69C226.542 62.6633 226.346 62.6267 226.132 62.58C225.926 62.5333 225.736 62.46 225.562 62.36C225.389 62.2533 225.242 62.1133 225.122 61.94C225.009 61.7667 224.952 61.54 224.952 61.26C224.952 61 225.002 60.7767 225.102 60.59C225.209 60.3967 225.356 60.2367 225.542 60.11C225.729 59.9767 225.949 59.88 226.202 59.82C226.456 59.7533 226.732 59.72 227.032 59.72C227.499 59.72 227.902 59.7933 228.242 59.94C228.589 60.0867 228.886 60.29 229.132 60.55L228.612 61.04C228.552 60.9667 228.476 60.8933 228.382 60.82C228.296 60.74 228.186 60.67 228.052 60.61C227.926 60.5433 227.776 60.49 227.602 60.45C227.429 60.41 227.229 60.39 227.002 60.39C226.596 60.39 226.282 60.46 226.062 60.6C225.849 60.74 225.742 60.9433 225.742 61.21C225.742 61.3433 225.766 61.4567 225.812 61.55C225.866 61.6367 225.936 61.7067 226.022 61.76C226.109 61.8133 226.206 61.8567 226.312 61.89C226.426 61.9167 226.539 61.94 226.652 61.96L227.462 62.08C227.649 62.1067 227.846 62.1433 228.052 62.19C228.259 62.2367 228.449 62.3133 228.622 62.42C228.796 62.52 228.939 62.6567 229.052 62.83C229.172 63.0033 229.232 63.23 229.232 63.51C229.232 64.0233 229.032 64.42 228.632 64.7C228.239 64.98 227.712 65.12 227.052 65.12ZM233.308 58.7C233.075 58.7 232.912 58.6533 232.818 58.56C232.725 58.46 232.678 58.3367 232.678 58.19V58.03C232.678 57.8833 232.725 57.7633 232.818 57.67C232.912 57.57 233.075 57.52 233.308 57.52C233.542 57.52 233.705 57.57 233.798 57.67C233.892 57.7633 233.938 57.8833 233.938 58.03V58.19C233.938 58.3367 233.892 58.46 233.798 58.56C233.705 58.6533 233.542 58.7 233.308 58.7ZM231.048 64.32H232.908V60.52H231.048V59.84H233.708V64.32H235.448V65H231.048V64.32ZM241.594 65.59C241.594 66.11 241.378 66.4933 240.944 66.74C240.511 66.9933 239.861 67.12 238.994 67.12C238.161 67.12 237.561 67.01 237.194 66.79C236.834 66.57 236.654 66.2533 236.654 65.84C236.654 65.56 236.728 65.3433 236.874 65.19C237.021 65.0367 237.228 64.9233 237.494 64.85V64.73C237.348 64.6567 237.234 64.5633 237.154 64.45C237.074 64.3367 237.034 64.1933 237.034 64.02C237.034 63.7533 237.121 63.5533 237.294 63.42C237.474 63.2867 237.698 63.1867 237.964 63.12V63.08C237.644 62.94 237.394 62.7333 237.214 62.46C237.041 62.1867 236.954 61.8667 236.954 61.5C236.954 61.24 237.001 61 237.094 60.78C237.188 60.56 237.321 60.3733 237.494 60.22C237.674 60.06 237.888 59.9367 238.134 59.85C238.381 59.7633 238.654 59.72 238.954 59.72C239.341 59.72 239.681 59.79 239.974 59.93V59.84C239.974 59.64 240.021 59.4733 240.114 59.34C240.208 59.2067 240.368 59.14 240.594 59.14H241.544V59.84H240.384V60.19C240.571 60.35 240.714 60.54 240.814 60.76C240.914 60.98 240.964 61.2267 240.964 61.5C240.964 61.76 240.914 62 240.814 62.22C240.721 62.44 240.588 62.63 240.414 62.79C240.241 62.9433 240.028 63.0633 239.774 63.15C239.528 63.2367 239.254 63.28 238.954 63.28C238.868 63.28 238.784 63.2767 238.704 63.27C238.624 63.2633 238.544 63.2533 238.464 63.24C238.384 63.2533 238.301 63.2767 238.214 63.31C238.128 63.3367 238.048 63.3767 237.974 63.43C237.901 63.4767 237.841 63.5333 237.794 63.6C237.748 63.6667 237.724 63.7433 237.724 63.83C237.724 63.9833 237.801 64.0867 237.954 64.14C238.108 64.1867 238.308 64.21 238.554 64.21H239.694C240.361 64.21 240.844 64.3367 241.144 64.59C241.444 64.8367 241.594 65.17 241.594 65.59ZM240.844 65.63C240.844 65.4233 240.761 65.2567 240.594 65.13C240.428 65.01 240.138 64.95 239.724 64.95H237.934C237.588 65.09 237.414 65.3233 237.414 65.65C237.414 65.8767 237.504 66.07 237.684 66.23C237.864 66.3967 238.164 66.48 238.584 66.48H239.364C239.831 66.48 240.194 66.4067 240.454 66.26C240.714 66.12 240.844 65.91 240.844 65.63ZM238.954 62.66C239.354 62.66 239.648 62.5667 239.834 62.38C240.028 62.1933 240.124 61.9467 240.124 61.64V61.35C240.124 61.0433 240.028 60.8 239.834 60.62C239.648 60.4333 239.354 60.34 238.954 60.34C238.554 60.34 238.261 60.4333 238.074 60.62C237.888 60.8 237.794 61.0433 237.794 61.35V61.64C237.794 61.9467 237.888 62.1933 238.074 62.38C238.261 62.5667 238.554 62.66 238.954 62.66ZM242.96 65V59.84H243.76V60.68H243.8C243.854 60.5533 243.92 60.4333 244 60.32C244.08 60.2 244.177 60.0967 244.29 60.01C244.41 59.9233 244.55 59.8533 244.71 59.8C244.87 59.7467 245.057 59.72 245.27 59.72C245.81 59.72 246.244 59.8933 246.57 60.24C246.897 60.58 247.06 61.0633 247.06 61.69V65H246.26V61.83C246.26 61.3567 246.157 61.0067 245.95 60.78C245.744 60.5467 245.44 60.43 245.04 60.43C244.88 60.43 244.724 60.45 244.57 60.49C244.417 60.53 244.28 60.59 244.16 60.67C244.04 60.75 243.944 60.8533 243.87 60.98C243.797 61.1067 243.76 61.2533 243.76 61.42V65H242.96ZM251.067 65.12C250.693 65.12 250.357 65.0567 250.057 64.93C249.763 64.8033 249.51 64.6233 249.297 64.39C249.09 64.15 248.93 63.8667 248.817 63.54C248.703 63.2067 248.647 62.8367 248.647 62.43C248.647 62.0167 248.703 61.6433 248.817 61.31C248.937 60.9767 249.1 60.6933 249.307 60.46C249.513 60.22 249.76 60.0367 250.047 59.91C250.34 59.7833 250.663 59.72 251.017 59.72C251.363 59.72 251.677 59.7833 251.957 59.91C252.243 60.0367 252.487 60.2133 252.687 60.44C252.887 60.66 253.04 60.9233 253.147 61.23C253.253 61.5367 253.307 61.8733 253.307 62.24V62.62H249.487V62.86C249.487 63.0867 249.523 63.2967 249.597 63.49C249.67 63.6833 249.773 63.85 249.907 63.99C250.047 64.13 250.213 64.24 250.407 64.32C250.607 64.3933 250.827 64.43 251.067 64.43C251.413 64.43 251.713 64.35 251.967 64.19C252.22 64.03 252.413 63.81 252.547 63.53L253.137 63.93C252.983 64.2767 252.727 64.5633 252.367 64.79C252.013 65.01 251.58 65.12 251.067 65.12ZM251.017 60.38C250.797 60.38 250.593 60.42 250.407 60.5C250.22 60.58 250.057 60.69 249.917 60.83C249.783 60.97 249.677 61.1367 249.597 61.33C249.523 61.5167 249.487 61.7233 249.487 61.95V62.02H252.447V61.91C252.447 61.6833 252.41 61.4767 252.337 61.29C252.27 61.1033 252.173 60.9433 252.047 60.81C251.927 60.67 251.777 60.5633 251.597 60.49C251.423 60.4167 251.23 60.38 251.017 60.38ZM258.223 64.16H258.183C257.849 64.8 257.319 65.12 256.593 65.12C255.959 65.12 255.463 64.8833 255.103 64.41C254.749 63.9367 254.573 63.2733 254.573 62.42C254.573 61.5667 254.749 60.9033 255.103 60.43C255.463 59.9567 255.959 59.72 256.593 59.72C257.319 59.72 257.849 60.04 258.183 60.68H258.223V57.6H259.023V65H258.223V64.16ZM256.903 64.41C257.083 64.41 257.253 64.3867 257.413 64.34C257.573 64.2933 257.713 64.2267 257.833 64.14C257.953 64.0467 258.046 63.9367 258.113 63.81C258.186 63.6767 258.223 63.5233 258.223 63.35V61.49C258.223 61.3167 258.186 61.1667 258.113 61.04C258.046 60.9067 257.953 60.7967 257.833 60.71C257.713 60.6167 257.573 60.5467 257.413 60.5C257.253 60.4533 257.083 60.43 256.903 60.43C256.436 60.43 256.073 60.5733 255.813 60.86C255.559 61.14 255.433 61.5133 255.433 61.98V62.86C255.433 63.3267 255.559 63.7033 255.813 63.99C256.073 64.27 256.436 64.41 256.903 64.41ZM266.915 57.6H267.715V60.68H267.755C268.088 60.04 268.618 59.72 269.345 59.72C269.978 59.72 270.472 59.9567 270.825 60.43C271.185 60.9033 271.365 61.5667 271.365 62.42C271.365 63.2733 271.185 63.9367 270.825 64.41C270.472 64.8833 269.978 65.12 269.345 65.12C268.618 65.12 268.088 64.8 267.755 64.16H267.715V65H266.915V57.6ZM269.035 64.41C269.502 64.41 269.862 64.27 270.115 63.99C270.375 63.7033 270.505 63.3267 270.505 62.86V61.98C270.505 61.5133 270.375 61.14 270.115 60.86C269.862 60.5733 269.502 60.43 269.035 60.43C268.855 60.43 268.685 60.4533 268.525 60.5C268.365 60.5467 268.225 60.6167 268.105 60.71C267.985 60.7967 267.888 60.9067 267.815 61.04C267.748 61.1667 267.715 61.3167 267.715 61.49V63.35C267.715 63.5233 267.748 63.6767 267.815 63.81C267.888 63.9367 267.985 64.0467 268.105 64.14C268.225 64.2267 268.365 64.2933 268.525 64.34C268.685 64.3867 268.855 64.41 269.035 64.41ZM276.631 59.84H277.431L274.871 66.13C274.811 66.2767 274.744 66.4033 274.671 66.51C274.598 66.6233 274.511 66.7133 274.411 66.78C274.311 66.8533 274.191 66.9067 274.051 66.94C273.911 66.98 273.744 67 273.551 67H272.791V66.32H273.991L274.571 64.9L272.491 59.84H273.311L274.181 62L274.951 63.96H274.991L275.761 62L276.631 59.84ZM284.903 58.02H286.853C287.706 58.02 288.343 58.3133 288.763 58.9C289.183 59.4867 289.393 60.3567 289.393 61.51C289.393 62.6633 289.183 63.5333 288.763 64.12C288.343 64.7067 287.706 65 286.853 65H284.903V58.02ZM286.813 64.27C287.373 64.27 287.793 64.0767 288.073 63.69C288.36 63.3033 288.503 62.7567 288.503 62.05V60.97C288.503 60.2633 288.36 59.7167 288.073 59.33C287.793 58.9433 287.373 58.75 286.813 58.75H285.743V64.27H286.813ZM294.619 59.84H295.419L292.859 66.13C292.799 66.2767 292.733 66.4033 292.659 66.51C292.586 66.6233 292.499 66.7133 292.399 66.78C292.299 66.8533 292.179 66.9067 292.039 66.94C291.899 66.98 291.733 67 291.539 67H290.779V66.32H291.979L292.559 64.9L290.479 59.84H291.299L292.169 62L292.939 63.96H292.979L293.749 62L294.619 59.84ZM296.745 64.32H298.545V58.28H296.745V57.6H299.345V64.32H301.145V65H296.745V64.32ZM306.891 65C306.578 65 306.355 64.92 306.221 64.76C306.088 64.6 306.005 64.4 305.971 64.16H305.921C305.808 64.46 305.625 64.6967 305.371 64.87C305.125 65.0367 304.791 65.12 304.371 65.12C303.831 65.12 303.401 64.98 303.081 64.7C302.761 64.42 302.601 64.0367 302.601 63.55C302.601 63.07 302.775 62.7 303.121 62.44C303.475 62.18 304.041 62.05 304.821 62.05H305.921V61.54C305.921 61.16 305.815 60.8767 305.601 60.69C305.388 60.4967 305.085 60.4 304.691 60.4C304.345 60.4 304.061 60.47 303.841 60.61C303.621 60.7433 303.445 60.9267 303.311 61.16L302.771 60.76C302.838 60.6267 302.928 60.4967 303.041 60.37C303.155 60.2433 303.295 60.1333 303.461 60.04C303.628 59.94 303.818 59.8633 304.031 59.81C304.245 59.75 304.481 59.72 304.741 59.72C305.348 59.72 305.828 59.8733 306.181 60.18C306.541 60.4867 306.721 60.9133 306.721 61.46V64.3H307.441V65H306.891ZM304.511 64.45C304.718 64.45 304.905 64.4267 305.071 64.38C305.245 64.3267 305.395 64.26 305.521 64.18C305.648 64.0933 305.745 63.9933 305.811 63.88C305.885 63.76 305.921 63.6333 305.921 63.5V62.65H304.821C304.341 62.65 303.991 62.7167 303.771 62.85C303.551 62.9833 303.441 63.1767 303.441 63.43V63.64C303.441 63.9067 303.535 64.11 303.721 64.25C303.915 64.3833 304.178 64.45 304.511 64.45ZM308.918 65V59.84H309.718V60.68H309.758C309.811 60.5533 309.878 60.4333 309.958 60.32C310.038 60.2 310.134 60.0967 310.248 60.01C310.368 59.9233 310.508 59.8533 310.668 59.8C310.828 59.7467 311.014 59.72 311.228 59.72C311.768 59.72 312.201 59.8933 312.528 60.24C312.854 60.58 313.018 61.0633 313.018 61.69V65H312.218V61.83C312.218 61.3567 312.114 61.0067 311.908 60.78C311.701 60.5467 311.398 60.43 310.998 60.43C310.838 60.43 310.681 60.45 310.528 60.49C310.374 60.53 310.238 60.59 310.118 60.67C309.998 60.75 309.901 60.8533 309.828 60.98C309.754 61.1067 309.718 61.2533 309.718 61.42V65H308.918ZM320.88 58.02H322.83C323.683 58.02 324.32 58.3133 324.74 58.9C325.16 59.4867 325.37 60.3567 325.37 61.51C325.37 62.6633 325.16 63.5333 324.74 64.12C324.32 64.7067 323.683 65 322.83 65H320.88V58.02ZM322.79 64.27C323.35 64.27 323.77 64.0767 324.05 63.69C324.336 63.3033 324.48 62.7567 324.48 62.05V60.97C324.48 60.2633 324.336 59.7167 324.05 59.33C323.77 58.9433 323.35 58.75 322.79 58.75H321.72V64.27H322.79ZM329.246 58.7C329.012 58.7 328.849 58.6533 328.756 58.56C328.662 58.46 328.616 58.3367 328.616 58.19V58.03C328.616 57.8833 328.662 57.7633 328.756 57.67C328.849 57.57 329.012 57.52 329.246 57.52C329.479 57.52 329.642 57.57 329.736 57.67C329.829 57.7633 329.876 57.8833 329.876 58.03V58.19C329.876 58.3367 329.829 58.46 329.736 58.56C329.642 58.6533 329.479 58.7 329.246 58.7ZM326.986 64.32H328.846V60.52H326.986V59.84H329.646V64.32H331.386V65H326.986V64.32ZM332.802 58.02H335.172C335.772 58.02 336.242 58.1833 336.582 58.51C336.922 58.8367 337.092 59.2733 337.092 59.82C337.092 60.24 336.989 60.57 336.782 60.81C336.582 61.05 336.322 61.22 336.002 61.32V61.35C336.395 61.4433 336.719 61.62 336.972 61.88C337.225 62.1333 337.352 62.5033 337.352 62.99C337.352 63.27 337.305 63.5333 337.212 63.78C337.119 64.0267 336.985 64.24 336.812 64.42C336.645 64.6 336.445 64.7433 336.212 64.85C335.985 64.95 335.739 65 335.472 65H332.802V58.02ZM335.222 64.27C335.609 64.27 335.912 64.1833 336.132 64.01C336.352 63.8367 336.462 63.57 336.462 63.21V62.8C336.462 62.4467 336.352 62.1833 336.132 62.01C335.912 61.83 335.609 61.74 335.222 61.74H333.642V64.27H335.222ZM335.082 61.05C335.435 61.05 335.712 60.9733 335.912 60.82C336.112 60.66 336.212 60.42 336.212 60.1V59.71C336.212 59.39 336.112 59.15 335.912 58.99C335.712 58.83 335.435 58.75 335.082 58.75H333.642V61.05H335.082ZM341.008 65.12C340.635 65.12 340.298 65.0567 339.998 64.93C339.705 64.8033 339.451 64.6233 339.238 64.39C339.031 64.15 338.871 63.8667 338.758 63.54C338.645 63.2067 338.588 62.8367 338.588 62.43C338.588 62.0167 338.645 61.6433 338.758 61.31C338.878 60.9767 339.041 60.6933 339.248 60.46C339.455 60.22 339.701 60.0367 339.988 59.91C340.281 59.7833 340.605 59.72 340.958 59.72C341.305 59.72 341.618 59.7833 341.898 59.91C342.185 60.0367 342.428 60.2133 342.628 60.44C342.828 60.66 342.981 60.9233 343.088 61.23C343.195 61.5367 343.248 61.8733 343.248 62.24V62.62H339.428V62.86C339.428 63.0867 339.465 63.2967 339.538 63.49C339.611 63.6833 339.715 63.85 339.848 63.99C339.988 64.13 340.155 64.24 340.348 64.32C340.548 64.3933 340.768 64.43 341.008 64.43C341.355 64.43 341.655 64.35 341.908 64.19C342.161 64.03 342.355 63.81 342.488 63.53L343.078 63.93C342.925 64.2767 342.668 64.5633 342.308 64.79C341.955 65.01 341.521 65.12 341.008 65.12ZM340.958 60.38C340.738 60.38 340.535 60.42 340.348 60.5C340.161 60.58 339.998 60.69 339.858 60.83C339.725 60.97 339.618 61.1367 339.538 61.33C339.465 61.5167 339.428 61.7233 339.428 61.95V62.02H342.388V61.91C342.388 61.6833 342.351 61.4767 342.278 61.29C342.211 61.1033 342.115 60.9433 341.988 60.81C341.868 60.67 341.718 60.5633 341.538 60.49C341.365 60.4167 341.171 60.38 340.958 60.38ZM344.894 65V59.84H345.694V60.68H345.734C345.787 60.5533 345.854 60.4333 345.934 60.32C346.014 60.2 346.111 60.0967 346.224 60.01C346.344 59.9233 346.484 59.8533 346.644 59.8C346.804 59.7467 346.991 59.72 347.204 59.72C347.744 59.72 348.177 59.8933 348.504 60.24C348.831 60.58 348.994 61.0633 348.994 61.69V65H348.194V61.83C348.194 61.3567 348.091 61.0067 347.884 60.78C347.677 60.5467 347.374 60.43 346.974 60.43C346.814 60.43 346.657 60.45 346.504 60.49C346.351 60.53 346.214 60.59 346.094 60.67C345.974 60.75 345.877 60.8533 345.804 60.98C345.731 61.1067 345.694 61.2533 345.694 61.42V65H344.894ZM353 65.12C352.627 65.12 352.29 65.0567 351.99 64.93C351.697 64.8033 351.443 64.6233 351.23 64.39C351.023 64.15 350.863 63.8667 350.75 63.54C350.637 63.2067 350.58 62.8367 350.58 62.43C350.58 62.0167 350.637 61.6433 350.75 61.31C350.87 60.9767 351.033 60.6933 351.24 60.46C351.447 60.22 351.693 60.0367 351.98 59.91C352.273 59.7833 352.597 59.72 352.95 59.72C353.297 59.72 353.61 59.7833 353.89 59.91C354.177 60.0367 354.42 60.2133 354.62 60.44C354.82 60.66 354.973 60.9233 355.08 61.23C355.187 61.5367 355.24 61.8733 355.24 62.24V62.62H351.42V62.86C351.42 63.0867 351.457 63.2967 351.53 63.49C351.603 63.6833 351.707 63.85 351.84 63.99C351.98 64.13 352.147 64.24 352.34 64.32C352.54 64.3933 352.76 64.43 353 64.43C353.347 64.43 353.647 64.35 353.9 64.19C354.153 64.03 354.347 63.81 354.48 63.53L355.07 63.93C354.917 64.2767 354.66 64.5633 354.3 64.79C353.947 65.01 353.513 65.12 353 65.12ZM352.95 60.38C352.73 60.38 352.527 60.42 352.34 60.5C352.153 60.58 351.99 60.69 351.85 60.83C351.717 60.97 351.61 61.1367 351.53 61.33C351.457 61.5167 351.42 61.7233 351.42 61.95V62.02H354.38V61.91C354.38 61.6833 354.343 61.4767 354.27 61.29C354.203 61.1033 354.107 60.9433 353.98 60.81C353.86 60.67 353.71 60.5633 353.53 60.49C353.357 60.4167 353.163 60.38 352.95 60.38ZM360.156 64.16H360.116C359.783 64.8 359.253 65.12 358.526 65.12C357.893 65.12 357.396 64.8833 357.036 64.41C356.683 63.9367 356.506 63.2733 356.506 62.42C356.506 61.5667 356.683 60.9033 357.036 60.43C357.396 59.9567 357.893 59.72 358.526 59.72C359.253 59.72 359.783 60.04 360.116 60.68H360.156V57.6H360.956V65H360.156V64.16ZM358.836 64.41C359.016 64.41 359.186 64.3867 359.346 64.34C359.506 64.2933 359.646 64.2267 359.766 64.14C359.886 64.0467 359.98 63.9367 360.046 63.81C360.12 63.6767 360.156 63.5233 360.156 63.35V61.49C360.156 61.3167 360.12 61.1667 360.046 61.04C359.98 60.9067 359.886 60.7967 359.766 60.71C359.646 60.6167 359.506 60.5467 359.346 60.5C359.186 60.4533 359.016 60.43 358.836 60.43C358.37 60.43 358.006 60.5733 357.746 60.86C357.493 61.14 357.366 61.5133 357.366 61.98V62.86C357.366 63.3267 357.493 63.7033 357.746 63.99C358.006 64.27 358.37 64.41 358.836 64.41ZM365.222 58.7C364.989 58.7 364.826 58.6533 364.732 58.56C364.639 58.46 364.592 58.3367 364.592 58.19V58.03C364.592 57.8833 364.639 57.7633 364.732 57.67C364.826 57.57 364.989 57.52 365.222 57.52C365.456 57.52 365.619 57.57 365.712 57.67C365.806 57.7633 365.852 57.8833 365.852 58.03V58.19C365.852 58.3367 365.806 58.46 365.712 58.56C365.619 58.6533 365.456 58.7 365.222 58.7ZM362.962 64.32H364.822V60.52H362.962V59.84H365.622V64.32H367.362V65H362.962V64.32ZM371.148 65C370.755 65 370.465 64.89 370.278 64.67C370.098 64.45 370.008 64.1667 370.008 63.82V60.52H368.288V59.84H369.568C369.742 59.84 369.862 59.8067 369.928 59.74C370.002 59.6667 370.038 59.5433 370.038 59.37V58.02H370.808V59.84H373.158V60.52H370.808V64.32H373.158V65H371.148ZM377.145 65C376.751 65 376.461 64.89 376.275 64.67C376.095 64.45 376.005 64.1667 376.005 63.82V60.52H374.285V59.84H375.565C375.738 59.84 375.858 59.8067 375.925 59.74C375.998 59.6667 376.035 59.5433 376.035 59.37V58.02H376.805V59.84H379.155V60.52H376.805V64.32H379.155V65H377.145ZM382.891 65.12C382.531 65.12 382.204 65.0567 381.911 64.93C381.624 64.8033 381.377 64.6233 381.171 64.39C380.971 64.15 380.817 63.8667 380.711 63.54C380.604 63.2067 380.551 62.8333 380.551 62.42C380.551 62.0133 380.604 61.6433 380.711 61.31C380.817 60.9767 380.971 60.6933 381.171 60.46C381.377 60.22 381.624 60.0367 381.911 59.91C382.204 59.7833 382.531 59.72 382.891 59.72C383.251 59.72 383.574 59.7833 383.861 59.91C384.154 60.0367 384.401 60.22 384.601 60.46C384.807 60.6933 384.964 60.9767 385.071 61.31C385.177 61.6433 385.231 62.0133 385.231 62.42C385.231 62.8333 385.177 63.2067 385.071 63.54C384.964 63.8667 384.807 64.15 384.601 64.39C384.401 64.6233 384.154 64.8033 383.861 64.93C383.574 65.0567 383.251 65.12 382.891 65.12ZM382.891 64.43C383.337 64.43 383.697 64.2967 383.971 64.03C384.244 63.7633 384.381 63.35 384.381 62.79V62.05C384.381 61.49 384.244 61.0767 383.971 60.81C383.697 60.5433 383.337 60.41 382.891 60.41C382.444 60.41 382.084 60.5433 381.811 60.81C381.537 61.0767 381.401 61.49 381.401 62.05V62.79C381.401 63.35 381.537 63.7633 381.811 64.03C382.084 64.2967 382.444 64.43 382.891 64.43Z" fill="white"/>
</g>
<defs>
<clipPath id="clip0_2001_9">
<rect width="406" height="68" fill="white"/>
</clipPath>
</defs>
</svg>
