<svg width="406" height="34" viewBox="0 0 406 34" fill="none" xmlns="http://www.w3.org/2000/svg">
<g clip-path="url(#clip0_2020_2)">
<path d="M195 34L215 0H235L220 25.5H260L255 34H195Z" fill="white"/>
<path d="M150 0L130 34H190L195 25.5H155L170 0H150Z" fill="white"/>
<path d="M85 0L65 34H125L145 0H125L110 25.5H90L105 0H85Z" fill="white"/>
<path d="M0 34L20 0H40L50 17L60 0H80L60 34H40L30 17L20 34H0Z" fill="white"/>
<path d="M281 0H341L321 34H261L266 25.5H306L308.5 21.25H278.5L283.25 12.75H313.25L316 8.5H276L281 0Z" fill="white"/>
<path fill-rule="evenodd" clip-rule="evenodd" d="M406 0H346L326 34H386L398.25 12.75H358.25L361 8.5H401L406 0ZM373.5 21.25H353.5L351 25.5H371L373.5 21.25Z" fill="white"/>
</g>
<defs>
<clipPath id="clip0_2020_2">
<rect width="406" height="34" fill="white"/>
</clipPath>
</defs>
</svg>
