<svg width="282" height="282" viewBox="0 0 282 282" fill="none" xmlns="http://www.w3.org/2000/svg">
<path d="M16 16H23.5758V23.5758H16V16ZM23.5758 16H31.1515V23.5758H23.5758V16ZM31.1515 16H38.7273V23.5758H31.1515V16ZM38.7273 16H46.303V23.5758H38.7273V16ZM46.303 16H53.8788V23.5758H46.303V16ZM53.8788 16H61.4545V23.5758H53.8788V16ZM61.4545 16H69.0303V23.5758H61.4545V16ZM76.6061 16H84.1818V23.5758H76.6061V16ZM106.909 16H114.485V23.5758H106.909V16ZM137.212 16H144.788V23.5758H137.212V16ZM152.364 16H159.939V23.5758H152.364V16ZM159.939 16H167.515V23.5758H159.939V16ZM175.091 16H182.667V23.5758H175.091V16ZM182.667 16H190.242V23.5758H182.667V16ZM190.242 16H197.818V23.5758H190.242V16ZM212.97 16H220.545V23.5758H212.97V16ZM220.545 16H228.121V23.5758H220.545V16ZM228.121 16H235.697V23.5758H228.121V16ZM235.697 16H243.273V23.5758H235.697V16ZM243.273 16H250.848V23.5758H243.273V16ZM250.848 16H258.424V23.5758H250.848V16ZM258.424 16H266V23.5758H258.424V16ZM16 23.5758H23.5758V31.1515H16V23.5758ZM61.4545 23.5758H69.0303V31.1515H61.4545V23.5758ZM84.1818 23.5758H91.7576V31.1515H84.1818V23.5758ZM114.485 23.5758H122.061V31.1515H114.485V23.5758ZM129.636 23.5758H137.212V31.1515H129.636V23.5758ZM137.212 23.5758H144.788V31.1515H137.212V23.5758ZM144.788 23.5758H152.364V31.1515H144.788V23.5758ZM167.515 23.5758H175.091V31.1515H167.515V23.5758ZM190.242 23.5758H197.818V31.1515H190.242V23.5758ZM197.818 23.5758H205.394V31.1515H197.818V23.5758ZM212.97 23.5758H220.545V31.1515H212.97V23.5758ZM258.424 23.5758H266V31.1515H258.424V23.5758ZM16 31.1515H23.5758V38.7273H16V31.1515ZM31.1515 31.1515H38.7273V38.7273H31.1515V31.1515ZM38.7273 31.1515H46.303V38.7273H38.7273V31.1515ZM46.303 31.1515H53.8788V38.7273H46.303V31.1515ZM61.4545 31.1515H69.0303V38.7273H61.4545V31.1515ZM76.6061 31.1515H84.1818V38.7273H76.6061V31.1515ZM99.3333 31.1515H106.909V38.7273H99.3333V31.1515ZM106.909 31.1515H114.485V38.7273H106.909V31.1515ZM114.485 31.1515H122.061V38.7273H114.485V31.1515ZM129.636 31.1515H137.212V38.7273H129.636V31.1515ZM137.212 31.1515H144.788V38.7273H137.212V31.1515ZM144.788 31.1515H152.364V38.7273H144.788V31.1515ZM182.667 31.1515H190.242V38.7273H182.667V31.1515ZM190.242 31.1515H197.818V38.7273H190.242V31.1515ZM212.97 31.1515H220.545V38.7273H212.97V31.1515ZM228.121 31.1515H235.697V38.7273H228.121V31.1515ZM235.697 31.1515H243.273V38.7273H235.697V31.1515ZM243.273 31.1515H250.848V38.7273H243.273V31.1515ZM258.424 31.1515H266V38.7273H258.424V31.1515ZM16 38.7273H23.5758V46.303H16V38.7273ZM31.1515 38.7273H38.7273V46.303H31.1515V38.7273ZM38.7273 38.7273H46.303V46.303H38.7273V38.7273ZM46.303 38.7273H53.8788V46.303H46.303V38.7273ZM61.4545 38.7273H69.0303V46.303H61.4545V38.7273ZM76.6061 38.7273H84.1818V46.303H76.6061V38.7273ZM84.1818 38.7273H91.7576V46.303H84.1818V38.7273ZM91.7576 38.7273H99.3333V46.303H91.7576V38.7273ZM99.3333 38.7273H106.909V46.303H99.3333V38.7273ZM106.909 38.7273H114.485V46.303H106.909V38.7273ZM122.061 38.7273H129.636V46.303H122.061V38.7273ZM137.212 38.7273H144.788V46.303H137.212V38.7273ZM144.788 38.7273H152.364V46.303H144.788V38.7273ZM182.667 38.7273H190.242V46.303H182.667V38.7273ZM190.242 38.7273H197.818V46.303H190.242V38.7273ZM212.97 38.7273H220.545V46.303H212.97V38.7273ZM228.121 38.7273H235.697V46.303H228.121V38.7273ZM235.697 38.7273H243.273V46.303H235.697V38.7273ZM243.273 38.7273H250.848V46.303H243.273V38.7273ZM258.424 38.7273H266V46.303H258.424V38.7273ZM16 46.303H23.5758V53.8788H16V46.303ZM31.1515 46.303H38.7273V53.8788H31.1515V46.303ZM38.7273 46.303H46.303V53.8788H38.7273V46.303ZM46.303 46.303H53.8788V53.8788H46.303V46.303ZM61.4545 46.303H69.0303V53.8788H61.4545V46.303ZM84.1818 46.303H91.7576V53.8788H84.1818V46.303ZM106.909 46.303H114.485V53.8788H106.909V46.303ZM122.061 46.303H129.636V53.8788H122.061V46.303ZM129.636 46.303H137.212V53.8788H129.636V46.303ZM137.212 46.303H144.788V53.8788H137.212V46.303ZM144.788 46.303H152.364V53.8788H144.788V46.303ZM159.939 46.303H167.515V53.8788H159.939V46.303ZM182.667 46.303H190.242V53.8788H182.667V46.303ZM190.242 46.303H197.818V53.8788H190.242V46.303ZM212.97 46.303H220.545V53.8788H212.97V46.303ZM228.121 46.303H235.697V53.8788H228.121V46.303ZM235.697 46.303H243.273V53.8788H235.697V46.303ZM243.273 46.303H250.848V53.8788H243.273V46.303ZM258.424 46.303H266V53.8788H258.424V46.303ZM16 53.8788H23.5758V61.4545H16V53.8788ZM61.4545 53.8788H69.0303V61.4545H61.4545V53.8788ZM76.6061 53.8788H84.1818V61.4545H76.6061V53.8788ZM84.1818 53.8788H91.7576V61.4545H84.1818V53.8788ZM91.7576 53.8788H99.3333V61.4545H91.7576V53.8788ZM122.061 53.8788H129.636V61.4545H122.061V53.8788ZM137.212 53.8788H144.788V61.4545H137.212V53.8788ZM152.364 53.8788H159.939V61.4545H152.364V53.8788ZM167.515 53.8788H175.091V61.4545H167.515V53.8788ZM197.818 53.8788H205.394V61.4545H197.818V53.8788ZM212.97 53.8788H220.545V61.4545H212.97V53.8788ZM258.424 53.8788H266V61.4545H258.424V53.8788ZM16 61.4545H23.5758V69.0303H16V61.4545ZM23.5758 61.4545H31.1515V69.0303H23.5758V61.4545ZM31.1515 61.4545H38.7273V69.0303H31.1515V61.4545ZM38.7273 61.4545H46.303V69.0303H38.7273V61.4545ZM46.303 61.4545H53.8788V69.0303H46.303V61.4545ZM53.8788 61.4545H61.4545V69.0303H53.8788V61.4545ZM61.4545 61.4545H69.0303V69.0303H61.4545V61.4545ZM76.6061 61.4545H84.1818V69.0303H76.6061V61.4545ZM91.7576 61.4545H99.3333V69.0303H91.7576V61.4545ZM106.909 61.4545H114.485V69.0303H106.909V61.4545ZM122.061 61.4545H129.636V69.0303H122.061V61.4545ZM137.212 61.4545H144.788V69.0303H137.212V61.4545ZM152.364 61.4545H159.939V69.0303H152.364V61.4545ZM167.515 61.4545H175.091V69.0303H167.515V61.4545ZM182.667 61.4545H190.242V69.0303H182.667V61.4545ZM197.818 61.4545H205.394V69.0303H197.818V61.4545ZM212.97 61.4545H220.545V69.0303H212.97V61.4545ZM220.545 61.4545H228.121V69.0303H220.545V61.4545ZM228.121 61.4545H235.697V69.0303H228.121V61.4545ZM235.697 61.4545H243.273V69.0303H235.697V61.4545ZM243.273 61.4545H250.848V69.0303H243.273V61.4545ZM250.848 61.4545H258.424V69.0303H250.848V61.4545ZM258.424 61.4545H266V69.0303H258.424V61.4545ZM76.6061 69.0303H84.1818V76.6061H76.6061V69.0303ZM84.1818 69.0303H91.7576V76.6061H84.1818V69.0303ZM99.3333 69.0303H106.909V76.6061H99.3333V69.0303ZM114.485 69.0303H122.061V76.6061H114.485V69.0303ZM122.061 69.0303H129.636V76.6061H122.061V69.0303ZM129.636 69.0303H137.212V76.6061H129.636V69.0303ZM137.212 69.0303H144.788V76.6061H137.212V69.0303ZM144.788 69.0303H152.364V76.6061H144.788V69.0303ZM159.939 69.0303H167.515V76.6061H159.939V69.0303ZM167.515 69.0303H175.091V76.6061H167.515V69.0303ZM175.091 69.0303H182.667V76.6061H175.091V69.0303ZM182.667 69.0303H190.242V76.6061H182.667V69.0303ZM197.818 69.0303H205.394V76.6061H197.818V69.0303ZM23.5758 76.6061H31.1515V84.1818H23.5758V76.6061ZM38.7273 76.6061H46.303V84.1818H38.7273V76.6061ZM53.8788 76.6061H61.4545V84.1818H53.8788V76.6061ZM61.4545 76.6061H69.0303V84.1818H61.4545V76.6061ZM69.0303 76.6061H76.6061V84.1818H69.0303V76.6061ZM76.6061 76.6061H84.1818V84.1818H76.6061V76.6061ZM114.485 76.6061H122.061V84.1818H114.485V76.6061ZM122.061 76.6061H129.636V84.1818H122.061V76.6061ZM129.636 76.6061H137.212V84.1818H129.636V76.6061ZM137.212 76.6061H144.788V84.1818H137.212V76.6061ZM159.939 76.6061H167.515V84.1818H159.939V76.6061ZM167.515 76.6061H175.091V84.1818H167.515V76.6061ZM175.091 76.6061H182.667V84.1818H175.091V76.6061ZM182.667 76.6061H190.242V84.1818H182.667V76.6061ZM205.394 76.6061H212.97V84.1818H205.394V76.6061ZM212.97 76.6061H220.545V84.1818H212.97V76.6061ZM220.545 76.6061H228.121V84.1818H220.545V76.6061ZM235.697 76.6061H243.273V84.1818H235.697V76.6061ZM243.273 76.6061H250.848V84.1818H243.273V76.6061ZM258.424 76.6061H266V84.1818H258.424V76.6061ZM16 84.1818H23.5758V91.7576H16V84.1818ZM23.5758 84.1818H31.1515V91.7576H23.5758V84.1818ZM46.303 84.1818H53.8788V91.7576H46.303V84.1818ZM69.0303 84.1818H76.6061V91.7576H69.0303V84.1818ZM99.3333 84.1818H106.909V91.7576H99.3333V84.1818ZM114.485 84.1818H122.061V91.7576H114.485V84.1818ZM167.515 84.1818H175.091V91.7576H167.515V84.1818ZM175.091 84.1818H182.667V91.7576H175.091V84.1818ZM197.818 84.1818H205.394V91.7576H197.818V84.1818ZM205.394 84.1818H212.97V91.7576H205.394V84.1818ZM212.97 84.1818H220.545V91.7576H212.97V84.1818ZM220.545 84.1818H228.121V91.7576H220.545V84.1818ZM250.848 84.1818H258.424V91.7576H250.848V84.1818ZM258.424 84.1818H266V91.7576H258.424V84.1818ZM23.5758 91.7576H31.1515V99.3333H23.5758V91.7576ZM38.7273 91.7576H46.303V99.3333H38.7273V91.7576ZM53.8788 91.7576H61.4545V99.3333H53.8788V91.7576ZM61.4545 91.7576H69.0303V99.3333H61.4545V91.7576ZM69.0303 91.7576H76.6061V99.3333H69.0303V91.7576ZM76.6061 91.7576H84.1818V99.3333H76.6061V91.7576ZM99.3333 91.7576H106.909V99.3333H99.3333V91.7576ZM106.909 91.7576H114.485V99.3333H106.909V91.7576ZM114.485 91.7576H122.061V99.3333H114.485V91.7576ZM122.061 91.7576H129.636V99.3333H122.061V91.7576ZM137.212 91.7576H144.788V99.3333H137.212V91.7576ZM144.788 91.7576H152.364V99.3333H144.788V91.7576ZM159.939 91.7576H167.515V99.3333H159.939V91.7576ZM167.515 91.7576H175.091V99.3333H167.515V91.7576ZM182.667 91.7576H190.242V99.3333H182.667V91.7576ZM197.818 91.7576H205.394V99.3333H197.818V91.7576ZM212.97 91.7576H220.545V99.3333H212.97V91.7576ZM220.545 91.7576H228.121V99.3333H220.545V91.7576ZM228.121 91.7576H235.697V99.3333H228.121V91.7576ZM243.273 91.7576H250.848V99.3333H243.273V91.7576ZM258.424 91.7576H266V99.3333H258.424V91.7576ZM31.1515 99.3333H38.7273V106.909H31.1515V99.3333ZM53.8788 99.3333H61.4545V106.909H53.8788V99.3333ZM69.0303 99.3333H76.6061V106.909H69.0303V99.3333ZM76.6061 99.3333H84.1818V106.909H76.6061V99.3333ZM114.485 99.3333H122.061V106.909H114.485V99.3333ZM129.636 99.3333H137.212V106.909H129.636V99.3333ZM137.212 99.3333H144.788V106.909H137.212V99.3333ZM144.788 99.3333H152.364V106.909H144.788V99.3333ZM159.939 99.3333H167.515V106.909H159.939V99.3333ZM175.091 99.3333H182.667V106.909H175.091V99.3333ZM182.667 99.3333H190.242V106.909H182.667V99.3333ZM205.394 99.3333H212.97V106.909H205.394V99.3333ZM212.97 99.3333H220.545V106.909H212.97V99.3333ZM228.121 99.3333H235.697V106.909H228.121V99.3333ZM235.697 99.3333H243.273V106.909H235.697V99.3333ZM250.848 99.3333H258.424V106.909H250.848V99.3333ZM258.424 99.3333H266V106.909H258.424V99.3333ZM53.8788 106.909H61.4545V114.485H53.8788V106.909ZM61.4545 106.909H69.0303V114.485H61.4545V106.909ZM84.1818 106.909H91.7576V114.485H84.1818V106.909ZM91.7576 106.909H99.3333V114.485H91.7576V106.909ZM122.061 106.909H129.636V114.485H122.061V106.909ZM137.212 106.909H144.788V114.485H137.212V106.909ZM167.515 106.909H175.091V114.485H167.515V106.909ZM175.091 106.909H182.667V114.485H175.091V106.909ZM190.242 106.909H197.818V114.485H190.242V106.909ZM197.818 106.909H205.394V114.485H197.818V106.909ZM205.394 106.909H212.97V114.485H205.394V106.909ZM212.97 106.909H220.545V114.485H212.97V106.909ZM235.697 106.909H243.273V114.485H235.697V106.909ZM250.848 106.909H258.424V114.485H250.848V106.909ZM258.424 106.909H266V114.485H258.424V106.909ZM23.5758 114.485H31.1515V122.061H23.5758V114.485ZM31.1515 114.485H38.7273V122.061H31.1515V114.485ZM46.303 114.485H53.8788V122.061H46.303V114.485ZM53.8788 114.485H61.4545V122.061H53.8788V114.485ZM69.0303 114.485H76.6061V122.061H69.0303V114.485ZM76.6061 114.485H84.1818V122.061H76.6061V114.485ZM84.1818 114.485H91.7576V122.061H84.1818V114.485ZM106.909 114.485H114.485V122.061H106.909V114.485ZM114.485 114.485H122.061V122.061H114.485V114.485ZM122.061 114.485H129.636V122.061H122.061V114.485ZM137.212 114.485H144.788V122.061H137.212V114.485ZM182.667 114.485H190.242V122.061H182.667V114.485ZM212.97 114.485H220.545V122.061H212.97V114.485ZM228.121 114.485H235.697V122.061H228.121V114.485ZM235.697 114.485H243.273V122.061H235.697V114.485ZM243.273 114.485H250.848V122.061H243.273V114.485ZM250.848 114.485H258.424V122.061H250.848V114.485ZM258.424 114.485H266V122.061H258.424V114.485ZM31.1515 122.061H38.7273V129.636H31.1515V122.061ZM46.303 122.061H53.8788V129.636H46.303V122.061ZM61.4545 122.061H69.0303V129.636H61.4545V122.061ZM69.0303 122.061H76.6061V129.636H69.0303V122.061ZM152.364 122.061H159.939V129.636H152.364V122.061ZM167.515 122.061H175.091V129.636H167.515V122.061ZM175.091 122.061H182.667V129.636H175.091V122.061ZM190.242 122.061H197.818V129.636H190.242V122.061ZM205.394 122.061H212.97V129.636H205.394V122.061ZM212.97 122.061H220.545V129.636H212.97V122.061ZM220.545 122.061H228.121V129.636H220.545V122.061ZM228.121 122.061H235.697V129.636H228.121V122.061ZM243.273 122.061H250.848V129.636H243.273V122.061ZM250.848 122.061H258.424V129.636H250.848V122.061ZM16 129.636H23.5758V137.212H16V129.636ZM23.5758 129.636H31.1515V137.212H23.5758V129.636ZM38.7273 129.636H46.303V137.212H38.7273V129.636ZM46.303 129.636H53.8788V137.212H46.303V129.636ZM76.6061 129.636H84.1818V137.212H76.6061V129.636ZM84.1818 129.636H91.7576V137.212H84.1818V129.636ZM106.909 129.636H114.485V137.212H106.909V129.636ZM122.061 129.636H129.636V137.212H122.061V129.636ZM144.788 129.636H152.364V137.212H144.788V129.636ZM152.364 129.636H159.939V137.212H152.364V129.636ZM167.515 129.636H175.091V137.212H167.515V129.636ZM175.091 129.636H182.667V137.212H175.091V129.636ZM197.818 129.636H205.394V137.212H197.818V129.636ZM212.97 129.636H220.545V137.212H212.97V129.636ZM250.848 129.636H258.424V137.212H250.848V129.636ZM46.303 137.212H53.8788V144.788H46.303V137.212ZM61.4545 137.212H69.0303V144.788H61.4545V137.212ZM76.6061 137.212H84.1818V144.788H76.6061V137.212ZM91.7576 137.212H99.3333V144.788H91.7576V137.212ZM114.485 137.212H122.061V144.788H114.485V137.212ZM122.061 137.212H129.636V144.788H122.061V137.212ZM144.788 137.212H152.364V144.788H144.788V137.212ZM152.364 137.212H159.939V144.788H152.364V137.212ZM167.515 137.212H175.091V144.788H167.515V137.212ZM175.091 137.212H182.667V144.788H175.091V137.212ZM182.667 137.212H190.242V144.788H182.667V137.212ZM190.242 137.212H197.818V144.788H190.242V137.212ZM197.818 137.212H205.394V144.788H197.818V137.212ZM212.97 137.212H220.545V144.788H212.97V137.212ZM228.121 137.212H235.697V144.788H228.121V137.212ZM250.848 137.212H258.424V144.788H250.848V137.212ZM23.5758 144.788H31.1515V152.364H23.5758V144.788ZM69.0303 144.788H76.6061V152.364H69.0303V144.788ZM76.6061 144.788H84.1818V152.364H76.6061V144.788ZM99.3333 144.788H106.909V152.364H99.3333V144.788ZM106.909 144.788H114.485V152.364H106.909V144.788ZM122.061 144.788H129.636V152.364H122.061V144.788ZM137.212 144.788H144.788V152.364H137.212V144.788ZM152.364 144.788H159.939V152.364H152.364V144.788ZM190.242 144.788H197.818V152.364H190.242V144.788ZM197.818 144.788H205.394V152.364H197.818V144.788ZM205.394 144.788H212.97V152.364H205.394V144.788ZM220.545 144.788H228.121V152.364H220.545V144.788ZM235.697 144.788H243.273V152.364H235.697V144.788ZM250.848 144.788H258.424V152.364H250.848V144.788ZM38.7273 152.364H46.303V159.939H38.7273V152.364ZM61.4545 152.364H69.0303V159.939H61.4545V152.364ZM99.3333 152.364H106.909V159.939H99.3333V152.364ZM106.909 152.364H114.485V159.939H106.909V152.364ZM114.485 152.364H122.061V159.939H114.485V152.364ZM129.636 152.364H137.212V159.939H129.636V152.364ZM137.212 152.364H144.788V159.939H137.212V152.364ZM152.364 152.364H159.939V159.939H152.364V152.364ZM197.818 152.364H205.394V159.939H197.818V152.364ZM243.273 152.364H250.848V159.939H243.273V152.364ZM250.848 152.364H258.424V159.939H250.848V152.364ZM258.424 152.364H266V159.939H258.424V152.364ZM23.5758 159.939H31.1515V167.515H23.5758V159.939ZM31.1515 159.939H38.7273V167.515H31.1515V159.939ZM46.303 159.939H53.8788V167.515H46.303V159.939ZM84.1818 159.939H91.7576V167.515H84.1818V159.939ZM91.7576 159.939H99.3333V167.515H91.7576V159.939ZM144.788 159.939H152.364V167.515H144.788V159.939ZM159.939 159.939H167.515V167.515H159.939V159.939ZM167.515 159.939H175.091V167.515H167.515V159.939ZM175.091 159.939H182.667V167.515H175.091V159.939ZM182.667 159.939H190.242V167.515H182.667V159.939ZM190.242 159.939H197.818V167.515H190.242V159.939ZM197.818 159.939H205.394V167.515H197.818V159.939ZM205.394 159.939H212.97V167.515H205.394V159.939ZM220.545 159.939H228.121V167.515H220.545V159.939ZM258.424 159.939H266V167.515H258.424V159.939ZM16 167.515H23.5758V175.091H16V167.515ZM38.7273 167.515H46.303V175.091H38.7273V167.515ZM46.303 167.515H53.8788V175.091H46.303V167.515ZM53.8788 167.515H61.4545V175.091H53.8788V167.515ZM61.4545 167.515H69.0303V175.091H61.4545V167.515ZM69.0303 167.515H76.6061V175.091H69.0303V167.515ZM76.6061 167.515H84.1818V175.091H76.6061V167.515ZM91.7576 167.515H99.3333V175.091H91.7576V167.515ZM99.3333 167.515H106.909V175.091H99.3333V167.515ZM122.061 167.515H129.636V175.091H122.061V167.515ZM137.212 167.515H144.788V175.091H137.212V167.515ZM152.364 167.515H159.939V175.091H152.364V167.515ZM159.939 167.515H167.515V175.091H159.939V167.515ZM175.091 167.515H182.667V175.091H175.091V167.515ZM190.242 167.515H197.818V175.091H190.242V167.515ZM197.818 167.515H205.394V175.091H197.818V167.515ZM205.394 167.515H212.97V175.091H205.394V167.515ZM250.848 167.515H258.424V175.091H250.848V167.515ZM258.424 167.515H266V175.091H258.424V167.515ZM31.1515 175.091H38.7273V182.667H31.1515V175.091ZM38.7273 175.091H46.303V182.667H38.7273V175.091ZM46.303 175.091H53.8788V182.667H46.303V175.091ZM76.6061 175.091H84.1818V182.667H76.6061V175.091ZM84.1818 175.091H91.7576V182.667H84.1818V175.091ZM91.7576 175.091H99.3333V182.667H91.7576V175.091ZM106.909 175.091H114.485V182.667H106.909V175.091ZM122.061 175.091H129.636V182.667H122.061V175.091ZM129.636 175.091H137.212V182.667H129.636V175.091ZM175.091 175.091H182.667V182.667H175.091V175.091ZM197.818 175.091H205.394V182.667H197.818V175.091ZM212.97 175.091H220.545V182.667H212.97V175.091ZM235.697 175.091H243.273V182.667H235.697V175.091ZM250.848 175.091H258.424V182.667H250.848V175.091ZM258.424 175.091H266V182.667H258.424V175.091ZM16 182.667H23.5758V190.242H16V182.667ZM23.5758 182.667H31.1515V190.242H23.5758V182.667ZM31.1515 182.667H38.7273V190.242H31.1515V182.667ZM38.7273 182.667H46.303V190.242H38.7273V182.667ZM61.4545 182.667H69.0303V190.242H61.4545V182.667ZM76.6061 182.667H84.1818V190.242H76.6061V182.667ZM84.1818 182.667H91.7576V190.242H84.1818V182.667ZM106.909 182.667H114.485V190.242H106.909V182.667ZM114.485 182.667H122.061V190.242H114.485V182.667ZM122.061 182.667H129.636V190.242H122.061V182.667ZM152.364 182.667H159.939V190.242H152.364V182.667ZM159.939 182.667H167.515V190.242H159.939V182.667ZM167.515 182.667H175.091V190.242H167.515V182.667ZM175.091 182.667H182.667V190.242H175.091V182.667ZM197.818 182.667H205.394V190.242H197.818V182.667ZM212.97 182.667H220.545V190.242H212.97V182.667ZM228.121 182.667H235.697V190.242H228.121V182.667ZM258.424 182.667H266V190.242H258.424V182.667ZM23.5758 190.242H31.1515V197.818H23.5758V190.242ZM31.1515 190.242H38.7273V197.818H31.1515V190.242ZM53.8788 190.242H61.4545V197.818H53.8788V190.242ZM69.0303 190.242H76.6061V197.818H69.0303V190.242ZM76.6061 190.242H84.1818V197.818H76.6061V190.242ZM99.3333 190.242H106.909V197.818H99.3333V190.242ZM122.061 190.242H129.636V197.818H122.061V190.242ZM129.636 190.242H137.212V197.818H129.636V190.242ZM144.788 190.242H152.364V197.818H144.788V190.242ZM175.091 190.242H182.667V197.818H175.091V190.242ZM182.667 190.242H190.242V197.818H182.667V190.242ZM197.818 190.242H205.394V197.818H197.818V190.242ZM228.121 190.242H235.697V197.818H228.121V190.242ZM235.697 190.242H243.273V197.818H235.697V190.242ZM16 197.818H23.5758V205.394H16V197.818ZM31.1515 197.818H38.7273V205.394H31.1515V197.818ZM38.7273 197.818H46.303V205.394H38.7273V197.818ZM61.4545 197.818H69.0303V205.394H61.4545V197.818ZM69.0303 197.818H76.6061V205.394H69.0303V197.818ZM76.6061 197.818H84.1818V205.394H76.6061V197.818ZM99.3333 197.818H106.909V205.394H99.3333V197.818ZM106.909 197.818H114.485V205.394H106.909V197.818ZM137.212 197.818H144.788V205.394H137.212V197.818ZM167.515 197.818H175.091V205.394H167.515V197.818ZM175.091 197.818H182.667V205.394H175.091V197.818ZM197.818 197.818H205.394V205.394H197.818V197.818ZM205.394 197.818H212.97V205.394H205.394V197.818ZM212.97 197.818H220.545V205.394H212.97V197.818ZM220.545 197.818H228.121V205.394H220.545V197.818ZM228.121 197.818H235.697V205.394H228.121V197.818ZM76.6061 205.394H84.1818V212.97H76.6061V205.394ZM84.1818 205.394H91.7576V212.97H84.1818V205.394ZM91.7576 205.394H99.3333V212.97H91.7576V205.394ZM106.909 205.394H114.485V212.97H106.909V205.394ZM129.636 205.394H137.212V212.97H129.636V205.394ZM137.212 205.394H144.788V212.97H137.212V205.394ZM144.788 205.394H152.364V212.97H144.788V205.394ZM152.364 205.394H159.939V212.97H152.364V205.394ZM159.939 205.394H167.515V212.97H159.939V205.394ZM182.667 205.394H190.242V212.97H182.667V205.394ZM197.818 205.394H205.394V212.97H197.818V205.394ZM228.121 205.394H235.697V212.97H228.121V205.394ZM235.697 205.394H243.273V212.97H235.697V205.394ZM258.424 205.394H266V212.97H258.424V205.394ZM16 212.97H23.5758V220.545H16V212.97ZM23.5758 212.97H31.1515V220.545H23.5758V212.97ZM31.1515 212.97H38.7273V220.545H31.1515V212.97ZM38.7273 212.97H46.303V220.545H38.7273V212.97ZM46.303 212.97H53.8788V220.545H46.303V212.97ZM53.8788 212.97H61.4545V220.545H53.8788V212.97ZM61.4545 212.97H69.0303V220.545H61.4545V212.97ZM76.6061 212.97H84.1818V220.545H76.6061V212.97ZM91.7576 212.97H99.3333V220.545H91.7576V212.97ZM114.485 212.97H122.061V220.545H114.485V212.97ZM129.636 212.97H137.212V220.545H129.636V212.97ZM137.212 212.97H144.788V220.545H137.212V212.97ZM152.364 212.97H159.939V220.545H152.364V212.97ZM167.515 212.97H175.091V220.545H167.515V212.97ZM197.818 212.97H205.394V220.545H197.818V212.97ZM212.97 212.97H220.545V220.545H212.97V212.97ZM228.121 212.97H235.697V220.545H228.121V212.97ZM235.697 212.97H243.273V220.545H235.697V212.97ZM243.273 212.97H250.848V220.545H243.273V212.97ZM250.848 212.97H258.424V220.545H250.848V212.97ZM16 220.545H23.5758V228.121H16V220.545ZM61.4545 220.545H69.0303V228.121H61.4545V220.545ZM76.6061 220.545H84.1818V228.121H76.6061V220.545ZM91.7576 220.545H99.3333V228.121H91.7576V220.545ZM114.485 220.545H122.061V228.121H114.485V220.545ZM129.636 220.545H137.212V228.121H129.636V220.545ZM137.212 220.545H144.788V228.121H137.212V220.545ZM144.788 220.545H152.364V228.121H144.788V220.545ZM152.364 220.545H159.939V228.121H152.364V220.545ZM159.939 220.545H167.515V228.121H159.939V220.545ZM167.515 220.545H175.091V228.121H167.515V220.545ZM175.091 220.545H182.667V228.121H175.091V220.545ZM197.818 220.545H205.394V228.121H197.818V220.545ZM228.121 220.545H235.697V228.121H228.121V220.545ZM16 228.121H23.5758V235.697H16V228.121ZM31.1515 228.121H38.7273V235.697H31.1515V228.121ZM38.7273 228.121H46.303V235.697H38.7273V228.121ZM46.303 228.121H53.8788V235.697H46.303V228.121ZM61.4545 228.121H69.0303V235.697H61.4545V228.121ZM84.1818 228.121H91.7576V235.697H84.1818V228.121ZM91.7576 228.121H99.3333V235.697H91.7576V228.121ZM99.3333 228.121H106.909V235.697H99.3333V228.121ZM122.061 228.121H129.636V235.697H122.061V228.121ZM175.091 228.121H182.667V235.697H175.091V228.121ZM197.818 228.121H205.394V235.697H197.818V228.121ZM205.394 228.121H212.97V235.697H205.394V228.121ZM212.97 228.121H220.545V235.697H212.97V228.121ZM220.545 228.121H228.121V235.697H220.545V228.121ZM228.121 228.121H235.697V235.697H228.121V228.121ZM235.697 228.121H243.273V235.697H235.697V228.121ZM250.848 228.121H258.424V235.697H250.848V228.121ZM258.424 228.121H266V235.697H258.424V228.121ZM16 235.697H23.5758V243.273H16V235.697ZM31.1515 235.697H38.7273V243.273H31.1515V235.697ZM38.7273 235.697H46.303V243.273H38.7273V235.697ZM46.303 235.697H53.8788V243.273H46.303V235.697ZM61.4545 235.697H69.0303V243.273H61.4545V235.697ZM76.6061 235.697H84.1818V243.273H76.6061V235.697ZM84.1818 235.697H91.7576V243.273H84.1818V235.697ZM91.7576 235.697H99.3333V243.273H91.7576V235.697ZM106.909 235.697H114.485V243.273H106.909V235.697ZM114.485 235.697H122.061V243.273H114.485V235.697ZM137.212 235.697H144.788V243.273H137.212V235.697ZM152.364 235.697H159.939V243.273H152.364V235.697ZM167.515 235.697H175.091V243.273H167.515V235.697ZM182.667 235.697H190.242V243.273H182.667V235.697ZM190.242 235.697H197.818V243.273H190.242V235.697ZM212.97 235.697H220.545V243.273H212.97V235.697ZM228.121 235.697H235.697V243.273H228.121V235.697ZM235.697 235.697H243.273V243.273H235.697V235.697ZM250.848 235.697H258.424V243.273H250.848V235.697ZM16 243.273H23.5758V250.848H16V243.273ZM31.1515 243.273H38.7273V250.848H31.1515V243.273ZM38.7273 243.273H46.303V250.848H38.7273V243.273ZM46.303 243.273H53.8788V250.848H46.303V243.273ZM61.4545 243.273H69.0303V250.848H61.4545V243.273ZM106.909 243.273H114.485V250.848H106.909V243.273ZM152.364 243.273H159.939V250.848H152.364V243.273ZM175.091 243.273H182.667V250.848H175.091V243.273ZM228.121 243.273H235.697V250.848H228.121V243.273ZM235.697 243.273H243.273V250.848H235.697V243.273ZM243.273 243.273H250.848V250.848H243.273V243.273ZM258.424 243.273H266V250.848H258.424V243.273ZM16 250.848H23.5758V258.424H16V250.848ZM61.4545 250.848H69.0303V258.424H61.4545V250.848ZM76.6061 250.848H84.1818V258.424H76.6061V250.848ZM91.7576 250.848H99.3333V258.424H91.7576V250.848ZM99.3333 250.848H106.909V258.424H99.3333V250.848ZM106.909 250.848H114.485V258.424H106.909V250.848ZM114.485 250.848H122.061V258.424H114.485V250.848ZM122.061 250.848H129.636V258.424H122.061V250.848ZM129.636 250.848H137.212V258.424H129.636V250.848ZM137.212 250.848H144.788V258.424H137.212V250.848ZM159.939 250.848H167.515V258.424H159.939V250.848ZM175.091 250.848H182.667V258.424H175.091V250.848ZM197.818 250.848H205.394V258.424H197.818V250.848ZM205.394 250.848H212.97V258.424H205.394V250.848ZM16 258.424H23.5758V266H16V258.424ZM23.5758 258.424H31.1515V266H23.5758V258.424ZM31.1515 258.424H38.7273V266H31.1515V258.424ZM38.7273 258.424H46.303V266H38.7273V258.424ZM46.303 258.424H53.8788V266H46.303V258.424ZM53.8788 258.424H61.4545V266H53.8788V258.424ZM61.4545 258.424H69.0303V266H61.4545V258.424ZM99.3333 258.424H106.909V266H99.3333V258.424ZM129.636 258.424H137.212V266H129.636V258.424ZM144.788 258.424H152.364V266H144.788V258.424ZM175.091 258.424H182.667V266H175.091V258.424ZM197.818 258.424H205.394V266H197.818V258.424ZM228.121 258.424H235.697V266H228.121V258.424ZM235.697 258.424H243.273V266H235.697V258.424ZM250.848 258.424H258.424V266H250.848V258.424Z" fill="white"/>
</svg>
