0
SECTION
2
HEADER
9
$INSUNITS
70
4
0
ENDSEC
0
SECTION
2
TABLES
0
TABLE
2
LTYPE
0
LTYPE
72
65
70
64
2
CONTINUOUS
3
______
73
0
40
0
0
ENDTAB
0
TABLE
2
LAYER
0
ENDTAB
0
ENDSEC
0
SECTION
2
ENTITIES
0
LINE
8
0
10
155.5
20
-100.5
11
140.5
21
-100.5
0
LINE
8
0
10
138.5
20
-102.5
11
138.5
21
-159.5
0
LINE
8
0
10
140.5
20
-161.5
11
183.755907
21
-161.5
0
LINE
8
0
10
185.0631468
20
-161.986354
11
195.0361466
21
-170.5993993
0
LINE
8
0
10
196.1086595
20
-171.0719315
11
233.8819196
21
-175.5359814
0
LINE
8
0
10
234.6471928
20
-175.7901087
11
252.4772413
21
-186.0842921
0
LINE
8
0
10
255.2092921
20
-185.3522413
11
264.9253229
21
-168.5235824
0
LINE
8
0
10
264.5777926
20
-166.0802865
11
259.1154795
21
-160.8404153
0
LINE
8
0
10
258.5
20
-159.3971194
11
258.5
21
-88.25
0
LINE
8
0
10
201.5
20
-86.25
11
256.5
21
-86.25
0
LINE
8
0
10
199.5
20
-84.25
11
199.5
21
-78.75
0
LINE
8
0
10
197.5
20
-76.75
11
178.5
21
-76.75
0
LINE
8
0
10
176.5
20
-78.75
11
176.5
21
-79.5
0
LINE
8
0
10
174.5
20
-81.5
11
159.5
21
-81.5
0
LINE
8
0
10
157.5
20
-83.5
11
157.5
21
-98.5
0
ARC
8
0
10
140.5
20
-102.5
40
2
50
90
51
180
0
ARC
8
0
10
140.5
20
-159.5
40
2
50
180
51
270
0
ARC
8
0
10
183.755907
20
-163.5
40
2
50
49.1849145
51
90
0
ARC
8
0
10
196.3433864
20
-169.0857534
40
2
50
229.1849145
51
263.2600386
0
ARC
8
0
10
233.6471928
20
-177.5221595
40
2
50
59.9999999
51
83.2600386
0
ARC
8
0
10
253.4772413
20
-184.3522413
40
2
50
239.9999999
51
329.9999999
0
ARC
8
0
10
263.1932721
20
-167.5235824
40
2
50
329.9999999
51
46.1907059
0
ARC
8
0
10
260.5
20
-159.3971194
40
2
50
180
51
226.1907059
0
ARC
8
0
10
256.5
20
-88.25
40
2
50
0
51
90
0
ARC
8
0
10
201.5
20
-84.25
40
2
50
180
51
270
0
ARC
8
0
10
197.5
20
-78.75
40
2
50
0
51
90
0
ARC
8
0
10
178.5
20
-78.75
40
2
50
90
51
180
0
ARC
8
0
10
174.5
20
-79.5
40
2
50
270
51
0
0
ARC
8
0
10
159.5
20
-83.5
40
2
50
90
51
180
0
ARC
8
0
10
155.5
20
-98.5
40
2
50
270
51
0
0
LINE
8
0
10
144
20
-159
11
156
21
-159
0
LINE
8
0
10
159
20
-156
11
159
21
-144
0
LINE
8
0
10
156
20
-141
11
144
21
-141
0
LINE
8
0
10
141
20
-144
11
141
21
-156
0
LINE
8
0
10
144
20
-140
11
156
21
-140
0
LINE
8
0
10
159
20
-137
11
159
21
-125
0
LINE
8
0
10
156
20
-122
11
144
21
-122
0
LINE
8
0
10
141
20
-125
11
141
21
-137
0
LINE
8
0
10
144
20
-121
11
156
21
-121
0
LINE
8
0
10
159
20
-118
11
159
21
-106
0
LINE
8
0
10
156
20
-103
11
144
21
-103
0
LINE
8
0
10
141
20
-106
11
141
21
-118
0
LINE
8
0
10
163
20
-140
11
175
21
-140
0
LINE
8
0
10
178
20
-137
11
178
21
-125
0
LINE
8
0
10
175
20
-122
11
163
21
-122
0
LINE
8
0
10
160
20
-125
11
160
21
-137
0
LINE
8
0
10
163
20
-121
11
175
21
-121
0
LINE
8
0
10
178
20
-118
11
178
21
-106
0
LINE
8
0
10
175
20
-103
11
163
21
-103
0
LINE
8
0
10
160
20
-106
11
160
21
-118
0
LINE
8
0
10
163
20
-102
11
175
21
-102
0
LINE
8
0
10
178
20
-99
11
178
21
-87
0
LINE
8
0
10
175
20
-84
11
163
21
-84
0
LINE
8
0
10
160
20
-87
11
160
21
-99
0
LINE
8
0
10
182
20
-135.25
11
194
21
-135.25
0
LINE
8
0
10
197
20
-132.25
11
197
21
-120.25
0
LINE
8
0
10
194
20
-117.25
11
182
21
-117.25
0
LINE
8
0
10
179
20
-120.25
11
179
21
-132.25
0
LINE
8
0
10
182
20
-116.25
11
194
21
-116.25
0
LINE
8
0
10
197
20
-113.25
11
197
21
-101.25
0
LINE
8
0
10
194
20
-98.25
11
182
21
-98.25
0
LINE
8
0
10
179
20
-101.25
11
179
21
-113.25
0
LINE
8
0
10
182
20
-97.25
11
194
21
-97.25
0
LINE
8
0
10
197
20
-94.25
11
197
21
-82.25
0
LINE
8
0
10
194
20
-79.25
11
182
21
-79.25
0
LINE
8
0
10
179
20
-82.25
11
179
21
-94.25
0
LINE
8
0
10
201
20
-144.75
11
213
21
-144.75
0
LINE
8
0
10
216
20
-141.75
11
216
21
-129.75
0
LINE
8
0
10
213
20
-126.75
11
201
21
-126.75
0
LINE
8
0
10
198
20
-129.75
11
198
21
-141.75
0
LINE
8
0
10
201
20
-125.75
11
213
21
-125.75
0
LINE
8
0
10
216
20
-122.75
11
216
21
-110.75
0
LINE
8
0
10
213
20
-107.75
11
201
21
-107.75
0
LINE
8
0
10
198
20
-110.75
11
198
21
-122.75
0
LINE
8
0
10
201
20
-106.75
11
213
21
-106.75
0
LINE
8
0
10
216
20
-103.75
11
216
21
-91.75
0
LINE
8
0
10
213
20
-88.75
11
201
21
-88.75
0
LINE
8
0
10
198
20
-91.75
11
198
21
-103.75
0
LINE
8
0
10
220
20
-149.5
11
232
21
-149.5
0
LINE
8
0
10
235
20
-146.5
11
235
21
-134.5
0
LINE
8
0
10
232
20
-131.5
11
220
21
-131.5
0
LINE
8
0
10
217
20
-134.5
11
217
21
-146.5
0
LINE
8
0
10
220
20
-130.5
11
232
21
-130.5
0
LINE
8
0
10
235
20
-127.5
11
235
21
-115.5
0
LINE
8
0
10
232
20
-112.5
11
220
21
-112.5
0
LINE
8
0
10
217
20
-115.5
11
217
21
-127.5
0
LINE
8
0
10
220
20
-111.5
11
232
21
-111.5
0
LINE
8
0
10
235
20
-108.5
11
235
21
-96.5
0
LINE
8
0
10
232
20
-93.5
11
220
21
-93.5
0
LINE
8
0
10
217
20
-96.5
11
217
21
-108.5
0
LINE
8
0
10
201
20
-168.5
11
213
21
-168.5
0
LINE
8
0
10
216
20
-165.5
11
216
21
-153.5
0
LINE
8
0
10
213
20
-150.5
11
201
21
-150.5
0
LINE
8
0
10
198
20
-153.5
11
198
21
-165.5
0
LINE
8
0
10
220.8750738
20
-169.0154182
11
232.4661836
21
-172.1212467
0
LINE
8
0
10
236.1404182
20
-169.9999262
11
239.2462467
21
-158.4088164
0
LINE
8
0
10
237.1249262
20
-154.7345818
11
225.5338164
21
-151.6287533
0
LINE
8
0
10
221.8595818
20
-153.7500738
11
218.7537533
21
-165.3411836
0
LINE
8
0
10
240.3038476
20
-176.1692286
11
250.6961524
21
-182.1692286
0
LINE
8
0
10
254.7942286
20
-181.0711524
11
260.7942286
21
-170.6788476
0
LINE
8
0
10
259.6961524
20
-166.5807714
11
249.3038476
21
-160.5807714
0
LINE
8
0
10
245.2057714
20
-161.6788476
11
239.2057714
21
-172.0711524
0
ARC
8
0
10
156
20
-156
40
3
50
270
51
0
0
ARC
8
0
10
156
20
-144
40
3
50
0
51
90
0
ARC
8
0
10
144
20
-144
40
3
50
90
51
180
0
ARC
8
0
10
144
20
-156
40
3
50
180
51
270
0
ARC
8
0
10
156
20
-137
40
3
50
270
51
0
0
ARC
8
0
10
156
20
-125
40
3
50
0
51
90
0
ARC
8
0
10
144
20
-125
40
3
50
90
51
180
0
ARC
8
0
10
144
20
-137
40
3
50
180
51
270
0
ARC
8
0
10
156
20
-118
40
3
50
270
51
0
0
ARC
8
0
10
156
20
-106
40
3
50
0
51
90
0
ARC
8
0
10
144
20
-106
40
3
50
90
51
180
0
ARC
8
0
10
144
20
-118
40
3
50
180
51
270
0
ARC
8
0
10
175
20
-137
40
3
50
270
51
0
0
ARC
8
0
10
175
20
-125
40
3
50
0
51
90
0
ARC
8
0
10
163
20
-125
40
3
50
90
51
180
0
ARC
8
0
10
163
20
-137
40
3
50
180
51
270
0
ARC
8
0
10
175
20
-118
40
3
50
270
51
0
0
ARC
8
0
10
175
20
-106
40
3
50
0
51
90
0
ARC
8
0
10
163
20
-106
40
3
50
90
51
180
0
ARC
8
0
10
163
20
-118
40
3
50
180
51
270
0
ARC
8
0
10
175
20
-99
40
3
50
270
51
0
0
ARC
8
0
10
175
20
-87
40
3
50
0
51
90
0
ARC
8
0
10
163
20
-87
40
3
50
90
51
180
0
ARC
8
0
10
163
20
-99
40
3
50
180
51
270
0
ARC
8
0
10
194
20
-132.25
40
3
50
270
51
0
0
ARC
8
0
10
194
20
-120.25
40
3
50
0
51
90
0
ARC
8
0
10
182
20
-120.25
40
3
50
90
51
180
0
ARC
8
0
10
182
20
-132.25
40
3
50
180
51
270
0
ARC
8
0
10
194
20
-113.25
40
3
50
270
51
0
0
ARC
8
0
10
194
20
-101.25
40
3
50
0
51
90
0
ARC
8
0
10
182
20
-101.25
40
3
50
90
51
180
0
ARC
8
0
10
182
20
-113.25
40
3
50
180
51
270
0
ARC
8
0
10
194
20
-94.25
40
3
50
270
51
0
0
ARC
8
0
10
194
20
-82.25
40
3
50
0
51
90
0
ARC
8
0
10
182
20
-82.25
40
3
50
90
51
180
0
ARC
8
0
10
182
20
-94.25
40
3
50
180
51
270
0
ARC
8
0
10
213
20
-141.75
40
3
50
270
51
0
0
ARC
8
0
10
213
20
-129.75
40
3
50
0
51
90
0
ARC
8
0
10
201
20
-129.75
40
3
50
90
51
180
0
ARC
8
0
10
201
20
-141.75
40
3
50
180
51
270
0
ARC
8
0
10
213
20
-122.75
40
3
50
270
51
0
0
ARC
8
0
10
213
20
-110.75
40
3
50
0
51
90
0
ARC
8
0
10
201
20
-110.75
40
3
50
90
51
180
0
ARC
8
0
10
201
20
-122.75
40
3
50
180
51
270
0
ARC
8
0
10
213
20
-103.75
40
3
50
270
51
0
0
ARC
8
0
10
213
20
-91.75
40
3
50
0
51
90
0
ARC
8
0
10
201
20
-91.75
40
3
50
90
51
180
0
ARC
8
0
10
201
20
-103.75
40
3
50
180
51
270
0
ARC
8
0
10
232
20
-146.5
40
3
50
270
51
0
0
ARC
8
0
10
232
20
-134.5
40
3
50
0
51
90
0
ARC
8
0
10
220
20
-134.5
40
3
50
90
51
180
0
ARC
8
0
10
220
20
-146.5
40
3
50
180
51
270
0
ARC
8
0
10
232
20
-127.5
40
3
50
270
51
0
0
ARC
8
0
10
232
20
-115.5
40
3
50
0
51
90
0
ARC
8
0
10
220
20
-115.5
40
3
50
90
51
180
0
ARC
8
0
10
220
20
-127.5
40
3
50
180
51
270
0
ARC
8
0
10
232
20
-108.5
40
3
50
270
51
0
0
ARC
8
0
10
232
20
-96.5
40
3
50
0
51
90
0
ARC
8
0
10
220
20
-96.5
40
3
50
90
51
180
0
ARC
8
0
10
220
20
-108.5
40
3
50
180
51
270
0
ARC
8
0
10
213
20
-165.5
40
3
50
270
51
0
0
ARC
8
0
10
213
20
-153.5
40
3
50
0
51
90
0
ARC
8
0
10
201
20
-153.5
40
3
50
90
51
180
0
ARC
8
0
10
201
20
-165.5
40
3
50
180
51
270
0
ARC
8
0
10
252.1961524
20
-179.5711524
40
3
50
239.9999999
51
329.9999999
0
ARC
8
0
10
258.1961524
20
-169.1788476
40
3
50
329.9999999
51
59.9999999
0
ARC
8
0
10
247.8038476
20
-163.1788476
40
3
50
59.9999999
51
149.9999999
0
ARC
8
0
10
241.8038476
20
-173.5711524
40
3
50
149.9999999
51
239.9999999
0
ARC
8
0
10
233.2426407
20
-169.2234692
40
3
50
255.0000021
51
345.0000021
0
ARC
8
0
10
236.3484692
20
-157.6323593
40
3
50
345.0000021
51
75.0000021
0
ARC
8
0
10
224.7573593
20
-154.5265308
40
3
50
75.0000021
51
165.0000021
0
ARC
8
0
10
221.6515308
20
-166.1176406
40
3
50
165.0000021
51
255.0000021
0
ENDSEC
0
EOF