<svg width="126.693mm" height="109.602mm" viewBox="0 0 126.693 109.602" xmlns="http://www.w3.org/2000/svg"><g id="svgGroup" stroke-linecap="round" fill-rule="evenodd" font-size="9pt" stroke="#000" stroke-width="0.25mm" fill="none" style="stroke:#000;stroke-width:0.25mm;fill:none"><path d="M 17 23.75 L 2 23.75 A 2 2 0 0 0 0 25.75 L 0 82.75 A 2 2 0 0 0 2 84.75 L 45.256 84.75 A 2 2 0 0 1 46.563 85.236 L 56.536 93.849 A 2 2 0 0 0 57.609 94.322 L 95.382 98.786 A 2 2 0 0 1 96.147 99.04 L 113.977 109.334 A 2 2 0 0 0 116.709 108.602 L 126.425 91.774 A 2 2 0 0 0 126.078 89.33 L 120.615 84.09 A 2 2 0 0 1 120 82.647 L 120 11.5 A 2 2 0 0 0 118 9.5 L 63 9.5 A 2 2 0 0 1 61 7.5 L 61 2 A 2 2 0 0 0 59 0 L 40 0 A 2 2 0 0 0 38 2 L 38 2.75 A 2 2 0 0 1 36 4.75 L 21 4.75 A 2 2 0 0 0 19 6.75 L 19 21.75 A 2 2 0 0 1 17 23.75 Z M 5.5 82.25 L 17.5 82.25 A 3 3 0 0 0 20.5 79.25 L 20.5 67.25 A 3 3 0 0 0 17.5 64.25 L 5.5 64.25 A 3 3 0 0 0 2.5 67.25 L 2.5 79.25 A 3 3 0 0 0 5.5 82.25 Z M 5.5 63.25 L 17.5 63.25 A 3 3 0 0 0 20.5 60.25 L 20.5 48.25 A 3 3 0 0 0 17.5 45.25 L 5.5 45.25 A 3 3 0 0 0 2.5 48.25 L 2.5 60.25 A 3 3 0 0 0 5.5 63.25 Z M 5.5 44.25 L 17.5 44.25 A 3 3 0 0 0 20.5 41.25 L 20.5 29.25 A 3 3 0 0 0 17.5 26.25 L 5.5 26.25 A 3 3 0 0 0 2.5 29.25 L 2.5 41.25 A 3 3 0 0 0 5.5 44.25 Z M 24.5 63.25 L 36.5 63.25 A 3 3 0 0 0 39.5 60.25 L 39.5 48.25 A 3 3 0 0 0 36.5 45.25 L 24.5 45.25 A 3 3 0 0 0 21.5 48.25 L 21.5 60.25 A 3 3 0 0 0 24.5 63.25 Z M 24.5 44.25 L 36.5 44.25 A 3 3 0 0 0 39.5 41.25 L 39.5 29.25 A 3 3 0 0 0 36.5 26.25 L 24.5 26.25 A 3 3 0 0 0 21.5 29.25 L 21.5 41.25 A 3 3 0 0 0 24.5 44.25 Z M 24.5 25.25 L 36.5 25.25 A 3 3 0 0 0 39.5 22.25 L 39.5 10.25 A 3 3 0 0 0 36.5 7.25 L 24.5 7.25 A 3 3 0 0 0 21.5 10.25 L 21.5 22.25 A 3 3 0 0 0 24.5 25.25 Z M 43.5 58.5 L 55.5 58.5 A 3 3 0 0 0 58.5 55.5 L 58.5 43.5 A 3 3 0 0 0 55.5 40.5 L 43.5 40.5 A 3 3 0 0 0 40.5 43.5 L 40.5 55.5 A 3 3 0 0 0 43.5 58.5 Z M 43.5 39.5 L 55.5 39.5 A 3 3 0 0 0 58.5 36.5 L 58.5 24.5 A 3 3 0 0 0 55.5 21.5 L 43.5 21.5 A 3 3 0 0 0 40.5 24.5 L 40.5 36.5 A 3 3 0 0 0 43.5 39.5 Z M 43.5 20.5 L 55.5 20.5 A 3 3 0 0 0 58.5 17.5 L 58.5 5.5 A 3 3 0 0 0 55.5 2.5 L 43.5 2.5 A 3 3 0 0 0 40.5 5.5 L 40.5 17.5 A 3 3 0 0 0 43.5 20.5 Z M 62.5 68 L 74.5 68 A 3 3 0 0 0 77.5 65 L 77.5 53 A 3 3 0 0 0 74.5 50 L 62.5 50 A 3 3 0 0 0 59.5 53 L 59.5 65 A 3 3 0 0 0 62.5 68 Z M 62.5 49 L 74.5 49 A 3 3 0 0 0 77.5 46 L 77.5 34 A 3 3 0 0 0 74.5 31 L 62.5 31 A 3 3 0 0 0 59.5 34 L 59.5 46 A 3 3 0 0 0 62.5 49 Z M 62.5 30 L 74.5 30 A 3 3 0 0 0 77.5 27 L 77.5 15 A 3 3 0 0 0 74.5 12 L 62.5 12 A 3 3 0 0 0 59.5 15 L 59.5 27 A 3 3 0 0 0 62.5 30 Z M 81.5 72.75 L 93.5 72.75 A 3 3 0 0 0 96.5 69.75 L 96.5 57.75 A 3 3 0 0 0 93.5 54.75 L 81.5 54.75 A 3 3 0 0 0 78.5 57.75 L 78.5 69.75 A 3 3 0 0 0 81.5 72.75 Z M 81.5 53.75 L 93.5 53.75 A 3 3 0 0 0 96.5 50.75 L 96.5 38.75 A 3 3 0 0 0 93.5 35.75 L 81.5 35.75 A 3 3 0 0 0 78.5 38.75 L 78.5 50.75 A 3 3 0 0 0 81.5 53.75 Z M 81.5 34.75 L 93.5 34.75 A 3 3 0 0 0 96.5 31.75 L 96.5 19.75 A 3 3 0 0 0 93.5 16.75 L 81.5 16.75 A 3 3 0 0 0 78.5 19.75 L 78.5 31.75 A 3 3 0 0 0 81.5 34.75 Z M 62.5 91.75 L 74.5 91.75 A 3 3 0 0 0 77.5 88.75 L 77.5 76.75 A 3 3 0 0 0 74.5 73.75 L 62.5 73.75 A 3 3 0 0 0 59.5 76.75 L 59.5 88.75 A 3 3 0 0 0 62.5 91.75 Z M 101.804 99.419 L 112.196 105.419 A 3 3 0 0 0 116.294 104.321 L 122.294 93.929 A 3 3 0 0 0 121.196 89.831 L 110.804 83.831 A 3 3 0 0 0 106.706 84.929 L 100.706 95.321 A 3 3 0 0 0 101.804 99.419 Z M 82.375 92.265 L 93.966 95.371 A 3 3 0 0 0 97.64 93.25 L 100.746 81.659 A 3 3 0 0 0 98.625 77.985 L 87.034 74.879 A 3 3 0 0 0 83.36 77 L 80.254 88.591 A 3 3 0 0 0 82.375 92.265 Z" vector-effect="non-scaling-stroke"/></g></svg>