%TF.GenerationSoftware,KiCad,Pcbnew,9.0.7*%
%TF.CreationDate,2026-01-25T01:01:47-05:00*%
%TF.ProjectId,pcb,7063622e-6b69-4636-9164-5f7063625858,rev?*%
%TF.SameCoordinates,Original*%
%TF.FileFunction,Soldermask,Top*%
%TF.FilePolarity,Negative*%
%FSLAX46Y46*%
G04 Gerber Fmt 4.6, Leading zero omitted, Abs format (unit mm)*
G04 Created by KiCad (PCBNEW 9.0.7) date 2026-01-25 01:01:47*
%MOMM*%
%LPD*%
G01*
G04 APERTURE LIST*
G04 Aperture macros list*
%AMRoundRect*
0 Rectangle with rounded corners*
0 $1 Rounding radius*
0 $2 $3 $4 $5 $6 $7 $8 $9 X,Y pos of 4 corners*
0 Add a 4 corners polygon primitive as box body*
4,1,4,$2,$3,$4,$5,$6,$7,$8,$9,$2,$3,0*
0 Add four circle primitives for the rounded corners*
1,1,$1+$1,$2,$3*
1,1,$1+$1,$4,$5*
1,1,$1+$1,$6,$7*
1,1,$1+$1,$8,$9*
0 Add four rect primitives between the rounded corners*
20,1,$1+$1,$2,$3,$4,$5,0*
20,1,$1+$1,$4,$5,$6,$7,0*
20,1,$1+$1,$6,$7,$8,$9,0*
20,1,$1+$1,$8,$9,$2,$3,0*%
%AMFreePoly0*
4,1,14,1.310355,1.285355,1.325000,1.250000,1.325000,-0.750000,1.310355,-0.785355,0.810355,-1.285355,0.775000,-1.300000,-1.275000,-1.300000,-1.310355,-1.285355,-1.325000,-1.250000,-1.325000,1.250000,-1.310355,1.285355,-1.275000,1.300000,1.275000,1.300000,1.310355,1.285355,1.310355,1.285355,$1*%
%AMFreePoly1*
4,1,16,-0.214645,0.660355,-0.210957,0.656235,0.289043,0.031235,0.299694,-0.005522,0.289043,-0.031235,-0.210957,-0.656235,-0.244478,-0.674694,-0.250000,-0.675000,-0.500000,-0.675000,-0.535355,-0.660355,-0.550000,-0.625000,-0.550000,0.625000,-0.535355,0.660355,-0.500000,0.675000,-0.250000,0.675000,-0.214645,0.660355,-0.214645,0.660355,$1*%
%AMFreePoly2*
4,1,16,0.535355,0.660355,0.550000,0.625000,0.550000,-0.625000,0.535355,-0.660355,0.500000,-0.675000,-0.650000,-0.675000,-0.685355,-0.660355,-0.700000,-0.625000,-0.689043,-0.593765,-0.214031,0.000000,-0.689043,0.593765,-0.699694,0.630522,-0.681235,0.664043,-0.650000,0.675000,0.500000,0.675000,0.535355,0.660355,0.535355,0.660355,$1*%
%AMFreePoly3*
4,1,14,0.035355,0.435355,0.635355,-0.164645,0.650000,-0.200000,0.650000,-0.400000,0.635355,-0.435355,0.600000,-0.450000,-0.600000,-0.450000,-0.635355,-0.435355,-0.650000,-0.400000,-0.650000,-0.200000,-0.635355,-0.164645,-0.035355,0.435355,0.000000,0.450000,0.035355,0.435355,0.035355,0.435355,$1*%
%AMFreePoly4*
4,1,16,0.635355,0.285355,0.650000,0.250000,0.650000,-1.000000,0.635355,-1.035355,0.600000,-1.050000,0.564645,-1.035355,0.000000,-0.470710,-0.564645,-1.035355,-0.600000,-1.050000,-0.635355,-1.035355,-0.650000,-1.000000,-0.650000,0.250000,-0.635355,0.285355,-0.600000,0.300000,0.600000,0.300000,0.635355,0.285355,0.635355,0.285355,$1*%
G04 Aperture macros list end*
%ADD10C,4.200000*%
%ADD11C,2.000000*%
%ADD12C,3.100000*%
%ADD13RoundRect,0.050000X-1.275000X-1.250000X1.275000X-1.250000X1.275000X1.250000X-1.275000X1.250000X0*%
%ADD14FreePoly0,0.000000*%
%ADD15RoundRect,0.050000X-1.555079X-0.877413X0.908032X-1.537402X1.555079X0.877413X-0.908032X1.537402X0*%
%ADD16FreePoly0,345.000000*%
%ADD17RoundRect,0.050000X-1.729182X-0.445032X0.479182X-1.720032X1.729182X0.445032X-0.479182X1.720032X0*%
%ADD18FreePoly0,330.000000*%
%ADD19RoundRect,0.050000X0.450000X0.600000X-0.450000X0.600000X-0.450000X-0.600000X0.450000X-0.600000X0*%
%ADD20RoundRect,0.050000X0.589958X0.463087X-0.279375X0.696024X-0.589958X-0.463087X0.279375X-0.696024X0*%
%ADD21RoundRect,0.050000X0.689711X0.294615X-0.089711X0.744615X-0.689711X-0.294615X0.089711X-0.744615X0*%
%ADD22C,1.800000*%
%ADD23C,0.900000*%
%ADD24FreePoly1,0.000000*%
%ADD25FreePoly2,0.000000*%
%ADD26FreePoly2,180.000000*%
%ADD27FreePoly1,180.000000*%
%ADD28O,1.850000X1.300000*%
%ADD29FreePoly3,270.000000*%
%ADD30FreePoly4,270.000000*%
%ADD31RoundRect,0.050000X0.400000X-0.500000X0.400000X0.500000X-0.400000X0.500000X-0.400000X-0.500000X0*%
%ADD32RoundRect,0.050000X0.750000X-0.350000X0.750000X0.350000X-0.750000X0.350000X-0.750000X-0.350000X0*%
%ADD33C,1.000000*%
G04 APERTURE END LIST*
D10*
%TO.C,S1*%
X87000000Y-115000000D03*
D11*
X92080000Y-115000000D03*
X81920000Y-115000000D03*
D12*
X84460000Y-109920000D03*
X90810000Y-112460000D03*
D13*
X94085000Y-112460000D03*
D14*
X81158000Y-109920000D03*
D12*
X89540000Y-109920000D03*
X83190000Y-112460000D03*
%TD*%
D10*
%TO.C,S2*%
X87000000Y-96000000D03*
D11*
X92080000Y-96000000D03*
X81920000Y-96000000D03*
D12*
X84460000Y-90920000D03*
X90810000Y-93460000D03*
D13*
X94085000Y-93460000D03*
D14*
X81158000Y-90920000D03*
D12*
X89540000Y-90920000D03*
X83190000Y-93460000D03*
%TD*%
D10*
%TO.C,S3*%
X87000000Y-77000000D03*
D11*
X92080000Y-77000000D03*
X81920000Y-77000000D03*
D12*
X84460000Y-71920000D03*
X90810000Y-74460000D03*
D13*
X94085000Y-74460000D03*
D14*
X81158000Y-71920000D03*
D12*
X89540000Y-71920000D03*
X83190000Y-74460000D03*
%TD*%
D10*
%TO.C,S4*%
X106000000Y-96000000D03*
D11*
X111080000Y-96000000D03*
X100920000Y-96000000D03*
D12*
X103460000Y-90920000D03*
X109810000Y-93460000D03*
D13*
X113085000Y-93460000D03*
D14*
X100158000Y-90920000D03*
D12*
X108540000Y-90920000D03*
X102190000Y-93460000D03*
%TD*%
D10*
%TO.C,S5*%
X106000000Y-77000000D03*
D11*
X111080000Y-77000000D03*
X100920000Y-77000000D03*
D12*
X103460000Y-71920000D03*
X109810000Y-74460000D03*
D13*
X113085000Y-74460000D03*
D14*
X100158000Y-71920000D03*
D12*
X108540000Y-71920000D03*
X102190000Y-74460000D03*
%TD*%
D10*
%TO.C,S6*%
X106000000Y-58000000D03*
D11*
X111080000Y-58000000D03*
X100920000Y-58000000D03*
D12*
X103460000Y-52920000D03*
X109810000Y-55460000D03*
D13*
X113085000Y-55460000D03*
D14*
X100158000Y-52920000D03*
D12*
X108540000Y-52920000D03*
X102190000Y-55460000D03*
%TD*%
D10*
%TO.C,S7*%
X125000000Y-91250000D03*
D11*
X130080000Y-91250000D03*
X119920000Y-91250000D03*
D12*
X122460000Y-86170000D03*
X128810000Y-88710000D03*
D13*
X132085000Y-88710000D03*
D14*
X119158000Y-86170000D03*
D12*
X127540000Y-86170000D03*
X121190000Y-88710000D03*
%TD*%
D10*
%TO.C,S8*%
X125000000Y-72250000D03*
D11*
X130080000Y-72250000D03*
X119920000Y-72250000D03*
D12*
X122460000Y-67170000D03*
X128810000Y-69710000D03*
D13*
X132085000Y-69710000D03*
D14*
X119158000Y-67170000D03*
D12*
X127540000Y-67170000D03*
X121190000Y-69710000D03*
%TD*%
D10*
%TO.C,S9*%
X125000000Y-53250000D03*
D11*
X130080000Y-53250000D03*
X119920000Y-53250000D03*
D12*
X122460000Y-48170000D03*
X128810000Y-50710000D03*
D13*
X132085000Y-50710000D03*
D14*
X119158000Y-48170000D03*
D12*
X127540000Y-48170000D03*
X121190000Y-50710000D03*
%TD*%
D10*
%TO.C,S10*%
X144000000Y-100750000D03*
D11*
X149080000Y-100750000D03*
X138920000Y-100750000D03*
D12*
X141460000Y-95670000D03*
X147810000Y-98210000D03*
D13*
X151085000Y-98210000D03*
D14*
X138158000Y-95670000D03*
D12*
X146540000Y-95670000D03*
X140190000Y-98210000D03*
%TD*%
D10*
%TO.C,S11*%
X144000000Y-81750000D03*
D11*
X149080000Y-81750000D03*
X138920000Y-81750000D03*
D12*
X141460000Y-76670000D03*
X147810000Y-79210000D03*
D13*
X151085000Y-79210000D03*
D14*
X138158000Y-76670000D03*
D12*
X146540000Y-76670000D03*
X140190000Y-79210000D03*
%TD*%
D10*
%TO.C,S12*%
X144000000Y-62750000D03*
D11*
X149080000Y-62750000D03*
X138920000Y-62750000D03*
D12*
X141460000Y-57670000D03*
X147810000Y-60210000D03*
D13*
X151085000Y-60210000D03*
D14*
X138158000Y-57670000D03*
D12*
X146540000Y-57670000D03*
X140190000Y-60210000D03*
%TD*%
D10*
%TO.C,S13*%
X163000000Y-105500000D03*
D11*
X168080000Y-105500000D03*
X157920000Y-105500000D03*
D12*
X160460000Y-100420000D03*
X166810000Y-102960000D03*
D13*
X170085000Y-102960000D03*
D14*
X157158000Y-100420000D03*
D12*
X165540000Y-100420000D03*
X159190000Y-102960000D03*
%TD*%
D10*
%TO.C,S14*%
X163000000Y-86500000D03*
D11*
X168080000Y-86500000D03*
X157920000Y-86500000D03*
D12*
X160460000Y-81420000D03*
X166810000Y-83960000D03*
D13*
X170085000Y-83960000D03*
D14*
X157158000Y-81420000D03*
D12*
X165540000Y-81420000D03*
X159190000Y-83960000D03*
%TD*%
D10*
%TO.C,S15*%
X163000000Y-67500000D03*
D11*
X168080000Y-67500000D03*
X157920000Y-67500000D03*
D12*
X160460000Y-62420000D03*
X166810000Y-64960000D03*
D13*
X170085000Y-64960000D03*
D14*
X157158000Y-62420000D03*
D12*
X165540000Y-62420000D03*
X159190000Y-64960000D03*
%TD*%
D10*
%TO.C,S16*%
X144000000Y-124500000D03*
D11*
X149080000Y-124500000D03*
X138920000Y-124500000D03*
D12*
X141460000Y-119420000D03*
X147810000Y-121960000D03*
D13*
X151085000Y-121960000D03*
D14*
X138158000Y-119420000D03*
D12*
X146540000Y-119420000D03*
X140190000Y-121960000D03*
%TD*%
D10*
%TO.C,S17*%
X166000000Y-126875000D03*
D11*
X170906903Y-128189801D03*
X161093097Y-125560199D03*
D12*
X164861349Y-121310696D03*
X170337578Y-125407649D03*
D15*
X173500985Y-126255281D03*
D16*
X161671862Y-120456076D03*
D12*
X169768252Y-122625497D03*
X162977223Y-123435448D03*
%TD*%
D10*
%TO.C,S18*%
X187000000Y-136375000D03*
D11*
X191399409Y-138915000D03*
X182600591Y-133835000D03*
D12*
X187340295Y-130705591D03*
X191569557Y-136080295D03*
D17*
X194405790Y-137717795D03*
D18*
X184480680Y-129054591D03*
D12*
X191739705Y-133245591D03*
X184970443Y-132270295D03*
%TD*%
D19*
%TO.C,D1*%
X94350000Y-118000000D03*
X91050000Y-118000000D03*
%TD*%
%TO.C,D2*%
X94350000Y-99000000D03*
X91050000Y-99000000D03*
%TD*%
%TO.C,D3*%
X94350000Y-80000000D03*
X91050000Y-80000000D03*
%TD*%
%TO.C,D4*%
X113350000Y-99000000D03*
X110050000Y-99000000D03*
%TD*%
%TO.C,D5*%
X113350000Y-80000000D03*
X110050000Y-80000000D03*
%TD*%
%TO.C,D6*%
X113350000Y-61000000D03*
X110050000Y-61000000D03*
%TD*%
%TO.C,D7*%
X132350000Y-94250000D03*
X129050000Y-94250000D03*
%TD*%
%TO.C,D8*%
X132350000Y-75250000D03*
X129050000Y-75250000D03*
%TD*%
%TO.C,D9*%
X132350000Y-56250000D03*
X129050000Y-56250000D03*
%TD*%
%TO.C,D10*%
X151350000Y-103750000D03*
X148050000Y-103750000D03*
%TD*%
%TO.C,D11*%
X151350000Y-84750000D03*
X148050000Y-84750000D03*
%TD*%
%TO.C,D12*%
X151350000Y-65750000D03*
X148050000Y-65750000D03*
%TD*%
%TO.C,D13*%
X170350000Y-108500000D03*
X167050000Y-108500000D03*
%TD*%
%TO.C,D14*%
X170350000Y-89500000D03*
X167050000Y-89500000D03*
%TD*%
%TO.C,D15*%
X170350000Y-70500000D03*
X167050000Y-70500000D03*
%TD*%
%TO.C,D16*%
X151350000Y-127500000D03*
X148050000Y-127500000D03*
%TD*%
D20*
%TO.C,D17*%
X172323098Y-131675097D03*
X169135542Y-130820995D03*
%TD*%
D21*
%TO.C,D18*%
X191865287Y-142648076D03*
X189007403Y-140998076D03*
%TD*%
D22*
%TO.C,MCU1*%
X176380000Y-61300000D03*
X191620000Y-61300000D03*
D23*
X180600000Y-61300000D03*
X187400000Y-61300000D03*
D24*
X178500000Y-61300000D03*
D25*
X179225000Y-61300000D03*
D26*
X188775000Y-61300000D03*
D27*
X189500000Y-61300000D03*
D22*
X176380000Y-63840000D03*
X191620000Y-63840000D03*
D23*
X180600000Y-63840000D03*
X187400000Y-63840000D03*
D24*
X178500000Y-63840000D03*
D25*
X179225000Y-63840000D03*
D26*
X188775000Y-63840000D03*
D27*
X189500000Y-63840000D03*
D22*
X176380000Y-66380000D03*
X191620000Y-66380000D03*
D23*
X180600000Y-66380000D03*
X187400000Y-66380000D03*
D24*
X178500000Y-66380000D03*
D25*
X179225000Y-66380000D03*
D26*
X188775000Y-66380000D03*
D27*
X189500000Y-66380000D03*
D22*
X176380000Y-68920000D03*
X191620000Y-68920000D03*
D23*
X180600000Y-68920000D03*
X187400000Y-68920000D03*
D24*
X178500000Y-68920000D03*
D25*
X179225000Y-68920000D03*
D26*
X188775000Y-68920000D03*
D27*
X189500000Y-68920000D03*
D22*
X176380000Y-71460000D03*
X191620000Y-71460000D03*
X176380000Y-74000000D03*
X191620000Y-74000000D03*
X176380000Y-76540000D03*
X191620000Y-76540000D03*
X176380000Y-79080000D03*
X191620000Y-79080000D03*
X176380000Y-81620000D03*
X191620000Y-81620000D03*
X176380000Y-84160000D03*
X191620000Y-84160000D03*
X176380000Y-86700000D03*
X191620000Y-86700000D03*
X176380000Y-89240000D03*
X191620000Y-89240000D03*
%TD*%
D28*
%TO.C,JST1*%
X179000000Y-105000000D03*
X179000000Y-103000000D03*
D29*
X180800000Y-105000000D03*
X180800000Y-103000000D03*
D30*
X181816000Y-105000000D03*
X181816000Y-103000000D03*
%TD*%
D22*
%TO.C,RST1*%
X191000000Y-107250000D03*
X191000000Y-100750000D03*
%TD*%
D31*
%TO.C,PWR1*%
X192625000Y-114600000D03*
X190415000Y-114600000D03*
X190415000Y-121900000D03*
X192625000Y-121900000D03*
D32*
X189765000Y-120500000D03*
X189765000Y-117500000D03*
X189765000Y-116000000D03*
D33*
X191525000Y-116750000D03*
X191525000Y-119750000D03*
%TD*%
M02*
