%TF.GenerationSoftware,KiCad,Pcbnew,9.0.7*%
%TF.CreationDate,2026-01-25T01:01:47-05:00*%
%TF.ProjectId,pcb,7063622e-6b69-4636-9164-5f7063625858,rev?*%
%TF.SameCoordinates,Original*%
%TF.FileFunction,Profile,NP*%
%FSLAX46Y46*%
G04 Gerber Fmt 4.6, Leading zero omitted, Abs format (unit mm)*
G04 Created by KiCad (PCBNEW 9.0.7) date 2026-01-25 01:01:47*
%MOMM*%
%LPD*%
G01*
G04 APERTURE LIST*
%TA.AperFunction,Profile*%
%ADD10C,0.150000*%
%TD*%
G04 APERTURE END LIST*
D10*
X93500000Y-66500000D02*
X78500000Y-66500000D01*
X76500000Y-68500000D02*
X76500000Y-123500000D01*
X78500000Y-125500000D02*
X117919941Y-125500000D01*
X118990045Y-125810362D02*
X133129180Y-134765147D01*
X133935088Y-135057982D02*
X172264029Y-140165932D01*
X172999832Y-140416355D02*
X189111216Y-149718267D01*
X191843267Y-148986216D02*
X200524679Y-133949569D01*
X200115077Y-131449193D02*
X195177551Y-127097201D01*
X194500000Y-125596825D02*
X194500000Y-59000000D01*
X192500000Y-57000000D02*
X156500000Y-57000000D01*
X154500000Y-55000000D02*
X154500000Y-54250000D01*
X152500000Y-52250000D02*
X137500000Y-52250000D01*
X135500000Y-50250000D02*
X135500000Y-44750000D01*
X133500000Y-42750000D02*
X116500000Y-42750000D01*
X114500000Y-44750000D02*
X114500000Y-45500000D01*
X112500000Y-47500000D02*
X97500000Y-47500000D01*
X95500000Y-49500000D02*
X95500000Y-64500000D01*
X76500000Y-68500000D02*
G75*
G02*
X78500000Y-66500000I2000000J0D01*
G01*
X78500000Y-125500000D02*
G75*
G02*
X76500000Y-123500000I0J2000000D01*
G01*
X117919941Y-125500000D02*
G75*
G02*
X118990033Y-125810380I-41J-2000000D01*
G01*
X133935088Y-135057982D02*
G75*
G02*
X133129183Y-134765143I264212J1982482D01*
G01*
X172264029Y-140165932D02*
G75*
G02*
X172999826Y-140416365I-264229J-1982468D01*
G01*
X191843267Y-148986216D02*
G75*
G02*
X189111208Y-149718281I-1732067J1000016D01*
G01*
X200115077Y-131449193D02*
G75*
G02*
X200524707Y-133949585I-1322477J-1500407D01*
G01*
X195177551Y-127097201D02*
G75*
G02*
X194499981Y-125596825I1322449J1500401D01*
G01*
X192500000Y-57000000D02*
G75*
G02*
X194500000Y-59000000I0J-2000000D01*
G01*
X156500000Y-57000000D02*
G75*
G02*
X154500000Y-55000000I0J2000000D01*
G01*
X152500000Y-52250000D02*
G75*
G02*
X154500000Y-54250000I0J-2000000D01*
G01*
X137500000Y-52250000D02*
G75*
G02*
X135500000Y-50250000I0J2000000D01*
G01*
X133500000Y-42750000D02*
G75*
G02*
X135500000Y-44750000I0J-2000000D01*
G01*
X114500000Y-44750000D02*
G75*
G02*
X116500000Y-42750000I2000000J0D01*
G01*
X114500000Y-45500000D02*
G75*
G02*
X112500000Y-47500000I-2000000J0D01*
G01*
X95500000Y-49500000D02*
G75*
G02*
X97500000Y-47500000I2000000J0D01*
G01*
X95500000Y-64500000D02*
G75*
G02*
X93500000Y-66500000I-2000000J0D01*
G01*
M02*
