%TF.GenerationSoftware,KiCad,Pcbnew,9.0.7*%
%TF.CreationDate,2026-01-25T01:01:47-05:00*%
%TF.ProjectId,pcb,7063622e-6b69-4636-9164-5f7063625858,rev?*%
%TF.SameCoordinates,Original*%
%TF.FileFunction,Copper,L2,Bot*%
%TF.FilePolarity,Positive*%
%FSLAX46Y46*%
G04 Gerber Fmt 4.6, Leading zero omitted, Abs format (unit mm)*
G04 Created by KiCad (PCBNEW 9.0.7) date 2026-01-25 01:01:47*
%MOMM*%
%LPD*%
G01*
G04 APERTURE LIST*
G04 Aperture macros list*
%AMRotRect*
0 Rectangle, with rotation*
0 The origin of the aperture is its center*
0 $1 length*
0 $2 width*
0 $3 Rotation angle, in degrees counterclockwise*
0 Add horizontal line*
21,1,$1,$2,0,0,$3*%
%AMOutline5P*
0 Free polygon, 5 corners , with rotation*
0 The origin of the aperture is its center*
0 number of corners: always 5*
0 $1 to $10 corner X, Y*
0 $11 Rotation angle, in degrees counterclockwise*
0 create outline with 5 corners*
4,1,5,$1,$2,$3,$4,$5,$6,$7,$8,$9,$10,$1,$2,$11*%
%AMOutline6P*
0 Free polygon, 6 corners , with rotation*
0 The origin of the aperture is its center*
0 number of corners: always 6*
0 $1 to $12 corner X, Y*
0 $13 Rotation angle, in degrees counterclockwise*
0 create outline with 6 corners*
4,1,6,$1,$2,$3,$4,$5,$6,$7,$8,$9,$10,$11,$12,$1,$2,$13*%
%AMOutline7P*
0 Free polygon, 7 corners , with rotation*
0 The origin of the aperture is its center*
0 number of corners: always 7*
0 $1 to $14 corner X, Y*
0 $15 Rotation angle, in degrees counterclockwise*
0 create outline with 7 corners*
4,1,7,$1,$2,$3,$4,$5,$6,$7,$8,$9,$10,$11,$12,$13,$14,$1,$2,$15*%
%AMOutline8P*
0 Free polygon, 8 corners , with rotation*
0 The origin of the aperture is its center*
0 number of corners: always 8*
0 $1 to $16 corner X, Y*
0 $17 Rotation angle, in degrees counterclockwise*
0 create outline with 8 corners*
4,1,8,$1,$2,$3,$4,$5,$6,$7,$8,$9,$10,$11,$12,$13,$14,$15,$16,$1,$2,$17*%
%AMFreePoly0*
4,1,6,0.250000,0.000000,-0.250000,-0.625000,-0.500000,-0.625000,-0.500000,0.625000,-0.250000,0.625000,0.250000,0.000000,0.250000,0.000000,$1*%
%AMFreePoly1*
4,1,6,0.500000,-0.625000,-0.650000,-0.625000,-0.150000,0.000000,-0.650000,0.625000,0.500000,0.625000,0.500000,-0.625000,0.500000,-0.625000,$1*%
%AMFreePoly2*
4,1,6,0.600000,-0.200000,0.600000,-0.400000,-0.600000,-0.400000,-0.600000,-0.200000,0.000000,0.400000,0.600000,-0.200000,0.600000,-0.200000,$1*%
%AMFreePoly3*
4,1,6,0.600000,-1.000000,0.000000,-0.400000,-0.600000,-1.000000,-0.600000,0.250000,0.600000,0.250000,0.600000,-1.000000,0.600000,-1.000000,$1*%
G04 Aperture macros list end*
%TA.AperFunction,SMDPad,CuDef*%
%ADD10R,2.550000X2.500000*%
%TD*%
%TA.AperFunction,SMDPad,CuDef*%
%ADD11Outline5P,-1.275000X1.250000X1.275000X1.250000X1.275000X-1.250000X-0.775000X-1.250000X-1.275000X-0.750000X0.000000*%
%TD*%
%TA.AperFunction,SMDPad,CuDef*%
%ADD12RotRect,2.550000X2.500000X345.000000*%
%TD*%
%TA.AperFunction,SMDPad,CuDef*%
%ADD13Outline5P,-1.275000X1.250000X1.275000X1.250000X1.275000X-1.250000X-0.775000X-1.250000X-1.275000X-0.750000X345.000000*%
%TD*%
%TA.AperFunction,SMDPad,CuDef*%
%ADD14RotRect,2.550000X2.500000X330.000000*%
%TD*%
%TA.AperFunction,SMDPad,CuDef*%
%ADD15Outline5P,-1.275000X1.250000X1.275000X1.250000X1.275000X-1.250000X-0.775000X-1.250000X-1.275000X-0.750000X330.000000*%
%TD*%
%TA.AperFunction,SMDPad,CuDef*%
%ADD16R,0.900000X1.200000*%
%TD*%
%TA.AperFunction,SMDPad,CuDef*%
%ADD17RotRect,0.900000X1.200000X165.000000*%
%TD*%
%TA.AperFunction,SMDPad,CuDef*%
%ADD18RotRect,0.900000X1.200000X150.000000*%
%TD*%
%TA.AperFunction,ComponentPad*%
%ADD19C,1.700000*%
%TD*%
%TA.AperFunction,ComponentPad*%
%ADD20C,0.800000*%
%TD*%
%TA.AperFunction,SMDPad,CuDef*%
%ADD21FreePoly0,0.000000*%
%TD*%
%TA.AperFunction,SMDPad,CuDef*%
%ADD22FreePoly1,0.000000*%
%TD*%
%TA.AperFunction,SMDPad,CuDef*%
%ADD23FreePoly1,180.000000*%
%TD*%
%TA.AperFunction,SMDPad,CuDef*%
%ADD24FreePoly0,180.000000*%
%TD*%
%TA.AperFunction,ComponentPad*%
%ADD25O,1.750000X1.200000*%
%TD*%
%TA.AperFunction,SMDPad,CuDef*%
%ADD26FreePoly2,270.000000*%
%TD*%
%TA.AperFunction,SMDPad,CuDef*%
%ADD27FreePoly3,270.000000*%
%TD*%
%TA.AperFunction,SMDPad,CuDef*%
%ADD28R,0.800000X1.000000*%
%TD*%
%TA.AperFunction,SMDPad,CuDef*%
%ADD29R,1.500000X0.700000*%
%TD*%
%TA.AperFunction,ViaPad*%
%ADD30C,0.600000*%
%TD*%
%TA.AperFunction,Conductor*%
%ADD31C,0.200000*%
%TD*%
%TA.AperFunction,Conductor*%
%ADD32C,0.250000*%
%TD*%
G04 APERTURE END LIST*
D10*
%TO.P,S1,1*%
%TO.N,pin_bo*%
X79915000Y-112460000D03*
D11*
%TO.P,S1,2*%
%TO.N,pin*%
X92842000Y-109920000D03*
%TD*%
D10*
%TO.P,S2,1*%
%TO.N,pin_ho*%
X79915000Y-93460000D03*
D11*
%TO.P,S2,2*%
%TO.N,pin*%
X92842000Y-90920000D03*
%TD*%
D10*
%TO.P,S3,1*%
%TO.N,pin_to*%
X79915000Y-74460000D03*
D11*
%TO.P,S3,2*%
%TO.N,pin*%
X92842000Y-71920000D03*
%TD*%
D10*
%TO.P,S4,1*%
%TO.N,ri_bo*%
X98915000Y-93460000D03*
D11*
%TO.P,S4,2*%
%TO.N,ri*%
X111842000Y-90920000D03*
%TD*%
D10*
%TO.P,S5,1*%
%TO.N,ri_ho*%
X98915000Y-74460000D03*
D11*
%TO.P,S5,2*%
%TO.N,ri*%
X111842000Y-71920000D03*
%TD*%
D10*
%TO.P,S6,1*%
%TO.N,ri_to*%
X98915000Y-55460000D03*
D11*
%TO.P,S6,2*%
%TO.N,ri*%
X111842000Y-52920000D03*
%TD*%
D10*
%TO.P,S7,1*%
%TO.N,mi_bo*%
X117915000Y-88710000D03*
D11*
%TO.P,S7,2*%
%TO.N,mi*%
X130842000Y-86170000D03*
%TD*%
D10*
%TO.P,S8,1*%
%TO.N,mi_ho*%
X117915000Y-69710000D03*
D11*
%TO.P,S8,2*%
%TO.N,mi*%
X130842000Y-67170000D03*
%TD*%
D10*
%TO.P,S9,1*%
%TO.N,mi_to*%
X117915000Y-50710000D03*
D11*
%TO.P,S9,2*%
%TO.N,mi*%
X130842000Y-48170000D03*
%TD*%
D10*
%TO.P,S10,1*%
%TO.N,ind_bo*%
X136915000Y-98210000D03*
D11*
%TO.P,S10,2*%
%TO.N,ind*%
X149842000Y-95670000D03*
%TD*%
D10*
%TO.P,S11,1*%
%TO.N,ind_ho*%
X136915000Y-79210000D03*
D11*
%TO.P,S11,2*%
%TO.N,ind*%
X149842000Y-76670000D03*
%TD*%
D10*
%TO.P,S12,1*%
%TO.N,ind_to*%
X136915000Y-60210000D03*
D11*
%TO.P,S12,2*%
%TO.N,ind*%
X149842000Y-57670000D03*
%TD*%
D10*
%TO.P,S13,1*%
%TO.N,inn_bo*%
X155915000Y-102960000D03*
D11*
%TO.P,S13,2*%
%TO.N,inn*%
X168842000Y-100420000D03*
%TD*%
D10*
%TO.P,S14,1*%
%TO.N,inn_ho*%
X155915000Y-83960000D03*
D11*
%TO.P,S14,2*%
%TO.N,inn*%
X168842000Y-81420000D03*
%TD*%
D10*
%TO.P,S15,1*%
%TO.N,inn_to*%
X155915000Y-64960000D03*
D11*
%TO.P,S15,2*%
%TO.N,inn*%
X168842000Y-62420000D03*
%TD*%
D10*
%TO.P,S16,1*%
%TO.N,ind_th*%
X136915000Y-121960000D03*
D11*
%TO.P,S16,2*%
%TO.N,ind*%
X149842000Y-119420000D03*
%TD*%
D12*
%TO.P,S17,1*%
%TO.N,inn_th*%
X159813816Y-122587815D03*
D13*
%TO.P,S17,2*%
%TO.N,inn*%
X172957739Y-123480118D03*
%TD*%
D14*
%TO.P,S18,1*%
%TO.N,far_th*%
X182134210Y-130632795D03*
D15*
%TO.P,S18,2*%
%TO.N,far*%
X194599320Y-134896591D03*
%TD*%
D16*
%TO.P,D1,1*%
%TO.N,bo*%
X94350000Y-118000000D03*
%TO.P,D1,2*%
%TO.N,pin_bo*%
X91050000Y-118000000D03*
%TD*%
%TO.P,D2,1*%
%TO.N,ho*%
X94350000Y-99000000D03*
%TO.P,D2,2*%
%TO.N,pin_ho*%
X91050000Y-99000000D03*
%TD*%
%TO.P,D3,1*%
%TO.N,to*%
X94350000Y-80000000D03*
%TO.P,D3,2*%
%TO.N,pin_to*%
X91050000Y-80000000D03*
%TD*%
%TO.P,D4,1*%
%TO.N,bo*%
X113350000Y-99000000D03*
%TO.P,D4,2*%
%TO.N,ri_bo*%
X110050000Y-99000000D03*
%TD*%
%TO.P,D5,1*%
%TO.N,ho*%
X113350000Y-80000000D03*
%TO.P,D5,2*%
%TO.N,ri_ho*%
X110050000Y-80000000D03*
%TD*%
%TO.P,D6,1*%
%TO.N,to*%
X113350000Y-61000000D03*
%TO.P,D6,2*%
%TO.N,ri_to*%
X110050000Y-61000000D03*
%TD*%
%TO.P,D7,1*%
%TO.N,bo*%
X132350000Y-94250000D03*
%TO.P,D7,2*%
%TO.N,mi_bo*%
X129050000Y-94250000D03*
%TD*%
%TO.P,D8,1*%
%TO.N,ho*%
X132350000Y-75250000D03*
%TO.P,D8,2*%
%TO.N,mi_ho*%
X129050000Y-75250000D03*
%TD*%
%TO.P,D9,1*%
%TO.N,to*%
X132350000Y-56250000D03*
%TO.P,D9,2*%
%TO.N,mi_to*%
X129050000Y-56250000D03*
%TD*%
%TO.P,D10,1*%
%TO.N,bo*%
X151350000Y-103750000D03*
%TO.P,D10,2*%
%TO.N,ind_bo*%
X148050000Y-103750000D03*
%TD*%
%TO.P,D11,1*%
%TO.N,ho*%
X151350000Y-84750000D03*
%TO.P,D11,2*%
%TO.N,ind_ho*%
X148050000Y-84750000D03*
%TD*%
%TO.P,D12,1*%
%TO.N,to*%
X151350000Y-65750000D03*
%TO.P,D12,2*%
%TO.N,ind_to*%
X148050000Y-65750000D03*
%TD*%
%TO.P,D13,1*%
%TO.N,bo*%
X170350000Y-108500000D03*
%TO.P,D13,2*%
%TO.N,inn_bo*%
X167050000Y-108500000D03*
%TD*%
%TO.P,D14,1*%
%TO.N,ho*%
X170350000Y-89500000D03*
%TO.P,D14,2*%
%TO.N,inn_ho*%
X167050000Y-89500000D03*
%TD*%
%TO.P,D15,1*%
%TO.N,to*%
X170350000Y-70500000D03*
%TO.P,D15,2*%
%TO.N,inn_to*%
X167050000Y-70500000D03*
%TD*%
%TO.P,D16,1*%
%TO.N,th*%
X151350000Y-127500000D03*
%TO.P,D16,2*%
%TO.N,ind_th*%
X148050000Y-127500000D03*
%TD*%
D17*
%TO.P,D17,1*%
%TO.N,th*%
X172323098Y-131675097D03*
%TO.P,D17,2*%
%TO.N,inn_th*%
X169135542Y-130820995D03*
%TD*%
D18*
%TO.P,D18,1*%
%TO.N,th*%
X191865287Y-142648076D03*
%TO.P,D18,2*%
%TO.N,far_th*%
X189007403Y-140998076D03*
%TD*%
D19*
%TO.P,MCU1,24*%
%TO.N,MCU1_24*%
X176380000Y-61300000D03*
%TO.P,MCU1,1*%
%TO.N,MCU1_1*%
X191620000Y-61300000D03*
D20*
%TO.P,MCU1,124*%
%TO.N,RAW*%
X180600000Y-61300000D03*
%TO.P,MCU1,101*%
%TO.N,P1*%
X187400000Y-61300000D03*
D21*
%TO.P,MCU1,24*%
%TO.N,MCU1_24*%
X178500000Y-61300000D03*
D22*
%TO.P,MCU1,101*%
%TO.N,P1*%
X179225000Y-61300000D03*
D23*
%TO.P,MCU1,124*%
%TO.N,RAW*%
X188775000Y-61300000D03*
D24*
%TO.P,MCU1,1*%
%TO.N,MCU1_1*%
X189500000Y-61300000D03*
D19*
%TO.P,MCU1,23*%
%TO.N,MCU1_23*%
X176380000Y-63840000D03*
%TO.P,MCU1,2*%
%TO.N,MCU1_2*%
X191620000Y-63840000D03*
D20*
%TO.P,MCU1,123*%
%TO.N,GND*%
X180600000Y-63840000D03*
%TO.P,MCU1,102*%
%TO.N,P0*%
X187400000Y-63840000D03*
D21*
%TO.P,MCU1,23*%
%TO.N,MCU1_23*%
X178500000Y-63840000D03*
D22*
%TO.P,MCU1,102*%
%TO.N,P0*%
X179225000Y-63840000D03*
D23*
%TO.P,MCU1,123*%
%TO.N,GND*%
X188775000Y-63840000D03*
D24*
%TO.P,MCU1,2*%
%TO.N,MCU1_2*%
X189500000Y-63840000D03*
D19*
%TO.P,MCU1,22*%
%TO.N,MCU1_22*%
X176380000Y-66380000D03*
%TO.P,MCU1,3*%
%TO.N,MCU1_3*%
X191620000Y-66380000D03*
D20*
%TO.P,MCU1,122*%
%TO.N,RST*%
X180600000Y-66380000D03*
%TO.P,MCU1,103*%
%TO.N,GND*%
X187400000Y-66380000D03*
D21*
%TO.P,MCU1,22*%
%TO.N,MCU1_22*%
X178500000Y-66380000D03*
D22*
%TO.P,MCU1,103*%
%TO.N,GND*%
X179225000Y-66380000D03*
D23*
%TO.P,MCU1,122*%
%TO.N,RST*%
X188775000Y-66380000D03*
D24*
%TO.P,MCU1,3*%
%TO.N,MCU1_3*%
X189500000Y-66380000D03*
D19*
%TO.P,MCU1,21*%
%TO.N,MCU1_21*%
X176380000Y-68920000D03*
%TO.P,MCU1,4*%
%TO.N,MCU1_4*%
X191620000Y-68920000D03*
D20*
%TO.P,MCU1,121*%
%TO.N,VCC*%
X180600000Y-68920000D03*
%TO.P,MCU1,104*%
%TO.N,GND*%
X187400000Y-68920000D03*
D21*
%TO.P,MCU1,21*%
%TO.N,MCU1_21*%
X178500000Y-68920000D03*
D22*
%TO.P,MCU1,104*%
%TO.N,GND*%
X179225000Y-68920000D03*
D23*
%TO.P,MCU1,121*%
%TO.N,VCC*%
X188775000Y-68920000D03*
D24*
%TO.P,MCU1,4*%
%TO.N,MCU1_4*%
X189500000Y-68920000D03*
D19*
%TO.P,MCU1,20*%
%TO.N,P21*%
X176380000Y-71460000D03*
%TO.P,MCU1,5*%
%TO.N,pin*%
X191620000Y-71460000D03*
%TO.P,MCU1,19*%
%TO.N,P20*%
X176380000Y-74000000D03*
%TO.P,MCU1,6*%
%TO.N,to*%
X191620000Y-74000000D03*
%TO.P,MCU1,18*%
%TO.N,P19*%
X176380000Y-76540000D03*
%TO.P,MCU1,7*%
%TO.N,ho*%
X191620000Y-76540000D03*
%TO.P,MCU1,17*%
%TO.N,ri*%
X176380000Y-79080000D03*
%TO.P,MCU1,8*%
%TO.N,bo*%
X191620000Y-79080000D03*
%TO.P,MCU1,16*%
%TO.N,mi*%
X176380000Y-81620000D03*
%TO.P,MCU1,9*%
%TO.N,DA*%
X191620000Y-81620000D03*
%TO.P,MCU1,15*%
%TO.N,CS*%
X176380000Y-84160000D03*
%TO.P,MCU1,10*%
%TO.N,CL*%
X191620000Y-84160000D03*
%TO.P,MCU1,14*%
%TO.N,ind*%
X176380000Y-86700000D03*
%TO.P,MCU1,11*%
%TO.N,inn*%
X191620000Y-86700000D03*
%TO.P,MCU1,13*%
%TO.N,th*%
X176380000Y-89240000D03*
%TO.P,MCU1,12*%
%TO.N,far*%
X191620000Y-89240000D03*
%TD*%
D25*
%TO.P,JST1,11*%
%TO.N,JST1_1*%
X179000000Y-105000000D03*
%TO.P,JST1,12*%
%TO.N,JST1_2*%
X179000000Y-103000000D03*
D26*
%TO.P,JST1,31*%
%TO.N,JST1_1*%
X180800000Y-105000000D03*
%TO.P,JST1,32*%
%TO.N,JST1_2*%
X180800000Y-103000000D03*
D27*
%TO.P,JST1,1*%
%TO.N,BAT_P*%
X181816000Y-103000000D03*
%TO.P,JST1,2*%
%TO.N,GND*%
X181816000Y-105000000D03*
%TD*%
D19*
%TO.P,RST1,2*%
%TO.N,GND*%
X191000000Y-107250000D03*
%TO.P,RST1,1*%
%TO.N,RST*%
X191000000Y-100750000D03*
%TD*%
D28*
%TO.P,PWR1,*%
%TO.N,*%
X190415000Y-114600000D03*
X192625000Y-114600000D03*
X190415000Y-121900000D03*
X192625000Y-121900000D03*
D29*
%TO.P,PWR1,1*%
%TO.N,N/C*%
X189765000Y-116000000D03*
%TO.P,PWR1,2*%
%TO.N,RAW*%
X189765000Y-119000000D03*
%TO.P,PWR1,3*%
%TO.N,BAT_P*%
X189765000Y-120500000D03*
%TD*%
D30*
%TO.N,pin*%
X87000000Y-108041000D03*
%TO.N,pin_bo*%
X87000000Y-109070000D03*
%TO.N,pin*%
X87000000Y-89041000D03*
%TO.N,pin_ho*%
X87000000Y-90070000D03*
%TO.N,pin*%
X87000000Y-70041000D03*
%TO.N,pin_to*%
X87000000Y-71070000D03*
%TO.N,ri*%
X106000000Y-89041000D03*
%TO.N,ri_bo*%
X106000000Y-90070000D03*
%TO.N,ri*%
X106000000Y-70041000D03*
%TO.N,ri_ho*%
X106000000Y-71070000D03*
%TO.N,ri*%
X106000000Y-51041000D03*
%TO.N,ri_to*%
X106000000Y-52070000D03*
%TO.N,mi*%
X125000000Y-84291000D03*
%TO.N,mi_bo*%
X125000000Y-85320000D03*
%TO.N,mi*%
X125000000Y-65291000D03*
%TO.N,mi_ho*%
X125000000Y-66320000D03*
%TO.N,mi*%
X125000000Y-46291000D03*
%TO.N,mi_to*%
X125000000Y-47320000D03*
%TO.N,ind*%
X144000000Y-93791000D03*
%TO.N,ind_bo*%
X144000000Y-94820000D03*
%TO.N,ind*%
X144000000Y-74791000D03*
%TO.N,ind_ho*%
X144000000Y-75820000D03*
%TO.N,ind*%
X144000000Y-55791000D03*
%TO.N,ind_to*%
X144000000Y-56820000D03*
%TO.N,inn*%
X163000000Y-98541000D03*
%TO.N,inn_bo*%
X163000000Y-99570000D03*
%TO.N,inn*%
X163000000Y-79541000D03*
%TO.N,inn_ho*%
X163000000Y-80570000D03*
%TO.N,inn*%
X163000000Y-60541000D03*
%TO.N,inn_to*%
X163000000Y-61570000D03*
%TO.N,ind*%
X144000000Y-117541000D03*
%TO.N,ind_th*%
X144000000Y-118570000D03*
%TO.N,inn*%
X167801122Y-120153122D03*
%TO.N,inn_th*%
X167534797Y-121147060D03*
%TO.N,far*%
X190479500Y-130348329D03*
%TO.N,far_th*%
X189965000Y-131239469D03*
%TD*%
D31*
%TO.N,RAW*%
X188775000Y-60670000D02*
X189945000Y-59500000D01*
X189945000Y-59500000D02*
X191447760Y-59500000D01*
X193424000Y-61476240D02*
X193424000Y-115983785D01*
X188775000Y-61300000D02*
X188775000Y-60670000D01*
X191447760Y-59500000D02*
X193424000Y-61476240D01*
X193424000Y-115983785D02*
X190407785Y-119000000D01*
X190407785Y-119000000D02*
X189765000Y-119000000D01*
%TO.N,BAT_P*%
X189765000Y-120500000D02*
X189365000Y-120500000D01*
X189365000Y-120500000D02*
X188714000Y-119849000D01*
X188714000Y-119849000D02*
X188714000Y-111163760D01*
X188714000Y-111163760D02*
X192151000Y-107726760D01*
X192151000Y-107726760D02*
X192151000Y-106773240D01*
X192151000Y-106773240D02*
X188377760Y-103000000D01*
X188377760Y-103000000D02*
X181816000Y-103000000D01*
%TO.N,RST*%
X191000000Y-100750000D02*
X192771000Y-98979000D01*
X192771000Y-98979000D02*
X192771000Y-65903240D01*
X192771000Y-65903240D02*
X191867760Y-65000000D01*
X191867760Y-65000000D02*
X189000000Y-65000000D01*
X189000000Y-65000000D02*
X188775000Y-65225000D01*
X188775000Y-65225000D02*
X188775000Y-66380000D01*
%TO.N,GND*%
X191000000Y-107250000D02*
X188750000Y-105000000D01*
X188750000Y-105000000D02*
X181816000Y-105000000D01*
%TO.N,inn*%
X191620000Y-86700000D02*
X190231000Y-85311000D01*
X172733000Y-85311000D02*
X168842000Y-81420000D01*
X190231000Y-85311000D02*
X172733000Y-85311000D01*
%TO.N,ind*%
X176380000Y-86700000D02*
X167410000Y-95670000D01*
X167410000Y-95670000D02*
X149842000Y-95670000D01*
%TO.N,ind_bo*%
X148050000Y-103750000D02*
X140080108Y-103750000D01*
X140080108Y-103750000D02*
X136915000Y-100584892D01*
X136915000Y-100584892D02*
X136915000Y-98210000D01*
%TO.N,ho*%
X113350000Y-80000000D02*
X127600000Y-80000000D01*
X127600000Y-80000000D02*
X132350000Y-75250000D01*
X151350000Y-84750000D02*
X157001000Y-90401000D01*
X157001000Y-90401000D02*
X169449000Y-90401000D01*
X169449000Y-90401000D02*
X170350000Y-89500000D01*
%TO.N,th*%
X172323098Y-131675097D02*
X176380000Y-127618195D01*
X176380000Y-127618195D02*
X176380000Y-89240000D01*
%TO.N,bo*%
X140578000Y-105000000D02*
X150500000Y-105000000D01*
X150500000Y-105000000D02*
X150500000Y-104600000D01*
X150500000Y-104600000D02*
X151350000Y-103750000D01*
X132350000Y-96772000D02*
X140578000Y-105000000D01*
X132350000Y-94250000D02*
X132350000Y-96772000D01*
X94350000Y-118000000D02*
X113350000Y-99000000D01*
%TO.N,to*%
X132350000Y-56250000D02*
X132350000Y-58850028D01*
X132350000Y-58850028D02*
X140150972Y-66651000D01*
X140150972Y-66651000D02*
X150449000Y-66651000D01*
X150449000Y-66651000D02*
X151350000Y-65750000D01*
X94350000Y-80000000D02*
X94350000Y-76059000D01*
X94350000Y-76059000D02*
X108508000Y-61901000D01*
X108508000Y-61901000D02*
X112449000Y-61901000D01*
X112449000Y-61901000D02*
X113350000Y-61000000D01*
%TO.N,ri_to*%
X110050000Y-61000000D02*
X102080108Y-61000000D01*
X102080108Y-61000000D02*
X98915000Y-57834892D01*
X98915000Y-57834892D02*
X98915000Y-55460000D01*
%TO.N,mi_to*%
X129050000Y-56250000D02*
X121080108Y-56250000D01*
X121080108Y-56250000D02*
X117915000Y-53084892D01*
X117915000Y-53084892D02*
X117915000Y-50710000D01*
%TO.N,ind_to*%
X148050000Y-65750000D02*
X140080108Y-65750000D01*
X140080108Y-65750000D02*
X136915000Y-62584892D01*
X136915000Y-62584892D02*
X136915000Y-60210000D01*
%TO.N,inn_to*%
X167050000Y-70500000D02*
X159080108Y-70500000D01*
X155915000Y-67334892D02*
X155915000Y-64960000D01*
X159080108Y-70500000D02*
X155915000Y-67334892D01*
%TO.N,ind_ho*%
X148050000Y-84750000D02*
X140080108Y-84750000D01*
X140080108Y-84750000D02*
X136915000Y-81584892D01*
X136915000Y-81584892D02*
X136915000Y-79210000D01*
%TO.N,mi_ho*%
X129050000Y-75250000D02*
X121080108Y-75250000D01*
X121080108Y-75250000D02*
X117915000Y-72084892D01*
X117915000Y-72084892D02*
X117915000Y-69710000D01*
%TO.N,ri_ho*%
X110050000Y-80000000D02*
X102080108Y-80000000D01*
X102080108Y-80000000D02*
X98915000Y-76834892D01*
X98915000Y-76834892D02*
X98915000Y-74460000D01*
%TO.N,pin_to*%
X91050000Y-80000000D02*
X83080108Y-80000000D01*
X83080108Y-80000000D02*
X79915000Y-76834892D01*
X79915000Y-76834892D02*
X79915000Y-74460000D01*
%TO.N,pin_ho*%
X91050000Y-99000000D02*
X83080108Y-99000000D01*
X79915000Y-95834892D02*
X79915000Y-93460000D01*
X83080108Y-99000000D02*
X79915000Y-95834892D01*
%TO.N,pin_bo*%
X91050000Y-118000000D02*
X83080108Y-118000000D01*
X83080108Y-118000000D02*
X79915000Y-114834892D01*
X79915000Y-114834892D02*
X79915000Y-112460000D01*
%TO.N,ri_bo*%
X110050000Y-99000000D02*
X102080108Y-99000000D01*
X102080108Y-99000000D02*
X98915000Y-95834892D01*
X98915000Y-95834892D02*
X98915000Y-93460000D01*
%TO.N,mi_bo*%
X129050000Y-94250000D02*
X121080108Y-94250000D01*
X121080108Y-94250000D02*
X117915000Y-91084892D01*
X117915000Y-91084892D02*
X117915000Y-88710000D01*
%TO.N,ind_th*%
X148050000Y-127500000D02*
X140080108Y-127500000D01*
X140080108Y-127500000D02*
X136915000Y-124334892D01*
X136915000Y-124334892D02*
X136915000Y-121960000D01*
%TO.N,far_th*%
X189007403Y-140998076D02*
X187923775Y-140998076D01*
X187923775Y-140998076D02*
X181219146Y-134293447D01*
X181219146Y-134293447D02*
X181219146Y-131547859D01*
X181219146Y-131547859D02*
X182134210Y-130632795D01*
%TO.N,inn_th*%
X169135542Y-130820995D02*
X164514001Y-130820995D01*
X164514001Y-130820995D02*
X158793195Y-125100189D01*
X158793195Y-123608436D02*
X159813816Y-122587815D01*
X158793195Y-125100189D02*
X158793195Y-123608436D01*
%TO.N,inn_bo*%
X167050000Y-108500000D02*
X159080108Y-108500000D01*
X159080108Y-108500000D02*
X155915000Y-105334892D01*
X155915000Y-105334892D02*
X155915000Y-102960000D01*
%TO.N,inn_ho*%
X167050000Y-89500000D02*
X159080108Y-89500000D01*
X159080108Y-89500000D02*
X155915000Y-86334892D01*
X155915000Y-86334892D02*
X155915000Y-83960000D01*
%TO.N,inn*%
X168842000Y-81420000D02*
X169381000Y-80881000D01*
X169381000Y-80881000D02*
X169381000Y-62959000D01*
X169381000Y-62959000D02*
X168842000Y-62420000D01*
%TO.N,pin*%
X92842000Y-109920000D02*
X93381000Y-109381000D01*
X93381000Y-109381000D02*
X93381000Y-91459000D01*
X93381000Y-91459000D02*
X92842000Y-90920000D01*
%TO.N,ri*%
X111842000Y-90920000D02*
X112381000Y-90381000D01*
X112381000Y-90381000D02*
X112381000Y-72459000D01*
X112381000Y-72459000D02*
X111842000Y-71920000D01*
%TO.N,mi*%
X130842000Y-67170000D02*
X131381000Y-66631000D01*
X131381000Y-66631000D02*
X131381000Y-48709000D01*
X131381000Y-48709000D02*
X130842000Y-48170000D01*
%TO.N,ind*%
X149842000Y-95670000D02*
X150381000Y-95131000D01*
X150381000Y-95131000D02*
X150381000Y-77209000D01*
X150381000Y-77209000D02*
X149842000Y-76670000D01*
%TO.N,inn*%
X172957739Y-123480118D02*
X172957739Y-104535739D01*
X172957739Y-104535739D02*
X168842000Y-100420000D01*
%TO.N,pin*%
X87000000Y-108041000D02*
X90963000Y-108040500D01*
X90963000Y-108041000D02*
X92842000Y-109920000D01*
%TO.N,pin_bo*%
X82834000Y-108041000D02*
X85971000Y-108041000D01*
X79915000Y-112460000D02*
X79915000Y-110960000D01*
X79915000Y-110960000D02*
X82834000Y-108041000D01*
X85971000Y-108041000D02*
X87000000Y-109070000D01*
%TO.N,pin*%
X87000000Y-89041000D02*
X90963000Y-89040500D01*
X90963000Y-89041000D02*
X92842000Y-90920000D01*
%TO.N,pin_ho*%
X82834000Y-89041000D02*
X85971000Y-89041000D01*
X79915000Y-93460000D02*
X79915000Y-91960000D01*
X79915000Y-91960000D02*
X82834000Y-89041000D01*
X85971000Y-89041000D02*
X87000000Y-90070000D01*
%TO.N,pin*%
X87000000Y-70041000D02*
X90963000Y-70040500D01*
X90963000Y-70041000D02*
X92842000Y-71920000D01*
%TO.N,pin_to*%
X82834000Y-70041000D02*
X85971000Y-70041000D01*
X79915000Y-74460000D02*
X79915000Y-72960000D01*
X79915000Y-72960000D02*
X82834000Y-70041000D01*
X85971000Y-70041000D02*
X87000000Y-71070000D01*
%TO.N,ri*%
X106000000Y-89041000D02*
X109963000Y-89040500D01*
X109963000Y-89041000D02*
X111842000Y-90920000D01*
%TO.N,ri_bo*%
X101834000Y-89041000D02*
X104971000Y-89041000D01*
X98915000Y-93460000D02*
X98915000Y-91960000D01*
X98915000Y-91960000D02*
X101834000Y-89041000D01*
X104971000Y-89041000D02*
X106000000Y-90070000D01*
%TO.N,ri*%
X106000000Y-70041000D02*
X109963000Y-70040500D01*
X109963000Y-70041000D02*
X111842000Y-71920000D01*
%TO.N,ri_ho*%
X101834000Y-70041000D02*
X104971000Y-70041000D01*
X98915000Y-74460000D02*
X98915000Y-72960000D01*
X98915000Y-72960000D02*
X101834000Y-70041000D01*
X104971000Y-70041000D02*
X106000000Y-71070000D01*
%TO.N,ri*%
X106000000Y-51041000D02*
X109963000Y-51040500D01*
X109963000Y-51041000D02*
X111842000Y-52920000D01*
%TO.N,ri_to*%
X101834000Y-51041000D02*
X104971000Y-51041000D01*
X98915000Y-55460000D02*
X98915000Y-53960000D01*
X98915000Y-53960000D02*
X101834000Y-51041000D01*
X104971000Y-51041000D02*
X106000000Y-52070000D01*
%TO.N,mi*%
X125000000Y-84291000D02*
X128963000Y-84290500D01*
X128963000Y-84291000D02*
X130842000Y-86170000D01*
%TO.N,mi_bo*%
X120834000Y-84291000D02*
X123971000Y-84291000D01*
X117915000Y-88710000D02*
X117915000Y-87210000D01*
X117915000Y-87210000D02*
X120834000Y-84291000D01*
X123971000Y-84291000D02*
X125000000Y-85320000D01*
%TO.N,mi*%
X125000000Y-65291000D02*
X128963000Y-65290500D01*
X128963000Y-65291000D02*
X130842000Y-67170000D01*
%TO.N,mi_ho*%
X120834000Y-65291000D02*
X123971000Y-65291000D01*
X117915000Y-69710000D02*
X117915000Y-68210000D01*
X117915000Y-68210000D02*
X120834000Y-65291000D01*
X123971000Y-65291000D02*
X125000000Y-66320000D01*
%TO.N,mi*%
X125000000Y-46291000D02*
X128963000Y-46290500D01*
X128963000Y-46291000D02*
X130842000Y-48170000D01*
%TO.N,mi_to*%
X120834000Y-46291000D02*
X123971000Y-46291000D01*
X117915000Y-50710000D02*
X117915000Y-49210000D01*
X117915000Y-49210000D02*
X120834000Y-46291000D01*
X123971000Y-46291000D02*
X125000000Y-47320000D01*
%TO.N,ind*%
X144000000Y-93791000D02*
X147963000Y-93790500D01*
X147963000Y-93791000D02*
X149842000Y-95670000D01*
%TO.N,ind_bo*%
X139834000Y-93791000D02*
X142971000Y-93791000D01*
X136915000Y-98210000D02*
X136915000Y-96710000D01*
X136915000Y-96710000D02*
X139834000Y-93791000D01*
X142971000Y-93791000D02*
X144000000Y-94820000D01*
%TO.N,ind*%
X144000000Y-74791000D02*
X147963000Y-74790500D01*
X147963000Y-74791000D02*
X149842000Y-76670000D01*
%TO.N,ind_ho*%
X139834000Y-74791000D02*
X142971000Y-74791000D01*
X136915000Y-79210000D02*
X136915000Y-77710000D01*
X136915000Y-77710000D02*
X139834000Y-74791000D01*
X142971000Y-74791000D02*
X144000000Y-75820000D01*
%TO.N,ind*%
X144000000Y-55791000D02*
X147963000Y-55790500D01*
X147963000Y-55791000D02*
X149842000Y-57670000D01*
%TO.N,ind_to*%
X139834000Y-55791000D02*
X142971000Y-55791000D01*
X136915000Y-60210000D02*
X136915000Y-58710000D01*
X136915000Y-58710000D02*
X139834000Y-55791000D01*
X142971000Y-55791000D02*
X144000000Y-56820000D01*
%TO.N,inn*%
X163000000Y-98541000D02*
X166963000Y-98540500D01*
X166963000Y-98541000D02*
X168842000Y-100420000D01*
%TO.N,inn_bo*%
X158834000Y-98541000D02*
X161971000Y-98541000D01*
X155915000Y-102960000D02*
X155915000Y-101460000D01*
X155915000Y-101460000D02*
X158834000Y-98541000D01*
X161971000Y-98541000D02*
X163000000Y-99570000D01*
%TO.N,inn*%
X163000000Y-79541000D02*
X166963000Y-79540500D01*
X166963000Y-79541000D02*
X168842000Y-81420000D01*
%TO.N,inn_ho*%
X158834000Y-79541000D02*
X161971000Y-79541000D01*
X155915000Y-83960000D02*
X155915000Y-82460000D01*
X155915000Y-82460000D02*
X158834000Y-79541000D01*
X161971000Y-79541000D02*
X163000000Y-80570000D01*
%TO.N,inn*%
X163000000Y-60541000D02*
X166963000Y-60540500D01*
X166963000Y-60541000D02*
X168842000Y-62420000D01*
%TO.N,inn_to*%
X158834000Y-60541000D02*
X161971000Y-60541000D01*
X155915000Y-64960000D02*
X155915000Y-63460000D01*
X155915000Y-63460000D02*
X158834000Y-60541000D01*
X161971000Y-60541000D02*
X163000000Y-61570000D01*
%TO.N,ind*%
X144000000Y-117541000D02*
X147963000Y-117540500D01*
X147963000Y-117541000D02*
X149842000Y-119420000D01*
%TO.N,ind_th*%
X139834000Y-117541000D02*
X142971000Y-117541000D01*
X136915000Y-121960000D02*
X136915000Y-120460000D01*
X136915000Y-120460000D02*
X139834000Y-117541000D01*
X142971000Y-117541000D02*
X144000000Y-118570000D01*
%TO.N,inn*%
X167801122Y-120153122D02*
X171629215Y-121178339D01*
X171629086Y-121178822D02*
X172957739Y-123480118D01*
%TO.N,inn_th*%
X163777075Y-119074882D02*
X166807184Y-119886797D01*
X159813816Y-122587816D02*
X160202045Y-121138927D01*
X160202045Y-121138927D02*
X163777075Y-119074882D01*
X166807184Y-119886797D02*
X167534797Y-121147060D01*
%TO.N,far*%
X190479500Y-130348329D02*
X193911809Y-132329396D01*
X193911559Y-132329829D02*
X194599320Y-134896591D01*
%TO.N,far_th*%
X186871638Y-128265329D02*
X189588360Y-129833829D01*
X182134210Y-130632796D02*
X182884210Y-129333757D01*
X182884210Y-129333757D02*
X186871638Y-128265329D01*
X189588360Y-129833829D02*
X189965000Y-131239469D01*
D32*
%TO.N,MCU1_24*%
X176380000Y-61300000D02*
X178500000Y-61300000D01*
%TO.N,MCU1_1*%
X191620000Y-61300000D02*
X189500000Y-61300000D01*
%TO.N,P1*%
X181395305Y-61530000D02*
X187170000Y-61530000D01*
X179225000Y-61300000D02*
X179574695Y-61300000D01*
X180299695Y-62025000D02*
X180900305Y-62025000D01*
X179574695Y-61300000D02*
X180299695Y-62025000D01*
X180900305Y-62025000D02*
X181395305Y-61530000D01*
%TO.N,RAW*%
X188775000Y-61300000D02*
X188425305Y-61300000D01*
X186594695Y-61080000D02*
X180820000Y-61080000D01*
X188425305Y-61300000D02*
X187700305Y-60575000D01*
X187700305Y-60575000D02*
X187099695Y-60575000D01*
X187099695Y-60575000D02*
X186594695Y-61080000D01*
%TO.N,MCU1_23*%
X176380000Y-63840000D02*
X178500000Y-63840000D01*
%TO.N,MCU1_2*%
X191620000Y-63840000D02*
X189500000Y-63840000D01*
%TO.N,P0*%
X181395305Y-64070000D02*
X187170000Y-64070000D01*
X179225000Y-63840000D02*
X179574695Y-63840000D01*
X180299695Y-64565000D02*
X180900305Y-64565000D01*
X179574695Y-63840000D02*
X180299695Y-64565000D01*
X180900305Y-64565000D02*
X181395305Y-64070000D01*
%TO.N,GND*%
X188775000Y-63840000D02*
X188425305Y-63840000D01*
X186594695Y-63620000D02*
X180820000Y-63620000D01*
X188425305Y-63840000D02*
X187700305Y-63115000D01*
X187700305Y-63115000D02*
X187099695Y-63115000D01*
X187099695Y-63115000D02*
X186594695Y-63620000D01*
%TO.N,MCU1_22*%
X176380000Y-66380000D02*
X178500000Y-66380000D01*
%TO.N,MCU1_3*%
X191620000Y-66380000D02*
X189500000Y-66380000D01*
%TO.N,GND*%
X181395305Y-66610000D02*
X187170000Y-66610000D01*
X179225000Y-66380000D02*
X179574695Y-66380000D01*
X180299695Y-67105000D02*
X180900305Y-67105000D01*
X179574695Y-66380000D02*
X180299695Y-67105000D01*
X180900305Y-67105000D02*
X181395305Y-66610000D01*
%TO.N,RST*%
X188775000Y-66380000D02*
X188425305Y-66380000D01*
X186594695Y-66160000D02*
X180820000Y-66160000D01*
X188425305Y-66380000D02*
X187700305Y-65655000D01*
X187700305Y-65655000D02*
X187099695Y-65655000D01*
X187099695Y-65655000D02*
X186594695Y-66160000D01*
%TO.N,MCU1_21*%
X176380000Y-68920000D02*
X178500000Y-68920000D01*
%TO.N,MCU1_4*%
X191620000Y-68920000D02*
X189500000Y-68920000D01*
%TO.N,GND*%
X181395305Y-69150000D02*
X187170000Y-69150000D01*
X179225000Y-68920000D02*
X179574695Y-68920000D01*
X180299695Y-69645000D02*
X180900305Y-69645000D01*
X179574695Y-68920000D02*
X180299695Y-69645000D01*
X180900305Y-69645000D02*
X181395305Y-69150000D01*
%TO.N,VCC*%
X188775000Y-68920000D02*
X188425305Y-68920000D01*
X186594695Y-68700000D02*
X180820000Y-68700000D01*
X188425305Y-68920000D02*
X187700305Y-68195000D01*
X187700305Y-68195000D02*
X187099695Y-68195000D01*
X187099695Y-68195000D02*
X186594695Y-68700000D01*
%TO.N,JST1_1*%
X180800000Y-105000000D02*
X179000000Y-105000000D01*
%TO.N,JST1_2*%
X180800000Y-103000000D02*
X179000000Y-103000000D01*
%TD*%
M02*
