M48
; DRILL file {KiCad 9.0.7} date 2026-01-25T01:01:58-0500
; FORMAT={-:-/ absolute / metric / decimal}
; #@! TF.CreationDate,2026-01-25T01:01:58-05:00
; #@! TF.GenerationSoftware,Kicad,Pcbnew,9.0.7
; #@! TF.FileFunction,NonPlated,1,2,NPTH
FMAT,2
METRIC
; #@! TA.AperFunction,NonPlated,NPTH,ComponentDrill
T1C0.900
; #@! TA.AperFunction,NonPlated,NPTH,ComponentDrill
T2C1.900
; #@! TA.AperFunction,NonPlated,NPTH,ComponentDrill
T3C3.000
; #@! TA.AperFunction,NonPlated,NPTH,ComponentDrill
T4C4.100
%
G90
G05
T1
X191.525Y-116.75
X191.525Y-119.75
T2
X81.92Y-77.0
X81.92Y-96.0
X81.92Y-115.0
X92.08Y-77.0
X92.08Y-96.0
X92.08Y-115.0
X100.92Y-58.0
X100.92Y-77.0
X100.92Y-96.0
X111.08Y-58.0
X111.08Y-77.0
X111.08Y-96.0
X119.92Y-53.25
X119.92Y-72.25
X119.92Y-91.25
X130.08Y-53.25
X130.08Y-72.25
X130.08Y-91.25
X138.92Y-62.75
X138.92Y-81.75
X138.92Y-100.75
X138.92Y-124.5
X149.08Y-62.75
X149.08Y-81.75
X149.08Y-100.75
X149.08Y-124.5
X157.92Y-67.5
X157.92Y-86.5
X157.92Y-105.5
X161.093Y-125.56
X168.08Y-67.5
X168.08Y-86.5
X168.08Y-105.5
X170.907Y-128.19
X182.601Y-133.835
X191.399Y-138.915
T3
X83.19Y-74.46
X83.19Y-93.46
X83.19Y-112.46
X84.46Y-71.92
X84.46Y-90.92
X84.46Y-109.92
X89.54Y-71.92
X89.54Y-90.92
X89.54Y-109.92
X90.81Y-74.46
X90.81Y-93.46
X90.81Y-112.46
X102.19Y-55.46
X102.19Y-74.46
X102.19Y-93.46
X103.46Y-52.92
X103.46Y-71.92
X103.46Y-90.92
X108.54Y-52.92
X108.54Y-71.92
X108.54Y-90.92
X109.81Y-55.46
X109.81Y-74.46
X109.81Y-93.46
X121.19Y-50.71
X121.19Y-69.71
X121.19Y-88.71
X122.46Y-48.17
X122.46Y-67.17
X122.46Y-86.17
X127.54Y-48.17
X127.54Y-67.17
X127.54Y-86.17
X128.81Y-50.71
X128.81Y-69.71
X128.81Y-88.71
X140.19Y-60.21
X140.19Y-79.21
X140.19Y-98.21
X140.19Y-121.96
X141.46Y-57.67
X141.46Y-76.67
X141.46Y-95.67
X141.46Y-119.42
X146.54Y-57.67
X146.54Y-76.67
X146.54Y-95.67
X146.54Y-119.42
X147.81Y-60.21
X147.81Y-79.21
X147.81Y-98.21
X147.81Y-121.96
X159.19Y-64.96
X159.19Y-83.96
X159.19Y-102.96
X160.46Y-62.42
X160.46Y-81.42
X160.46Y-100.42
X162.977Y-123.435
X164.861Y-121.311
X165.54Y-62.42
X165.54Y-81.42
X165.54Y-100.42
X166.81Y-64.96
X166.81Y-83.96
X166.81Y-102.96
X169.768Y-122.625
X170.338Y-125.408
X184.97Y-132.27
X187.34Y-130.706
X191.57Y-136.08
X191.74Y-133.246
T4
X87.0Y-77.0
X87.0Y-96.0
X87.0Y-115.0
X106.0Y-58.0
X106.0Y-77.0
X106.0Y-96.0
X125.0Y-53.25
X125.0Y-72.25
X125.0Y-91.25
X144.0Y-62.75
X144.0Y-81.75
X144.0Y-100.75
X144.0Y-124.5
X163.0Y-67.5
X163.0Y-86.5
X163.0Y-105.5
X166.0Y-126.875
X187.0Y-136.375
M30
