M48
; DRILL file {KiCad 9.0.7} date 2026-01-25T01:01:58-0500
; FORMAT={-:-/ absolute / metric / decimal}
; #@! TF.CreationDate,2026-01-25T01:01:58-05:00
; #@! TF.GenerationSoftware,Kicad,Pcbnew,9.0.7
; #@! TF.FileFunction,Plated,1,2,PTH
FMAT,2
METRIC
; #@! TA.AperFunction,Plated,PTH,ViaDrill
T1C0.300
; #@! TA.AperFunction,Plated,PTH,ComponentDrill
T2C0.400
; #@! TA.AperFunction,Plated,PTH,ComponentDrill
T3C0.750
; #@! TA.AperFunction,Plated,PTH,ComponentDrill
T4C1.000
%
G90
G05
T1
X87.0Y-70.041
X87.0Y-71.07
X87.0Y-89.041
X87.0Y-90.07
X87.0Y-108.041
X87.0Y-109.07
X106.0Y-51.041
X106.0Y-52.07
X106.0Y-70.041
X106.0Y-71.07
X106.0Y-89.041
X106.0Y-90.07
X125.0Y-46.291
X125.0Y-47.32
X125.0Y-65.291
X125.0Y-66.32
X125.0Y-84.291
X125.0Y-85.32
X144.0Y-55.791
X144.0Y-56.82
X144.0Y-74.791
X144.0Y-75.82
X144.0Y-93.791
X144.0Y-94.82
X144.0Y-117.541
X144.0Y-118.57
X163.0Y-60.541
X163.0Y-61.57
X163.0Y-79.541
X163.0Y-80.57
X163.0Y-98.541
X163.0Y-99.57
X167.535Y-121.147
X167.801Y-120.153
X189.965Y-131.239
X190.48Y-130.348
T2
X180.6Y-61.3
X180.6Y-63.84
X180.6Y-66.38
X180.6Y-68.92
X187.4Y-61.3
X187.4Y-63.84
X187.4Y-66.38
X187.4Y-68.92
T3
X179.0Y-103.0
X179.0Y-105.0
T4
X176.38Y-61.3
X176.38Y-63.84
X176.38Y-66.38
X176.38Y-68.92
X176.38Y-71.46
X176.38Y-74.0
X176.38Y-76.54
X176.38Y-79.08
X176.38Y-81.62
X176.38Y-84.16
X176.38Y-86.7
X176.38Y-89.24
X191.0Y-100.75
X191.0Y-107.25
X191.62Y-61.3
X191.62Y-63.84
X191.62Y-66.38
X191.62Y-68.92
X191.62Y-71.46
X191.62Y-74.0
X191.62Y-76.54
X191.62Y-79.08
X191.62Y-81.62
X191.62Y-84.16
X191.62Y-86.7
X191.62Y-89.24
M30
