%TF.GenerationSoftware,KiCad,Pcbnew,9.0.7*%
%TF.CreationDate,2026-01-30T15:33:06-05:00*%
%TF.ProjectId,v4,76342e6b-6963-4616-945f-706362585858,rev?*%
%TF.SameCoordinates,Original*%
%TF.FileFunction,Soldermask,Bot*%
%TF.FilePolarity,Negative*%
%FSLAX46Y46*%
G04 Gerber Fmt 4.6, Leading zero omitted, Abs format (unit mm)*
G04 Created by KiCad (PCBNEW 9.0.7) date 2026-01-30 15:33:06*
%MOMM*%
%LPD*%
G01*
G04 APERTURE LIST*
G04 Aperture macros list*
%AMRoundRect*
0 Rectangle with rounded corners*
0 $1 Rounding radius*
0 $2 $3 $4 $5 $6 $7 $8 $9 X,Y pos of 4 corners*
0 Add a 4 corners polygon primitive as box body*
4,1,4,$2,$3,$4,$5,$6,$7,$8,$9,$2,$3,0*
0 Add four circle primitives for the rounded corners*
1,1,$1+$1,$2,$3*
1,1,$1+$1,$4,$5*
1,1,$1+$1,$6,$7*
1,1,$1+$1,$8,$9*
0 Add four rect primitives between the rounded corners*
20,1,$1+$1,$2,$3,$4,$5,0*
20,1,$1+$1,$4,$5,$6,$7,0*
20,1,$1+$1,$6,$7,$8,$9,0*
20,1,$1+$1,$8,$9,$2,$3,0*%
%AMFreePoly0*
4,1,16,0.635355,0.285355,0.650000,0.250000,0.650000,-1.000000,0.635355,-1.035355,0.600000,-1.050000,0.564645,-1.035355,0.000000,-0.470710,-0.564645,-1.035355,-0.600000,-1.050000,-0.635355,-1.035355,-0.650000,-1.000000,-0.650000,0.250000,-0.635355,0.285355,-0.600000,0.300000,0.600000,0.300000,0.635355,0.285355,0.635355,0.285355,$1*%
%AMFreePoly1*
4,1,14,0.035355,0.435355,0.635355,-0.164645,0.650000,-0.200000,0.650000,-0.400000,0.635355,-0.435355,0.600000,-0.450000,-0.600000,-0.450000,-0.635355,-0.435355,-0.650000,-0.400000,-0.650000,-0.200000,-0.635355,-0.164645,-0.035355,0.435355,0.000000,0.450000,0.035355,0.435355,0.035355,0.435355,$1*%
%AMFreePoly2*
4,1,14,1.310355,1.285355,1.325000,1.250000,1.325000,-1.250000,1.310355,-1.285355,1.275000,-1.300000,-0.775000,-1.300000,-0.810355,-1.285355,-1.310355,-0.785355,-1.325000,-0.750000,-1.325000,1.250000,-1.310355,1.285355,-1.275000,1.300000,1.275000,1.300000,1.310355,1.285355,1.310355,1.285355,$1*%
G04 Aperture macros list end*
%ADD10C,0.000000*%
%ADD11C,4.700000*%
%ADD12RoundRect,0.050000X0.450000X0.600000X-0.450000X0.600000X-0.450000X-0.600000X0.450000X-0.600000X0*%
%ADD13RoundRect,0.050000X0.589958X0.463087X-0.279375X0.696024X-0.589958X-0.463087X0.279375X-0.696024X0*%
%ADD14C,1.800000*%
%ADD15FreePoly0,270.000000*%
%ADD16O,1.850000X1.300000*%
%ADD17FreePoly1,270.000000*%
%ADD18RoundRect,0.050000X-0.400000X0.500000X-0.400000X-0.500000X0.400000X-0.500000X0.400000X0.500000X0*%
%ADD19C,1.000000*%
%ADD20RoundRect,0.050000X-0.750000X0.350000X-0.750000X-0.350000X0.750000X-0.350000X0.750000X0.350000X0*%
%ADD21RoundRect,0.050000X0.689711X0.294615X-0.089711X0.744615X-0.689711X-0.294615X0.089711X-0.744615X0*%
%ADD22O,1.800000X1.800000*%
%ADD23RoundRect,0.050000X-0.600000X0.300000X-0.600000X-0.300000X0.600000X-0.300000X0.600000X0.300000X0*%
%ADD24C,2.000000*%
%ADD25C,3.100000*%
%ADD26C,4.200000*%
%ADD27RoundRect,0.050000X-1.275000X-1.250000X1.275000X-1.250000X1.275000X1.250000X-1.275000X1.250000X0*%
%ADD28FreePoly2,0.000000*%
%ADD29RoundRect,0.050000X-1.555079X-0.877413X0.908032X-1.537402X1.555079X0.877413X-0.908032X1.537402X0*%
%ADD30FreePoly2,345.000000*%
%ADD31RoundRect,0.050000X-1.729182X-0.445032X0.479182X-1.720032X1.729182X0.445032X-0.479182X1.720032X0*%
%ADD32FreePoly2,330.000000*%
G04 APERTURE END LIST*
D10*
G36*
X117798420Y-111493125D02*
G01*
X117728254Y-111493125D01*
X117728254Y-110936182D01*
X117798420Y-110936182D01*
X117798420Y-111493125D01*
G37*
G36*
X120495504Y-111328795D02*
G01*
X120495324Y-111338421D01*
X120494789Y-111347823D01*
X120493903Y-111356993D01*
X120492672Y-111365927D01*
X120491100Y-111374621D01*
X120489194Y-111383067D01*
X120486958Y-111391262D01*
X120484397Y-111399199D01*
X120481516Y-111406875D01*
X120478321Y-111414282D01*
X120474817Y-111421417D01*
X120471009Y-111428274D01*
X120466902Y-111434848D01*
X120462501Y-111441133D01*
X120457812Y-111447124D01*
X120452840Y-111452816D01*
X120447590Y-111458204D01*
X120442066Y-111463282D01*
X120436275Y-111468046D01*
X120430221Y-111472489D01*
X120423910Y-111476607D01*
X120417347Y-111480395D01*
X120410536Y-111483847D01*
X120403484Y-111486957D01*
X120396195Y-111489722D01*
X120388674Y-111492135D01*
X120380927Y-111494191D01*
X120372958Y-111495885D01*
X120364774Y-111497211D01*
X120356379Y-111498165D01*
X120347778Y-111498742D01*
X120338976Y-111498935D01*
X120333407Y-111498849D01*
X120327895Y-111498594D01*
X120322447Y-111498173D01*
X120317067Y-111497588D01*
X120311761Y-111496844D01*
X120306535Y-111495943D01*
X120301393Y-111494889D01*
X120296342Y-111493685D01*
X120291387Y-111492333D01*
X120286533Y-111490838D01*
X120281787Y-111489202D01*
X120277152Y-111487428D01*
X120272636Y-111485521D01*
X120268243Y-111483482D01*
X120263978Y-111481315D01*
X120259848Y-111479024D01*
X120255858Y-111476611D01*
X120252013Y-111474080D01*
X120248318Y-111471434D01*
X120244780Y-111468676D01*
X120241404Y-111465809D01*
X120238194Y-111462837D01*
X120235158Y-111459762D01*
X120232299Y-111456588D01*
X120229624Y-111453319D01*
X120227138Y-111449956D01*
X120224847Y-111446504D01*
X120222755Y-111442966D01*
X120220869Y-111439345D01*
X120219194Y-111435643D01*
X120217736Y-111431865D01*
X120216499Y-111428013D01*
X120213007Y-111428013D01*
X120213007Y-111493125D01*
X120145537Y-111493125D01*
X120145537Y-111249729D01*
X120215705Y-111249729D01*
X120215705Y-111320270D01*
X120215826Y-111327055D01*
X120216186Y-111333673D01*
X120216782Y-111340121D01*
X120217610Y-111346396D01*
X120218668Y-111352494D01*
X120219951Y-111358414D01*
X120221455Y-111364150D01*
X120223179Y-111369701D01*
X120225117Y-111375063D01*
X120227268Y-111380233D01*
X120229626Y-111385207D01*
X120232189Y-111389982D01*
X120234953Y-111394556D01*
X120237916Y-111398925D01*
X120241072Y-111403085D01*
X120244419Y-111407035D01*
X120247954Y-111410769D01*
X120251673Y-111414286D01*
X120255572Y-111417582D01*
X120259649Y-111420653D01*
X120263899Y-111423497D01*
X120268319Y-111426111D01*
X120272906Y-111428491D01*
X120277656Y-111430634D01*
X120282566Y-111432537D01*
X120287632Y-111434196D01*
X120292851Y-111435609D01*
X120298219Y-111436772D01*
X120303733Y-111437683D01*
X120309390Y-111438337D01*
X120315185Y-111438732D01*
X120321117Y-111438864D01*
X120327106Y-111438729D01*
X120332944Y-111438327D01*
X120338627Y-111437659D01*
X120344154Y-111436728D01*
X120349521Y-111435536D01*
X120354727Y-111434087D01*
X120359768Y-111432381D01*
X120364642Y-111430423D01*
X120369347Y-111428213D01*
X120373880Y-111425755D01*
X120378238Y-111423051D01*
X120382420Y-111420103D01*
X120386422Y-111416914D01*
X120390242Y-111413486D01*
X120393878Y-111409821D01*
X120397327Y-111405922D01*
X120400586Y-111401792D01*
X120403653Y-111397433D01*
X120406525Y-111392846D01*
X120409201Y-111388036D01*
X120411677Y-111383003D01*
X120413951Y-111377751D01*
X120416020Y-111372281D01*
X120417882Y-111366597D01*
X120419534Y-111360701D01*
X120420975Y-111354594D01*
X120423208Y-111341761D01*
X120424564Y-111328117D01*
X120425020Y-111313682D01*
X120425020Y-111264072D01*
X120424908Y-111256826D01*
X120424573Y-111249768D01*
X120424018Y-111242902D01*
X120423245Y-111236230D01*
X120422257Y-111229756D01*
X120421055Y-111223481D01*
X120419644Y-111217409D01*
X120418024Y-111211541D01*
X120416198Y-111205882D01*
X120414169Y-111200433D01*
X120411939Y-111195197D01*
X120409511Y-111190177D01*
X120406887Y-111185376D01*
X120404070Y-111180796D01*
X120401061Y-111176440D01*
X120397863Y-111172311D01*
X120394480Y-111168411D01*
X120390912Y-111164743D01*
X120387163Y-111161310D01*
X120383235Y-111158115D01*
X120379130Y-111155159D01*
X120374852Y-111152447D01*
X120370401Y-111149980D01*
X120365782Y-111147761D01*
X120360995Y-111145793D01*
X120356044Y-111144079D01*
X120350931Y-111142621D01*
X120345658Y-111141422D01*
X120340229Y-111140485D01*
X120334644Y-111139812D01*
X120328908Y-111139407D01*
X120323021Y-111139271D01*
X120317259Y-111139404D01*
X120311600Y-111139800D01*
X120306049Y-111140455D01*
X120300612Y-111141363D01*
X120295293Y-111142519D01*
X120290098Y-111143918D01*
X120285032Y-111145557D01*
X120280101Y-111147429D01*
X120275309Y-111149529D01*
X120270662Y-111151854D01*
X120266165Y-111154397D01*
X120261824Y-111157155D01*
X120257643Y-111160122D01*
X120253628Y-111163293D01*
X120249784Y-111166664D01*
X120246117Y-111170229D01*
X120242631Y-111173984D01*
X120239332Y-111177924D01*
X120236225Y-111182043D01*
X120233315Y-111186337D01*
X120230608Y-111190801D01*
X120228109Y-111195431D01*
X120225823Y-111200220D01*
X120223756Y-111205165D01*
X120221912Y-111210261D01*
X120220297Y-111215502D01*
X120218915Y-111220883D01*
X120217774Y-111226401D01*
X120216877Y-111232049D01*
X120216229Y-111237823D01*
X120215837Y-111243718D01*
X120215705Y-111249729D01*
X120145537Y-111249729D01*
X120145537Y-110936182D01*
X120215705Y-110936182D01*
X120215705Y-111145859D01*
X120219198Y-111145859D01*
X120222576Y-111138276D01*
X120226595Y-111131087D01*
X120231230Y-111124307D01*
X120236460Y-111117947D01*
X120242262Y-111112021D01*
X120248613Y-111106542D01*
X120255492Y-111101523D01*
X120262874Y-111096977D01*
X120270739Y-111092917D01*
X120279062Y-111089356D01*
X120287823Y-111086307D01*
X120296998Y-111083783D01*
X120306564Y-111081798D01*
X120316500Y-111080363D01*
X120326782Y-111079493D01*
X120337388Y-111079200D01*
X120346194Y-111079394D01*
X120354808Y-111079974D01*
X120363224Y-111080933D01*
X120371437Y-111082267D01*
X120379442Y-111083970D01*
X120387231Y-111086036D01*
X120394800Y-111088461D01*
X120402143Y-111091238D01*
X120409253Y-111094363D01*
X120416126Y-111097830D01*
X120422755Y-111101634D01*
X120429135Y-111105769D01*
X120435259Y-111110230D01*
X120441123Y-111115011D01*
X120446720Y-111120107D01*
X120452045Y-111125513D01*
X120457092Y-111131224D01*
X120461855Y-111137233D01*
X120466328Y-111143536D01*
X120470506Y-111150127D01*
X120474382Y-111157000D01*
X120477952Y-111164151D01*
X120481209Y-111171574D01*
X120484148Y-111179264D01*
X120486763Y-111187215D01*
X120489047Y-111195421D01*
X120490996Y-111203878D01*
X120492604Y-111212580D01*
X120493864Y-111221521D01*
X120494771Y-111230697D01*
X120495320Y-111240101D01*
X120495504Y-111249729D01*
X120495504Y-111264072D01*
X120495504Y-111328795D01*
G37*
G36*
X115276437Y-111258254D02*
G01*
X115276437Y-111320270D01*
X115276248Y-111330469D01*
X115275684Y-111340424D01*
X115274748Y-111350130D01*
X115273444Y-111359582D01*
X115271774Y-111368775D01*
X115269744Y-111377703D01*
X115267357Y-111386361D01*
X115264616Y-111394743D01*
X115261524Y-111402846D01*
X115258086Y-111410662D01*
X115254305Y-111418188D01*
X115250185Y-111425417D01*
X115245728Y-111432345D01*
X115240940Y-111438966D01*
X115235823Y-111445275D01*
X115230381Y-111451267D01*
X115224618Y-111456937D01*
X115218536Y-111462279D01*
X115212141Y-111467288D01*
X115205435Y-111471958D01*
X115198422Y-111476285D01*
X115191106Y-111480264D01*
X115183490Y-111483888D01*
X115175578Y-111487154D01*
X115167373Y-111490054D01*
X115158880Y-111492585D01*
X115150101Y-111494741D01*
X115141040Y-111496517D01*
X115131701Y-111497907D01*
X115122088Y-111498907D01*
X115112204Y-111499511D01*
X115102052Y-111499713D01*
X115092543Y-111499528D01*
X115083348Y-111498984D01*
X115074465Y-111498096D01*
X115065892Y-111496880D01*
X115057626Y-111495351D01*
X115049666Y-111493525D01*
X115042010Y-111491417D01*
X115034656Y-111489042D01*
X115027602Y-111486417D01*
X115020846Y-111483556D01*
X115014385Y-111480475D01*
X115008219Y-111477189D01*
X115002344Y-111473715D01*
X114996760Y-111470067D01*
X114991463Y-111466260D01*
X114986452Y-111462311D01*
X114981725Y-111458235D01*
X114977280Y-111454048D01*
X114973115Y-111449764D01*
X114969228Y-111445399D01*
X114965617Y-111440969D01*
X114962280Y-111436490D01*
X114959215Y-111431976D01*
X114956420Y-111427443D01*
X114953893Y-111422907D01*
X114951632Y-111418382D01*
X114949635Y-111413886D01*
X114947900Y-111409432D01*
X114946425Y-111405037D01*
X114945208Y-111400716D01*
X114944247Y-111396485D01*
X114943540Y-111392358D01*
X115015610Y-111392358D01*
X115017213Y-111397050D01*
X115019391Y-111401656D01*
X115022131Y-111406148D01*
X115025419Y-111410495D01*
X115029239Y-111414667D01*
X115033579Y-111418634D01*
X115038424Y-111422366D01*
X115043761Y-111425833D01*
X115049575Y-111429004D01*
X115055851Y-111431850D01*
X115062577Y-111434341D01*
X115069738Y-111436446D01*
X115077319Y-111438136D01*
X115085307Y-111439380D01*
X115093688Y-111440149D01*
X115102448Y-111440412D01*
X115108711Y-111440269D01*
X115114789Y-111439844D01*
X115120682Y-111439143D01*
X115126388Y-111438173D01*
X115131907Y-111436941D01*
X115137238Y-111435453D01*
X115142379Y-111433715D01*
X115147330Y-111431734D01*
X115152089Y-111429516D01*
X115156657Y-111427068D01*
X115161032Y-111424396D01*
X115165212Y-111421507D01*
X115169198Y-111418406D01*
X115172988Y-111415102D01*
X115176582Y-111411599D01*
X115179977Y-111407905D01*
X115183174Y-111404025D01*
X115186172Y-111399968D01*
X115188969Y-111395737D01*
X115191565Y-111391342D01*
X115193958Y-111386786D01*
X115196149Y-111382079D01*
X115198135Y-111377224D01*
X115199915Y-111372230D01*
X115201490Y-111367103D01*
X115202858Y-111361848D01*
X115204018Y-111356473D01*
X115204969Y-111350984D01*
X115206242Y-111339690D01*
X115206667Y-111328017D01*
X115206667Y-111307475D01*
X114938143Y-111307475D01*
X114938143Y-111258254D01*
X114938307Y-111250118D01*
X115007913Y-111250118D01*
X115007913Y-111256706D01*
X115206667Y-111256706D01*
X115206667Y-111250118D01*
X115206551Y-111243828D01*
X115206205Y-111237679D01*
X115205633Y-111231673D01*
X115204839Y-111225815D01*
X115203825Y-111220109D01*
X115202597Y-111214559D01*
X115201157Y-111209169D01*
X115199509Y-111203942D01*
X115197657Y-111198883D01*
X115195604Y-111193995D01*
X115193355Y-111189283D01*
X115190912Y-111184749D01*
X115188280Y-111180399D01*
X115185462Y-111176236D01*
X115182462Y-111172264D01*
X115179283Y-111168486D01*
X115175929Y-111164907D01*
X115172405Y-111161531D01*
X115168712Y-111158361D01*
X115164856Y-111155402D01*
X115160840Y-111152657D01*
X115156667Y-111150130D01*
X115152341Y-111147826D01*
X115147865Y-111145747D01*
X115143245Y-111143898D01*
X115138482Y-111142283D01*
X115133581Y-111140906D01*
X115128546Y-111139771D01*
X115123379Y-111138881D01*
X115118086Y-111138240D01*
X115112668Y-111137853D01*
X115107131Y-111137723D01*
X115101595Y-111137853D01*
X115096180Y-111138240D01*
X115090891Y-111138881D01*
X115085730Y-111139771D01*
X115080702Y-111140906D01*
X115075810Y-111142283D01*
X115071057Y-111143898D01*
X115066447Y-111145747D01*
X115061983Y-111147826D01*
X115057670Y-111150130D01*
X115053510Y-111152657D01*
X115049507Y-111155402D01*
X115045665Y-111158361D01*
X115041987Y-111161531D01*
X115038477Y-111164907D01*
X115035138Y-111168486D01*
X115031975Y-111172264D01*
X115028989Y-111176236D01*
X115026186Y-111180399D01*
X115023568Y-111184749D01*
X115021139Y-111189283D01*
X115018903Y-111193995D01*
X115016863Y-111198883D01*
X115015022Y-111203942D01*
X115013385Y-111209169D01*
X115011954Y-111214559D01*
X115010734Y-111220109D01*
X115009728Y-111225815D01*
X115008939Y-111231673D01*
X115008372Y-111237679D01*
X115008028Y-111243828D01*
X115007913Y-111250118D01*
X114938307Y-111250118D01*
X114938348Y-111248089D01*
X114938959Y-111238164D01*
X114939967Y-111228484D01*
X114941365Y-111219053D01*
X114943145Y-111209879D01*
X114945299Y-111200966D01*
X114947820Y-111192319D01*
X114950700Y-111183945D01*
X114953932Y-111175848D01*
X114957507Y-111168034D01*
X114961417Y-111160509D01*
X114965656Y-111153278D01*
X114970215Y-111146346D01*
X114975087Y-111139719D01*
X114980264Y-111133403D01*
X114985738Y-111127402D01*
X114991502Y-111121723D01*
X114997547Y-111116371D01*
X115003866Y-111111351D01*
X115010452Y-111106668D01*
X115017297Y-111102329D01*
X115024392Y-111098339D01*
X115031731Y-111094702D01*
X115039305Y-111091425D01*
X115047107Y-111088513D01*
X115055129Y-111085972D01*
X115063363Y-111083807D01*
X115071802Y-111082023D01*
X115080438Y-111080626D01*
X115089263Y-111079621D01*
X115098269Y-111079015D01*
X115107449Y-111078811D01*
X115116531Y-111079011D01*
X115125449Y-111079608D01*
X115134196Y-111080598D01*
X115142764Y-111081975D01*
X115151144Y-111083735D01*
X115159328Y-111085872D01*
X115167308Y-111088383D01*
X115175075Y-111091261D01*
X115182622Y-111094503D01*
X115189940Y-111098104D01*
X115197021Y-111102058D01*
X115203857Y-111106361D01*
X115210440Y-111111008D01*
X115216760Y-111115994D01*
X115222811Y-111121315D01*
X115228584Y-111126965D01*
X115234071Y-111132940D01*
X115239263Y-111139235D01*
X115244153Y-111145845D01*
X115248732Y-111152765D01*
X115252991Y-111159991D01*
X115256924Y-111167517D01*
X115260520Y-111175339D01*
X115263773Y-111183453D01*
X115266674Y-111191852D01*
X115269215Y-111200533D01*
X115271388Y-111209490D01*
X115273184Y-111218718D01*
X115274595Y-111228214D01*
X115275613Y-111237972D01*
X115276230Y-111247987D01*
X115276273Y-111250118D01*
X115276437Y-111258254D01*
G37*
G36*
X127339374Y-110699375D02*
G01*
X122576873Y-110699375D01*
X122179999Y-110024687D01*
X125354998Y-110024687D01*
X124164375Y-108000625D01*
X125751874Y-108000625D01*
X127339374Y-110699375D01*
G37*
G36*
X121192860Y-111078951D02*
G01*
X121200360Y-111079363D01*
X121207541Y-111080035D01*
X121214409Y-111080955D01*
X121220973Y-111082112D01*
X121227238Y-111083494D01*
X121233212Y-111085088D01*
X121238902Y-111086883D01*
X121244315Y-111088867D01*
X121249458Y-111091028D01*
X121254338Y-111093355D01*
X121258963Y-111095835D01*
X121263339Y-111098457D01*
X121267473Y-111101208D01*
X121271373Y-111104078D01*
X121275045Y-111107054D01*
X121278496Y-111110124D01*
X121281735Y-111113276D01*
X121284766Y-111116499D01*
X121287599Y-111119780D01*
X121290240Y-111123109D01*
X121292695Y-111126472D01*
X121297078Y-111133256D01*
X121300806Y-111140039D01*
X121303935Y-111146724D01*
X121306521Y-111153217D01*
X121308620Y-111159424D01*
X121312511Y-111159424D01*
X121312511Y-111085399D01*
X121381883Y-111085399D01*
X121381883Y-111493125D01*
X121311797Y-111493125D01*
X121311797Y-111266009D01*
X121311388Y-111252970D01*
X121310875Y-111246601D01*
X121310157Y-111240344D01*
X121309232Y-111234204D01*
X121308102Y-111228190D01*
X121306765Y-111222309D01*
X121305220Y-111216568D01*
X121303469Y-111210975D01*
X121301510Y-111205537D01*
X121299342Y-111200261D01*
X121296967Y-111195155D01*
X121294383Y-111190226D01*
X121291590Y-111185482D01*
X121288587Y-111180930D01*
X121285375Y-111176576D01*
X121281953Y-111172430D01*
X121278320Y-111168497D01*
X121274477Y-111164786D01*
X121270423Y-111161304D01*
X121266158Y-111158058D01*
X121261680Y-111155055D01*
X121256991Y-111152304D01*
X121252090Y-111149810D01*
X121246976Y-111147583D01*
X121241648Y-111145628D01*
X121236108Y-111143954D01*
X121230354Y-111142568D01*
X121224385Y-111141477D01*
X121218203Y-111140689D01*
X121211806Y-111140210D01*
X121205193Y-111140049D01*
X121200065Y-111140145D01*
X121195070Y-111140434D01*
X121190210Y-111140916D01*
X121185487Y-111141589D01*
X121180903Y-111142454D01*
X121176460Y-111143510D01*
X121172160Y-111144758D01*
X121168004Y-111146195D01*
X121163995Y-111147823D01*
X121160135Y-111149641D01*
X121156426Y-111151648D01*
X121152869Y-111153844D01*
X121149467Y-111156229D01*
X121146221Y-111158803D01*
X121143133Y-111161564D01*
X121140206Y-111164513D01*
X121137442Y-111167650D01*
X121134841Y-111170974D01*
X121132407Y-111174484D01*
X121130141Y-111178180D01*
X121128045Y-111182063D01*
X121126121Y-111186131D01*
X121124371Y-111190384D01*
X121122796Y-111194823D01*
X121121400Y-111199445D01*
X121120184Y-111204252D01*
X121119149Y-111209243D01*
X121118299Y-111214417D01*
X121117634Y-111219775D01*
X121117156Y-111225315D01*
X121116868Y-111231037D01*
X121116772Y-111236942D01*
X121116772Y-111493125D01*
X121046681Y-111493125D01*
X121046681Y-111214844D01*
X121046845Y-111206406D01*
X121047332Y-111198243D01*
X121048138Y-111190354D01*
X121049256Y-111182739D01*
X121050682Y-111175396D01*
X121052409Y-111168326D01*
X121054432Y-111161528D01*
X121056746Y-111155003D01*
X121059345Y-111148748D01*
X121062223Y-111142764D01*
X121065375Y-111137051D01*
X121068795Y-111131608D01*
X121072479Y-111126435D01*
X121076419Y-111121531D01*
X121080612Y-111116896D01*
X121085050Y-111112529D01*
X121089729Y-111108430D01*
X121094644Y-111104598D01*
X121099788Y-111101034D01*
X121105156Y-111097736D01*
X121110742Y-111094705D01*
X121116542Y-111091939D01*
X121122549Y-111089439D01*
X121128758Y-111087204D01*
X121135163Y-111085234D01*
X121141759Y-111083527D01*
X121148541Y-111082084D01*
X121155502Y-111080905D01*
X121162637Y-111079988D01*
X121169941Y-111079334D01*
X121185033Y-111078811D01*
X121192860Y-111078951D01*
G37*
G36*
X113404357Y-110911436D02*
G01*
X113406915Y-110911611D01*
X113409429Y-110911899D01*
X113411895Y-110912299D01*
X113414312Y-110912808D01*
X113416676Y-110913424D01*
X113418985Y-110914145D01*
X113421236Y-110914968D01*
X113423427Y-110915893D01*
X113425554Y-110916915D01*
X113427616Y-110918034D01*
X113429609Y-110919246D01*
X113431532Y-110920550D01*
X113433380Y-110921944D01*
X113435152Y-110923424D01*
X113436844Y-110924990D01*
X113438455Y-110926639D01*
X113439981Y-110928369D01*
X113441420Y-110930177D01*
X113442769Y-110932061D01*
X113444026Y-110934019D01*
X113445187Y-110936049D01*
X113446251Y-110938149D01*
X113447214Y-110940317D01*
X113448073Y-110942549D01*
X113448827Y-110944845D01*
X113449472Y-110947201D01*
X113450006Y-110949617D01*
X113450425Y-110952088D01*
X113450729Y-110954614D01*
X113450912Y-110957192D01*
X113450974Y-110959820D01*
X113450912Y-110962414D01*
X113450729Y-110964959D01*
X113450425Y-110967455D01*
X113450006Y-110969898D01*
X113449472Y-110972287D01*
X113448827Y-110974619D01*
X113448073Y-110976892D01*
X113447214Y-110979104D01*
X113446251Y-110981252D01*
X113445187Y-110983334D01*
X113444026Y-110985348D01*
X113442769Y-110987292D01*
X113441420Y-110989162D01*
X113439981Y-110990958D01*
X113438455Y-110992677D01*
X113436844Y-110994317D01*
X113435152Y-110995874D01*
X113433380Y-110997348D01*
X113431532Y-110998735D01*
X113429609Y-111000033D01*
X113427616Y-111001241D01*
X113425554Y-111002356D01*
X113423427Y-111003375D01*
X113421236Y-111004297D01*
X113418985Y-111005118D01*
X113416676Y-111005838D01*
X113414312Y-111006453D01*
X113411895Y-111006961D01*
X113409429Y-111007361D01*
X113406915Y-111007649D01*
X113404357Y-111007823D01*
X113401758Y-111007882D01*
X113399021Y-111007823D01*
X113396335Y-111007649D01*
X113393702Y-111007361D01*
X113391124Y-111006961D01*
X113388603Y-111006453D01*
X113386142Y-111005838D01*
X113383744Y-111005118D01*
X113381410Y-111004297D01*
X113379143Y-111003375D01*
X113376946Y-111002356D01*
X113374820Y-111001241D01*
X113372769Y-111000033D01*
X113370795Y-110998735D01*
X113368900Y-110997348D01*
X113367086Y-110995874D01*
X113365356Y-110994317D01*
X113363712Y-110992677D01*
X113362157Y-110990958D01*
X113360693Y-110989162D01*
X113359323Y-110987292D01*
X113358048Y-110985348D01*
X113356872Y-110983334D01*
X113355796Y-110981252D01*
X113354823Y-110979104D01*
X113353956Y-110976892D01*
X113353197Y-110974619D01*
X113352548Y-110972287D01*
X113352011Y-110969898D01*
X113351590Y-110967455D01*
X113351286Y-110964959D01*
X113351102Y-110962414D01*
X113351040Y-110959820D01*
X113351102Y-110957192D01*
X113351286Y-110954614D01*
X113351590Y-110952088D01*
X113352011Y-110949617D01*
X113352548Y-110947201D01*
X113353197Y-110944845D01*
X113353956Y-110942549D01*
X113354823Y-110940317D01*
X113355796Y-110938149D01*
X113356872Y-110936049D01*
X113358048Y-110934019D01*
X113359323Y-110932061D01*
X113360693Y-110930177D01*
X113362157Y-110928369D01*
X113363712Y-110926639D01*
X113365356Y-110924990D01*
X113367086Y-110923424D01*
X113368900Y-110921944D01*
X113370795Y-110920550D01*
X113372769Y-110919246D01*
X113374820Y-110918034D01*
X113376946Y-110916915D01*
X113379143Y-110915893D01*
X113381410Y-110914968D01*
X113383744Y-110914145D01*
X113386142Y-110913424D01*
X113388603Y-110912808D01*
X113391124Y-110912299D01*
X113393702Y-110911899D01*
X113396335Y-110911611D01*
X113399021Y-110911436D01*
X113401758Y-110911377D01*
X113404357Y-110911436D01*
G37*
G36*
X115970970Y-111493125D02*
G01*
X115900882Y-111493125D01*
X115900882Y-111085399D01*
X115970970Y-111085399D01*
X115970970Y-111493125D01*
G37*
G36*
X115939113Y-110911436D02*
G01*
X115941665Y-110911611D01*
X115944173Y-110911899D01*
X115946634Y-110912299D01*
X115949047Y-110912808D01*
X115951408Y-110913424D01*
X115953714Y-110914145D01*
X115955964Y-110914968D01*
X115958153Y-110915893D01*
X115960280Y-110916915D01*
X115962342Y-110918034D01*
X115964335Y-110919246D01*
X115966258Y-110920550D01*
X115968107Y-110921944D01*
X115969880Y-110923424D01*
X115971574Y-110924990D01*
X115973187Y-110926639D01*
X115974715Y-110928369D01*
X115976156Y-110930177D01*
X115977508Y-110932061D01*
X115978767Y-110934019D01*
X115979930Y-110936049D01*
X115980996Y-110938149D01*
X115981961Y-110940317D01*
X115982823Y-110942549D01*
X115983579Y-110944845D01*
X115984226Y-110947201D01*
X115984761Y-110949617D01*
X115985182Y-110952088D01*
X115985486Y-110954614D01*
X115985671Y-110957192D01*
X115985733Y-110959820D01*
X115985671Y-110962414D01*
X115985486Y-110964959D01*
X115985182Y-110967455D01*
X115984761Y-110969898D01*
X115984226Y-110972287D01*
X115983579Y-110974619D01*
X115982823Y-110976892D01*
X115981961Y-110979104D01*
X115980996Y-110981252D01*
X115979930Y-110983334D01*
X115978767Y-110985348D01*
X115977508Y-110987292D01*
X115976156Y-110989162D01*
X115974715Y-110990958D01*
X115973187Y-110992677D01*
X115971574Y-110994317D01*
X115969880Y-110995874D01*
X115968107Y-110997348D01*
X115966258Y-110998735D01*
X115964335Y-111000033D01*
X115962342Y-111001241D01*
X115960280Y-111002356D01*
X115958153Y-111003375D01*
X115955964Y-111004297D01*
X115953714Y-111005118D01*
X115951408Y-111005838D01*
X115949047Y-111006453D01*
X115946634Y-111006961D01*
X115944173Y-111007361D01*
X115941665Y-111007649D01*
X115939113Y-111007823D01*
X115936521Y-111007882D01*
X115933785Y-111007823D01*
X115931098Y-111007649D01*
X115928463Y-111007361D01*
X115925884Y-111006961D01*
X115923361Y-111006453D01*
X115920898Y-111005838D01*
X115918497Y-111005118D01*
X115916160Y-111004297D01*
X115913890Y-111003375D01*
X115911690Y-111002356D01*
X115909561Y-111001241D01*
X115907507Y-111000033D01*
X115905529Y-110998735D01*
X115903629Y-110997348D01*
X115901812Y-110995874D01*
X115900078Y-110994317D01*
X115898430Y-110992677D01*
X115896872Y-110990958D01*
X115895404Y-110989162D01*
X115894030Y-110987292D01*
X115892752Y-110985348D01*
X115891572Y-110983334D01*
X115890493Y-110981252D01*
X115889517Y-110979104D01*
X115888647Y-110976892D01*
X115887885Y-110974619D01*
X115887234Y-110972287D01*
X115886696Y-110969898D01*
X115886273Y-110967455D01*
X115885968Y-110964959D01*
X115885783Y-110962414D01*
X115885721Y-110959820D01*
X115885783Y-110957192D01*
X115885968Y-110954614D01*
X115886273Y-110952088D01*
X115886696Y-110949617D01*
X115887234Y-110947201D01*
X115887885Y-110944845D01*
X115888647Y-110942549D01*
X115889517Y-110940317D01*
X115890493Y-110938149D01*
X115891572Y-110936049D01*
X115892752Y-110934019D01*
X115894030Y-110932061D01*
X115895404Y-110930177D01*
X115896872Y-110928369D01*
X115898430Y-110926639D01*
X115900078Y-110924990D01*
X115901812Y-110923424D01*
X115903629Y-110921944D01*
X115905529Y-110920550D01*
X115907507Y-110919246D01*
X115909561Y-110918034D01*
X115911690Y-110916915D01*
X115913890Y-110915893D01*
X115916160Y-110914968D01*
X115918497Y-110914145D01*
X115920898Y-110913424D01*
X115923361Y-110912808D01*
X115925884Y-110912299D01*
X115928463Y-110911899D01*
X115931098Y-110911611D01*
X115933785Y-110911436D01*
X115936521Y-110911377D01*
X115939113Y-110911436D01*
G37*
G36*
X112896776Y-111086558D02*
G01*
X112959563Y-111086558D01*
X112959563Y-111143533D01*
X112897172Y-111143533D01*
X112897172Y-111378793D01*
X112896913Y-111393401D01*
X112896082Y-111407000D01*
X112894599Y-111419600D01*
X112893588Y-111425529D01*
X112892383Y-111431211D01*
X112890975Y-111436647D01*
X112889354Y-111441840D01*
X112887509Y-111446789D01*
X112885431Y-111451497D01*
X112883109Y-111455963D01*
X112880533Y-111460191D01*
X112877694Y-111464180D01*
X112874580Y-111467931D01*
X112871183Y-111471447D01*
X112867492Y-111474727D01*
X112863496Y-111477773D01*
X112859187Y-111480587D01*
X112854553Y-111483169D01*
X112849585Y-111485521D01*
X112844272Y-111487643D01*
X112838606Y-111489537D01*
X112832574Y-111491204D01*
X112826168Y-111492645D01*
X112819378Y-111493861D01*
X112812192Y-111494853D01*
X112804602Y-111495623D01*
X112796597Y-111496172D01*
X112779302Y-111496609D01*
X112772950Y-111496523D01*
X112765786Y-111496283D01*
X112758230Y-111495915D01*
X112750707Y-111495448D01*
X112743637Y-111494908D01*
X112737443Y-111494322D01*
X112732548Y-111493719D01*
X112730720Y-111493419D01*
X112729374Y-111493125D01*
X112729374Y-111436927D01*
X112735758Y-111437558D01*
X112744138Y-111438187D01*
X112748657Y-111438456D01*
X112753172Y-111438671D01*
X112757517Y-111438813D01*
X112761523Y-111438864D01*
X112770438Y-111438713D01*
X112778596Y-111438237D01*
X112786024Y-111437403D01*
X112789471Y-111436841D01*
X112792745Y-111436176D01*
X112795848Y-111435404D01*
X112798784Y-111434522D01*
X112801556Y-111433524D01*
X112804168Y-111432407D01*
X112806621Y-111431165D01*
X112808920Y-111429796D01*
X112811067Y-111428295D01*
X112813065Y-111426657D01*
X112814918Y-111424878D01*
X112816629Y-111422955D01*
X112818201Y-111420881D01*
X112819637Y-111418655D01*
X112820941Y-111416270D01*
X112822114Y-111413724D01*
X112823161Y-111411010D01*
X112824084Y-111408127D01*
X112824887Y-111405068D01*
X112825573Y-111401831D01*
X112826145Y-111398410D01*
X112826606Y-111394801D01*
X112827207Y-111387003D01*
X112827402Y-111378404D01*
X112827402Y-111143533D01*
X112735169Y-111143533D01*
X112735169Y-111086558D01*
X112827402Y-111086558D01*
X112827402Y-110984244D01*
X112896776Y-110984244D01*
X112896776Y-111086558D01*
G37*
G36*
X116498893Y-111493125D02*
G01*
X116326808Y-111493125D01*
X116312564Y-111492856D01*
X116298763Y-111492051D01*
X116285407Y-111490712D01*
X116272495Y-111488840D01*
X116260029Y-111486439D01*
X116248010Y-111483509D01*
X116236436Y-111480053D01*
X116225310Y-111476072D01*
X116214631Y-111471569D01*
X116204401Y-111466546D01*
X116194619Y-111461004D01*
X116185287Y-111454946D01*
X116176404Y-111448374D01*
X116167972Y-111441289D01*
X116159991Y-111433694D01*
X116152461Y-111425591D01*
X116145384Y-111416981D01*
X116138759Y-111407866D01*
X116132587Y-111398249D01*
X116126869Y-111388132D01*
X116121605Y-111377516D01*
X116116796Y-111366404D01*
X116112442Y-111354797D01*
X116108545Y-111342698D01*
X116105104Y-111330108D01*
X116102119Y-111317029D01*
X116099593Y-111303464D01*
X116097524Y-111289414D01*
X116094764Y-111259869D01*
X116093854Y-111228798D01*
X116167898Y-111228798D01*
X116168526Y-111253288D01*
X116169311Y-111264934D01*
X116170412Y-111276182D01*
X116171829Y-111287031D01*
X116173563Y-111297481D01*
X116175614Y-111307534D01*
X116177982Y-111317189D01*
X116180669Y-111326446D01*
X116183675Y-111335307D01*
X116187001Y-111343771D01*
X116190648Y-111351838D01*
X116194615Y-111359509D01*
X116198904Y-111366783D01*
X116203515Y-111373663D01*
X116208448Y-111380146D01*
X116213706Y-111386235D01*
X116219287Y-111391929D01*
X116225193Y-111397228D01*
X116231425Y-111402133D01*
X116237982Y-111406644D01*
X116244866Y-111410761D01*
X116252078Y-111414485D01*
X116259617Y-111417815D01*
X116267484Y-111420753D01*
X116275681Y-111423298D01*
X116284207Y-111425450D01*
X116293064Y-111427211D01*
X116302252Y-111428580D01*
X116311771Y-111429558D01*
X116321623Y-111430144D01*
X116331807Y-111430339D01*
X116427534Y-111430339D01*
X116427534Y-111026487D01*
X116331807Y-111026487D01*
X116321658Y-111026685D01*
X116311837Y-111027277D01*
X116302344Y-111028265D01*
X116293178Y-111029648D01*
X116284340Y-111031426D01*
X116275829Y-111033600D01*
X116267644Y-111036168D01*
X116259785Y-111039132D01*
X116252251Y-111042490D01*
X116245043Y-111046244D01*
X116238159Y-111050393D01*
X116231600Y-111054937D01*
X116225365Y-111059876D01*
X116219453Y-111065211D01*
X116213864Y-111070940D01*
X116208598Y-111077065D01*
X116203654Y-111083585D01*
X116199032Y-111090500D01*
X116194732Y-111097810D01*
X116190753Y-111105515D01*
X116187094Y-111113615D01*
X116183756Y-111122111D01*
X116180737Y-111131001D01*
X116178038Y-111140287D01*
X116173597Y-111160044D01*
X116170429Y-111181382D01*
X116168530Y-111204300D01*
X116167898Y-111228798D01*
X116093854Y-111228798D01*
X116093843Y-111228409D01*
X116094073Y-111212443D01*
X116094764Y-111196955D01*
X116095915Y-111181948D01*
X116097524Y-111167424D01*
X116099593Y-111153383D01*
X116102119Y-111139829D01*
X116105104Y-111126763D01*
X116108545Y-111114186D01*
X116112442Y-111102102D01*
X116116796Y-111090510D01*
X116121605Y-111079414D01*
X116126869Y-111068815D01*
X116132587Y-111058716D01*
X116138759Y-111049117D01*
X116145384Y-111040021D01*
X116152461Y-111031429D01*
X116159991Y-111023344D01*
X116167972Y-111015767D01*
X116176404Y-111008700D01*
X116185287Y-111002146D01*
X116194619Y-110996104D01*
X116204401Y-110990579D01*
X116214631Y-110985571D01*
X116225310Y-110981082D01*
X116236436Y-110977115D01*
X116248010Y-110973671D01*
X116260029Y-110970751D01*
X116272495Y-110968358D01*
X116285407Y-110966494D01*
X116298763Y-110965160D01*
X116312564Y-110964358D01*
X116326808Y-110964090D01*
X116498893Y-110964090D01*
X116498893Y-111430339D01*
X116498893Y-111493125D01*
G37*
G36*
X119825816Y-111493125D02*
G01*
X119758347Y-111493125D01*
X119758347Y-111432665D01*
X119754854Y-111432665D01*
X119751130Y-111440311D01*
X119746791Y-111447546D01*
X119741859Y-111454359D01*
X119736355Y-111460738D01*
X119730304Y-111466672D01*
X119723727Y-111472149D01*
X119716646Y-111477159D01*
X119709084Y-111481690D01*
X119701064Y-111485730D01*
X119692608Y-111489268D01*
X119683738Y-111492294D01*
X119674476Y-111494794D01*
X119664846Y-111496759D01*
X119654870Y-111498176D01*
X119644569Y-111499035D01*
X119633968Y-111499324D01*
X119624952Y-111499128D01*
X119616155Y-111498545D01*
X119607581Y-111497577D01*
X119599234Y-111496232D01*
X119591119Y-111494512D01*
X119583240Y-111492424D01*
X119575601Y-111489971D01*
X119568208Y-111487158D01*
X119561064Y-111483991D01*
X119554174Y-111480473D01*
X119547542Y-111476611D01*
X119541174Y-111472407D01*
X119535073Y-111467868D01*
X119529243Y-111462998D01*
X119523690Y-111457801D01*
X119518417Y-111452283D01*
X119513429Y-111446448D01*
X119508731Y-111440302D01*
X119504327Y-111433847D01*
X119500221Y-111427091D01*
X119496419Y-111420036D01*
X119492923Y-111412689D01*
X119489740Y-111405053D01*
X119486872Y-111397134D01*
X119484326Y-111388936D01*
X119482104Y-111380464D01*
X119480212Y-111371722D01*
X119478654Y-111362717D01*
X119477435Y-111353451D01*
X119476558Y-111343930D01*
X119476029Y-111334160D01*
X119475851Y-111324143D01*
X119475851Y-111268724D01*
X119546338Y-111268724D01*
X119546338Y-111312126D01*
X119546447Y-111319584D01*
X119546772Y-111326840D01*
X119547311Y-111333891D01*
X119548062Y-111340736D01*
X119549024Y-111347371D01*
X119550195Y-111353796D01*
X119551572Y-111360007D01*
X119553154Y-111366002D01*
X119554939Y-111371779D01*
X119556924Y-111377336D01*
X119559109Y-111382670D01*
X119561490Y-111387779D01*
X119564067Y-111392661D01*
X119566836Y-111397314D01*
X119569797Y-111401735D01*
X119572948Y-111405923D01*
X119576285Y-111409874D01*
X119579809Y-111413586D01*
X119583516Y-111417058D01*
X119587404Y-111420287D01*
X119591473Y-111423270D01*
X119595719Y-111426006D01*
X119600141Y-111428493D01*
X119604737Y-111430727D01*
X119609505Y-111432707D01*
X119614444Y-111434430D01*
X119619550Y-111435894D01*
X119624823Y-111437097D01*
X119630261Y-111438037D01*
X119635861Y-111438711D01*
X119641621Y-111439117D01*
X119647540Y-111439253D01*
X119653374Y-111439118D01*
X119659101Y-111438715D01*
X119664715Y-111438049D01*
X119670212Y-111437126D01*
X119675585Y-111435950D01*
X119680831Y-111434527D01*
X119685944Y-111432861D01*
X119690919Y-111430957D01*
X119695751Y-111428820D01*
X119700435Y-111426456D01*
X119704965Y-111423869D01*
X119709337Y-111421064D01*
X119713545Y-111418046D01*
X119717585Y-111414820D01*
X119721451Y-111411391D01*
X119725138Y-111407764D01*
X119728642Y-111403944D01*
X119731956Y-111399936D01*
X119735076Y-111395745D01*
X119737997Y-111391376D01*
X119740713Y-111386833D01*
X119743220Y-111382123D01*
X119745512Y-111377249D01*
X119747585Y-111372217D01*
X119749433Y-111367031D01*
X119751052Y-111361698D01*
X119752435Y-111356220D01*
X119753578Y-111350605D01*
X119754476Y-111344856D01*
X119755124Y-111338978D01*
X119755516Y-111332978D01*
X119755648Y-111326858D01*
X119755648Y-111259802D01*
X119755528Y-111252944D01*
X119755170Y-111246250D01*
X119754578Y-111239724D01*
X119753754Y-111233370D01*
X119752702Y-111227191D01*
X119751425Y-111221191D01*
X119749925Y-111215372D01*
X119748207Y-111209740D01*
X119746272Y-111204296D01*
X119744125Y-111199045D01*
X119741769Y-111193990D01*
X119739206Y-111189135D01*
X119736440Y-111184482D01*
X119733474Y-111180036D01*
X119730311Y-111175800D01*
X119726954Y-111171777D01*
X119723406Y-111167971D01*
X119719671Y-111164386D01*
X119715752Y-111161024D01*
X119711651Y-111157889D01*
X119707372Y-111154986D01*
X119702918Y-111152316D01*
X119698292Y-111149885D01*
X119693497Y-111147694D01*
X119688537Y-111145748D01*
X119683415Y-111144051D01*
X119678133Y-111142605D01*
X119672695Y-111141414D01*
X119667104Y-111140482D01*
X119661363Y-111139811D01*
X119655476Y-111139407D01*
X119649445Y-111139271D01*
X119643387Y-111139409D01*
X119637495Y-111139822D01*
X119631770Y-111140508D01*
X119626213Y-111141463D01*
X119620827Y-111142687D01*
X119615613Y-111144176D01*
X119610573Y-111145929D01*
X119605708Y-111147943D01*
X119601022Y-111150216D01*
X119596514Y-111152745D01*
X119592188Y-111155529D01*
X119588044Y-111158565D01*
X119584085Y-111161851D01*
X119580313Y-111165384D01*
X119576729Y-111169162D01*
X119573335Y-111173184D01*
X119570133Y-111177446D01*
X119567124Y-111181947D01*
X119564311Y-111186684D01*
X119561695Y-111191655D01*
X119559279Y-111196857D01*
X119557062Y-111202289D01*
X119555049Y-111207948D01*
X119553240Y-111213832D01*
X119550242Y-111226265D01*
X119548082Y-111239570D01*
X119546776Y-111253729D01*
X119546338Y-111268724D01*
X119475851Y-111268724D01*
X119475851Y-111253992D01*
X119476026Y-111244011D01*
X119476549Y-111234273D01*
X119477414Y-111224784D01*
X119478618Y-111215547D01*
X119480155Y-111206568D01*
X119482023Y-111197852D01*
X119484216Y-111189403D01*
X119486729Y-111181226D01*
X119489560Y-111173327D01*
X119492702Y-111165709D01*
X119496153Y-111158378D01*
X119499907Y-111151338D01*
X119503960Y-111144595D01*
X119508308Y-111138153D01*
X119512946Y-111132017D01*
X119517870Y-111126192D01*
X119523076Y-111120682D01*
X119528559Y-111115493D01*
X119534314Y-111110630D01*
X119540339Y-111106096D01*
X119546627Y-111101898D01*
X119553175Y-111098039D01*
X119559979Y-111094524D01*
X119567034Y-111091360D01*
X119574335Y-111088549D01*
X119581878Y-111086098D01*
X119589659Y-111084010D01*
X119597674Y-111082291D01*
X119605918Y-111080946D01*
X119614387Y-111079979D01*
X119623076Y-111079395D01*
X119631981Y-111079200D01*
X119637478Y-111079282D01*
X119642909Y-111079528D01*
X119648269Y-111079934D01*
X119653553Y-111080499D01*
X119658757Y-111081219D01*
X119663876Y-111082092D01*
X119668906Y-111083115D01*
X119673842Y-111084286D01*
X119678679Y-111085603D01*
X119683413Y-111087062D01*
X119688039Y-111088662D01*
X119692553Y-111090399D01*
X119696949Y-111092271D01*
X119701225Y-111094276D01*
X119705374Y-111096411D01*
X119709392Y-111098674D01*
X119713275Y-111101061D01*
X119717018Y-111103571D01*
X119720617Y-111106200D01*
X119724066Y-111108947D01*
X119727362Y-111111808D01*
X119730499Y-111114782D01*
X119733474Y-111117865D01*
X119736281Y-111121055D01*
X119738915Y-111124349D01*
X119741374Y-111127746D01*
X119743651Y-111131242D01*
X119745742Y-111134834D01*
X119747642Y-111138521D01*
X119749348Y-111142300D01*
X119750854Y-111146167D01*
X119752155Y-111150122D01*
X119755648Y-111150122D01*
X119755648Y-110936182D01*
X119825816Y-110936182D01*
X119825816Y-111259802D01*
X119825816Y-111493125D01*
G37*
G36*
X116965188Y-111078951D02*
G01*
X116972688Y-111079363D01*
X116979869Y-111080035D01*
X116986738Y-111080955D01*
X116993301Y-111082112D01*
X116999567Y-111083494D01*
X117005541Y-111085088D01*
X117011232Y-111086883D01*
X117016645Y-111088867D01*
X117021789Y-111091028D01*
X117026670Y-111093355D01*
X117031296Y-111095835D01*
X117035673Y-111098457D01*
X117039809Y-111101208D01*
X117043710Y-111104078D01*
X117047384Y-111107054D01*
X117050837Y-111110124D01*
X117054078Y-111113276D01*
X117057112Y-111116499D01*
X117059948Y-111119780D01*
X117062591Y-111123109D01*
X117065050Y-111126472D01*
X117069441Y-111133256D01*
X117073178Y-111140039D01*
X117076317Y-111146724D01*
X117078915Y-111153217D01*
X117081029Y-111159424D01*
X117084917Y-111159424D01*
X117084917Y-111085399D01*
X117154292Y-111085399D01*
X117154292Y-111493125D01*
X117084123Y-111493125D01*
X117084123Y-111266009D01*
X117083713Y-111252970D01*
X117083201Y-111246601D01*
X117082483Y-111240344D01*
X117081558Y-111234204D01*
X117080428Y-111228190D01*
X117079090Y-111222309D01*
X117077546Y-111216568D01*
X117075795Y-111210975D01*
X117073836Y-111205537D01*
X117071668Y-111200261D01*
X117069293Y-111195155D01*
X117066709Y-111190226D01*
X117063916Y-111185482D01*
X117060913Y-111180930D01*
X117057701Y-111176576D01*
X117054279Y-111172430D01*
X117050647Y-111168497D01*
X117046804Y-111164786D01*
X117042750Y-111161304D01*
X117038485Y-111158058D01*
X117034008Y-111155055D01*
X117029319Y-111152304D01*
X117024418Y-111149810D01*
X117019304Y-111147583D01*
X117013977Y-111145628D01*
X117008437Y-111143954D01*
X117002683Y-111142568D01*
X116996715Y-111141477D01*
X116990533Y-111140689D01*
X116984136Y-111140210D01*
X116977524Y-111140049D01*
X116972396Y-111140145D01*
X116967401Y-111140434D01*
X116962543Y-111140916D01*
X116957821Y-111141589D01*
X116953239Y-111142454D01*
X116948798Y-111143510D01*
X116944500Y-111144758D01*
X116940347Y-111146195D01*
X116936341Y-111147823D01*
X116932484Y-111149641D01*
X116928778Y-111151648D01*
X116925224Y-111153844D01*
X116921825Y-111156229D01*
X116918583Y-111158803D01*
X116915499Y-111161564D01*
X116912576Y-111164513D01*
X116909815Y-111167650D01*
X116907218Y-111170974D01*
X116904787Y-111174484D01*
X116902524Y-111178180D01*
X116900432Y-111182063D01*
X116898511Y-111186131D01*
X116896764Y-111190384D01*
X116895193Y-111194823D01*
X116893799Y-111199445D01*
X116892585Y-111204252D01*
X116891553Y-111209243D01*
X116890704Y-111214417D01*
X116890040Y-111219775D01*
X116889563Y-111225315D01*
X116889276Y-111231037D01*
X116889180Y-111236942D01*
X116889180Y-111493125D01*
X116819012Y-111493125D01*
X116819012Y-111214844D01*
X116819175Y-111206406D01*
X116819663Y-111198243D01*
X116820469Y-111190354D01*
X116821587Y-111182739D01*
X116823012Y-111175396D01*
X116824739Y-111168326D01*
X116826763Y-111161528D01*
X116829076Y-111155003D01*
X116831675Y-111148748D01*
X116834553Y-111142764D01*
X116837705Y-111137051D01*
X116841125Y-111131608D01*
X116844808Y-111126435D01*
X116848749Y-111121531D01*
X116852941Y-111116896D01*
X116857379Y-111112529D01*
X116862059Y-111108430D01*
X116866973Y-111104598D01*
X116872117Y-111101034D01*
X116877485Y-111097736D01*
X116883071Y-111094705D01*
X116888871Y-111091939D01*
X116894877Y-111089439D01*
X116901086Y-111087204D01*
X116907492Y-111085234D01*
X116914088Y-111083527D01*
X116920869Y-111082084D01*
X116927830Y-111080905D01*
X116934965Y-111079988D01*
X116942270Y-111079334D01*
X116957362Y-111078811D01*
X116965188Y-111078951D01*
G37*
G36*
X112640156Y-111319103D02*
G01*
X112639943Y-111329851D01*
X112639309Y-111340293D01*
X112638262Y-111350426D01*
X112636810Y-111360248D01*
X112634961Y-111369756D01*
X112632722Y-111378948D01*
X112630103Y-111387823D01*
X112627110Y-111396377D01*
X112623752Y-111404609D01*
X112620036Y-111412516D01*
X112615970Y-111420096D01*
X112611563Y-111427347D01*
X112606822Y-111434266D01*
X112601755Y-111440852D01*
X112596371Y-111447101D01*
X112590676Y-111453012D01*
X112584679Y-111458582D01*
X112578389Y-111463809D01*
X112571811Y-111468691D01*
X112564956Y-111473226D01*
X112557830Y-111477411D01*
X112550442Y-111481243D01*
X112542799Y-111484722D01*
X112534910Y-111487844D01*
X112526782Y-111490607D01*
X112518423Y-111493010D01*
X112509841Y-111495048D01*
X112501044Y-111496722D01*
X112492041Y-111498027D01*
X112482838Y-111498962D01*
X112473444Y-111499525D01*
X112463866Y-111499713D01*
X112454457Y-111499522D01*
X112445212Y-111498949D01*
X112436139Y-111497999D01*
X112427247Y-111496674D01*
X112418546Y-111494976D01*
X112410044Y-111492910D01*
X112401751Y-111490476D01*
X112393674Y-111487680D01*
X112385822Y-111484523D01*
X112378205Y-111481008D01*
X112370832Y-111477139D01*
X112363711Y-111472918D01*
X112356851Y-111468348D01*
X112350261Y-111463432D01*
X112343949Y-111458173D01*
X112337926Y-111452574D01*
X112332199Y-111446638D01*
X112326777Y-111440367D01*
X112321670Y-111433765D01*
X112316885Y-111426834D01*
X112312432Y-111419578D01*
X112308321Y-111411999D01*
X112304558Y-111404101D01*
X112301155Y-111395885D01*
X112298118Y-111387356D01*
X112295458Y-111378515D01*
X112293182Y-111369367D01*
X112291301Y-111359913D01*
X112289822Y-111350156D01*
X112288755Y-111340101D01*
X112288108Y-111329749D01*
X112287891Y-111319103D01*
X112287891Y-111264842D01*
X112358455Y-111264842D01*
X112358455Y-111314063D01*
X112358565Y-111321075D01*
X112358893Y-111327937D01*
X112359439Y-111334644D01*
X112360200Y-111341192D01*
X112361176Y-111347575D01*
X112362364Y-111353789D01*
X112363765Y-111359829D01*
X112365375Y-111365690D01*
X112367195Y-111371368D01*
X112369221Y-111376858D01*
X112371454Y-111382155D01*
X112373892Y-111387255D01*
X112376533Y-111392151D01*
X112379375Y-111396841D01*
X112382418Y-111401319D01*
X112385660Y-111405580D01*
X112389100Y-111409620D01*
X112392736Y-111413433D01*
X112396567Y-111417016D01*
X112400591Y-111420363D01*
X112404808Y-111423469D01*
X112409215Y-111426330D01*
X112413812Y-111428942D01*
X112418596Y-111431298D01*
X112423567Y-111433395D01*
X112428723Y-111435228D01*
X112434063Y-111436792D01*
X112439585Y-111438083D01*
X112445288Y-111439095D01*
X112451170Y-111439823D01*
X112457231Y-111440264D01*
X112463468Y-111440412D01*
X112469773Y-111440264D01*
X112475902Y-111439823D01*
X112481853Y-111439095D01*
X112487625Y-111438083D01*
X112493216Y-111436792D01*
X112498625Y-111435228D01*
X112503850Y-111433395D01*
X112508889Y-111431298D01*
X112513742Y-111428942D01*
X112518405Y-111426330D01*
X112522879Y-111423469D01*
X112527161Y-111420363D01*
X112531249Y-111417016D01*
X112535142Y-111413433D01*
X112538838Y-111409620D01*
X112542337Y-111405580D01*
X112545635Y-111401319D01*
X112548733Y-111396841D01*
X112551627Y-111392151D01*
X112554317Y-111387255D01*
X112556801Y-111382155D01*
X112559077Y-111376858D01*
X112561144Y-111371368D01*
X112563000Y-111365690D01*
X112566073Y-111353789D01*
X112568284Y-111341192D01*
X112569620Y-111327937D01*
X112570068Y-111314063D01*
X112570068Y-111264842D01*
X112569948Y-111257933D01*
X112569590Y-111251160D01*
X112568997Y-111244530D01*
X112568173Y-111238048D01*
X112567120Y-111231720D01*
X112565841Y-111225550D01*
X112564340Y-111219544D01*
X112562620Y-111213707D01*
X112560683Y-111208045D01*
X112558533Y-111202564D01*
X112556173Y-111197268D01*
X112553605Y-111192163D01*
X112550833Y-111187255D01*
X112547860Y-111182548D01*
X112544690Y-111178049D01*
X112541324Y-111173763D01*
X112537767Y-111169694D01*
X112534020Y-111165849D01*
X112530088Y-111162232D01*
X112525974Y-111158850D01*
X112521679Y-111155707D01*
X112517209Y-111152810D01*
X112512565Y-111150162D01*
X112507750Y-111147771D01*
X112502768Y-111145640D01*
X112497622Y-111143777D01*
X112492315Y-111142185D01*
X112486849Y-111140870D01*
X112481229Y-111139838D01*
X112475457Y-111139095D01*
X112469535Y-111138644D01*
X112463468Y-111138493D01*
X112457405Y-111138644D01*
X112451497Y-111139095D01*
X112445746Y-111139838D01*
X112440154Y-111140870D01*
X112434725Y-111142185D01*
X112429460Y-111143777D01*
X112424362Y-111145640D01*
X112419433Y-111147771D01*
X112414677Y-111150162D01*
X112410094Y-111152810D01*
X112405689Y-111155707D01*
X112401464Y-111158850D01*
X112397420Y-111162232D01*
X112393560Y-111165849D01*
X112389888Y-111169694D01*
X112386405Y-111173763D01*
X112383113Y-111178049D01*
X112380016Y-111182548D01*
X112377116Y-111187255D01*
X112374415Y-111192163D01*
X112371916Y-111197268D01*
X112369621Y-111202564D01*
X112367533Y-111208045D01*
X112365654Y-111213707D01*
X112362534Y-111225550D01*
X112360281Y-111238048D01*
X112358915Y-111251160D01*
X112358455Y-111264842D01*
X112287891Y-111264842D01*
X112287891Y-111258643D01*
X112288108Y-111248136D01*
X112288755Y-111237909D01*
X112289822Y-111227966D01*
X112291301Y-111218311D01*
X112293182Y-111208947D01*
X112295458Y-111199877D01*
X112298118Y-111191106D01*
X112301155Y-111182635D01*
X112304558Y-111174470D01*
X112308321Y-111166613D01*
X112312432Y-111159068D01*
X112316885Y-111151838D01*
X112321670Y-111144927D01*
X112326777Y-111138338D01*
X112332199Y-111132075D01*
X112337926Y-111126141D01*
X112343949Y-111120540D01*
X112350261Y-111115275D01*
X112356851Y-111110350D01*
X112363711Y-111105768D01*
X112370832Y-111101532D01*
X112378205Y-111097647D01*
X112385822Y-111094115D01*
X112393674Y-111090940D01*
X112401751Y-111088126D01*
X112410044Y-111085675D01*
X112418546Y-111083592D01*
X112427247Y-111081880D01*
X112436139Y-111080543D01*
X112445212Y-111079583D01*
X112454457Y-111079005D01*
X112463866Y-111078811D01*
X112473339Y-111079016D01*
X112482642Y-111079626D01*
X112491766Y-111080636D01*
X112500703Y-111082040D01*
X112509444Y-111083834D01*
X112517981Y-111086011D01*
X112526305Y-111088565D01*
X112534408Y-111091492D01*
X112542280Y-111094786D01*
X112549915Y-111098441D01*
X112557302Y-111102451D01*
X112564433Y-111106812D01*
X112571300Y-111111517D01*
X112577894Y-111116562D01*
X112584207Y-111121940D01*
X112590230Y-111127646D01*
X112595954Y-111133674D01*
X112601371Y-111140019D01*
X112606472Y-111146676D01*
X112611249Y-111153639D01*
X112615693Y-111160902D01*
X112619796Y-111168459D01*
X112623549Y-111176306D01*
X112626943Y-111184437D01*
X112629969Y-111192846D01*
X112632620Y-111201527D01*
X112634887Y-111210476D01*
X112636761Y-111219686D01*
X112638233Y-111229152D01*
X112639296Y-111238869D01*
X112639939Y-111248831D01*
X112640156Y-111259032D01*
X112640156Y-111264842D01*
X112640156Y-111319103D01*
G37*
G36*
X120910000Y-108675312D02*
G01*
X117734999Y-108675312D01*
X117953281Y-109012656D01*
X120334531Y-109012656D01*
X120711562Y-109687344D01*
X118330312Y-109687344D01*
X118528750Y-110024687D01*
X121703748Y-110024687D01*
X122100625Y-110699375D01*
X117338125Y-110699375D01*
X115750623Y-108000625D01*
X120513123Y-108000625D01*
X120910000Y-108675312D01*
G37*
G36*
X122358629Y-111079250D02*
G01*
X122373172Y-111080578D01*
X122387361Y-111082814D01*
X122394292Y-111084278D01*
X122401099Y-111085975D01*
X122407770Y-111087907D01*
X122414291Y-111090077D01*
X122420652Y-111092488D01*
X122426840Y-111095140D01*
X122432844Y-111098037D01*
X122438651Y-111101181D01*
X122444249Y-111104573D01*
X122449626Y-111108217D01*
X122454771Y-111112113D01*
X122459671Y-111116265D01*
X122464314Y-111120675D01*
X122468688Y-111125344D01*
X122472781Y-111130276D01*
X122476582Y-111135472D01*
X122480077Y-111140934D01*
X122483256Y-111146664D01*
X122486105Y-111152666D01*
X122488614Y-111158941D01*
X122490770Y-111165491D01*
X122492560Y-111172318D01*
X122493974Y-111179425D01*
X122494999Y-111186814D01*
X122495622Y-111194486D01*
X122495833Y-111202446D01*
X122495654Y-111209785D01*
X122495122Y-111216767D01*
X122494246Y-111223403D01*
X122493034Y-111229706D01*
X122491496Y-111235685D01*
X122489640Y-111241352D01*
X122487475Y-111246717D01*
X122485009Y-111251793D01*
X122482251Y-111256591D01*
X122479210Y-111261120D01*
X122475894Y-111265394D01*
X122472313Y-111269422D01*
X122468474Y-111273215D01*
X122464386Y-111276786D01*
X122460059Y-111280145D01*
X122455500Y-111283303D01*
X122445724Y-111289061D01*
X122435127Y-111294150D01*
X122423778Y-111298659D01*
X122411748Y-111302677D01*
X122399105Y-111306293D01*
X122385919Y-111309595D01*
X122358195Y-111315618D01*
X122337568Y-111319783D01*
X122327775Y-111321915D01*
X122318396Y-111324157D01*
X122309481Y-111326567D01*
X122301079Y-111329203D01*
X122297086Y-111330623D01*
X122293240Y-111332122D01*
X122289548Y-111333707D01*
X122286015Y-111335384D01*
X122282648Y-111337161D01*
X122279453Y-111339045D01*
X122276436Y-111341044D01*
X122273604Y-111343164D01*
X122270962Y-111345413D01*
X122268518Y-111347798D01*
X122266276Y-111350327D01*
X122264245Y-111353006D01*
X122262428Y-111355843D01*
X122260834Y-111358845D01*
X122259468Y-111362020D01*
X122258336Y-111365374D01*
X122257445Y-111368914D01*
X122256801Y-111372649D01*
X122256410Y-111376585D01*
X122256278Y-111380730D01*
X122256590Y-111387264D01*
X122257536Y-111393620D01*
X122259135Y-111399763D01*
X122260183Y-111402744D01*
X122261402Y-111405660D01*
X122262792Y-111408506D01*
X122264355Y-111411278D01*
X122266094Y-111413972D01*
X122268011Y-111416583D01*
X122270108Y-111419108D01*
X122272388Y-111421542D01*
X122274851Y-111423882D01*
X122277502Y-111426122D01*
X122280340Y-111428258D01*
X122283370Y-111430288D01*
X122286592Y-111432205D01*
X122290009Y-111434007D01*
X122293624Y-111435688D01*
X122297437Y-111437246D01*
X122301453Y-111438674D01*
X122305671Y-111439971D01*
X122310096Y-111441130D01*
X122314728Y-111442149D01*
X122324624Y-111443746D01*
X122335377Y-111444728D01*
X122347005Y-111445063D01*
X122352248Y-111444997D01*
X122357307Y-111444798D01*
X122362186Y-111444468D01*
X122366885Y-111444010D01*
X122371407Y-111443426D01*
X122375755Y-111442715D01*
X122379930Y-111441882D01*
X122383935Y-111440927D01*
X122387771Y-111439852D01*
X122391442Y-111438660D01*
X122394948Y-111437351D01*
X122398293Y-111435927D01*
X122401478Y-111434391D01*
X122404506Y-111432744D01*
X122407378Y-111430988D01*
X122410097Y-111429124D01*
X122412666Y-111427155D01*
X122415085Y-111425082D01*
X122417359Y-111422906D01*
X122419487Y-111420631D01*
X122421474Y-111418257D01*
X122423320Y-111415787D01*
X122425028Y-111413221D01*
X122426601Y-111410562D01*
X122428040Y-111407812D01*
X122429348Y-111404973D01*
X122430526Y-111402045D01*
X122431577Y-111399031D01*
X122432503Y-111395933D01*
X122433307Y-111392753D01*
X122433990Y-111389492D01*
X122434554Y-111386151D01*
X122503134Y-111386151D01*
X122502952Y-111392888D01*
X122502411Y-111399435D01*
X122501517Y-111405790D01*
X122500276Y-111411951D01*
X122498695Y-111417919D01*
X122496779Y-111423689D01*
X122494535Y-111429262D01*
X122491970Y-111434636D01*
X122489088Y-111439808D01*
X122485898Y-111444778D01*
X122482404Y-111449544D01*
X122478614Y-111454104D01*
X122474533Y-111458457D01*
X122470168Y-111462601D01*
X122465524Y-111466535D01*
X122460609Y-111470257D01*
X122455428Y-111473765D01*
X122449988Y-111477059D01*
X122444295Y-111480136D01*
X122438355Y-111482994D01*
X122425760Y-111488051D01*
X122412252Y-111492216D01*
X122397882Y-111495477D01*
X122382700Y-111497822D01*
X122366756Y-111499238D01*
X122350099Y-111499713D01*
X122341035Y-111499578D01*
X122332168Y-111499175D01*
X122323505Y-111498506D01*
X122315050Y-111497573D01*
X122306810Y-111496378D01*
X122298791Y-111494923D01*
X122290999Y-111493210D01*
X122283440Y-111491241D01*
X122276119Y-111489019D01*
X122269043Y-111486545D01*
X122262218Y-111483821D01*
X122255649Y-111480849D01*
X122249343Y-111477632D01*
X122243305Y-111474172D01*
X122237542Y-111470470D01*
X122232059Y-111466528D01*
X122226862Y-111462349D01*
X122221957Y-111457935D01*
X122217351Y-111453288D01*
X122213048Y-111448410D01*
X122209056Y-111443302D01*
X122205380Y-111437968D01*
X122202025Y-111432408D01*
X122198999Y-111426626D01*
X122196306Y-111420622D01*
X122193953Y-111414400D01*
X122191946Y-111407961D01*
X122190290Y-111401307D01*
X122188992Y-111394441D01*
X122188057Y-111387364D01*
X122187492Y-111380078D01*
X122187302Y-111372586D01*
X122187486Y-111365307D01*
X122188031Y-111358359D01*
X122188927Y-111351733D01*
X122190166Y-111345421D01*
X122191739Y-111339412D01*
X122193637Y-111333698D01*
X122195849Y-111328270D01*
X122198368Y-111323119D01*
X122201183Y-111318235D01*
X122204287Y-111313609D01*
X122207669Y-111309232D01*
X122211320Y-111305095D01*
X122215232Y-111301189D01*
X122219395Y-111297504D01*
X122223801Y-111294032D01*
X122228438Y-111290763D01*
X122238376Y-111284799D01*
X122249136Y-111279538D01*
X122260643Y-111274907D01*
X122272826Y-111270833D01*
X122285611Y-111267243D01*
X122298924Y-111264063D01*
X122312692Y-111261221D01*
X122326842Y-111258643D01*
X122344428Y-111255468D01*
X122353300Y-111253799D01*
X122362099Y-111251989D01*
X122370732Y-111249972D01*
X122379105Y-111247683D01*
X122383165Y-111246416D01*
X122387125Y-111245057D01*
X122390974Y-111243597D01*
X122394699Y-111242028D01*
X122398289Y-111240342D01*
X122401732Y-111238531D01*
X122405016Y-111236587D01*
X122408130Y-111234501D01*
X122411063Y-111232266D01*
X122413802Y-111229873D01*
X122416335Y-111227314D01*
X122418652Y-111224581D01*
X122420739Y-111221666D01*
X122422587Y-111218560D01*
X122424182Y-111215255D01*
X122425513Y-111211744D01*
X122426569Y-111208018D01*
X122427338Y-111204069D01*
X122427808Y-111199888D01*
X122427967Y-111195469D01*
X122427868Y-111191814D01*
X122427572Y-111188262D01*
X122427084Y-111184815D01*
X122426407Y-111181471D01*
X122425546Y-111178234D01*
X122424503Y-111175103D01*
X122423283Y-111172079D01*
X122421890Y-111169163D01*
X122420327Y-111166356D01*
X122418598Y-111163659D01*
X122416706Y-111161073D01*
X122414656Y-111158598D01*
X122412452Y-111156236D01*
X122410097Y-111153987D01*
X122407594Y-111151852D01*
X122404948Y-111149832D01*
X122402163Y-111147928D01*
X122399242Y-111146140D01*
X122396189Y-111144470D01*
X122393008Y-111142918D01*
X122386276Y-111140173D01*
X122379077Y-111137912D01*
X122371441Y-111136142D01*
X122363397Y-111134868D01*
X122354977Y-111134099D01*
X122346210Y-111133842D01*
X122341166Y-111133930D01*
X122336287Y-111134192D01*
X122331573Y-111134622D01*
X122327022Y-111135213D01*
X122322634Y-111135959D01*
X122318408Y-111136854D01*
X122314344Y-111137893D01*
X122310440Y-111139069D01*
X122306695Y-111140376D01*
X122303110Y-111141808D01*
X122299683Y-111143359D01*
X122296414Y-111145023D01*
X122293301Y-111146794D01*
X122290343Y-111148666D01*
X122287541Y-111150633D01*
X122284893Y-111152689D01*
X122282399Y-111154828D01*
X122280057Y-111157044D01*
X122277867Y-111159331D01*
X122275829Y-111161682D01*
X122273940Y-111164092D01*
X122272202Y-111166555D01*
X122270612Y-111169064D01*
X122269170Y-111171615D01*
X122267875Y-111174199D01*
X122266727Y-111176813D01*
X122265724Y-111179448D01*
X122264866Y-111182101D01*
X122264152Y-111184763D01*
X122263582Y-111187431D01*
X122263154Y-111190096D01*
X122262868Y-111192754D01*
X122197778Y-111192754D01*
X122197948Y-111186392D01*
X122198452Y-111180170D01*
X122199287Y-111174093D01*
X122200447Y-111168164D01*
X122201926Y-111162387D01*
X122203720Y-111156767D01*
X122205823Y-111151307D01*
X122208231Y-111146012D01*
X122210937Y-111140885D01*
X122213938Y-111135931D01*
X122217227Y-111131154D01*
X122220800Y-111126557D01*
X122224651Y-111122145D01*
X122228775Y-111117922D01*
X122233168Y-111113892D01*
X122237823Y-111110059D01*
X122242735Y-111106427D01*
X122247901Y-111103000D01*
X122253313Y-111099782D01*
X122258968Y-111096777D01*
X122264860Y-111093989D01*
X122270983Y-111091422D01*
X122283905Y-111086968D01*
X122297691Y-111083448D01*
X122312302Y-111080894D01*
X122327694Y-111079337D01*
X122343828Y-111078811D01*
X122358629Y-111079250D01*
G37*
G36*
X118081313Y-111424521D02*
G01*
X118084408Y-111424521D01*
X118192200Y-111085399D01*
X118270065Y-111085399D01*
X118120443Y-111498554D01*
X118124730Y-111513667D01*
X118127187Y-111521989D01*
X118129923Y-111529672D01*
X118132956Y-111536729D01*
X118134588Y-111540028D01*
X118136300Y-111543175D01*
X118138094Y-111546173D01*
X118139971Y-111549023D01*
X118141935Y-111551728D01*
X118143986Y-111554289D01*
X118146127Y-111556707D01*
X118148359Y-111558986D01*
X118150686Y-111561125D01*
X118153108Y-111563128D01*
X118155628Y-111564995D01*
X118158247Y-111566729D01*
X118160968Y-111568332D01*
X118163792Y-111569805D01*
X118166722Y-111571150D01*
X118169760Y-111572368D01*
X118172907Y-111573462D01*
X118176166Y-111574434D01*
X118179538Y-111575284D01*
X118183026Y-111576016D01*
X118190355Y-111577128D01*
X118198170Y-111577785D01*
X118206486Y-111578001D01*
X118209862Y-111577949D01*
X118213728Y-111577807D01*
X118217890Y-111577593D01*
X118222154Y-111577324D01*
X118230207Y-111576695D01*
X118233608Y-111576370D01*
X118236333Y-111576064D01*
X118236333Y-111632650D01*
X118232217Y-111633468D01*
X118227532Y-111634177D01*
X118222433Y-111634777D01*
X118217073Y-111635269D01*
X118211605Y-111635651D01*
X118206183Y-111635924D01*
X118200959Y-111636088D01*
X118196088Y-111636143D01*
X118183128Y-111635747D01*
X118170836Y-111634541D01*
X118159181Y-111632494D01*
X118153582Y-111631146D01*
X118148132Y-111629577D01*
X118142825Y-111627784D01*
X118137657Y-111625761D01*
X118132626Y-111623507D01*
X118127727Y-111621016D01*
X118122956Y-111618287D01*
X118118309Y-111615313D01*
X118113782Y-111612093D01*
X118109372Y-111608622D01*
X118105074Y-111604897D01*
X118100885Y-111600914D01*
X118096801Y-111596669D01*
X118092818Y-111592159D01*
X118088931Y-111587380D01*
X118085138Y-111582328D01*
X118077815Y-111571390D01*
X118070818Y-111559318D01*
X118064115Y-111546080D01*
X118057675Y-111531648D01*
X118051467Y-111515993D01*
X118042976Y-111493903D01*
X117898748Y-111085399D01*
X117973203Y-111085399D01*
X118081313Y-111424521D01*
G37*
G36*
X113195940Y-111086558D02*
G01*
X113258725Y-111086558D01*
X113258725Y-111143533D01*
X113196339Y-111143533D01*
X113196339Y-111378793D01*
X113196081Y-111393401D01*
X113195252Y-111407000D01*
X113193773Y-111419600D01*
X113192764Y-111425529D01*
X113191562Y-111431211D01*
X113190157Y-111436647D01*
X113188539Y-111441840D01*
X113186697Y-111446789D01*
X113184622Y-111451497D01*
X113182304Y-111455963D01*
X113179732Y-111460191D01*
X113176896Y-111464180D01*
X113173786Y-111467931D01*
X113170392Y-111471447D01*
X113166704Y-111474727D01*
X113162712Y-111477773D01*
X113158406Y-111480587D01*
X113153776Y-111483169D01*
X113148811Y-111485521D01*
X113143501Y-111487643D01*
X113137837Y-111489537D01*
X113131808Y-111491204D01*
X113125404Y-111492645D01*
X113118616Y-111493861D01*
X113111432Y-111494853D01*
X113103843Y-111495623D01*
X113095839Y-111496172D01*
X113078545Y-111496609D01*
X113072189Y-111496523D01*
X113065015Y-111496283D01*
X113057447Y-111495915D01*
X113049909Y-111495448D01*
X113042825Y-111494908D01*
X113036619Y-111494322D01*
X113031716Y-111493719D01*
X113029885Y-111493419D01*
X113028538Y-111493125D01*
X113028538Y-111436927D01*
X113034923Y-111437558D01*
X113043302Y-111438187D01*
X113047821Y-111438456D01*
X113052336Y-111438671D01*
X113056680Y-111438813D01*
X113060685Y-111438864D01*
X113069600Y-111438713D01*
X113077759Y-111438237D01*
X113085187Y-111437403D01*
X113088634Y-111436841D01*
X113091908Y-111436176D01*
X113095012Y-111435404D01*
X113097948Y-111434522D01*
X113100720Y-111433524D01*
X113103332Y-111432407D01*
X113105785Y-111431165D01*
X113108084Y-111429796D01*
X113110231Y-111428295D01*
X113112229Y-111426657D01*
X113114083Y-111424878D01*
X113115794Y-111422955D01*
X113117366Y-111420881D01*
X113118802Y-111418655D01*
X113120105Y-111416270D01*
X113121278Y-111413724D01*
X113122325Y-111411010D01*
X113123249Y-111408127D01*
X113124052Y-111405068D01*
X113124738Y-111401831D01*
X113125309Y-111398410D01*
X113125770Y-111394801D01*
X113126371Y-111387003D01*
X113126566Y-111378404D01*
X113126566Y-111143533D01*
X113034331Y-111143533D01*
X113034331Y-111086558D01*
X113126566Y-111086558D01*
X113126566Y-110984244D01*
X113195940Y-110984244D01*
X113195940Y-111086558D01*
G37*
G36*
X120930398Y-111258254D02*
G01*
X120930398Y-111320270D01*
X120930209Y-111330469D01*
X120929644Y-111340424D01*
X120928706Y-111350130D01*
X120927401Y-111359582D01*
X120925730Y-111368775D01*
X120923698Y-111377703D01*
X120921308Y-111386361D01*
X120918565Y-111394743D01*
X120915471Y-111402846D01*
X120912030Y-111410662D01*
X120908247Y-111418188D01*
X120904124Y-111425417D01*
X120899665Y-111432345D01*
X120894874Y-111438966D01*
X120889755Y-111445275D01*
X120884311Y-111451267D01*
X120878546Y-111456937D01*
X120872463Y-111462279D01*
X120866067Y-111467288D01*
X120859360Y-111471958D01*
X120852347Y-111476285D01*
X120845030Y-111480264D01*
X120837415Y-111483888D01*
X120829504Y-111487154D01*
X120821301Y-111490054D01*
X120812809Y-111492585D01*
X120804033Y-111494741D01*
X120794976Y-111496517D01*
X120785642Y-111497907D01*
X120776033Y-111498907D01*
X120766155Y-111499511D01*
X120756010Y-111499713D01*
X120746502Y-111499528D01*
X120737306Y-111498984D01*
X120728423Y-111498096D01*
X120719850Y-111496880D01*
X120711584Y-111495351D01*
X120703624Y-111493525D01*
X120695968Y-111491417D01*
X120688613Y-111489042D01*
X120681559Y-111486417D01*
X120674802Y-111483556D01*
X120668340Y-111480475D01*
X120662173Y-111477189D01*
X120656297Y-111473715D01*
X120650711Y-111470067D01*
X120645413Y-111466260D01*
X120640400Y-111462311D01*
X120635672Y-111458235D01*
X120631225Y-111454048D01*
X120627057Y-111449764D01*
X120623167Y-111445399D01*
X120619553Y-111440969D01*
X120616213Y-111436490D01*
X120613144Y-111431976D01*
X120610345Y-111427443D01*
X120607814Y-111422907D01*
X120605548Y-111418382D01*
X120603546Y-111413886D01*
X120601806Y-111409432D01*
X120600325Y-111405037D01*
X120599102Y-111400716D01*
X120598134Y-111396485D01*
X120597420Y-111392358D01*
X120669573Y-111392358D01*
X120671175Y-111397050D01*
X120673353Y-111401656D01*
X120676091Y-111406148D01*
X120679377Y-111410495D01*
X120683196Y-111414667D01*
X120687534Y-111418634D01*
X120692377Y-111422366D01*
X120697710Y-111425833D01*
X120703519Y-111429004D01*
X120709791Y-111431850D01*
X120716510Y-111434341D01*
X120723663Y-111436446D01*
X120731236Y-111438136D01*
X120739213Y-111439380D01*
X120747583Y-111440149D01*
X120756329Y-111440412D01*
X120762599Y-111440269D01*
X120768684Y-111439844D01*
X120774583Y-111439143D01*
X120780295Y-111438173D01*
X120785819Y-111436941D01*
X120791155Y-111435453D01*
X120796301Y-111433715D01*
X120801256Y-111431734D01*
X120806020Y-111429516D01*
X120810591Y-111427068D01*
X120814969Y-111424396D01*
X120819153Y-111421507D01*
X120823142Y-111418406D01*
X120826935Y-111415102D01*
X120830530Y-111411599D01*
X120833928Y-111407905D01*
X120837127Y-111404025D01*
X120840126Y-111399968D01*
X120842924Y-111395737D01*
X120845521Y-111391342D01*
X120847916Y-111386786D01*
X120850106Y-111382079D01*
X120852093Y-111377224D01*
X120853875Y-111372230D01*
X120855450Y-111367103D01*
X120856818Y-111361848D01*
X120857978Y-111356473D01*
X120858930Y-111350984D01*
X120860202Y-111339690D01*
X120860628Y-111328017D01*
X120860628Y-111307475D01*
X120592021Y-111307475D01*
X120592021Y-111258254D01*
X120592186Y-111250118D01*
X120661793Y-111250118D01*
X120661793Y-111256706D01*
X120860628Y-111256706D01*
X120860628Y-111250118D01*
X120860511Y-111243828D01*
X120860165Y-111237679D01*
X120859592Y-111231673D01*
X120858796Y-111225815D01*
X120857780Y-111220109D01*
X120856550Y-111214559D01*
X120855107Y-111209169D01*
X120853457Y-111203942D01*
X120851602Y-111198883D01*
X120849546Y-111193995D01*
X120847293Y-111189283D01*
X120844847Y-111184749D01*
X120842211Y-111180399D01*
X120839390Y-111176236D01*
X120836386Y-111172264D01*
X120833203Y-111168486D01*
X120829846Y-111164907D01*
X120826318Y-111161531D01*
X120822622Y-111158361D01*
X120818762Y-111155402D01*
X120814742Y-111152657D01*
X120810565Y-111150130D01*
X120806236Y-111147826D01*
X120801758Y-111145747D01*
X120797135Y-111143898D01*
X120792370Y-111142283D01*
X120787467Y-111140906D01*
X120782429Y-111139771D01*
X120777262Y-111138881D01*
X120771967Y-111138240D01*
X120766549Y-111137853D01*
X120761011Y-111137723D01*
X120755475Y-111137853D01*
X120750061Y-111138240D01*
X120744771Y-111138881D01*
X120739611Y-111139771D01*
X120734582Y-111140906D01*
X120729690Y-111142283D01*
X120724937Y-111143898D01*
X120720327Y-111145747D01*
X120715863Y-111147826D01*
X120711550Y-111150130D01*
X120707390Y-111152657D01*
X120703387Y-111155402D01*
X120699545Y-111158361D01*
X120695867Y-111161531D01*
X120692357Y-111164907D01*
X120689019Y-111168486D01*
X120685855Y-111172264D01*
X120682869Y-111176236D01*
X120680066Y-111180399D01*
X120677448Y-111184749D01*
X120675019Y-111189283D01*
X120672783Y-111193995D01*
X120670743Y-111198883D01*
X120668902Y-111203942D01*
X120667265Y-111209169D01*
X120665835Y-111214559D01*
X120664615Y-111220109D01*
X120663609Y-111225815D01*
X120662820Y-111231673D01*
X120662252Y-111237679D01*
X120661909Y-111243828D01*
X120661793Y-111250118D01*
X120592186Y-111250118D01*
X120592227Y-111248089D01*
X120592838Y-111238164D01*
X120593847Y-111228484D01*
X120595246Y-111219053D01*
X120597028Y-111209879D01*
X120599185Y-111200966D01*
X120601708Y-111192319D01*
X120604591Y-111183945D01*
X120607826Y-111175848D01*
X120611404Y-111168034D01*
X120615318Y-111160509D01*
X120619560Y-111153278D01*
X120624123Y-111146346D01*
X120628998Y-111139719D01*
X120634179Y-111133403D01*
X120639657Y-111127402D01*
X120645424Y-111121723D01*
X120651473Y-111116371D01*
X120657797Y-111111351D01*
X120664386Y-111106668D01*
X120671234Y-111102329D01*
X120678333Y-111098339D01*
X120685674Y-111094702D01*
X120693251Y-111091425D01*
X120701056Y-111088513D01*
X120709080Y-111085972D01*
X120717316Y-111083807D01*
X120725757Y-111082023D01*
X120734394Y-111080626D01*
X120743220Y-111079621D01*
X120752227Y-111079015D01*
X120761407Y-111078811D01*
X120770482Y-111079011D01*
X120779395Y-111079608D01*
X120788137Y-111080598D01*
X120796700Y-111081975D01*
X120805077Y-111083735D01*
X120813258Y-111085872D01*
X120821236Y-111088383D01*
X120829002Y-111091261D01*
X120836547Y-111094503D01*
X120843865Y-111098104D01*
X120850946Y-111102058D01*
X120857783Y-111106361D01*
X120864366Y-111111008D01*
X120870688Y-111115994D01*
X120876741Y-111121315D01*
X120882515Y-111126965D01*
X120888004Y-111132940D01*
X120893199Y-111139235D01*
X120898090Y-111145845D01*
X120902672Y-111152765D01*
X120906934Y-111159991D01*
X120910868Y-111167517D01*
X120914467Y-111175339D01*
X120917723Y-111183453D01*
X120920626Y-111191852D01*
X120923169Y-111200533D01*
X120925343Y-111209490D01*
X120927141Y-111218718D01*
X120928553Y-111228214D01*
X120929573Y-111237972D01*
X120930190Y-111247987D01*
X120930233Y-111250118D01*
X120930398Y-111258254D01*
G37*
G36*
X118753777Y-111493125D02*
G01*
X118581692Y-111493125D01*
X118567455Y-111492856D01*
X118553661Y-111492051D01*
X118540310Y-111490712D01*
X118527403Y-111488840D01*
X118514941Y-111486439D01*
X118502924Y-111483509D01*
X118491353Y-111480053D01*
X118480228Y-111476072D01*
X118469550Y-111471569D01*
X118459321Y-111466546D01*
X118449539Y-111461004D01*
X118440206Y-111454946D01*
X118431323Y-111448374D01*
X118422890Y-111441289D01*
X118414907Y-111433694D01*
X118407376Y-111425591D01*
X118400296Y-111416981D01*
X118393669Y-111407866D01*
X118387495Y-111398249D01*
X118381774Y-111388132D01*
X118376508Y-111377516D01*
X118371696Y-111366404D01*
X118367340Y-111354797D01*
X118363440Y-111342698D01*
X118359997Y-111330108D01*
X118357011Y-111317029D01*
X118354482Y-111303464D01*
X118352412Y-111289414D01*
X118349649Y-111259869D01*
X118348738Y-111228798D01*
X118422784Y-111228798D01*
X118423412Y-111253288D01*
X118424198Y-111264934D01*
X118425299Y-111276182D01*
X118426716Y-111287031D01*
X118428449Y-111297481D01*
X118430500Y-111307534D01*
X118432868Y-111317189D01*
X118435555Y-111326446D01*
X118438562Y-111335307D01*
X118441887Y-111343771D01*
X118445534Y-111351838D01*
X118449501Y-111359509D01*
X118453789Y-111366783D01*
X118458400Y-111373663D01*
X118463334Y-111380146D01*
X118468592Y-111386235D01*
X118474173Y-111391929D01*
X118480079Y-111397228D01*
X118486311Y-111402133D01*
X118492868Y-111406644D01*
X118499752Y-111410761D01*
X118506963Y-111414485D01*
X118514502Y-111417815D01*
X118522370Y-111420753D01*
X118530567Y-111423298D01*
X118539093Y-111425450D01*
X118547950Y-111427211D01*
X118557138Y-111428580D01*
X118566657Y-111429558D01*
X118576509Y-111430144D01*
X118586694Y-111430339D01*
X118682499Y-111430339D01*
X118682499Y-111026487D01*
X118586694Y-111026487D01*
X118576544Y-111026685D01*
X118566723Y-111027277D01*
X118557230Y-111028265D01*
X118548064Y-111029648D01*
X118539226Y-111031426D01*
X118530715Y-111033600D01*
X118522530Y-111036168D01*
X118514670Y-111039132D01*
X118507137Y-111042490D01*
X118499928Y-111046244D01*
X118493045Y-111050393D01*
X118486486Y-111054937D01*
X118480250Y-111059876D01*
X118474338Y-111065211D01*
X118468750Y-111070940D01*
X118463484Y-111077065D01*
X118458540Y-111083585D01*
X118453918Y-111090500D01*
X118449618Y-111097810D01*
X118445639Y-111105515D01*
X118441980Y-111113615D01*
X118438642Y-111122111D01*
X118435623Y-111131001D01*
X118432924Y-111140287D01*
X118428483Y-111160044D01*
X118425315Y-111181382D01*
X118423417Y-111204300D01*
X118422784Y-111228798D01*
X118348738Y-111228798D01*
X118348727Y-111228409D01*
X118348958Y-111212443D01*
X118349649Y-111196955D01*
X118350801Y-111181948D01*
X118352412Y-111167424D01*
X118354482Y-111153383D01*
X118357011Y-111139829D01*
X118359997Y-111126763D01*
X118363440Y-111114186D01*
X118367340Y-111102102D01*
X118371696Y-111090510D01*
X118376508Y-111079414D01*
X118381774Y-111068815D01*
X118387495Y-111058716D01*
X118393669Y-111049117D01*
X118400296Y-111040021D01*
X118407376Y-111031429D01*
X118414907Y-111023344D01*
X118422890Y-111015767D01*
X118431323Y-111008700D01*
X118440206Y-111002146D01*
X118449539Y-110996104D01*
X118459321Y-110990579D01*
X118469550Y-110985571D01*
X118480228Y-110981082D01*
X118491353Y-110977115D01*
X118502924Y-110973671D01*
X118514941Y-110970751D01*
X118527403Y-110968358D01*
X118540310Y-110966494D01*
X118553661Y-110965160D01*
X118567455Y-110964358D01*
X118581692Y-110964090D01*
X118753777Y-110964090D01*
X118753777Y-111430339D01*
X118753777Y-111493125D01*
G37*
G36*
X122931045Y-111258254D02*
G01*
X122931045Y-111320270D01*
X122930856Y-111330469D01*
X122930291Y-111340424D01*
X122929353Y-111350130D01*
X122928048Y-111359582D01*
X122926377Y-111368775D01*
X122924345Y-111377703D01*
X122921955Y-111386361D01*
X122919212Y-111394743D01*
X122916118Y-111402846D01*
X122912677Y-111410662D01*
X122908894Y-111418188D01*
X122904771Y-111425417D01*
X122900312Y-111432345D01*
X122895521Y-111438966D01*
X122890402Y-111445275D01*
X122884958Y-111451267D01*
X122879193Y-111456937D01*
X122873110Y-111462279D01*
X122866714Y-111467288D01*
X122860007Y-111471958D01*
X122852993Y-111476285D01*
X122845677Y-111480264D01*
X122838062Y-111483888D01*
X122830151Y-111487154D01*
X122821948Y-111490054D01*
X122813456Y-111492585D01*
X122804680Y-111494741D01*
X122795623Y-111496517D01*
X122786289Y-111497907D01*
X122776680Y-111498907D01*
X122766802Y-111499511D01*
X122756657Y-111499713D01*
X122747149Y-111499528D01*
X122737954Y-111498984D01*
X122729071Y-111498096D01*
X122720497Y-111496880D01*
X122712232Y-111495351D01*
X122704272Y-111493525D01*
X122696616Y-111491417D01*
X122689262Y-111489042D01*
X122682208Y-111486417D01*
X122675452Y-111483556D01*
X122668992Y-111480475D01*
X122662825Y-111477189D01*
X122656951Y-111473715D01*
X122651366Y-111470067D01*
X122646069Y-111466260D01*
X122641058Y-111462311D01*
X122636331Y-111458235D01*
X122631886Y-111454048D01*
X122627722Y-111449764D01*
X122623834Y-111445399D01*
X122620223Y-111440969D01*
X122616886Y-111436490D01*
X122613821Y-111431976D01*
X122611026Y-111427443D01*
X122608499Y-111422907D01*
X122606238Y-111418382D01*
X122604241Y-111413886D01*
X122602506Y-111409432D01*
X122601032Y-111405037D01*
X122599815Y-111400716D01*
X122598854Y-111396485D01*
X122598148Y-111392358D01*
X122670218Y-111392358D01*
X122671821Y-111397050D01*
X122673999Y-111401656D01*
X122676739Y-111406148D01*
X122680026Y-111410495D01*
X122683847Y-111414667D01*
X122688187Y-111418634D01*
X122693032Y-111422366D01*
X122698368Y-111425833D01*
X122704182Y-111429004D01*
X122710459Y-111431850D01*
X122717184Y-111434341D01*
X122724345Y-111436446D01*
X122731926Y-111438136D01*
X122739915Y-111439380D01*
X122748296Y-111440149D01*
X122757056Y-111440412D01*
X122763319Y-111440269D01*
X122769397Y-111439844D01*
X122775290Y-111439143D01*
X122780996Y-111438173D01*
X122786514Y-111436941D01*
X122791845Y-111435453D01*
X122796986Y-111433715D01*
X122801937Y-111431734D01*
X122806697Y-111429516D01*
X122811264Y-111427068D01*
X122815639Y-111424396D01*
X122819820Y-111421507D01*
X122823806Y-111418406D01*
X122827596Y-111415102D01*
X122831189Y-111411599D01*
X122834585Y-111407905D01*
X122837782Y-111404025D01*
X122840779Y-111399968D01*
X122843577Y-111395737D01*
X122846172Y-111391342D01*
X122848566Y-111386786D01*
X122850756Y-111382079D01*
X122852742Y-111377224D01*
X122854523Y-111372230D01*
X122856098Y-111367103D01*
X122857466Y-111361848D01*
X122858626Y-111356473D01*
X122859577Y-111350984D01*
X122860849Y-111339690D01*
X122861275Y-111328017D01*
X122861275Y-111307475D01*
X122592670Y-111307475D01*
X122592670Y-111258254D01*
X122592835Y-111250118D01*
X122662440Y-111250118D01*
X122662440Y-111256706D01*
X122861275Y-111256706D01*
X122861275Y-111250118D01*
X122861158Y-111243828D01*
X122860812Y-111237679D01*
X122860239Y-111231673D01*
X122859443Y-111225815D01*
X122858427Y-111220109D01*
X122857197Y-111214559D01*
X122855754Y-111209169D01*
X122854104Y-111203942D01*
X122852249Y-111198883D01*
X122850193Y-111193995D01*
X122847940Y-111189283D01*
X122845494Y-111184749D01*
X122842858Y-111180399D01*
X122840037Y-111176236D01*
X122837033Y-111172264D01*
X122833850Y-111168486D01*
X122830493Y-111164907D01*
X122826964Y-111161531D01*
X122823268Y-111158361D01*
X122819409Y-111155402D01*
X122815389Y-111152657D01*
X122811212Y-111150130D01*
X122806883Y-111147826D01*
X122802405Y-111145747D01*
X122797782Y-111143898D01*
X122793017Y-111142283D01*
X122788114Y-111140906D01*
X122783076Y-111139771D01*
X122777909Y-111138881D01*
X122772614Y-111138240D01*
X122767196Y-111137853D01*
X122761658Y-111137723D01*
X122756122Y-111137853D01*
X122750708Y-111138240D01*
X122745418Y-111138881D01*
X122740258Y-111139771D01*
X122735229Y-111140906D01*
X122730337Y-111142283D01*
X122725584Y-111143898D01*
X122720974Y-111145747D01*
X122716510Y-111147826D01*
X122712197Y-111150130D01*
X122708037Y-111152657D01*
X122704034Y-111155402D01*
X122700192Y-111158361D01*
X122696514Y-111161531D01*
X122693004Y-111164907D01*
X122689666Y-111168486D01*
X122686502Y-111172264D01*
X122683516Y-111176236D01*
X122680713Y-111180399D01*
X122678095Y-111184749D01*
X122675666Y-111189283D01*
X122673430Y-111193995D01*
X122671390Y-111198883D01*
X122669549Y-111203942D01*
X122667912Y-111209169D01*
X122666482Y-111214559D01*
X122665262Y-111220109D01*
X122664256Y-111225815D01*
X122663467Y-111231673D01*
X122662899Y-111237679D01*
X122662556Y-111243828D01*
X122662440Y-111250118D01*
X122592835Y-111250118D01*
X122592876Y-111248089D01*
X122593487Y-111238164D01*
X122594496Y-111228484D01*
X122595895Y-111219053D01*
X122597677Y-111209879D01*
X122599834Y-111200966D01*
X122602357Y-111192319D01*
X122605240Y-111183945D01*
X122608474Y-111175848D01*
X122612052Y-111168034D01*
X122615966Y-111160509D01*
X122620209Y-111153278D01*
X122624771Y-111146346D01*
X122629647Y-111139719D01*
X122634827Y-111133403D01*
X122640305Y-111127402D01*
X122646072Y-111121723D01*
X122652121Y-111116371D01*
X122658444Y-111111351D01*
X122665034Y-111106668D01*
X122671881Y-111102329D01*
X122678980Y-111098339D01*
X122686322Y-111094702D01*
X122693899Y-111091425D01*
X122701703Y-111088513D01*
X122709727Y-111085972D01*
X122717964Y-111083807D01*
X122726404Y-111082023D01*
X122735041Y-111080626D01*
X122743867Y-111079621D01*
X122752874Y-111079015D01*
X122762054Y-111078811D01*
X122771129Y-111079011D01*
X122780042Y-111079608D01*
X122788784Y-111080598D01*
X122797347Y-111081975D01*
X122805724Y-111083735D01*
X122813905Y-111085872D01*
X122821883Y-111088383D01*
X122829649Y-111091261D01*
X122837194Y-111094503D01*
X122844512Y-111098104D01*
X122851593Y-111102058D01*
X122858430Y-111106361D01*
X122865013Y-111111008D01*
X122871335Y-111115994D01*
X122877388Y-111121315D01*
X122883162Y-111126965D01*
X122888651Y-111132940D01*
X122893846Y-111139235D01*
X122898737Y-111145845D01*
X122903319Y-111152765D01*
X122907581Y-111159991D01*
X122911515Y-111167517D01*
X122915114Y-111175339D01*
X122918370Y-111183453D01*
X122921273Y-111191852D01*
X122923816Y-111200533D01*
X122925990Y-111209490D01*
X122927788Y-111218718D01*
X122929200Y-111228214D01*
X122930220Y-111237972D01*
X122930837Y-111247987D01*
X122930880Y-111250118D01*
X122931045Y-111258254D01*
G37*
G36*
X114632761Y-111078951D02*
G01*
X114640267Y-111079363D01*
X114647454Y-111080035D01*
X114654327Y-111080955D01*
X114660894Y-111082112D01*
X114667162Y-111083494D01*
X114673139Y-111085088D01*
X114678831Y-111086883D01*
X114684246Y-111088867D01*
X114689390Y-111091028D01*
X114694271Y-111093355D01*
X114698896Y-111095835D01*
X114703273Y-111098457D01*
X114707407Y-111101208D01*
X114711307Y-111104078D01*
X114714979Y-111107054D01*
X114718430Y-111110124D01*
X114721669Y-111113276D01*
X114724701Y-111116499D01*
X114727534Y-111119780D01*
X114730175Y-111123109D01*
X114732631Y-111126472D01*
X114737018Y-111133256D01*
X114740750Y-111140039D01*
X114743886Y-111146724D01*
X114746482Y-111153217D01*
X114748595Y-111159424D01*
X114752483Y-111159424D01*
X114752483Y-111085399D01*
X114821857Y-111085399D01*
X114821857Y-111493125D01*
X114751691Y-111493125D01*
X114751691Y-111266009D01*
X114751283Y-111252970D01*
X114750771Y-111246601D01*
X114750054Y-111240344D01*
X114749131Y-111234204D01*
X114748003Y-111228190D01*
X114746668Y-111222309D01*
X114745126Y-111216568D01*
X114743377Y-111210975D01*
X114741420Y-111205537D01*
X114739255Y-111200261D01*
X114736882Y-111195155D01*
X114734301Y-111190226D01*
X114731510Y-111185482D01*
X114728509Y-111180930D01*
X114725299Y-111176576D01*
X114721879Y-111172430D01*
X114718248Y-111168497D01*
X114714406Y-111164786D01*
X114710353Y-111161304D01*
X114706088Y-111158058D01*
X114701611Y-111155055D01*
X114696921Y-111152304D01*
X114692019Y-111149810D01*
X114686903Y-111147583D01*
X114681573Y-111145628D01*
X114676030Y-111143954D01*
X114670272Y-111142568D01*
X114664300Y-111141477D01*
X114658112Y-111140689D01*
X114651709Y-111140210D01*
X114645090Y-111140049D01*
X114639962Y-111140145D01*
X114634967Y-111140434D01*
X114630108Y-111140916D01*
X114625386Y-111141589D01*
X114620804Y-111142454D01*
X114616363Y-111143510D01*
X114612065Y-111144758D01*
X114607912Y-111146195D01*
X114603906Y-111147823D01*
X114600049Y-111149641D01*
X114596343Y-111151648D01*
X114592789Y-111153844D01*
X114589390Y-111156229D01*
X114586148Y-111158803D01*
X114583064Y-111161564D01*
X114580141Y-111164513D01*
X114577380Y-111167650D01*
X114574783Y-111170974D01*
X114572352Y-111174484D01*
X114570090Y-111178180D01*
X114567997Y-111182063D01*
X114566076Y-111186131D01*
X114564329Y-111190384D01*
X114562758Y-111194823D01*
X114561365Y-111199445D01*
X114560151Y-111204252D01*
X114559118Y-111209243D01*
X114558269Y-111214417D01*
X114557606Y-111219775D01*
X114557129Y-111225315D01*
X114556842Y-111231037D01*
X114556746Y-111236942D01*
X114556746Y-111493125D01*
X114486578Y-111493125D01*
X114486578Y-111214844D01*
X114486741Y-111206406D01*
X114487229Y-111198243D01*
X114488034Y-111190354D01*
X114489153Y-111182739D01*
X114490578Y-111175396D01*
X114492305Y-111168326D01*
X114494328Y-111161528D01*
X114496642Y-111155003D01*
X114499241Y-111148748D01*
X114502119Y-111142764D01*
X114505271Y-111137051D01*
X114508691Y-111131608D01*
X114512374Y-111126435D01*
X114516315Y-111121531D01*
X114520507Y-111116896D01*
X114524945Y-111112529D01*
X114529624Y-111108430D01*
X114534539Y-111104598D01*
X114539683Y-111101034D01*
X114545051Y-111097736D01*
X114550637Y-111094705D01*
X114556436Y-111091939D01*
X114562443Y-111089439D01*
X114568652Y-111087204D01*
X114575057Y-111085234D01*
X114581653Y-111083527D01*
X114588435Y-111082084D01*
X114595396Y-111080905D01*
X114602531Y-111079988D01*
X114609835Y-111079334D01*
X114624928Y-111078811D01*
X114632761Y-111078951D01*
G37*
G36*
X121869486Y-111314452D02*
G01*
X121869281Y-111324389D01*
X121868672Y-111334068D01*
X121867668Y-111343486D01*
X121866278Y-111352637D01*
X121864512Y-111361520D01*
X121862379Y-111370129D01*
X121859889Y-111378461D01*
X121857050Y-111386512D01*
X121853872Y-111394279D01*
X121850365Y-111401758D01*
X121846538Y-111408944D01*
X121842399Y-111415835D01*
X121837959Y-111422427D01*
X121833227Y-111428715D01*
X121828211Y-111434696D01*
X121822922Y-111440366D01*
X121817368Y-111445722D01*
X121811560Y-111450760D01*
X121805505Y-111455475D01*
X121799214Y-111459865D01*
X121792696Y-111463925D01*
X121785960Y-111467652D01*
X121779016Y-111471041D01*
X121771872Y-111474090D01*
X121764539Y-111476794D01*
X121757025Y-111479150D01*
X121749340Y-111481154D01*
X121741493Y-111482802D01*
X121733493Y-111484090D01*
X121725350Y-111485015D01*
X121717073Y-111485572D01*
X121708672Y-111485759D01*
X121703409Y-111485676D01*
X121698235Y-111485428D01*
X121693151Y-111485021D01*
X121688159Y-111484458D01*
X121683261Y-111483743D01*
X121678460Y-111482880D01*
X121673758Y-111481873D01*
X121669156Y-111480727D01*
X121664657Y-111479445D01*
X121660262Y-111478031D01*
X121655975Y-111476490D01*
X121651796Y-111474825D01*
X121647728Y-111473041D01*
X121643773Y-111471141D01*
X121639934Y-111469130D01*
X121636212Y-111467012D01*
X121632609Y-111464790D01*
X121629127Y-111462469D01*
X121625769Y-111460052D01*
X121622536Y-111457545D01*
X121619431Y-111454950D01*
X121616455Y-111452272D01*
X121613612Y-111449516D01*
X121610902Y-111446684D01*
X121608328Y-111443781D01*
X121605892Y-111440811D01*
X121603596Y-111437779D01*
X121601442Y-111434687D01*
X121599433Y-111431541D01*
X121597569Y-111428344D01*
X121595855Y-111425101D01*
X121594290Y-111421814D01*
X121590401Y-111421814D01*
X121590401Y-111481107D01*
X121590816Y-111492795D01*
X121591334Y-111498409D01*
X121592059Y-111503865D01*
X121592992Y-111509163D01*
X121594134Y-111514298D01*
X121595483Y-111519270D01*
X121597040Y-111524075D01*
X121598806Y-111528712D01*
X121600781Y-111533178D01*
X121602964Y-111537470D01*
X121605357Y-111541587D01*
X121607959Y-111545526D01*
X121610770Y-111549284D01*
X121613791Y-111552860D01*
X121617022Y-111556251D01*
X121620462Y-111559454D01*
X121624113Y-111562468D01*
X121627974Y-111565289D01*
X121632046Y-111567917D01*
X121636328Y-111570347D01*
X121640822Y-111572579D01*
X121645526Y-111574609D01*
X121650442Y-111576435D01*
X121655570Y-111578055D01*
X121660909Y-111579467D01*
X121666460Y-111580668D01*
X121672223Y-111581656D01*
X121678198Y-111582429D01*
X121684386Y-111582983D01*
X121690786Y-111583318D01*
X121697399Y-111583430D01*
X121702354Y-111583360D01*
X121707188Y-111583153D01*
X121711898Y-111582812D01*
X121716484Y-111582341D01*
X121720944Y-111581744D01*
X121725278Y-111581023D01*
X121729483Y-111580183D01*
X121733559Y-111579227D01*
X121737505Y-111578159D01*
X121741318Y-111576982D01*
X121744998Y-111575699D01*
X121748544Y-111574315D01*
X121751954Y-111572832D01*
X121755226Y-111571255D01*
X121758361Y-111569586D01*
X121761356Y-111567830D01*
X121764209Y-111565990D01*
X121766921Y-111564070D01*
X121769489Y-111562073D01*
X121771912Y-111560002D01*
X121774190Y-111557861D01*
X121776320Y-111555654D01*
X121778301Y-111553384D01*
X121780133Y-111551055D01*
X121781813Y-111548670D01*
X121783341Y-111546234D01*
X121784715Y-111543748D01*
X121785934Y-111541218D01*
X121786997Y-111538646D01*
X121787903Y-111536036D01*
X121788649Y-111533392D01*
X121789236Y-111530717D01*
X121860594Y-111530717D01*
X121859031Y-111541743D01*
X121856387Y-111552539D01*
X121852651Y-111563039D01*
X121847812Y-111573176D01*
X121841859Y-111582884D01*
X121834782Y-111592096D01*
X121826568Y-111600746D01*
X121822032Y-111604839D01*
X121817207Y-111608767D01*
X121812093Y-111612522D01*
X121806688Y-111616094D01*
X121800991Y-111619476D01*
X121795000Y-111622659D01*
X121788714Y-111625636D01*
X121782132Y-111628397D01*
X121775252Y-111630934D01*
X121768072Y-111633240D01*
X121760593Y-111635305D01*
X121752811Y-111637122D01*
X121744726Y-111638683D01*
X121736336Y-111639978D01*
X121718636Y-111641740D01*
X121699702Y-111642342D01*
X121680511Y-111641762D01*
X121662067Y-111640008D01*
X121653147Y-111638684D01*
X121644438Y-111637059D01*
X121635950Y-111635130D01*
X121627691Y-111632895D01*
X121619670Y-111630351D01*
X121611895Y-111627496D01*
X121604374Y-111624327D01*
X121597116Y-111620841D01*
X121590130Y-111617037D01*
X121583424Y-111612910D01*
X121577006Y-111608460D01*
X121570884Y-111603682D01*
X121565069Y-111598576D01*
X121559567Y-111593137D01*
X121554387Y-111587365D01*
X121549538Y-111581255D01*
X121545028Y-111574806D01*
X121540866Y-111568014D01*
X121537060Y-111560879D01*
X121533619Y-111553395D01*
X121530551Y-111545563D01*
X121527864Y-111537378D01*
X121525568Y-111528838D01*
X121523670Y-111519940D01*
X121522179Y-111510683D01*
X121521104Y-111501064D01*
X121520452Y-111491079D01*
X121520233Y-111480726D01*
X121520233Y-111253214D01*
X121590401Y-111253214D01*
X121590401Y-111314841D01*
X121590505Y-111320277D01*
X121590814Y-111325679D01*
X121591328Y-111331038D01*
X121592046Y-111336344D01*
X121592967Y-111341590D01*
X121594090Y-111346765D01*
X121595414Y-111351860D01*
X121596937Y-111356867D01*
X121598660Y-111361776D01*
X121600580Y-111366579D01*
X121602697Y-111371266D01*
X121605010Y-111375827D01*
X121607517Y-111380255D01*
X121610218Y-111384540D01*
X121613112Y-111388673D01*
X121616198Y-111392644D01*
X121619475Y-111396445D01*
X121622941Y-111400067D01*
X121626595Y-111403500D01*
X121630438Y-111406736D01*
X121634467Y-111409765D01*
X121638681Y-111412578D01*
X121643080Y-111415166D01*
X121647663Y-111417521D01*
X121652428Y-111419633D01*
X121657375Y-111421492D01*
X121662503Y-111423090D01*
X121667810Y-111424418D01*
X121673295Y-111425467D01*
X121678958Y-111426228D01*
X121684797Y-111426690D01*
X121690812Y-111426847D01*
X121696681Y-111426701D01*
X121702438Y-111426267D01*
X121708078Y-111425550D01*
X121713597Y-111424553D01*
X121718989Y-111423283D01*
X121724250Y-111421743D01*
X121729375Y-111419938D01*
X121734358Y-111417873D01*
X121739195Y-111415553D01*
X121743882Y-111412981D01*
X121748413Y-111410164D01*
X121752783Y-111407105D01*
X121756987Y-111403810D01*
X121761021Y-111400282D01*
X121764880Y-111396527D01*
X121768558Y-111392550D01*
X121772052Y-111388354D01*
X121775355Y-111383945D01*
X121778464Y-111379328D01*
X121781373Y-111374506D01*
X121784077Y-111369485D01*
X121786571Y-111364270D01*
X121788852Y-111358864D01*
X121790913Y-111353274D01*
X121792749Y-111347503D01*
X121794357Y-111341556D01*
X121795731Y-111335437D01*
X121796866Y-111329153D01*
X121797757Y-111322706D01*
X121798400Y-111316102D01*
X121798789Y-111309346D01*
X121798920Y-111302442D01*
X121798920Y-111264072D01*
X121798800Y-111257167D01*
X121798443Y-111250408D01*
X121797851Y-111243799D01*
X121797027Y-111237345D01*
X121795974Y-111231051D01*
X121794696Y-111224922D01*
X121793194Y-111218963D01*
X121791472Y-111213179D01*
X121789533Y-111207574D01*
X121787379Y-111202153D01*
X121785014Y-111196921D01*
X121782440Y-111191883D01*
X121779661Y-111187044D01*
X121776678Y-111182408D01*
X121773496Y-111177981D01*
X121770117Y-111173766D01*
X121766543Y-111169770D01*
X121762778Y-111165997D01*
X121758825Y-111162451D01*
X121754686Y-111159138D01*
X121750365Y-111156062D01*
X121745863Y-111153228D01*
X121741186Y-111150642D01*
X121736334Y-111148307D01*
X121731311Y-111146228D01*
X121726120Y-111144412D01*
X121720763Y-111142861D01*
X121715245Y-111141581D01*
X121709566Y-111140578D01*
X121703732Y-111139855D01*
X121697743Y-111139418D01*
X121691604Y-111139271D01*
X121685685Y-111139429D01*
X121679924Y-111139895D01*
X121674324Y-111140662D01*
X121668887Y-111141719D01*
X121663614Y-111143059D01*
X121658507Y-111144672D01*
X121653569Y-111146549D01*
X121648801Y-111148682D01*
X121644205Y-111151061D01*
X121639782Y-111153677D01*
X121635536Y-111156522D01*
X121631468Y-111159587D01*
X121627579Y-111162862D01*
X121623872Y-111166339D01*
X121620349Y-111170008D01*
X121617011Y-111173862D01*
X121613861Y-111177890D01*
X121610900Y-111182084D01*
X121608130Y-111186435D01*
X121605554Y-111190934D01*
X121603172Y-111195572D01*
X121600988Y-111200341D01*
X121597218Y-111210232D01*
X121594259Y-111220537D01*
X121592126Y-111231183D01*
X121590835Y-111242099D01*
X121590401Y-111253214D01*
X121520233Y-111253214D01*
X121520233Y-111085399D01*
X121587305Y-111085399D01*
X121587305Y-111147018D01*
X121590797Y-111147018D01*
X121593689Y-111140764D01*
X121597263Y-111134535D01*
X121601501Y-111128383D01*
X121606385Y-111122361D01*
X121611898Y-111116520D01*
X121618022Y-111110913D01*
X121624740Y-111105593D01*
X121632034Y-111100610D01*
X121639886Y-111096019D01*
X121648278Y-111091870D01*
X121657193Y-111088216D01*
X121666613Y-111085109D01*
X121676520Y-111082602D01*
X121686897Y-111080747D01*
X121697726Y-111079595D01*
X121708990Y-111079200D01*
X121717397Y-111079389D01*
X121725678Y-111079953D01*
X121733822Y-111080888D01*
X121741820Y-111082191D01*
X121749664Y-111083856D01*
X121757343Y-111085880D01*
X121764850Y-111088260D01*
X121772174Y-111090990D01*
X121779308Y-111094067D01*
X121786240Y-111097487D01*
X121792963Y-111101246D01*
X121799467Y-111105340D01*
X121805743Y-111109764D01*
X121811782Y-111114515D01*
X121817574Y-111119588D01*
X121823111Y-111124980D01*
X121828383Y-111130687D01*
X121833382Y-111136704D01*
X121838098Y-111143028D01*
X121842521Y-111149653D01*
X121846643Y-111156578D01*
X121850455Y-111163796D01*
X121853948Y-111171305D01*
X121857111Y-111179100D01*
X121859937Y-111187177D01*
X121862415Y-111195532D01*
X121864538Y-111204161D01*
X121866295Y-111213061D01*
X121867677Y-111222226D01*
X121868676Y-111231653D01*
X121869282Y-111241338D01*
X121869486Y-111251277D01*
X121869486Y-111264072D01*
X121869486Y-111314452D01*
G37*
G36*
X113436287Y-111493125D02*
G01*
X113366121Y-111493125D01*
X113366121Y-111085399D01*
X113436287Y-111085399D01*
X113436287Y-111493125D01*
G37*
G36*
X122062841Y-111493125D02*
G01*
X121992753Y-111493125D01*
X121992753Y-111085399D01*
X122062841Y-111085399D01*
X122062841Y-111493125D01*
G37*
G36*
X134086248Y-110024687D02*
G01*
X135673749Y-110024687D01*
X134483124Y-108000625D01*
X136070623Y-108000625D01*
X137658123Y-110699375D01*
X132895624Y-110699375D01*
X131308123Y-108000625D01*
X132895624Y-108000625D01*
X134086248Y-110024687D01*
G37*
G36*
X113935476Y-111328795D02*
G01*
X113935296Y-111338421D01*
X113934760Y-111347823D01*
X113933873Y-111356993D01*
X113932641Y-111365927D01*
X113931067Y-111374621D01*
X113929159Y-111383067D01*
X113926920Y-111391262D01*
X113924356Y-111399199D01*
X113921473Y-111406875D01*
X113918275Y-111414282D01*
X113914768Y-111421417D01*
X113910956Y-111428274D01*
X113906846Y-111434848D01*
X113902442Y-111441133D01*
X113897749Y-111447124D01*
X113892773Y-111452816D01*
X113887519Y-111458204D01*
X113881992Y-111463282D01*
X113876197Y-111468046D01*
X113870140Y-111472489D01*
X113863826Y-111476607D01*
X113857259Y-111480395D01*
X113850445Y-111483847D01*
X113843390Y-111486957D01*
X113836098Y-111489722D01*
X113828575Y-111492135D01*
X113820826Y-111494191D01*
X113812856Y-111495885D01*
X113804670Y-111497211D01*
X113796274Y-111498165D01*
X113787672Y-111498742D01*
X113778870Y-111498935D01*
X113773302Y-111498849D01*
X113767791Y-111498594D01*
X113762344Y-111498173D01*
X113756965Y-111497588D01*
X113751661Y-111496844D01*
X113746436Y-111495943D01*
X113741297Y-111494889D01*
X113736248Y-111493685D01*
X113731296Y-111492333D01*
X113726445Y-111490838D01*
X113721700Y-111489202D01*
X113717069Y-111487428D01*
X113712554Y-111485521D01*
X113708164Y-111483482D01*
X113703901Y-111481315D01*
X113699773Y-111479024D01*
X113695784Y-111476611D01*
X113691941Y-111474080D01*
X113688247Y-111471434D01*
X113684710Y-111468676D01*
X113681334Y-111465809D01*
X113678124Y-111462837D01*
X113675087Y-111459762D01*
X113672227Y-111456588D01*
X113669550Y-111453319D01*
X113667062Y-111449956D01*
X113664768Y-111446504D01*
X113662672Y-111442966D01*
X113660782Y-111439345D01*
X113659102Y-111435643D01*
X113657637Y-111431865D01*
X113656393Y-111428013D01*
X113652901Y-111428013D01*
X113652901Y-111493125D01*
X113585511Y-111493125D01*
X113585511Y-111249729D01*
X113655599Y-111249729D01*
X113655599Y-111320270D01*
X113655720Y-111327055D01*
X113656081Y-111333673D01*
X113656678Y-111340121D01*
X113657508Y-111346396D01*
X113658567Y-111352494D01*
X113659852Y-111358414D01*
X113661359Y-111364150D01*
X113663085Y-111369701D01*
X113665027Y-111375063D01*
X113667180Y-111380233D01*
X113669542Y-111385207D01*
X113672108Y-111389982D01*
X113674876Y-111394556D01*
X113677842Y-111398925D01*
X113681002Y-111403085D01*
X113684354Y-111407035D01*
X113687892Y-111410769D01*
X113691615Y-111414286D01*
X113695518Y-111417582D01*
X113699598Y-111420653D01*
X113703851Y-111423497D01*
X113708275Y-111426111D01*
X113712864Y-111428491D01*
X113717617Y-111430634D01*
X113722530Y-111432537D01*
X113727598Y-111434196D01*
X113732819Y-111435609D01*
X113738190Y-111436772D01*
X113743705Y-111437683D01*
X113749363Y-111438337D01*
X113755159Y-111438732D01*
X113761091Y-111438864D01*
X113767080Y-111438729D01*
X113772917Y-111438327D01*
X113778600Y-111437659D01*
X113784125Y-111436728D01*
X113789490Y-111435536D01*
X113794694Y-111434087D01*
X113799732Y-111432381D01*
X113804604Y-111430423D01*
X113809306Y-111428213D01*
X113813836Y-111425755D01*
X113818191Y-111423051D01*
X113822369Y-111420103D01*
X113826367Y-111416914D01*
X113830184Y-111413486D01*
X113833816Y-111409821D01*
X113837261Y-111405922D01*
X113840516Y-111401792D01*
X113843579Y-111397433D01*
X113846448Y-111392846D01*
X113849120Y-111388036D01*
X113851593Y-111383003D01*
X113853863Y-111377751D01*
X113855929Y-111372281D01*
X113857788Y-111366597D01*
X113859438Y-111360701D01*
X113860876Y-111354594D01*
X113863106Y-111341761D01*
X113864459Y-111328117D01*
X113864914Y-111313682D01*
X113864914Y-111264072D01*
X113864802Y-111256826D01*
X113864468Y-111249768D01*
X113863914Y-111242902D01*
X113863142Y-111236230D01*
X113862156Y-111229756D01*
X113860957Y-111223481D01*
X113859547Y-111217409D01*
X113857930Y-111211541D01*
X113856108Y-111205882D01*
X113854082Y-111200433D01*
X113851855Y-111195197D01*
X113849431Y-111190177D01*
X113846810Y-111185376D01*
X113843996Y-111180796D01*
X113840991Y-111176440D01*
X113837798Y-111172311D01*
X113834418Y-111168411D01*
X113830854Y-111164743D01*
X113827109Y-111161310D01*
X113823184Y-111158115D01*
X113819083Y-111155159D01*
X113814808Y-111152447D01*
X113810361Y-111149980D01*
X113805744Y-111147761D01*
X113800960Y-111145793D01*
X113796012Y-111144079D01*
X113790901Y-111142621D01*
X113785631Y-111141422D01*
X113780203Y-111140485D01*
X113774619Y-111139812D01*
X113768884Y-111139407D01*
X113762997Y-111139271D01*
X113757235Y-111139404D01*
X113751575Y-111139800D01*
X113746023Y-111140455D01*
X113740584Y-111141363D01*
X113735263Y-111142519D01*
X113730066Y-111143918D01*
X113724998Y-111145557D01*
X113720063Y-111147429D01*
X113715268Y-111149529D01*
X113710618Y-111151854D01*
X113706118Y-111154397D01*
X113701773Y-111157155D01*
X113697589Y-111160122D01*
X113693570Y-111163293D01*
X113689722Y-111166664D01*
X113686051Y-111170229D01*
X113682561Y-111173984D01*
X113679259Y-111177924D01*
X113676148Y-111182043D01*
X113673235Y-111186337D01*
X113670525Y-111190801D01*
X113668022Y-111195431D01*
X113665733Y-111200220D01*
X113663662Y-111205165D01*
X113661816Y-111210261D01*
X113660198Y-111215502D01*
X113658815Y-111220883D01*
X113657671Y-111226401D01*
X113656773Y-111232049D01*
X113656124Y-111237823D01*
X113655731Y-111243718D01*
X113655599Y-111249729D01*
X113585511Y-111249729D01*
X113585511Y-110936182D01*
X113655599Y-110936182D01*
X113655599Y-111145859D01*
X113659092Y-111145859D01*
X113662471Y-111138276D01*
X113666492Y-111131087D01*
X113671132Y-111124307D01*
X113676367Y-111117947D01*
X113682175Y-111112021D01*
X113688533Y-111106542D01*
X113695418Y-111101523D01*
X113702809Y-111096977D01*
X113710681Y-111092917D01*
X113719012Y-111089356D01*
X113727779Y-111086307D01*
X113736960Y-111083783D01*
X113746532Y-111081798D01*
X113756472Y-111080363D01*
X113766757Y-111079493D01*
X113777364Y-111079200D01*
X113786170Y-111079394D01*
X113794784Y-111079974D01*
X113803201Y-111080933D01*
X113811414Y-111082267D01*
X113819418Y-111083970D01*
X113827207Y-111086036D01*
X113834776Y-111088461D01*
X113842118Y-111091238D01*
X113849229Y-111094363D01*
X113856101Y-111097830D01*
X113862730Y-111101634D01*
X113869110Y-111105769D01*
X113875234Y-111110230D01*
X113881098Y-111115011D01*
X113886695Y-111120107D01*
X113892019Y-111125513D01*
X113897066Y-111131224D01*
X113901828Y-111137233D01*
X113906301Y-111143536D01*
X113910479Y-111150127D01*
X113914356Y-111157000D01*
X113917925Y-111164151D01*
X113921182Y-111171574D01*
X113924121Y-111179264D01*
X113926735Y-111187215D01*
X113929020Y-111195421D01*
X113930968Y-111203878D01*
X113932576Y-111212580D01*
X113933836Y-111221521D01*
X113934743Y-111230697D01*
X113935292Y-111240101D01*
X113935476Y-111249729D01*
X113935476Y-111264072D01*
X113935476Y-111328795D01*
G37*
G36*
X132498748Y-110699375D02*
G01*
X127736248Y-110699375D01*
X127339374Y-110024687D01*
X130514374Y-110024687D01*
X129323749Y-108000625D01*
X130911249Y-108000625D01*
X132498748Y-110699375D01*
G37*
G36*
X114370292Y-111258254D02*
G01*
X114370292Y-111320270D01*
X114370103Y-111330469D01*
X114369539Y-111340424D01*
X114368602Y-111350130D01*
X114367298Y-111359582D01*
X114365629Y-111368775D01*
X114363599Y-111377703D01*
X114361212Y-111386361D01*
X114358470Y-111394743D01*
X114355379Y-111402846D01*
X114351941Y-111410662D01*
X114348160Y-111418188D01*
X114344039Y-111425417D01*
X114339583Y-111432345D01*
X114334794Y-111438966D01*
X114329677Y-111445275D01*
X114324235Y-111451267D01*
X114318472Y-111456937D01*
X114312391Y-111462279D01*
X114305996Y-111467288D01*
X114299290Y-111471958D01*
X114292277Y-111476285D01*
X114284961Y-111480264D01*
X114277345Y-111483888D01*
X114269433Y-111487154D01*
X114261228Y-111490054D01*
X114252734Y-111492585D01*
X114243955Y-111494741D01*
X114234895Y-111496517D01*
X114225556Y-111497907D01*
X114215943Y-111498907D01*
X114206058Y-111499511D01*
X114195907Y-111499713D01*
X114186398Y-111499528D01*
X114177203Y-111498984D01*
X114168320Y-111498096D01*
X114159747Y-111496880D01*
X114151481Y-111495351D01*
X114143522Y-111493525D01*
X114135866Y-111491417D01*
X114128512Y-111489042D01*
X114121458Y-111486417D01*
X114114701Y-111483556D01*
X114108241Y-111480475D01*
X114102074Y-111477189D01*
X114096200Y-111473715D01*
X114090615Y-111470067D01*
X114085318Y-111466260D01*
X114080307Y-111462311D01*
X114075580Y-111458235D01*
X114071135Y-111454048D01*
X114066970Y-111449764D01*
X114063083Y-111445399D01*
X114059472Y-111440969D01*
X114056134Y-111436490D01*
X114053069Y-111431976D01*
X114050274Y-111427443D01*
X114047747Y-111422907D01*
X114045485Y-111418382D01*
X114043488Y-111413886D01*
X114041753Y-111409432D01*
X114040278Y-111405037D01*
X114039061Y-111400716D01*
X114038099Y-111396485D01*
X114037392Y-111392358D01*
X114109467Y-111392358D01*
X114111069Y-111397050D01*
X114113247Y-111401656D01*
X114115986Y-111406148D01*
X114119273Y-111410495D01*
X114123093Y-111414667D01*
X114127433Y-111418634D01*
X114132278Y-111422366D01*
X114137614Y-111425833D01*
X114143428Y-111429004D01*
X114149704Y-111431850D01*
X114156430Y-111434341D01*
X114163591Y-111436446D01*
X114171173Y-111438136D01*
X114179161Y-111439380D01*
X114187543Y-111440149D01*
X114196303Y-111440412D01*
X114202566Y-111440269D01*
X114208644Y-111439844D01*
X114214537Y-111439143D01*
X114220243Y-111438173D01*
X114225762Y-111436941D01*
X114231093Y-111435453D01*
X114236234Y-111433715D01*
X114241185Y-111431734D01*
X114245945Y-111429516D01*
X114250513Y-111427068D01*
X114254887Y-111424396D01*
X114259068Y-111421507D01*
X114263054Y-111418406D01*
X114266844Y-111415102D01*
X114270437Y-111411599D01*
X114273833Y-111407905D01*
X114277030Y-111404025D01*
X114280027Y-111399968D01*
X114282824Y-111395737D01*
X114285420Y-111391342D01*
X114287813Y-111386786D01*
X114290004Y-111382079D01*
X114291989Y-111377224D01*
X114293770Y-111372230D01*
X114295345Y-111367103D01*
X114296713Y-111361848D01*
X114297873Y-111356473D01*
X114298824Y-111350984D01*
X114300096Y-111339690D01*
X114300522Y-111328017D01*
X114300522Y-111307475D01*
X114031995Y-111307475D01*
X114031995Y-111258254D01*
X114032160Y-111250118D01*
X114101768Y-111250118D01*
X114101768Y-111256706D01*
X114300522Y-111256706D01*
X114300522Y-111250118D01*
X114300406Y-111243828D01*
X114300060Y-111237679D01*
X114299488Y-111231673D01*
X114298693Y-111225815D01*
X114297680Y-111220109D01*
X114296451Y-111214559D01*
X114295011Y-111209169D01*
X114293363Y-111203942D01*
X114291511Y-111198883D01*
X114289459Y-111193995D01*
X114287209Y-111189283D01*
X114284767Y-111184749D01*
X114282134Y-111180399D01*
X114279316Y-111176236D01*
X114276316Y-111172264D01*
X114273138Y-111168486D01*
X114269784Y-111164907D01*
X114266259Y-111161531D01*
X114262567Y-111158361D01*
X114258711Y-111155402D01*
X114254694Y-111152657D01*
X114250521Y-111150130D01*
X114246195Y-111147826D01*
X114241720Y-111145747D01*
X114237099Y-111143898D01*
X114232337Y-111142283D01*
X114227436Y-111140906D01*
X114222400Y-111139771D01*
X114217234Y-111138881D01*
X114211940Y-111138240D01*
X114206523Y-111137853D01*
X114200986Y-111137723D01*
X114195450Y-111137853D01*
X114190035Y-111138240D01*
X114184746Y-111138881D01*
X114179585Y-111139771D01*
X114174557Y-111140906D01*
X114169665Y-111142283D01*
X114164912Y-111143898D01*
X114160302Y-111145747D01*
X114155839Y-111147826D01*
X114151525Y-111150130D01*
X114147365Y-111152657D01*
X114143363Y-111155402D01*
X114139520Y-111158361D01*
X114135843Y-111161531D01*
X114132333Y-111164907D01*
X114128994Y-111168486D01*
X114125830Y-111172264D01*
X114122844Y-111176236D01*
X114120041Y-111180399D01*
X114117423Y-111184749D01*
X114114994Y-111189283D01*
X114112758Y-111193995D01*
X114110717Y-111198883D01*
X114108877Y-111203942D01*
X114107240Y-111209169D01*
X114105809Y-111214559D01*
X114104589Y-111220109D01*
X114103583Y-111225815D01*
X114102794Y-111231673D01*
X114102226Y-111237679D01*
X114101883Y-111243828D01*
X114101768Y-111250118D01*
X114032160Y-111250118D01*
X114032201Y-111248089D01*
X114032811Y-111238164D01*
X114033819Y-111228484D01*
X114035217Y-111219053D01*
X114036997Y-111209879D01*
X114039152Y-111200966D01*
X114041673Y-111192319D01*
X114044553Y-111183945D01*
X114047784Y-111175848D01*
X114051359Y-111168034D01*
X114055270Y-111160509D01*
X114059509Y-111153278D01*
X114064068Y-111146346D01*
X114068940Y-111139719D01*
X114074117Y-111133403D01*
X114079591Y-111127402D01*
X114085355Y-111121723D01*
X114091400Y-111116371D01*
X114097720Y-111111351D01*
X114104306Y-111106668D01*
X114111150Y-111102329D01*
X114118246Y-111098339D01*
X114125585Y-111094702D01*
X114133159Y-111091425D01*
X114140961Y-111088513D01*
X114148983Y-111085972D01*
X114157217Y-111083807D01*
X114165656Y-111082023D01*
X114174292Y-111080626D01*
X114183117Y-111079621D01*
X114192124Y-111079015D01*
X114201304Y-111078811D01*
X114210386Y-111079011D01*
X114219304Y-111079608D01*
X114228051Y-111080598D01*
X114236619Y-111081975D01*
X114244999Y-111083735D01*
X114253183Y-111085872D01*
X114261163Y-111088383D01*
X114268930Y-111091261D01*
X114276477Y-111094503D01*
X114283796Y-111098104D01*
X114290877Y-111102058D01*
X114297713Y-111106361D01*
X114304295Y-111111008D01*
X114310616Y-111115994D01*
X114316667Y-111121315D01*
X114322440Y-111126965D01*
X114327927Y-111132940D01*
X114333119Y-111139235D01*
X114338008Y-111145845D01*
X114342587Y-111152765D01*
X114346846Y-111159991D01*
X114350779Y-111167517D01*
X114354375Y-111175339D01*
X114357628Y-111183453D01*
X114360529Y-111191852D01*
X114363070Y-111200533D01*
X114365243Y-111209490D01*
X114367038Y-111218718D01*
X114368449Y-111228214D01*
X114369468Y-111237972D01*
X114370084Y-111247987D01*
X114370127Y-111250118D01*
X114370292Y-111258254D01*
G37*
G36*
X116941248Y-110699375D02*
G01*
X112178751Y-110699375D01*
X111595344Y-109687344D01*
X113170937Y-109687344D01*
X113369376Y-110024687D01*
X114956875Y-110024687D01*
X114758437Y-109687344D01*
X113170937Y-109687344D01*
X111595344Y-109687344D01*
X111206406Y-109012656D01*
X114381406Y-109012656D01*
X114163124Y-108675312D01*
X110988126Y-108675312D01*
X110591249Y-108000625D01*
X115353749Y-108000625D01*
X116544374Y-110024687D01*
X116941248Y-110699375D01*
G37*
G36*
X119218437Y-111424521D02*
G01*
X119221614Y-111424521D01*
X119329326Y-111085399D01*
X119407191Y-111085399D01*
X119257652Y-111498554D01*
X119261856Y-111513667D01*
X119264326Y-111521989D01*
X119267072Y-111529672D01*
X119270112Y-111536729D01*
X119271746Y-111540028D01*
X119273460Y-111543175D01*
X119275256Y-111546173D01*
X119277134Y-111549023D01*
X119279099Y-111551728D01*
X119281150Y-111554289D01*
X119283292Y-111556707D01*
X119285525Y-111558986D01*
X119287851Y-111561125D01*
X119290273Y-111563128D01*
X119292793Y-111564995D01*
X119295412Y-111566729D01*
X119298134Y-111568332D01*
X119300959Y-111569805D01*
X119303889Y-111571150D01*
X119306928Y-111572368D01*
X119310076Y-111573462D01*
X119313337Y-111574434D01*
X119316711Y-111575284D01*
X119320201Y-111576016D01*
X119327538Y-111577128D01*
X119335363Y-111577785D01*
X119343693Y-111578001D01*
X119347042Y-111577949D01*
X119350889Y-111577807D01*
X119355040Y-111577593D01*
X119359299Y-111577324D01*
X119367366Y-111576695D01*
X119370786Y-111576370D01*
X119373537Y-111576064D01*
X119373537Y-111632650D01*
X119369418Y-111633468D01*
X119364725Y-111634177D01*
X119359614Y-111634777D01*
X119354239Y-111635269D01*
X119348756Y-111635651D01*
X119343321Y-111635924D01*
X119338089Y-111636088D01*
X119333215Y-111636143D01*
X119320255Y-111635747D01*
X119307965Y-111634541D01*
X119296313Y-111632494D01*
X119290717Y-111631146D01*
X119285269Y-111629577D01*
X119279964Y-111627784D01*
X119274799Y-111625761D01*
X119269770Y-111623507D01*
X119264873Y-111621016D01*
X119260105Y-111618287D01*
X119255460Y-111615313D01*
X119250935Y-111612093D01*
X119246527Y-111608622D01*
X119242231Y-111604897D01*
X119238044Y-111600914D01*
X119233961Y-111596669D01*
X119229978Y-111592159D01*
X119226092Y-111587380D01*
X119222299Y-111582328D01*
X119214974Y-111571390D01*
X119207973Y-111559318D01*
X119201263Y-111546080D01*
X119194814Y-111531648D01*
X119188593Y-111515993D01*
X119180099Y-111493903D01*
X119035957Y-111085399D01*
X119110329Y-111085399D01*
X119218437Y-111424521D01*
G37*
G36*
X123400786Y-111328795D02*
G01*
X123400606Y-111338421D01*
X123400071Y-111347823D01*
X123399185Y-111356993D01*
X123397954Y-111365927D01*
X123396382Y-111374621D01*
X123394475Y-111383067D01*
X123392239Y-111391262D01*
X123389677Y-111399199D01*
X123386796Y-111406875D01*
X123383600Y-111414282D01*
X123380096Y-111421417D01*
X123376287Y-111428274D01*
X123372179Y-111434848D01*
X123367777Y-111441133D01*
X123363086Y-111447124D01*
X123358112Y-111452816D01*
X123352860Y-111458204D01*
X123347334Y-111463282D01*
X123341541Y-111468046D01*
X123335484Y-111472489D01*
X123329170Y-111476607D01*
X123322603Y-111480395D01*
X123315789Y-111483847D01*
X123308733Y-111486957D01*
X123301439Y-111489722D01*
X123293914Y-111492135D01*
X123286162Y-111494191D01*
X123278188Y-111495885D01*
X123269998Y-111497211D01*
X123261596Y-111498165D01*
X123252989Y-111498742D01*
X123244180Y-111498935D01*
X123238612Y-111498849D01*
X123233101Y-111498594D01*
X123227653Y-111498173D01*
X123222275Y-111497588D01*
X123216971Y-111496844D01*
X123211746Y-111495943D01*
X123206607Y-111494889D01*
X123201558Y-111493685D01*
X123196606Y-111492333D01*
X123191755Y-111490838D01*
X123187010Y-111489202D01*
X123182378Y-111487428D01*
X123177864Y-111485521D01*
X123173473Y-111483482D01*
X123169211Y-111481315D01*
X123165083Y-111479024D01*
X123161094Y-111476611D01*
X123157251Y-111474080D01*
X123153557Y-111471434D01*
X123150020Y-111468676D01*
X123146644Y-111465809D01*
X123143434Y-111462837D01*
X123140397Y-111459762D01*
X123137537Y-111456588D01*
X123134860Y-111453319D01*
X123132372Y-111449956D01*
X123130077Y-111446504D01*
X123127982Y-111442966D01*
X123126092Y-111439345D01*
X123124412Y-111435643D01*
X123122947Y-111431865D01*
X123121703Y-111428013D01*
X123118213Y-111428013D01*
X123118213Y-111493125D01*
X123050821Y-111493125D01*
X123050821Y-111249729D01*
X123120911Y-111249729D01*
X123120911Y-111320270D01*
X123121032Y-111327055D01*
X123121393Y-111333673D01*
X123121990Y-111340121D01*
X123122820Y-111346396D01*
X123123879Y-111352494D01*
X123125164Y-111358414D01*
X123126671Y-111364150D01*
X123128397Y-111369701D01*
X123130339Y-111375063D01*
X123132492Y-111380233D01*
X123134853Y-111385207D01*
X123137420Y-111389982D01*
X123140188Y-111394556D01*
X123143153Y-111398925D01*
X123146313Y-111403085D01*
X123149664Y-111407035D01*
X123153203Y-111410769D01*
X123156925Y-111414286D01*
X123160828Y-111417582D01*
X123164908Y-111420653D01*
X123169161Y-111423497D01*
X123173584Y-111426111D01*
X123178174Y-111428491D01*
X123182927Y-111430634D01*
X123187839Y-111432537D01*
X123192907Y-111434196D01*
X123198128Y-111435609D01*
X123203498Y-111436772D01*
X123209014Y-111437683D01*
X123214671Y-111438337D01*
X123220467Y-111438732D01*
X123226398Y-111438864D01*
X123232388Y-111438729D01*
X123238225Y-111438327D01*
X123243908Y-111437659D01*
X123249433Y-111436728D01*
X123254799Y-111435536D01*
X123260002Y-111434087D01*
X123265041Y-111432381D01*
X123269912Y-111430423D01*
X123274614Y-111428213D01*
X123279144Y-111425755D01*
X123283499Y-111423051D01*
X123287677Y-111420103D01*
X123291676Y-111416914D01*
X123295492Y-111413486D01*
X123299124Y-111409821D01*
X123302569Y-111405922D01*
X123305825Y-111401792D01*
X123308888Y-111397433D01*
X123311757Y-111392846D01*
X123314429Y-111388036D01*
X123316901Y-111383003D01*
X123319171Y-111377751D01*
X123321237Y-111372281D01*
X123323096Y-111366597D01*
X123324746Y-111360701D01*
X123326184Y-111354594D01*
X123328414Y-111341761D01*
X123329766Y-111328117D01*
X123330222Y-111313682D01*
X123330222Y-111264072D01*
X123330110Y-111256826D01*
X123329775Y-111249768D01*
X123329221Y-111242902D01*
X123328450Y-111236230D01*
X123327464Y-111229756D01*
X123326264Y-111223481D01*
X123324855Y-111217409D01*
X123323238Y-111211541D01*
X123321415Y-111205882D01*
X123319389Y-111200433D01*
X123317163Y-111195197D01*
X123314738Y-111190177D01*
X123312118Y-111185376D01*
X123309304Y-111180796D01*
X123306299Y-111176440D01*
X123303105Y-111172311D01*
X123299725Y-111168411D01*
X123296162Y-111164743D01*
X123292416Y-111161310D01*
X123288492Y-111158115D01*
X123284391Y-111155159D01*
X123280116Y-111152447D01*
X123275668Y-111149980D01*
X123271052Y-111147761D01*
X123266268Y-111145793D01*
X123261320Y-111144079D01*
X123256209Y-111142621D01*
X123250938Y-111141422D01*
X123245510Y-111140485D01*
X123239927Y-111139812D01*
X123234191Y-111139407D01*
X123228305Y-111139271D01*
X123222543Y-111139404D01*
X123216883Y-111139800D01*
X123211331Y-111140455D01*
X123205892Y-111141363D01*
X123200571Y-111142519D01*
X123195374Y-111143918D01*
X123190306Y-111145557D01*
X123185372Y-111147429D01*
X123180577Y-111149529D01*
X123175927Y-111151854D01*
X123171427Y-111154397D01*
X123167082Y-111157155D01*
X123162898Y-111160122D01*
X123158879Y-111163293D01*
X123155032Y-111166664D01*
X123151361Y-111170229D01*
X123147872Y-111173984D01*
X123144569Y-111177924D01*
X123141459Y-111182043D01*
X123138546Y-111186337D01*
X123135835Y-111190801D01*
X123133333Y-111195431D01*
X123131044Y-111200220D01*
X123128974Y-111205165D01*
X123127127Y-111210261D01*
X123125510Y-111215502D01*
X123124127Y-111220883D01*
X123122983Y-111226401D01*
X123122085Y-111232049D01*
X123121436Y-111237823D01*
X123121044Y-111243718D01*
X123120911Y-111249729D01*
X123050821Y-111249729D01*
X123050821Y-110936182D01*
X123120911Y-110936182D01*
X123120911Y-111145859D01*
X123124402Y-111145859D01*
X123127795Y-111138276D01*
X123131825Y-111131087D01*
X123136471Y-111124307D01*
X123141710Y-111117947D01*
X123147520Y-111112021D01*
X123153878Y-111106542D01*
X123160761Y-111101523D01*
X123168148Y-111096977D01*
X123176016Y-111092917D01*
X123184342Y-111089356D01*
X123193105Y-111086307D01*
X123202281Y-111083783D01*
X123211848Y-111081798D01*
X123221784Y-111080363D01*
X123232066Y-111079493D01*
X123242672Y-111079200D01*
X123251478Y-111079394D01*
X123260092Y-111079974D01*
X123268508Y-111080933D01*
X123276721Y-111082267D01*
X123284726Y-111083970D01*
X123292515Y-111086036D01*
X123300084Y-111088461D01*
X123307426Y-111091238D01*
X123314537Y-111094363D01*
X123321409Y-111097830D01*
X123328038Y-111101634D01*
X123334418Y-111105769D01*
X123340542Y-111110230D01*
X123346406Y-111115011D01*
X123352003Y-111120107D01*
X123357328Y-111125513D01*
X123362375Y-111131224D01*
X123367137Y-111137233D01*
X123371611Y-111143536D01*
X123375788Y-111150127D01*
X123379665Y-111157000D01*
X123383235Y-111164151D01*
X123386492Y-111171574D01*
X123389430Y-111179264D01*
X123392045Y-111187215D01*
X123394329Y-111195421D01*
X123396278Y-111203878D01*
X123397886Y-111212580D01*
X123399146Y-111221521D01*
X123400053Y-111230697D01*
X123400602Y-111240101D01*
X123400786Y-111249729D01*
X123400786Y-111264072D01*
X123400786Y-111328795D01*
G37*
G36*
X138848748Y-109350000D02*
G01*
X139642498Y-108000625D01*
X141229998Y-108000625D01*
X142817498Y-110699375D01*
X141229998Y-110699375D01*
X140436248Y-109350000D01*
X139642498Y-110699375D01*
X138054998Y-110699375D01*
X136467498Y-108000625D01*
X138054998Y-108000625D01*
X138848748Y-109350000D01*
G37*
G36*
X115748561Y-111431887D02*
G01*
X115748561Y-111493125D01*
X115554728Y-111493125D01*
X115544240Y-111492963D01*
X115534003Y-111492480D01*
X115524022Y-111491678D01*
X115514303Y-111490562D01*
X115504851Y-111489134D01*
X115495672Y-111487397D01*
X115486771Y-111485356D01*
X115478152Y-111483012D01*
X115469823Y-111480370D01*
X115461787Y-111477433D01*
X115454051Y-111474203D01*
X115446619Y-111470684D01*
X115439498Y-111466880D01*
X115432692Y-111462794D01*
X115426206Y-111458429D01*
X115420048Y-111453788D01*
X115414220Y-111448874D01*
X115408730Y-111443691D01*
X115403582Y-111438242D01*
X115398782Y-111432531D01*
X115394335Y-111426559D01*
X115390246Y-111420332D01*
X115386522Y-111413852D01*
X115383166Y-111407122D01*
X115380185Y-111400146D01*
X115377584Y-111392926D01*
X115375369Y-111385467D01*
X115373544Y-111377771D01*
X115372116Y-111369841D01*
X115371089Y-111361682D01*
X115370469Y-111353296D01*
X115370261Y-111344686D01*
X115443125Y-111344686D01*
X115443615Y-111355757D01*
X115445106Y-111366015D01*
X115446234Y-111370843D01*
X115447624Y-111375473D01*
X115449278Y-111379907D01*
X115451199Y-111384146D01*
X115453392Y-111388192D01*
X115455860Y-111392046D01*
X115458606Y-111395711D01*
X115461635Y-111399188D01*
X115464949Y-111402479D01*
X115468553Y-111405585D01*
X115472449Y-111408508D01*
X115476641Y-111411251D01*
X115481134Y-111413813D01*
X115485930Y-111416199D01*
X115496448Y-111420443D01*
X115508222Y-111423996D01*
X115521282Y-111426873D01*
X115535657Y-111429087D01*
X115551374Y-111430652D01*
X115568463Y-111431580D01*
X115586952Y-111431887D01*
X115677599Y-111431887D01*
X115677599Y-111250888D01*
X115552821Y-111250888D01*
X115546368Y-111250989D01*
X115540092Y-111251290D01*
X115533994Y-111251790D01*
X115528076Y-111252486D01*
X115522341Y-111253378D01*
X115516790Y-111254463D01*
X115511425Y-111255739D01*
X115506247Y-111257205D01*
X115501259Y-111258859D01*
X115496463Y-111260699D01*
X115491860Y-111262723D01*
X115487452Y-111264930D01*
X115483241Y-111267318D01*
X115479229Y-111269885D01*
X115475418Y-111272629D01*
X115471809Y-111275549D01*
X115468405Y-111278642D01*
X115465207Y-111281908D01*
X115462217Y-111285344D01*
X115459437Y-111288948D01*
X115456869Y-111292718D01*
X115454515Y-111296654D01*
X115452375Y-111300752D01*
X115450454Y-111305012D01*
X115448751Y-111309432D01*
X115447270Y-111314009D01*
X115446011Y-111318742D01*
X115444977Y-111323630D01*
X115444170Y-111328669D01*
X115443591Y-111333860D01*
X115443242Y-111339199D01*
X115443125Y-111344686D01*
X115370261Y-111344686D01*
X115370392Y-111337791D01*
X115370782Y-111331058D01*
X115371429Y-111324491D01*
X115372328Y-111318090D01*
X115373476Y-111311858D01*
X115374869Y-111305797D01*
X115376504Y-111299908D01*
X115378376Y-111294193D01*
X115380484Y-111288654D01*
X115382821Y-111283292D01*
X115385387Y-111278111D01*
X115388175Y-111273111D01*
X115391184Y-111268294D01*
X115394409Y-111263663D01*
X115397847Y-111259219D01*
X115401494Y-111254963D01*
X115405346Y-111250899D01*
X115409401Y-111247027D01*
X115413654Y-111243349D01*
X115418101Y-111239868D01*
X115422740Y-111236585D01*
X115427566Y-111233501D01*
X115432577Y-111230620D01*
X115437767Y-111227942D01*
X115443135Y-111225470D01*
X115448675Y-111223205D01*
X115454385Y-111221150D01*
X115460261Y-111219305D01*
X115466299Y-111217673D01*
X115472496Y-111216257D01*
X115478848Y-111215056D01*
X115485352Y-111214074D01*
X115485352Y-111210971D01*
X115475513Y-111207638D01*
X115466215Y-111203748D01*
X115457471Y-111199307D01*
X115449295Y-111194322D01*
X115441698Y-111188799D01*
X115434695Y-111182744D01*
X115431419Y-111179519D01*
X115428297Y-111176164D01*
X115425329Y-111172678D01*
X115422517Y-111169064D01*
X115419864Y-111165321D01*
X115417370Y-111161450D01*
X115415037Y-111157453D01*
X115412867Y-111153330D01*
X115410861Y-111149082D01*
X115409021Y-111144709D01*
X115405845Y-111135594D01*
X115403353Y-111125990D01*
X115401557Y-111115905D01*
X115400571Y-111106330D01*
X115471781Y-111106330D01*
X115472238Y-111116800D01*
X115472812Y-111121767D01*
X115473619Y-111126557D01*
X115474660Y-111131170D01*
X115475938Y-111135606D01*
X115477453Y-111139867D01*
X115479208Y-111143954D01*
X115481204Y-111147866D01*
X115483443Y-111151604D01*
X115485927Y-111155169D01*
X115488658Y-111158562D01*
X115491637Y-111161783D01*
X115494866Y-111164833D01*
X115498348Y-111167713D01*
X115502082Y-111170423D01*
X115506072Y-111172964D01*
X115510319Y-111175336D01*
X115514825Y-111177540D01*
X115519592Y-111179577D01*
X115529913Y-111183152D01*
X115541298Y-111186065D01*
X115553760Y-111188322D01*
X115567313Y-111189928D01*
X115581971Y-111190888D01*
X115597749Y-111191206D01*
X115677599Y-111191206D01*
X115677599Y-111025320D01*
X115560205Y-111025320D01*
X115555035Y-111025407D01*
X115550003Y-111025668D01*
X115545111Y-111026100D01*
X115540361Y-111026703D01*
X115535755Y-111027474D01*
X115531294Y-111028412D01*
X115526980Y-111029515D01*
X115522814Y-111030783D01*
X115518798Y-111032213D01*
X115514935Y-111033804D01*
X115511225Y-111035554D01*
X115507670Y-111037462D01*
X115504272Y-111039525D01*
X115501033Y-111041744D01*
X115497954Y-111044115D01*
X115495038Y-111046638D01*
X115492285Y-111049311D01*
X115489697Y-111052132D01*
X115487276Y-111055100D01*
X115485025Y-111058214D01*
X115482943Y-111061470D01*
X115481034Y-111064869D01*
X115479299Y-111068409D01*
X115477739Y-111072087D01*
X115476356Y-111075903D01*
X115475153Y-111079855D01*
X115474130Y-111083941D01*
X115473289Y-111088159D01*
X115472632Y-111092509D01*
X115472160Y-111096989D01*
X115471876Y-111101596D01*
X115471781Y-111106330D01*
X115400571Y-111106330D01*
X115400470Y-111105344D01*
X115400105Y-111094313D01*
X115400272Y-111086881D01*
X115400771Y-111079629D01*
X115401597Y-111072562D01*
X115402747Y-111065682D01*
X115404214Y-111058995D01*
X115405995Y-111052502D01*
X115408086Y-111046209D01*
X115410481Y-111040118D01*
X115413177Y-111034233D01*
X115416169Y-111028558D01*
X115419452Y-111023096D01*
X115423022Y-111017852D01*
X115426874Y-111012827D01*
X115431004Y-111008027D01*
X115435407Y-111003455D01*
X115440080Y-110999115D01*
X115445016Y-110995009D01*
X115450213Y-110991142D01*
X115455665Y-110987517D01*
X115461368Y-110984139D01*
X115467318Y-110981009D01*
X115473509Y-110978133D01*
X115479938Y-110975514D01*
X115486600Y-110973155D01*
X115493490Y-110971060D01*
X115500604Y-110969233D01*
X115507938Y-110967676D01*
X115515487Y-110966395D01*
X115523246Y-110965392D01*
X115531212Y-110964671D01*
X115539378Y-110964236D01*
X115547742Y-110964090D01*
X115748561Y-110964090D01*
X115748561Y-111191206D01*
X115748561Y-111431887D01*
G37*
G36*
X122030985Y-110911436D02*
G01*
X122033536Y-110911611D01*
X122036044Y-110911899D01*
X122038506Y-110912299D01*
X122040919Y-110912808D01*
X122043280Y-110913424D01*
X122045586Y-110914145D01*
X122047836Y-110914968D01*
X122050025Y-110915893D01*
X122052152Y-110916915D01*
X122054213Y-110918034D01*
X122056207Y-110919246D01*
X122058130Y-110920550D01*
X122059979Y-110921944D01*
X122061752Y-110923424D01*
X122063446Y-110924990D01*
X122065059Y-110926639D01*
X122066587Y-110928369D01*
X122068028Y-110930177D01*
X122069379Y-110932061D01*
X122070638Y-110934019D01*
X122071802Y-110936049D01*
X122072868Y-110938149D01*
X122073833Y-110940317D01*
X122074694Y-110942549D01*
X122075450Y-110944845D01*
X122076097Y-110947201D01*
X122076632Y-110949617D01*
X122077053Y-110952088D01*
X122077357Y-110954614D01*
X122077542Y-110957192D01*
X122077604Y-110959820D01*
X122077542Y-110962414D01*
X122077357Y-110964959D01*
X122077053Y-110967455D01*
X122076632Y-110969898D01*
X122076097Y-110972287D01*
X122075450Y-110974619D01*
X122074694Y-110976892D01*
X122073833Y-110979104D01*
X122072868Y-110981252D01*
X122071802Y-110983334D01*
X122070638Y-110985348D01*
X122069379Y-110987292D01*
X122068028Y-110989162D01*
X122066587Y-110990958D01*
X122065059Y-110992677D01*
X122063446Y-110994317D01*
X122061752Y-110995874D01*
X122059979Y-110997348D01*
X122058130Y-110998735D01*
X122056207Y-111000033D01*
X122054213Y-111001241D01*
X122052152Y-111002356D01*
X122050025Y-111003375D01*
X122047836Y-111004297D01*
X122045586Y-111005118D01*
X122043280Y-111005838D01*
X122040919Y-111006453D01*
X122038506Y-111006961D01*
X122036044Y-111007361D01*
X122033536Y-111007649D01*
X122030985Y-111007823D01*
X122028392Y-111007882D01*
X122025655Y-111007823D01*
X122022969Y-111007649D01*
X122020334Y-111007361D01*
X122017755Y-111006961D01*
X122015232Y-111006453D01*
X122012769Y-111005838D01*
X122010368Y-111005118D01*
X122008031Y-111004297D01*
X122005762Y-111003375D01*
X122003561Y-111002356D01*
X122001433Y-111001241D01*
X121999378Y-111000033D01*
X121997400Y-110998735D01*
X121995501Y-110997348D01*
X121993684Y-110995874D01*
X121991950Y-110994317D01*
X121990303Y-110992677D01*
X121988744Y-110990958D01*
X121987276Y-110989162D01*
X121985902Y-110987292D01*
X121984624Y-110985348D01*
X121983444Y-110983334D01*
X121982366Y-110981252D01*
X121981390Y-110979104D01*
X121980520Y-110976892D01*
X121979758Y-110974619D01*
X121979107Y-110972287D01*
X121978569Y-110969898D01*
X121978146Y-110967455D01*
X121977841Y-110964959D01*
X121977656Y-110962414D01*
X121977594Y-110959820D01*
X121977656Y-110957192D01*
X121977841Y-110954614D01*
X121978146Y-110952088D01*
X121978569Y-110949617D01*
X121979107Y-110947201D01*
X121979758Y-110944845D01*
X121980520Y-110942549D01*
X121981390Y-110940317D01*
X121982366Y-110938149D01*
X121983444Y-110936049D01*
X121984624Y-110934019D01*
X121985902Y-110932061D01*
X121987276Y-110930177D01*
X121988744Y-110928369D01*
X121990303Y-110926639D01*
X121991950Y-110924990D01*
X121993684Y-110923424D01*
X121995501Y-110921944D01*
X121997400Y-110920550D01*
X121999378Y-110919246D01*
X122001433Y-110918034D01*
X122003561Y-110916915D01*
X122005762Y-110915893D01*
X122008031Y-110914968D01*
X122010368Y-110914145D01*
X122012769Y-110913424D01*
X122015232Y-110912808D01*
X122017755Y-110912299D01*
X122020334Y-110911899D01*
X122022969Y-110911611D01*
X122025655Y-110911436D01*
X122028392Y-110911377D01*
X122030985Y-110911436D01*
G37*
G36*
X117610858Y-111374531D02*
G01*
X117610700Y-111381539D01*
X117610229Y-111388391D01*
X117609451Y-111395082D01*
X117608371Y-111401607D01*
X117606994Y-111407964D01*
X117605327Y-111414146D01*
X117603373Y-111420151D01*
X117601140Y-111425973D01*
X117598631Y-111431608D01*
X117595853Y-111437052D01*
X117592811Y-111442301D01*
X117589510Y-111447350D01*
X117585956Y-111452195D01*
X117582155Y-111456831D01*
X117578111Y-111461255D01*
X117573829Y-111465462D01*
X117569317Y-111469447D01*
X117564578Y-111473207D01*
X117559618Y-111476736D01*
X117554442Y-111480031D01*
X117549057Y-111483087D01*
X117543467Y-111485901D01*
X117537678Y-111488467D01*
X117531696Y-111490781D01*
X117525525Y-111492839D01*
X117519171Y-111494637D01*
X117512639Y-111496170D01*
X117505935Y-111497434D01*
X117499065Y-111498424D01*
X117492033Y-111499137D01*
X117484845Y-111499568D01*
X117477507Y-111499713D01*
X117471942Y-111499632D01*
X117466511Y-111499392D01*
X117461215Y-111498996D01*
X117456052Y-111498449D01*
X117451020Y-111497756D01*
X117446120Y-111496920D01*
X117441348Y-111495946D01*
X117436705Y-111494838D01*
X117432189Y-111493599D01*
X117427799Y-111492235D01*
X117423534Y-111490749D01*
X117419393Y-111489145D01*
X117415375Y-111487429D01*
X117411478Y-111485603D01*
X117407702Y-111483673D01*
X117404045Y-111481641D01*
X117400505Y-111479513D01*
X117397083Y-111477293D01*
X117393777Y-111474985D01*
X117390586Y-111472593D01*
X117387508Y-111470121D01*
X117384543Y-111467573D01*
X117381689Y-111464954D01*
X117378945Y-111462268D01*
X117373783Y-111456711D01*
X117369049Y-111450936D01*
X117364733Y-111444976D01*
X117360825Y-111438864D01*
X117357731Y-111438864D01*
X117357731Y-111493125D01*
X117290261Y-111493125D01*
X117290261Y-111308252D01*
X117360825Y-111308252D01*
X117360825Y-111353599D01*
X117360948Y-111358249D01*
X117361313Y-111362818D01*
X117361915Y-111367304D01*
X117362747Y-111371701D01*
X117363806Y-111376006D01*
X117365085Y-111380213D01*
X117366580Y-111384319D01*
X117368284Y-111388318D01*
X117370193Y-111392206D01*
X117372300Y-111395979D01*
X117374601Y-111399633D01*
X117377091Y-111403162D01*
X117379763Y-111406563D01*
X117382613Y-111409831D01*
X117385636Y-111412961D01*
X117388824Y-111415950D01*
X117392175Y-111418791D01*
X117395681Y-111421482D01*
X117399338Y-111424017D01*
X117403140Y-111426393D01*
X117407082Y-111428604D01*
X117411159Y-111430646D01*
X117415364Y-111432515D01*
X117419694Y-111434207D01*
X117424142Y-111435716D01*
X117428702Y-111437038D01*
X117433371Y-111438169D01*
X117438141Y-111439105D01*
X117443009Y-111439840D01*
X117447968Y-111440371D01*
X117453013Y-111440693D01*
X117458139Y-111440801D01*
X117466007Y-111440550D01*
X117473742Y-111439793D01*
X117481292Y-111438522D01*
X117484981Y-111437693D01*
X117488605Y-111436732D01*
X117492157Y-111435640D01*
X117495630Y-111434415D01*
X117499018Y-111433057D01*
X117502314Y-111431564D01*
X117505513Y-111429936D01*
X117508607Y-111428173D01*
X117511591Y-111426272D01*
X117514457Y-111424234D01*
X117517200Y-111422058D01*
X117519812Y-111419742D01*
X117522288Y-111417285D01*
X117524620Y-111414688D01*
X117526804Y-111411949D01*
X117528831Y-111409067D01*
X117530696Y-111406041D01*
X117532391Y-111402871D01*
X117533912Y-111399555D01*
X117535251Y-111396093D01*
X117536401Y-111392485D01*
X117537357Y-111388728D01*
X117538111Y-111384822D01*
X117538658Y-111380767D01*
X117538991Y-111376562D01*
X117539104Y-111372205D01*
X117538838Y-111365483D01*
X117538031Y-111358997D01*
X117536668Y-111352774D01*
X117535773Y-111349770D01*
X117534734Y-111346842D01*
X117533548Y-111343994D01*
X117532215Y-111341228D01*
X117530731Y-111338549D01*
X117529095Y-111335959D01*
X117527305Y-111333463D01*
X117525360Y-111331063D01*
X117523257Y-111328763D01*
X117520995Y-111326566D01*
X117518572Y-111324476D01*
X117515986Y-111322497D01*
X117513235Y-111320630D01*
X117510317Y-111318881D01*
X117507231Y-111317252D01*
X117503975Y-111315747D01*
X117500546Y-111314369D01*
X117496943Y-111313122D01*
X117493164Y-111312008D01*
X117489208Y-111311032D01*
X117485071Y-111310197D01*
X117480754Y-111309506D01*
X117476253Y-111308963D01*
X117471567Y-111308570D01*
X117466694Y-111308333D01*
X117461632Y-111308252D01*
X117360825Y-111308252D01*
X117290261Y-111308252D01*
X117290261Y-111214844D01*
X117290463Y-111205656D01*
X117291061Y-111196839D01*
X117292045Y-111188385D01*
X117293406Y-111180291D01*
X117295134Y-111172551D01*
X117297218Y-111165161D01*
X117299648Y-111158114D01*
X117302415Y-111151406D01*
X117305509Y-111145032D01*
X117308919Y-111138987D01*
X117312635Y-111133265D01*
X117316648Y-111127862D01*
X117320948Y-111122772D01*
X117325524Y-111117991D01*
X117330366Y-111113512D01*
X117335465Y-111109332D01*
X117340811Y-111105444D01*
X117346393Y-111101845D01*
X117352201Y-111098528D01*
X117358226Y-111095489D01*
X117364457Y-111092722D01*
X117370885Y-111090222D01*
X117384291Y-111086005D01*
X117398362Y-111082796D01*
X117413019Y-111080555D01*
X117428183Y-111079240D01*
X117443772Y-111078811D01*
X117452206Y-111078924D01*
X117460422Y-111079263D01*
X117468418Y-111079826D01*
X117476191Y-111080611D01*
X117483740Y-111081617D01*
X117491062Y-111082843D01*
X117498156Y-111084286D01*
X117505020Y-111085945D01*
X117511651Y-111087819D01*
X117518047Y-111089906D01*
X117524207Y-111092204D01*
X117530128Y-111094712D01*
X117535808Y-111097429D01*
X117541246Y-111100353D01*
X117546439Y-111103481D01*
X117551385Y-111106814D01*
X117556082Y-111110348D01*
X117560528Y-111114083D01*
X117564722Y-111118017D01*
X117568660Y-111122148D01*
X117572342Y-111126476D01*
X117575765Y-111130997D01*
X117578926Y-111135711D01*
X117581825Y-111140617D01*
X117584458Y-111145712D01*
X117586825Y-111150995D01*
X117588922Y-111156464D01*
X117590748Y-111162119D01*
X117592300Y-111167957D01*
X117593578Y-111173976D01*
X117594578Y-111180176D01*
X117595299Y-111186555D01*
X117527513Y-111186555D01*
X117525818Y-111181347D01*
X117523783Y-111176348D01*
X117521383Y-111171576D01*
X117518595Y-111167046D01*
X117515394Y-111162779D01*
X117511757Y-111158789D01*
X117507659Y-111155097D01*
X117503076Y-111151718D01*
X117497984Y-111148671D01*
X117492359Y-111145973D01*
X117486178Y-111143642D01*
X117479415Y-111141695D01*
X117472047Y-111140151D01*
X117464050Y-111139026D01*
X117455400Y-111138338D01*
X117446072Y-111138104D01*
X117436495Y-111138387D01*
X117431883Y-111138742D01*
X117427392Y-111139239D01*
X117423024Y-111139881D01*
X117418782Y-111140667D01*
X117414668Y-111141599D01*
X117410686Y-111142677D01*
X117406836Y-111143903D01*
X117403123Y-111145276D01*
X117399548Y-111146797D01*
X117396113Y-111148468D01*
X117392822Y-111150290D01*
X117389677Y-111152262D01*
X117386680Y-111154386D01*
X117383834Y-111156662D01*
X117381141Y-111159092D01*
X117378604Y-111161676D01*
X117376225Y-111164414D01*
X117374006Y-111167309D01*
X117371951Y-111170359D01*
X117370062Y-111173567D01*
X117368340Y-111176933D01*
X117366790Y-111180458D01*
X117365412Y-111184142D01*
X117364210Y-111187986D01*
X117363186Y-111191992D01*
X117362343Y-111196159D01*
X117361683Y-111200489D01*
X117361208Y-111204983D01*
X117360921Y-111209640D01*
X117360825Y-111214463D01*
X117360825Y-111254770D01*
X117467427Y-111254770D01*
X117476093Y-111254911D01*
X117484499Y-111255331D01*
X117492644Y-111256026D01*
X117500527Y-111256990D01*
X117508147Y-111258220D01*
X117515503Y-111259710D01*
X117522594Y-111261456D01*
X117529419Y-111263453D01*
X117535977Y-111265697D01*
X117542267Y-111268182D01*
X117548288Y-111270904D01*
X117554039Y-111273858D01*
X117559520Y-111277040D01*
X117564728Y-111280445D01*
X117569664Y-111284069D01*
X117574325Y-111287906D01*
X117578712Y-111291952D01*
X117582823Y-111296202D01*
X117586657Y-111300652D01*
X117590214Y-111305296D01*
X117593491Y-111310131D01*
X117596489Y-111315152D01*
X117599206Y-111320353D01*
X117601641Y-111325731D01*
X117603793Y-111331279D01*
X117605661Y-111336995D01*
X117607245Y-111342873D01*
X117608543Y-111348908D01*
X117609555Y-111355097D01*
X117610278Y-111361433D01*
X117610713Y-111367912D01*
X117610807Y-111372205D01*
X117610858Y-111374531D01*
G37*
D11*
%TO.C,MH1*%
X106610000Y-100510000D03*
%TD*%
%TO.C,MH5*%
X144610000Y-105260000D03*
%TD*%
D12*
%TO.C,D3*%
X104460000Y-75010000D03*
X101160000Y-75010000D03*
%TD*%
%TO.C,D4*%
X123460000Y-94010000D03*
X120160000Y-94010000D03*
%TD*%
D13*
%TO.C,D17*%
X182433098Y-126685096D03*
X179245542Y-125830996D03*
%TD*%
D14*
%TO.C,RST1*%
X201110000Y-95760000D03*
X201110000Y-102260000D03*
%TD*%
D12*
%TO.C,D6*%
X123460000Y-56010000D03*
X120160000Y-56010000D03*
%TD*%
D14*
%TO.C,MCU1*%
X201730000Y-56310000D03*
X201730000Y-58850000D03*
X201730000Y-61390000D03*
X201730000Y-63930000D03*
X201730000Y-66470000D03*
X201730000Y-69010000D03*
X201730000Y-71550000D03*
X201730000Y-74090000D03*
X201730000Y-76630000D03*
X201730000Y-79170000D03*
X201730000Y-81710000D03*
X201730000Y-84250000D03*
X186490000Y-84250000D03*
X186490000Y-81710000D03*
X186490000Y-79170000D03*
X186490000Y-76630000D03*
X186490000Y-74090000D03*
X186490000Y-71550000D03*
X186490000Y-69010000D03*
X186490000Y-66470000D03*
X186490000Y-63930000D03*
X186490000Y-61390000D03*
X186490000Y-58850000D03*
X186490000Y-56310000D03*
%TD*%
D12*
%TO.C,D5*%
X123460000Y-75010000D03*
X120160000Y-75010000D03*
%TD*%
%TO.C,D2*%
X104460000Y-94010000D03*
X101160000Y-94010000D03*
%TD*%
D15*
%TO.C,JST1*%
X191926000Y-98010000D03*
X191926000Y-100010000D03*
D16*
X189110000Y-100010000D03*
X189110000Y-98010000D03*
D17*
X190910000Y-100010000D03*
X190910000Y-98010000D03*
%TD*%
D12*
%TO.C,D13*%
X180460000Y-103510000D03*
X177160000Y-103510000D03*
%TD*%
%TO.C,D14*%
X180460000Y-84510000D03*
X177160000Y-84510000D03*
%TD*%
D11*
%TO.C,MH2*%
X125610000Y-60135000D03*
%TD*%
D18*
%TO.C,PWR1*%
X200025000Y-109610000D03*
X200025000Y-116910000D03*
D19*
X201135000Y-111760000D03*
X201135000Y-114760000D03*
D18*
X202235000Y-109610000D03*
X202235000Y-116910000D03*
D20*
X199375000Y-111010000D03*
X199375000Y-114010000D03*
X199375000Y-115510000D03*
%TD*%
D12*
%TO.C,D15*%
X180460000Y-65510000D03*
X177160000Y-65510000D03*
%TD*%
%TO.C,D9*%
X142460000Y-51260000D03*
X139160000Y-51260000D03*
%TD*%
%TO.C,D11*%
X161460000Y-79760000D03*
X158160000Y-79760000D03*
%TD*%
%TO.C,D16*%
X161460000Y-122510000D03*
X158160000Y-122510000D03*
%TD*%
D21*
%TO.C,D18*%
X201975287Y-137658076D03*
X199117403Y-136008076D03*
%TD*%
D12*
%TO.C,D1*%
X104460000Y-113010000D03*
X101160000Y-113010000D03*
%TD*%
%TO.C,D7*%
X142460000Y-89260000D03*
X139160000Y-89260000D03*
%TD*%
%TO.C,D8*%
X142460000Y-70260000D03*
X139160000Y-70260000D03*
%TD*%
D22*
%TO.C,DISP1*%
X190300000Y-89710000D03*
X192840000Y-89710000D03*
X195380000Y-89710000D03*
X197920000Y-89710000D03*
D23*
X197920000Y-87960000D03*
X195380000Y-87960000D03*
X192840000Y-87960000D03*
X190300000Y-87960000D03*
X197920000Y-87060000D03*
X195380000Y-87060000D03*
X192840000Y-87060000D03*
X190300000Y-87060000D03*
%TD*%
D11*
%TO.C,MH3*%
X190245493Y-117858144D03*
%TD*%
D12*
%TO.C,D10*%
X161460000Y-98760000D03*
X158160000Y-98760000D03*
%TD*%
D11*
%TO.C,MH4*%
X180610000Y-72010000D03*
%TD*%
D12*
%TO.C,D12*%
X161460000Y-60760000D03*
X158160000Y-60760000D03*
%TD*%
D24*
%TO.C,S7*%
X130030000Y-86260000D03*
D25*
X131300000Y-83720000D03*
X132570000Y-81180000D03*
D26*
X135110000Y-86260000D03*
D25*
X137650000Y-81180000D03*
X138920000Y-83720000D03*
D24*
X140190000Y-86260000D03*
D27*
X128025000Y-83720000D03*
D28*
X140952000Y-81180000D03*
%TD*%
D24*
%TO.C,S11*%
X149030000Y-76760000D03*
D25*
X150300000Y-74220000D03*
X151570000Y-71680000D03*
D26*
X154110000Y-76760000D03*
D25*
X156650000Y-71680000D03*
X157920000Y-74220000D03*
D24*
X159190000Y-76760000D03*
D27*
X147025000Y-74220000D03*
D28*
X159952000Y-71680000D03*
%TD*%
D24*
%TO.C,S8*%
X130030000Y-67260000D03*
D25*
X131300000Y-64720000D03*
X132570000Y-62180000D03*
D26*
X135110000Y-67260000D03*
D25*
X137650000Y-62180000D03*
X138920000Y-64720000D03*
D24*
X140190000Y-67260000D03*
D27*
X128025000Y-64720000D03*
D28*
X140952000Y-62180000D03*
%TD*%
D24*
%TO.C,S5*%
X111030000Y-72010000D03*
D25*
X112300000Y-69470000D03*
X113570000Y-66930000D03*
D26*
X116110000Y-72010000D03*
D25*
X118650000Y-66930000D03*
X119920000Y-69470000D03*
D24*
X121190000Y-72010000D03*
D27*
X109025000Y-69470000D03*
D28*
X121952000Y-66930000D03*
%TD*%
D24*
%TO.C,S9*%
X130030000Y-48260000D03*
D25*
X131300000Y-45720000D03*
X132570000Y-43180000D03*
D26*
X135110000Y-48260000D03*
D25*
X137650000Y-43180000D03*
X138920000Y-45720000D03*
D24*
X140190000Y-48260000D03*
D27*
X128025000Y-45720000D03*
D28*
X140952000Y-43180000D03*
%TD*%
D24*
%TO.C,S17*%
X171203097Y-120570199D03*
D25*
X173087223Y-118445448D03*
X174971349Y-116320696D03*
D26*
X176110000Y-121885000D03*
D25*
X179878252Y-117635497D03*
X180447578Y-120417649D03*
D24*
X181016903Y-123199801D03*
D29*
X169923816Y-117597815D03*
D30*
X183067739Y-118490118D03*
%TD*%
D24*
%TO.C,S15*%
X168030000Y-62510000D03*
D25*
X169300000Y-59970000D03*
X170570000Y-57430000D03*
D26*
X173110000Y-62510000D03*
D25*
X175650000Y-57430000D03*
X176920000Y-59970000D03*
D24*
X178190000Y-62510000D03*
D27*
X166025000Y-59970000D03*
D28*
X178952000Y-57430000D03*
%TD*%
D24*
%TO.C,S13*%
X168030000Y-100510000D03*
D25*
X169300000Y-97970000D03*
X170570000Y-95430000D03*
D26*
X173110000Y-100510000D03*
D25*
X175650000Y-95430000D03*
X176920000Y-97970000D03*
D24*
X178190000Y-100510000D03*
D27*
X166025000Y-97970000D03*
D28*
X178952000Y-95430000D03*
%TD*%
D24*
%TO.C,S2*%
X92030000Y-91010000D03*
D25*
X93300000Y-88470000D03*
X94570000Y-85930000D03*
D26*
X97110000Y-91010000D03*
D25*
X99650000Y-85930000D03*
X100920000Y-88470000D03*
D24*
X102190000Y-91010000D03*
D27*
X90025000Y-88470000D03*
D28*
X102952000Y-85930000D03*
%TD*%
D24*
%TO.C,S14*%
X168030000Y-81510000D03*
D25*
X169300000Y-78970000D03*
X170570000Y-76430000D03*
D26*
X173110000Y-81510000D03*
D25*
X175650000Y-76430000D03*
X176920000Y-78970000D03*
D24*
X178190000Y-81510000D03*
D27*
X166025000Y-78970000D03*
D28*
X178952000Y-76430000D03*
%TD*%
D24*
%TO.C,S18*%
X192710591Y-128845000D03*
D25*
X195080443Y-127280295D03*
X197450295Y-125715591D03*
D26*
X197110000Y-131385000D03*
D25*
X201849705Y-128255591D03*
X201679557Y-131090295D03*
D24*
X201509409Y-133925000D03*
D31*
X192244210Y-125642795D03*
D32*
X204709320Y-129906591D03*
%TD*%
D24*
%TO.C,S1*%
X92030000Y-110010000D03*
D25*
X93300000Y-107470000D03*
X94570000Y-104930000D03*
D26*
X97110000Y-110010000D03*
D25*
X99650000Y-104930000D03*
X100920000Y-107470000D03*
D24*
X102190000Y-110010000D03*
D27*
X90025000Y-107470000D03*
D28*
X102952000Y-104930000D03*
%TD*%
D24*
%TO.C,S6*%
X111030000Y-53010000D03*
D25*
X112300000Y-50470000D03*
X113570000Y-47930000D03*
D26*
X116110000Y-53010000D03*
D25*
X118650000Y-47930000D03*
X119920000Y-50470000D03*
D24*
X121190000Y-53010000D03*
D27*
X109025000Y-50470000D03*
D28*
X121952000Y-47930000D03*
%TD*%
D24*
%TO.C,S12*%
X149030000Y-57760000D03*
D25*
X150300000Y-55220000D03*
X151570000Y-52680000D03*
D26*
X154110000Y-57760000D03*
D25*
X156650000Y-52680000D03*
X157920000Y-55220000D03*
D24*
X159190000Y-57760000D03*
D27*
X147025000Y-55220000D03*
D28*
X159952000Y-52680000D03*
%TD*%
D24*
%TO.C,S16*%
X149030000Y-119510000D03*
D25*
X150300000Y-116970000D03*
X151570000Y-114430000D03*
D26*
X154110000Y-119510000D03*
D25*
X156650000Y-114430000D03*
X157920000Y-116970000D03*
D24*
X159190000Y-119510000D03*
D27*
X147025000Y-116970000D03*
D28*
X159952000Y-114430000D03*
%TD*%
D24*
%TO.C,S3*%
X92030000Y-72010000D03*
D25*
X93300000Y-69470000D03*
X94570000Y-66930000D03*
D26*
X97110000Y-72010000D03*
D25*
X99650000Y-66930000D03*
X100920000Y-69470000D03*
D24*
X102190000Y-72010000D03*
D27*
X90025000Y-69470000D03*
D28*
X102952000Y-66930000D03*
%TD*%
D24*
%TO.C,S4*%
X111030000Y-91010000D03*
D25*
X112300000Y-88470000D03*
X113570000Y-85930000D03*
D26*
X116110000Y-91010000D03*
D25*
X118650000Y-85930000D03*
X119920000Y-88470000D03*
D24*
X121190000Y-91010000D03*
D27*
X109025000Y-88470000D03*
D28*
X121952000Y-85930000D03*
%TD*%
D24*
%TO.C,S10*%
X149030000Y-95760000D03*
D25*
X150300000Y-93220000D03*
X151570000Y-90680000D03*
D26*
X154110000Y-95760000D03*
D25*
X156650000Y-90680000D03*
X157920000Y-93220000D03*
D24*
X159190000Y-95760000D03*
D27*
X147025000Y-93220000D03*
D28*
X159952000Y-90680000D03*
%TD*%
M02*
