%TF.GenerationSoftware,KiCad,Pcbnew,9.0.7*%
%TF.CreationDate,2026-01-28T21:56:47-05:00*%
%TF.ProjectId,v4,76342e6b-6963-4616-945f-706362585858,rev?*%
%TF.SameCoordinates,Original*%
%TF.FileFunction,Profile,NP*%
%FSLAX46Y46*%
G04 Gerber Fmt 4.6, Leading zero omitted, Abs format (unit mm)*
G04 Created by KiCad (PCBNEW 9.0.7) date 2026-01-28 21:56:47*
%MOMM*%
%LPD*%
G01*
G04 APERTURE LIST*
%TA.AperFunction,Profile*%
%ADD10C,0.150000*%
%TD*%
G04 APERTURE END LIST*
D10*
X103610000Y-61510000D02*
X88610000Y-61510000D01*
X86610000Y-63510000D02*
X86610000Y-118510000D01*
X88610000Y-120510000D02*
X128029941Y-120510000D01*
X129100045Y-120820362D02*
X143239180Y-129775147D01*
X144045088Y-130067982D02*
X182374029Y-135175932D01*
X183109832Y-135426355D02*
X199221216Y-144728267D01*
X201953267Y-143996216D02*
X210634679Y-128959569D01*
X210225077Y-126459193D02*
X205287551Y-122107201D01*
X204610000Y-120606825D02*
X204610000Y-54010000D01*
X202610000Y-52010000D02*
X166610000Y-52010000D01*
X164610000Y-50010000D02*
X164610000Y-49260000D01*
X162610000Y-47260000D02*
X147610000Y-47260000D01*
X145610000Y-45260000D02*
X145610000Y-39760000D01*
X143610000Y-37760000D02*
X126610000Y-37760000D01*
X124610000Y-39760000D02*
X124610000Y-40510000D01*
X122610000Y-42510000D02*
X107610000Y-42510000D01*
X105610000Y-44510000D02*
X105610000Y-59510000D01*
X86610000Y-63510000D02*
G75*
G02*
X88610000Y-61510000I2000000J0D01*
G01*
X88610000Y-120510000D02*
G75*
G02*
X86610000Y-118510000I0J2000000D01*
G01*
X128029941Y-120510000D02*
G75*
G02*
X129100033Y-120820380I-41J-2000000D01*
G01*
X144045088Y-130067982D02*
G75*
G02*
X143239183Y-129775143I264212J1982482D01*
G01*
X182374029Y-135175932D02*
G75*
G02*
X183109826Y-135426365I-264229J-1982468D01*
G01*
X201953267Y-143996216D02*
G75*
G02*
X199221208Y-144728281I-1732067J1000016D01*
G01*
X210225077Y-126459193D02*
G75*
G02*
X210634707Y-128959585I-1322477J-1500407D01*
G01*
X205287551Y-122107201D02*
G75*
G02*
X204609981Y-120606825I1322449J1500401D01*
G01*
X202610000Y-52010000D02*
G75*
G02*
X204610000Y-54010000I0J-2000000D01*
G01*
X166610000Y-52010000D02*
G75*
G02*
X164610000Y-50010000I0J2000000D01*
G01*
X162610000Y-47260000D02*
G75*
G02*
X164610000Y-49260000I0J-2000000D01*
G01*
X147610000Y-47260000D02*
G75*
G02*
X145610000Y-45260000I0J2000000D01*
G01*
X143610000Y-37760000D02*
G75*
G02*
X145610000Y-39760000I0J-2000000D01*
G01*
X124610000Y-39760000D02*
G75*
G02*
X126610000Y-37760000I2000000J0D01*
G01*
X124610000Y-40510000D02*
G75*
G02*
X122610000Y-42510000I-2000000J0D01*
G01*
X105610000Y-44510000D02*
G75*
G02*
X107610000Y-42510000I2000000J0D01*
G01*
X105610000Y-59510000D02*
G75*
G02*
X103610000Y-61510000I-2000000J0D01*
G01*
M02*
