%TF.GenerationSoftware,KiCad,Pcbnew,9.0.7*%
%TF.CreationDate,2026-01-30T15:33:05-05:00*%
%TF.ProjectId,v4,76342e6b-6963-4616-945f-706362585858,rev?*%
%TF.SameCoordinates,Original*%
%TF.FileFunction,Paste,Top*%
%TF.FilePolarity,Positive*%
%FSLAX46Y46*%
G04 Gerber Fmt 4.6, Leading zero omitted, Abs format (unit mm)*
G04 Created by KiCad (PCBNEW 9.0.7) date 2026-01-30 15:33:05*
%MOMM*%
%LPD*%
G01*
G04 APERTURE LIST*
G04 Aperture macros list*
%AMRotRect*
0 Rectangle, with rotation*
0 The origin of the aperture is its center*
0 $1 length*
0 $2 width*
0 $3 Rotation angle, in degrees counterclockwise*
0 Add horizontal line*
21,1,$1,$2,0,0,$3*%
%AMOutline5P*
0 Free polygon, 5 corners , with rotation*
0 The origin of the aperture is its center*
0 number of corners: always 5*
0 $1 to $10 corner X, Y*
0 $11 Rotation angle, in degrees counterclockwise*
0 create outline with 5 corners*
4,1,5,$1,$2,$3,$4,$5,$6,$7,$8,$9,$10,$1,$2,$11*%
%AMOutline6P*
0 Free polygon, 6 corners , with rotation*
0 The origin of the aperture is its center*
0 number of corners: always 6*
0 $1 to $12 corner X, Y*
0 $13 Rotation angle, in degrees counterclockwise*
0 create outline with 6 corners*
4,1,6,$1,$2,$3,$4,$5,$6,$7,$8,$9,$10,$11,$12,$1,$2,$13*%
%AMOutline7P*
0 Free polygon, 7 corners , with rotation*
0 The origin of the aperture is its center*
0 number of corners: always 7*
0 $1 to $14 corner X, Y*
0 $15 Rotation angle, in degrees counterclockwise*
0 create outline with 7 corners*
4,1,7,$1,$2,$3,$4,$5,$6,$7,$8,$9,$10,$11,$12,$13,$14,$1,$2,$15*%
%AMOutline8P*
0 Free polygon, 8 corners , with rotation*
0 The origin of the aperture is its center*
0 number of corners: always 8*
0 $1 to $16 corner X, Y*
0 $17 Rotation angle, in degrees counterclockwise*
0 create outline with 8 corners*
4,1,8,$1,$2,$3,$4,$5,$6,$7,$8,$9,$10,$11,$12,$13,$14,$15,$16,$1,$2,$17*%
%AMFreePoly0*
4,1,6,0.600000,-1.000000,0.000000,-0.400000,-0.600000,-1.000000,-0.600000,0.250000,0.600000,0.250000,0.600000,-1.000000,0.600000,-1.000000,$1*%
%AMFreePoly1*
4,1,6,0.600000,-0.200000,0.600000,-0.400000,-0.600000,-0.400000,-0.600000,-0.200000,0.000000,0.400000,0.600000,-0.200000,0.600000,-0.200000,$1*%
G04 Aperture macros list end*
%ADD10R,0.900000X1.200000*%
%ADD11RotRect,0.900000X1.200000X165.000000*%
%ADD12FreePoly0,270.000000*%
%ADD13FreePoly1,270.000000*%
%ADD14R,0.800000X1.000000*%
%ADD15R,1.500000X0.700000*%
%ADD16RotRect,0.900000X1.200000X150.000000*%
%ADD17R,1.200000X0.600000*%
%ADD18R,2.550000X2.500000*%
%ADD19Outline5P,-1.275000X1.250000X1.275000X1.250000X1.275000X-0.750000X0.775000X-1.250000X-1.275000X-1.250000X0.000000*%
%ADD20RotRect,2.550000X2.500000X345.000000*%
%ADD21Outline5P,-1.275000X1.250000X1.275000X1.250000X1.275000X-0.750000X0.775000X-1.250000X-1.275000X-1.250000X345.000000*%
%ADD22RotRect,2.550000X2.500000X330.000000*%
%ADD23Outline5P,-1.275000X1.250000X1.275000X1.250000X1.275000X-0.750000X0.775000X-1.250000X-1.275000X-1.250000X330.000000*%
G04 APERTURE END LIST*
D10*
%TO.C,D3*%
X104460000Y-75010000D03*
X101160000Y-75010000D03*
%TD*%
%TO.C,D4*%
X123460000Y-94010000D03*
X120160000Y-94010000D03*
%TD*%
D11*
%TO.C,D17*%
X182433098Y-126685096D03*
X179245542Y-125830996D03*
%TD*%
D10*
%TO.C,D6*%
X123460000Y-56010000D03*
X120160000Y-56010000D03*
%TD*%
%TO.C,D5*%
X123460000Y-75010000D03*
X120160000Y-75010000D03*
%TD*%
%TO.C,D2*%
X104460000Y-94010000D03*
X101160000Y-94010000D03*
%TD*%
D12*
%TO.C,JST1*%
X191926000Y-100010000D03*
X191926000Y-98010000D03*
D13*
X190910000Y-100010000D03*
X190910000Y-98010000D03*
%TD*%
D10*
%TO.C,D13*%
X180460000Y-103510000D03*
X177160000Y-103510000D03*
%TD*%
%TO.C,D14*%
X180460000Y-84510000D03*
X177160000Y-84510000D03*
%TD*%
D14*
%TO.C,PWR1*%
X200025000Y-109610000D03*
X200025000Y-116910000D03*
X202235000Y-109610000D03*
X202235000Y-116910000D03*
D15*
X199375000Y-115510000D03*
X199375000Y-112510000D03*
X199375000Y-111010000D03*
%TD*%
D10*
%TO.C,D15*%
X180460000Y-65510000D03*
X177160000Y-65510000D03*
%TD*%
%TO.C,D9*%
X142460000Y-51260000D03*
X139160000Y-51260000D03*
%TD*%
%TO.C,D11*%
X161460000Y-79760000D03*
X158160000Y-79760000D03*
%TD*%
%TO.C,D16*%
X161460000Y-122510000D03*
X158160000Y-122510000D03*
%TD*%
D16*
%TO.C,D18*%
X201975287Y-137658076D03*
X199117403Y-136008076D03*
%TD*%
D10*
%TO.C,D1*%
X104460000Y-113010000D03*
X101160000Y-113010000D03*
%TD*%
%TO.C,D7*%
X142460000Y-89260000D03*
X139160000Y-89260000D03*
%TD*%
%TO.C,D8*%
X142460000Y-70260000D03*
X139160000Y-70260000D03*
%TD*%
D17*
%TO.C,DISP1*%
X190300000Y-87960000D03*
X192840000Y-87960000D03*
X195380000Y-87960000D03*
X197920000Y-87960000D03*
X190300000Y-87060000D03*
X192840000Y-87060000D03*
X195380000Y-87060000D03*
X197920000Y-87060000D03*
%TD*%
D10*
%TO.C,D10*%
X161460000Y-98760000D03*
X158160000Y-98760000D03*
%TD*%
%TO.C,D12*%
X161460000Y-60760000D03*
X158160000Y-60760000D03*
%TD*%
D18*
%TO.C,S7*%
X142195000Y-83720000D03*
D19*
X129268000Y-81180000D03*
%TD*%
D18*
%TO.C,S11*%
X161195000Y-74220000D03*
D19*
X148268000Y-71680000D03*
%TD*%
D18*
%TO.C,S8*%
X142195000Y-64720000D03*
D19*
X129268000Y-62180000D03*
%TD*%
D18*
%TO.C,S5*%
X123195000Y-69470000D03*
D19*
X110268000Y-66930000D03*
%TD*%
D18*
%TO.C,S9*%
X142195000Y-45720000D03*
D19*
X129268000Y-43180000D03*
%TD*%
D20*
%TO.C,S17*%
X183610985Y-121265281D03*
D21*
X171781862Y-115466076D03*
%TD*%
D18*
%TO.C,S15*%
X180195000Y-59970000D03*
D19*
X167268000Y-57430000D03*
%TD*%
D18*
%TO.C,S13*%
X180195000Y-97970000D03*
D19*
X167268000Y-95430000D03*
%TD*%
D18*
%TO.C,S2*%
X104195000Y-88470000D03*
D19*
X91268000Y-85930000D03*
%TD*%
D18*
%TO.C,S14*%
X180195000Y-78970000D03*
D19*
X167268000Y-76430000D03*
%TD*%
D22*
%TO.C,S18*%
X204515790Y-132727795D03*
D23*
X194590680Y-124064591D03*
%TD*%
D18*
%TO.C,S1*%
X104195000Y-107470000D03*
D19*
X91268000Y-104930000D03*
%TD*%
D18*
%TO.C,S6*%
X123195000Y-50470000D03*
D19*
X110268000Y-47930000D03*
%TD*%
D18*
%TO.C,S12*%
X161195000Y-55220000D03*
D19*
X148268000Y-52680000D03*
%TD*%
D18*
%TO.C,S16*%
X161195000Y-116970000D03*
D19*
X148268000Y-114430000D03*
%TD*%
D18*
%TO.C,S3*%
X104195000Y-69470000D03*
D19*
X91268000Y-66930000D03*
%TD*%
D18*
%TO.C,S4*%
X123195000Y-88470000D03*
D19*
X110268000Y-85930000D03*
%TD*%
D18*
%TO.C,S10*%
X161195000Y-93220000D03*
D19*
X148268000Y-90680000D03*
%TD*%
M02*
