%TF.GenerationSoftware,KiCad,Pcbnew,9.0.7*%
%TF.CreationDate,2026-01-30T15:33:05-05:00*%
%TF.ProjectId,v4,76342e6b-6963-4616-945f-706362585858,rev?*%
%TF.SameCoordinates,Original*%
%TF.FileFunction,Soldermask,Top*%
%TF.FilePolarity,Negative*%
%FSLAX46Y46*%
G04 Gerber Fmt 4.6, Leading zero omitted, Abs format (unit mm)*
G04 Created by KiCad (PCBNEW 9.0.7) date 2026-01-30 15:33:05*
%MOMM*%
%LPD*%
G01*
G04 APERTURE LIST*
G04 Aperture macros list*
%AMRoundRect*
0 Rectangle with rounded corners*
0 $1 Rounding radius*
0 $2 $3 $4 $5 $6 $7 $8 $9 X,Y pos of 4 corners*
0 Add a 4 corners polygon primitive as box body*
4,1,4,$2,$3,$4,$5,$6,$7,$8,$9,$2,$3,0*
0 Add four circle primitives for the rounded corners*
1,1,$1+$1,$2,$3*
1,1,$1+$1,$4,$5*
1,1,$1+$1,$6,$7*
1,1,$1+$1,$8,$9*
0 Add four rect primitives between the rounded corners*
20,1,$1+$1,$2,$3,$4,$5,0*
20,1,$1+$1,$4,$5,$6,$7,0*
20,1,$1+$1,$6,$7,$8,$9,0*
20,1,$1+$1,$8,$9,$2,$3,0*%
%AMFreePoly0*
4,1,16,0.635355,0.285355,0.650000,0.250000,0.650000,-1.000000,0.635355,-1.035355,0.600000,-1.050000,0.564645,-1.035355,0.000000,-0.470710,-0.564645,-1.035355,-0.600000,-1.050000,-0.635355,-1.035355,-0.650000,-1.000000,-0.650000,0.250000,-0.635355,0.285355,-0.600000,0.300000,0.600000,0.300000,0.635355,0.285355,0.635355,0.285355,$1*%
%AMFreePoly1*
4,1,14,0.035355,0.435355,0.635355,-0.164645,0.650000,-0.200000,0.650000,-0.400000,0.635355,-0.435355,0.600000,-0.450000,-0.600000,-0.450000,-0.635355,-0.435355,-0.650000,-0.400000,-0.650000,-0.200000,-0.635355,-0.164645,-0.035355,0.435355,0.000000,0.450000,0.035355,0.435355,0.035355,0.435355,$1*%
%AMFreePoly2*
4,1,14,1.310355,1.285355,1.325000,1.250000,1.325000,-0.750000,1.310355,-0.785355,0.810355,-1.285355,0.775000,-1.300000,-1.275000,-1.300000,-1.310355,-1.285355,-1.325000,-1.250000,-1.325000,1.250000,-1.310355,1.285355,-1.275000,1.300000,1.275000,1.300000,1.310355,1.285355,1.310355,1.285355,$1*%
G04 Aperture macros list end*
%ADD10C,4.700000*%
%ADD11RoundRect,0.050000X0.450000X0.600000X-0.450000X0.600000X-0.450000X-0.600000X0.450000X-0.600000X0*%
%ADD12RoundRect,0.050000X0.589958X0.463087X-0.279375X0.696024X-0.589958X-0.463087X0.279375X-0.696024X0*%
%ADD13C,1.800000*%
%ADD14FreePoly0,270.000000*%
%ADD15O,1.850000X1.300000*%
%ADD16FreePoly1,270.000000*%
%ADD17RoundRect,0.050000X0.400000X-0.500000X0.400000X0.500000X-0.400000X0.500000X-0.400000X-0.500000X0*%
%ADD18C,1.000000*%
%ADD19RoundRect,0.050000X0.750000X-0.350000X0.750000X0.350000X-0.750000X0.350000X-0.750000X-0.350000X0*%
%ADD20RoundRect,0.050000X0.689711X0.294615X-0.089711X0.744615X-0.689711X-0.294615X0.089711X-0.744615X0*%
%ADD21O,1.800000X1.800000*%
%ADD22RoundRect,0.050000X0.600000X-0.300000X0.600000X0.300000X-0.600000X0.300000X-0.600000X-0.300000X0*%
%ADD23C,2.000000*%
%ADD24C,3.100000*%
%ADD25C,4.200000*%
%ADD26RoundRect,0.050000X-1.275000X-1.250000X1.275000X-1.250000X1.275000X1.250000X-1.275000X1.250000X0*%
%ADD27FreePoly2,0.000000*%
%ADD28RoundRect,0.050000X-1.555079X-0.877413X0.908032X-1.537402X1.555079X0.877413X-0.908032X1.537402X0*%
%ADD29FreePoly2,345.000000*%
%ADD30RoundRect,0.050000X-1.729182X-0.445032X0.479182X-1.720032X1.729182X0.445032X-0.479182X1.720032X0*%
%ADD31FreePoly2,330.000000*%
G04 APERTURE END LIST*
D10*
%TO.C,MH1*%
X106610000Y-100510000D03*
%TD*%
%TO.C,MH5*%
X144610000Y-105260000D03*
%TD*%
D11*
%TO.C,D3*%
X104460000Y-75010000D03*
X101160000Y-75010000D03*
%TD*%
%TO.C,D4*%
X123460000Y-94010000D03*
X120160000Y-94010000D03*
%TD*%
D12*
%TO.C,D17*%
X182433098Y-126685096D03*
X179245542Y-125830996D03*
%TD*%
D13*
%TO.C,RST1*%
X201110000Y-95760000D03*
X201110000Y-102260000D03*
%TD*%
D11*
%TO.C,D6*%
X123460000Y-56010000D03*
X120160000Y-56010000D03*
%TD*%
D13*
%TO.C,MCU1*%
X201730000Y-56310000D03*
X201730000Y-58850000D03*
X201730000Y-61390000D03*
X201730000Y-63930000D03*
X201730000Y-66470000D03*
X201730000Y-69010000D03*
X201730000Y-71550000D03*
X201730000Y-74090000D03*
X201730000Y-76630000D03*
X201730000Y-79170000D03*
X201730000Y-81710000D03*
X201730000Y-84250000D03*
X186490000Y-84250000D03*
X186490000Y-81710000D03*
X186490000Y-79170000D03*
X186490000Y-76630000D03*
X186490000Y-74090000D03*
X186490000Y-71550000D03*
X186490000Y-69010000D03*
X186490000Y-66470000D03*
X186490000Y-63930000D03*
X186490000Y-61390000D03*
X186490000Y-58850000D03*
X186490000Y-56310000D03*
%TD*%
D11*
%TO.C,D5*%
X123460000Y-75010000D03*
X120160000Y-75010000D03*
%TD*%
%TO.C,D2*%
X104460000Y-94010000D03*
X101160000Y-94010000D03*
%TD*%
D14*
%TO.C,JST1*%
X191926000Y-100010000D03*
X191926000Y-98010000D03*
D15*
X189110000Y-100010000D03*
X189110000Y-98010000D03*
D16*
X190910000Y-100010000D03*
X190910000Y-98010000D03*
%TD*%
D11*
%TO.C,D13*%
X180460000Y-103510000D03*
X177160000Y-103510000D03*
%TD*%
%TO.C,D14*%
X180460000Y-84510000D03*
X177160000Y-84510000D03*
%TD*%
D10*
%TO.C,MH2*%
X125610000Y-60135000D03*
%TD*%
D17*
%TO.C,PWR1*%
X200025000Y-109610000D03*
X200025000Y-116910000D03*
D18*
X201135000Y-111760000D03*
X201135000Y-114760000D03*
D17*
X202235000Y-109610000D03*
X202235000Y-116910000D03*
D19*
X199375000Y-115510000D03*
X199375000Y-112510000D03*
X199375000Y-111010000D03*
%TD*%
D11*
%TO.C,D15*%
X180460000Y-65510000D03*
X177160000Y-65510000D03*
%TD*%
%TO.C,D9*%
X142460000Y-51260000D03*
X139160000Y-51260000D03*
%TD*%
%TO.C,D11*%
X161460000Y-79760000D03*
X158160000Y-79760000D03*
%TD*%
%TO.C,D16*%
X161460000Y-122510000D03*
X158160000Y-122510000D03*
%TD*%
D20*
%TO.C,D18*%
X201975287Y-137658076D03*
X199117403Y-136008076D03*
%TD*%
D11*
%TO.C,D1*%
X104460000Y-113010000D03*
X101160000Y-113010000D03*
%TD*%
%TO.C,D7*%
X142460000Y-89260000D03*
X139160000Y-89260000D03*
%TD*%
%TO.C,D8*%
X142460000Y-70260000D03*
X139160000Y-70260000D03*
%TD*%
D21*
%TO.C,DISP1*%
X190300000Y-89710000D03*
X192840000Y-89710000D03*
X195380000Y-89710000D03*
X197920000Y-89710000D03*
D22*
X190300000Y-87960000D03*
X192840000Y-87960000D03*
X195380000Y-87960000D03*
X197920000Y-87960000D03*
X190300000Y-87060000D03*
X192840000Y-87060000D03*
X195380000Y-87060000D03*
X197920000Y-87060000D03*
%TD*%
D10*
%TO.C,MH3*%
X190245493Y-117858144D03*
%TD*%
D11*
%TO.C,D10*%
X161460000Y-98760000D03*
X158160000Y-98760000D03*
%TD*%
D10*
%TO.C,MH4*%
X180610000Y-72010000D03*
%TD*%
D11*
%TO.C,D12*%
X161460000Y-60760000D03*
X158160000Y-60760000D03*
%TD*%
D23*
%TO.C,S7*%
X130030000Y-86260000D03*
D24*
X131300000Y-83720000D03*
X132570000Y-81180000D03*
D25*
X135110000Y-86260000D03*
D24*
X137650000Y-81180000D03*
X138920000Y-83720000D03*
D23*
X140190000Y-86260000D03*
D26*
X142195000Y-83720000D03*
D27*
X129268000Y-81180000D03*
%TD*%
D23*
%TO.C,S11*%
X149030000Y-76760000D03*
D24*
X150300000Y-74220000D03*
X151570000Y-71680000D03*
D25*
X154110000Y-76760000D03*
D24*
X156650000Y-71680000D03*
X157920000Y-74220000D03*
D23*
X159190000Y-76760000D03*
D26*
X161195000Y-74220000D03*
D27*
X148268000Y-71680000D03*
%TD*%
D23*
%TO.C,S8*%
X130030000Y-67260000D03*
D24*
X131300000Y-64720000D03*
X132570000Y-62180000D03*
D25*
X135110000Y-67260000D03*
D24*
X137650000Y-62180000D03*
X138920000Y-64720000D03*
D23*
X140190000Y-67260000D03*
D26*
X142195000Y-64720000D03*
D27*
X129268000Y-62180000D03*
%TD*%
D23*
%TO.C,S5*%
X111030000Y-72010000D03*
D24*
X112300000Y-69470000D03*
X113570000Y-66930000D03*
D25*
X116110000Y-72010000D03*
D24*
X118650000Y-66930000D03*
X119920000Y-69470000D03*
D23*
X121190000Y-72010000D03*
D26*
X123195000Y-69470000D03*
D27*
X110268000Y-66930000D03*
%TD*%
D23*
%TO.C,S9*%
X130030000Y-48260000D03*
D24*
X131300000Y-45720000D03*
X132570000Y-43180000D03*
D25*
X135110000Y-48260000D03*
D24*
X137650000Y-43180000D03*
X138920000Y-45720000D03*
D23*
X140190000Y-48260000D03*
D26*
X142195000Y-45720000D03*
D27*
X129268000Y-43180000D03*
%TD*%
D23*
%TO.C,S17*%
X171203097Y-120570199D03*
D24*
X173087223Y-118445448D03*
X174971349Y-116320696D03*
D25*
X176110000Y-121885000D03*
D24*
X179878252Y-117635497D03*
X180447578Y-120417649D03*
D23*
X181016903Y-123199801D03*
D28*
X183610985Y-121265281D03*
D29*
X171781862Y-115466076D03*
%TD*%
D23*
%TO.C,S15*%
X168030000Y-62510000D03*
D24*
X169300000Y-59970000D03*
X170570000Y-57430000D03*
D25*
X173110000Y-62510000D03*
D24*
X175650000Y-57430000D03*
X176920000Y-59970000D03*
D23*
X178190000Y-62510000D03*
D26*
X180195000Y-59970000D03*
D27*
X167268000Y-57430000D03*
%TD*%
D23*
%TO.C,S13*%
X168030000Y-100510000D03*
D24*
X169300000Y-97970000D03*
X170570000Y-95430000D03*
D25*
X173110000Y-100510000D03*
D24*
X175650000Y-95430000D03*
X176920000Y-97970000D03*
D23*
X178190000Y-100510000D03*
D26*
X180195000Y-97970000D03*
D27*
X167268000Y-95430000D03*
%TD*%
D23*
%TO.C,S2*%
X92030000Y-91010000D03*
D24*
X93300000Y-88470000D03*
X94570000Y-85930000D03*
D25*
X97110000Y-91010000D03*
D24*
X99650000Y-85930000D03*
X100920000Y-88470000D03*
D23*
X102190000Y-91010000D03*
D26*
X104195000Y-88470000D03*
D27*
X91268000Y-85930000D03*
%TD*%
D23*
%TO.C,S14*%
X168030000Y-81510000D03*
D24*
X169300000Y-78970000D03*
X170570000Y-76430000D03*
D25*
X173110000Y-81510000D03*
D24*
X175650000Y-76430000D03*
X176920000Y-78970000D03*
D23*
X178190000Y-81510000D03*
D26*
X180195000Y-78970000D03*
D27*
X167268000Y-76430000D03*
%TD*%
D23*
%TO.C,S18*%
X192710591Y-128845000D03*
D24*
X195080443Y-127280295D03*
X197450295Y-125715591D03*
D25*
X197110000Y-131385000D03*
D24*
X201849705Y-128255591D03*
X201679557Y-131090295D03*
D23*
X201509409Y-133925000D03*
D30*
X204515790Y-132727795D03*
D31*
X194590680Y-124064591D03*
%TD*%
D23*
%TO.C,S1*%
X92030000Y-110010000D03*
D24*
X93300000Y-107470000D03*
X94570000Y-104930000D03*
D25*
X97110000Y-110010000D03*
D24*
X99650000Y-104930000D03*
X100920000Y-107470000D03*
D23*
X102190000Y-110010000D03*
D26*
X104195000Y-107470000D03*
D27*
X91268000Y-104930000D03*
%TD*%
D23*
%TO.C,S6*%
X111030000Y-53010000D03*
D24*
X112300000Y-50470000D03*
X113570000Y-47930000D03*
D25*
X116110000Y-53010000D03*
D24*
X118650000Y-47930000D03*
X119920000Y-50470000D03*
D23*
X121190000Y-53010000D03*
D26*
X123195000Y-50470000D03*
D27*
X110268000Y-47930000D03*
%TD*%
D23*
%TO.C,S12*%
X149030000Y-57760000D03*
D24*
X150300000Y-55220000D03*
X151570000Y-52680000D03*
D25*
X154110000Y-57760000D03*
D24*
X156650000Y-52680000D03*
X157920000Y-55220000D03*
D23*
X159190000Y-57760000D03*
D26*
X161195000Y-55220000D03*
D27*
X148268000Y-52680000D03*
%TD*%
D23*
%TO.C,S16*%
X149030000Y-119510000D03*
D24*
X150300000Y-116970000D03*
X151570000Y-114430000D03*
D25*
X154110000Y-119510000D03*
D24*
X156650000Y-114430000D03*
X157920000Y-116970000D03*
D23*
X159190000Y-119510000D03*
D26*
X161195000Y-116970000D03*
D27*
X148268000Y-114430000D03*
%TD*%
D23*
%TO.C,S3*%
X92030000Y-72010000D03*
D24*
X93300000Y-69470000D03*
X94570000Y-66930000D03*
D25*
X97110000Y-72010000D03*
D24*
X99650000Y-66930000D03*
X100920000Y-69470000D03*
D23*
X102190000Y-72010000D03*
D26*
X104195000Y-69470000D03*
D27*
X91268000Y-66930000D03*
%TD*%
D23*
%TO.C,S4*%
X111030000Y-91010000D03*
D24*
X112300000Y-88470000D03*
X113570000Y-85930000D03*
D25*
X116110000Y-91010000D03*
D24*
X118650000Y-85930000D03*
X119920000Y-88470000D03*
D23*
X121190000Y-91010000D03*
D26*
X123195000Y-88470000D03*
D27*
X110268000Y-85930000D03*
%TD*%
D23*
%TO.C,S10*%
X149030000Y-95760000D03*
D24*
X150300000Y-93220000D03*
X151570000Y-90680000D03*
D25*
X154110000Y-95760000D03*
D24*
X156650000Y-90680000D03*
X157920000Y-93220000D03*
D23*
X159190000Y-95760000D03*
D26*
X161195000Y-93220000D03*
D27*
X148268000Y-90680000D03*
%TD*%
M02*
