%TF.GenerationSoftware,KiCad,Pcbnew,9.0.7*%
%TF.CreationDate,2026-01-28T21:56:46-05:00*%
%TF.ProjectId,v4,76342e6b-6963-4616-945f-706362585858,rev?*%
%TF.SameCoordinates,Original*%
%TF.FileFunction,Legend,Top*%
%TF.FilePolarity,Positive*%
%FSLAX46Y46*%
G04 Gerber Fmt 4.6, Leading zero omitted, Abs format (unit mm)*
G04 Created by KiCad (PCBNEW 9.0.7) date 2026-01-28 21:56:46*
%MOMM*%
%LPD*%
G01*
G04 APERTURE LIST*
%ADD10C,0.000000*%
%ADD11C,0.150000*%
%ADD12C,0.100000*%
%ADD13C,0.120000*%
G04 APERTURE END LIST*
D10*
G36*
X186142057Y-105271160D02*
G01*
X185941617Y-105271160D01*
X185941617Y-105070717D01*
X186142057Y-105070717D01*
X186142057Y-105271160D01*
G37*
G36*
X188547363Y-105471601D02*
G01*
X188346914Y-105471601D01*
X188346914Y-105271160D01*
X188547363Y-105271160D01*
X188547363Y-105471601D01*
G37*
G36*
X189148681Y-105271160D02*
G01*
X189349130Y-105271160D01*
X189349130Y-105471601D01*
X189148681Y-105471601D01*
X189148681Y-105672044D01*
X189148681Y-105872484D01*
X189148681Y-106072927D01*
X188948233Y-106072927D01*
X188747811Y-106072927D01*
X188747811Y-105872484D01*
X188747811Y-105672044D01*
X188747811Y-105471601D01*
X188948233Y-105471601D01*
X188948233Y-105271160D01*
X188747811Y-105271160D01*
X188547363Y-105271160D01*
X188547363Y-105070717D01*
X188747811Y-105070717D01*
X188948233Y-105070717D01*
X189148681Y-105070717D01*
X189148681Y-105271160D01*
G37*
G36*
X190551767Y-105672044D02*
G01*
X190551767Y-105872484D01*
X190551767Y-106072927D01*
X190351344Y-106072927D01*
X190150897Y-106072927D01*
X189950448Y-106072927D01*
X189950448Y-105872484D01*
X189950448Y-105672044D01*
X189950448Y-105471601D01*
X190150897Y-105471601D01*
X190351344Y-105471601D01*
X190551767Y-105471601D01*
X190551767Y-105672044D01*
G37*
G36*
X188146466Y-106273367D02*
G01*
X188146466Y-106473811D01*
X187946044Y-106473811D01*
X187946044Y-106273367D01*
X187946044Y-106072927D01*
X188146466Y-106072927D01*
X188146466Y-106273367D01*
G37*
G36*
X190551767Y-107275577D02*
G01*
X190351344Y-107275577D01*
X190351344Y-107075137D01*
X190551767Y-107075137D01*
X190551767Y-107275577D01*
G37*
G36*
X185139847Y-107275577D02*
G01*
X184939407Y-107275577D01*
X184939407Y-107075137D01*
X185139847Y-107075137D01*
X185139847Y-107275577D01*
G37*
G36*
X188547363Y-106273367D02*
G01*
X188547363Y-106473811D01*
X188747811Y-106473811D01*
X188747811Y-106273367D01*
X188948233Y-106273367D01*
X188948233Y-106473811D01*
X188948233Y-106674254D01*
X188948233Y-106874694D01*
X188747811Y-106874694D01*
X188747811Y-107075137D01*
X188547363Y-107075137D01*
X188547363Y-107275577D01*
X188346914Y-107275577D01*
X188346914Y-107476018D01*
X188146466Y-107476018D01*
X188146466Y-107275577D01*
X188146466Y-107075137D01*
X188346914Y-107075137D01*
X188346914Y-106874694D01*
X188146466Y-106874694D01*
X188146466Y-106674254D01*
X188146466Y-106473811D01*
X188346914Y-106473811D01*
X188346914Y-106273367D01*
X188346914Y-106072927D01*
X188547363Y-106072927D01*
X188547363Y-106273367D01*
G37*
G36*
X187745596Y-105271160D02*
G01*
X187946044Y-105271160D01*
X187946044Y-105471601D01*
X187946044Y-105672044D01*
X187946044Y-105872484D01*
X187946044Y-106072927D01*
X187745596Y-106072927D01*
X187745596Y-106273367D01*
X187745596Y-106473811D01*
X187946044Y-106473811D01*
X187946044Y-106674254D01*
X187745596Y-106674254D01*
X187745596Y-106874694D01*
X187545148Y-106874694D01*
X187344699Y-106874694D01*
X187144277Y-106874694D01*
X187144277Y-107075137D01*
X187344699Y-107075137D01*
X187344699Y-107275577D01*
X187144277Y-107275577D01*
X187144277Y-107476018D01*
X186943829Y-107476018D01*
X186943829Y-107275577D01*
X186743381Y-107275577D01*
X186542940Y-107275577D01*
X186542940Y-107075137D01*
X186542940Y-106874694D01*
X186743381Y-106874694D01*
X186743381Y-107075137D01*
X186943829Y-107075137D01*
X186943829Y-106874694D01*
X186943829Y-106674254D01*
X186943829Y-106473811D01*
X187144277Y-106473811D01*
X187344699Y-106473811D01*
X187545148Y-106473811D01*
X187545148Y-106273367D01*
X187545148Y-106072927D01*
X187344699Y-106072927D01*
X187344699Y-106273367D01*
X187344699Y-106473811D01*
X187144277Y-106473811D01*
X187144277Y-106273367D01*
X187144277Y-106072927D01*
X187144277Y-105872484D01*
X187144277Y-105672044D01*
X187344699Y-105672044D01*
X187344699Y-105872484D01*
X187545148Y-105872484D01*
X187545148Y-105672044D01*
X187344699Y-105672044D01*
X187344699Y-105471601D01*
X187344699Y-105271160D01*
X187545148Y-105271160D01*
X187545148Y-105070717D01*
X187745596Y-105070717D01*
X187745596Y-105271160D01*
G37*
G36*
X188948233Y-107876914D02*
G01*
X188747811Y-107876914D01*
X188747811Y-107676466D01*
X188948233Y-107676466D01*
X188948233Y-107876914D01*
G37*
G36*
X187946044Y-107275577D02*
G01*
X187946044Y-107476018D01*
X187745596Y-107476018D01*
X187745596Y-107676466D01*
X187745596Y-107876914D01*
X187545148Y-107876914D01*
X187545148Y-107676466D01*
X187545148Y-107476018D01*
X187344699Y-107476018D01*
X187344699Y-107275577D01*
X187545148Y-107275577D01*
X187545148Y-107075137D01*
X187745596Y-107075137D01*
X187946044Y-107075137D01*
X187946044Y-107275577D01*
G37*
G36*
X187344699Y-107676466D02*
G01*
X187344699Y-107876914D01*
X187144277Y-107876914D01*
X186943829Y-107876914D01*
X186743381Y-107876914D01*
X186743381Y-107676466D01*
X186943829Y-107676466D01*
X187144277Y-107676466D01*
X187144277Y-107476018D01*
X187344699Y-107476018D01*
X187344699Y-107676466D01*
G37*
G36*
X189148681Y-108077336D02*
G01*
X188948233Y-108077336D01*
X188948233Y-107876914D01*
X189148681Y-107876914D01*
X189148681Y-108077336D01*
G37*
G36*
X186943829Y-108277785D02*
G01*
X186743381Y-108277785D01*
X186743381Y-108077336D01*
X186943829Y-108077336D01*
X186943829Y-108277785D01*
G37*
G36*
X190150897Y-108478233D02*
G01*
X189950448Y-108478233D01*
X189950448Y-108277785D01*
X190150897Y-108277785D01*
X190150897Y-108478233D01*
G37*
G36*
X186542940Y-108478233D02*
G01*
X186342500Y-108478233D01*
X186342500Y-108277785D01*
X186542940Y-108277785D01*
X186542940Y-108478233D01*
G37*
G36*
X185741174Y-108478233D02*
G01*
X185540730Y-108478233D01*
X185540730Y-108277785D01*
X185741174Y-108277785D01*
X185741174Y-108478233D01*
G37*
G36*
X187344699Y-108277785D02*
G01*
X187344699Y-108478233D01*
X187344699Y-108678681D01*
X187144277Y-108678681D01*
X187144277Y-108478233D01*
X186943829Y-108478233D01*
X186943829Y-108277785D01*
X187144277Y-108277785D01*
X187144277Y-108077336D01*
X187344699Y-108077336D01*
X187344699Y-108277785D01*
G37*
G36*
X184738964Y-108678681D02*
G01*
X184538523Y-108678681D01*
X184538523Y-108478233D01*
X184738964Y-108478233D01*
X184738964Y-108678681D01*
G37*
G36*
X188146466Y-108077336D02*
G01*
X188146466Y-108277785D01*
X188146466Y-108478233D01*
X188146466Y-108678681D01*
X188146466Y-108879103D01*
X187946044Y-108879103D01*
X187946044Y-108678681D01*
X187946044Y-108478233D01*
X187745596Y-108478233D01*
X187745596Y-108277785D01*
X187745596Y-108077336D01*
X187946044Y-108077336D01*
X187946044Y-107876914D01*
X188146466Y-107876914D01*
X188146466Y-108077336D01*
G37*
G36*
X186943829Y-108678681D02*
G01*
X187144277Y-108678681D01*
X187144277Y-108879103D01*
X186943829Y-108879103D01*
X186743381Y-108879103D01*
X186542940Y-108879103D01*
X186542940Y-108678681D01*
X186542940Y-108478233D01*
X186743381Y-108478233D01*
X186943829Y-108478233D01*
X186943829Y-108678681D01*
G37*
G36*
X185741174Y-108879103D02*
G01*
X185540730Y-108879103D01*
X185540730Y-108678681D01*
X185741174Y-108678681D01*
X185741174Y-108879103D01*
G37*
G36*
X185139847Y-108879103D02*
G01*
X184939407Y-108879103D01*
X184939407Y-108678681D01*
X185139847Y-108678681D01*
X185139847Y-108879103D01*
G37*
G36*
X184939407Y-109079551D02*
G01*
X184738964Y-109079551D01*
X184538523Y-109079551D01*
X184538523Y-108879103D01*
X184738964Y-108879103D01*
X184939407Y-108879103D01*
X184939407Y-109079551D01*
G37*
G36*
X187745596Y-109280000D02*
G01*
X187545148Y-109280000D01*
X187545148Y-109079551D01*
X187745596Y-109079551D01*
X187745596Y-109280000D01*
G37*
G36*
X184538523Y-109280000D02*
G01*
X184338080Y-109280000D01*
X184338080Y-109079551D01*
X184538523Y-109079551D01*
X184538523Y-109280000D01*
G37*
G36*
X189750000Y-109480448D02*
G01*
X189750000Y-109680870D01*
X189549578Y-109680870D01*
X189549578Y-109480448D01*
X189549578Y-109280000D01*
X189750000Y-109280000D01*
X189750000Y-109480448D01*
G37*
G36*
X187946044Y-109881318D02*
G01*
X187745596Y-109881318D01*
X187745596Y-109680870D01*
X187946044Y-109680870D01*
X187946044Y-109881318D01*
G37*
G36*
X187344699Y-109280000D02*
G01*
X187545148Y-109280000D01*
X187545148Y-109480448D01*
X187344699Y-109480448D01*
X187344699Y-109680870D01*
X187545148Y-109680870D01*
X187545148Y-109881318D01*
X187344699Y-109881318D01*
X187144277Y-109881318D01*
X187144277Y-109680870D01*
X186943829Y-109680870D01*
X186743381Y-109680870D01*
X186743381Y-109480448D01*
X186743381Y-109280000D01*
X186943829Y-109280000D01*
X186943829Y-109480448D01*
X187144277Y-109480448D01*
X187144277Y-109280000D01*
X187144277Y-109079551D01*
X187344699Y-109079551D01*
X187344699Y-109280000D01*
G37*
G36*
X187344699Y-110883534D02*
G01*
X187144277Y-110883534D01*
X187144277Y-110683085D01*
X187344699Y-110683085D01*
X187344699Y-110883534D01*
G37*
G36*
X185340290Y-109079551D02*
G01*
X185540730Y-109079551D01*
X185741174Y-109079551D01*
X185941617Y-109079551D01*
X186142057Y-109079551D01*
X186142057Y-109280000D01*
X186342500Y-109280000D01*
X186342500Y-109079551D01*
X186142057Y-109079551D01*
X186142057Y-108879103D01*
X186342500Y-108879103D01*
X186542940Y-108879103D01*
X186542940Y-109079551D01*
X186743381Y-109079551D01*
X186743381Y-109280000D01*
X186542940Y-109280000D01*
X186542940Y-109480448D01*
X186342500Y-109480448D01*
X186342500Y-109680870D01*
X186142057Y-109680870D01*
X186142057Y-109881318D01*
X186142057Y-110081767D01*
X186342500Y-110081767D01*
X186542940Y-110081767D01*
X186542940Y-109881318D01*
X186542940Y-109680870D01*
X186743381Y-109680870D01*
X186743381Y-109881318D01*
X186943829Y-109881318D01*
X186943829Y-110081767D01*
X186943829Y-110282215D01*
X186743381Y-110282215D01*
X186743381Y-110081767D01*
X186542940Y-110081767D01*
X186542940Y-110282215D01*
X186542940Y-110482637D01*
X186542940Y-110683085D01*
X186743381Y-110683085D01*
X186743381Y-110883534D01*
X186542940Y-110883534D01*
X186542940Y-111083981D01*
X186342500Y-111083981D01*
X186142057Y-111083981D01*
X185941617Y-111083981D01*
X185941617Y-110883534D01*
X186142057Y-110883534D01*
X186142057Y-110683085D01*
X186342500Y-110683085D01*
X186342500Y-110482637D01*
X186342500Y-110282215D01*
X186142057Y-110282215D01*
X186142057Y-110482637D01*
X186142057Y-110683085D01*
X185941617Y-110683085D01*
X185941617Y-110482637D01*
X185941617Y-110282215D01*
X185941617Y-110081767D01*
X185741174Y-110081767D01*
X185540730Y-110081767D01*
X185540730Y-109881318D01*
X185741174Y-109881318D01*
X185741174Y-109680870D01*
X185941617Y-109680870D01*
X185941617Y-109480448D01*
X185941617Y-109280000D01*
X185741174Y-109280000D01*
X185540730Y-109280000D01*
X185340290Y-109280000D01*
X185340290Y-109480448D01*
X185139847Y-109480448D01*
X185139847Y-109680870D01*
X184939407Y-109680870D01*
X184939407Y-109881318D01*
X185139847Y-109881318D01*
X185139847Y-110081767D01*
X184939407Y-110081767D01*
X184738964Y-110081767D01*
X184738964Y-109881318D01*
X184538523Y-109881318D01*
X184538523Y-109680870D01*
X184338080Y-109680870D01*
X184338080Y-109480448D01*
X184538523Y-109480448D01*
X184738964Y-109480448D01*
X184738964Y-109280000D01*
X184939407Y-109280000D01*
X184939407Y-109079551D01*
X185139847Y-109079551D01*
X185139847Y-108879103D01*
X185340290Y-108879103D01*
X185340290Y-109079551D01*
G37*
G36*
X188346914Y-111484852D02*
G01*
X188146466Y-111484852D01*
X188146466Y-111284404D01*
X188346914Y-111284404D01*
X188346914Y-111484852D01*
G37*
G36*
X190351344Y-111685301D02*
G01*
X190150897Y-111685301D01*
X189950448Y-111685301D01*
X189950448Y-111484852D01*
X190150897Y-111484852D01*
X190351344Y-111484852D01*
X190351344Y-111685301D01*
G37*
G36*
X189549578Y-111484852D02*
G01*
X189349130Y-111484852D01*
X189349130Y-111685301D01*
X189148681Y-111685301D01*
X189148681Y-111484852D01*
X189148681Y-111284404D01*
X189349130Y-111284404D01*
X189549578Y-111284404D01*
X189549578Y-111484852D01*
G37*
G36*
X188747811Y-111284404D02*
G01*
X188747811Y-111484852D01*
X188747811Y-111685301D01*
X188547363Y-111685301D01*
X188547363Y-111484852D01*
X188547363Y-111284404D01*
X188547363Y-111083981D01*
X188747811Y-111083981D01*
X188747811Y-111284404D01*
G37*
G36*
X187946044Y-111685301D02*
G01*
X187745596Y-111685301D01*
X187745596Y-111484852D01*
X187946044Y-111484852D01*
X187946044Y-111685301D01*
G37*
G36*
X187144277Y-111083981D02*
G01*
X186943829Y-111083981D01*
X186943829Y-111284404D01*
X187144277Y-111284404D01*
X187344699Y-111284404D01*
X187545148Y-111284404D01*
X187745596Y-111284404D01*
X187745596Y-111484852D01*
X187545148Y-111484852D01*
X187545148Y-111685301D01*
X187344699Y-111685301D01*
X187344699Y-111484852D01*
X187144277Y-111484852D01*
X186943829Y-111484852D01*
X186743381Y-111484852D01*
X186743381Y-111685301D01*
X186542940Y-111685301D01*
X186542940Y-111484852D01*
X186342500Y-111484852D01*
X186342500Y-111284404D01*
X186542940Y-111284404D01*
X186743381Y-111284404D01*
X186743381Y-111083981D01*
X186743381Y-110883534D01*
X186943829Y-110883534D01*
X187144277Y-110883534D01*
X187144277Y-111083981D01*
G37*
G36*
X185340290Y-105672044D02*
G01*
X185340290Y-105872484D01*
X185340290Y-106072927D01*
X185139847Y-106072927D01*
X184939407Y-106072927D01*
X184738964Y-106072927D01*
X184738964Y-105872484D01*
X184738964Y-105672044D01*
X184738964Y-105471601D01*
X184939407Y-105471601D01*
X185139847Y-105471601D01*
X185340290Y-105471601D01*
X185340290Y-105672044D01*
G37*
G36*
X186743381Y-106674254D02*
G01*
X186542940Y-106674254D01*
X186542940Y-106473811D01*
X186743381Y-106473811D01*
X186743381Y-106674254D01*
G37*
G36*
X188346914Y-105271160D02*
G01*
X188146466Y-105271160D01*
X187946044Y-105271160D01*
X187946044Y-105070717D01*
X188146466Y-105070717D01*
X188346914Y-105070717D01*
X188346914Y-105271160D01*
G37*
G36*
X190551767Y-106874694D02*
G01*
X190351344Y-106874694D01*
X190150897Y-106874694D01*
X190150897Y-106674254D01*
X190351344Y-106674254D01*
X190551767Y-106674254D01*
X190551767Y-106874694D01*
G37*
G36*
X190952664Y-105271160D02*
G01*
X190952664Y-105471601D01*
X190952664Y-105672044D01*
X190952664Y-105872484D01*
X190952664Y-106072927D01*
X190952664Y-106273367D01*
X190952664Y-106473811D01*
X190752215Y-106473811D01*
X190551767Y-106473811D01*
X190351344Y-106473811D01*
X190150897Y-106473811D01*
X189950448Y-106473811D01*
X189750000Y-106473811D01*
X189549578Y-106473811D01*
X189549578Y-106273367D01*
X189549578Y-106072927D01*
X189549578Y-105872484D01*
X189549578Y-105672044D01*
X189750000Y-105672044D01*
X189750000Y-105872484D01*
X189750000Y-106072927D01*
X189750000Y-106273367D01*
X189950448Y-106273367D01*
X190150897Y-106273367D01*
X190351344Y-106273367D01*
X190551767Y-106273367D01*
X190752215Y-106273367D01*
X190752215Y-106072927D01*
X190752215Y-105872484D01*
X190752215Y-105672044D01*
X190752215Y-105471601D01*
X190752215Y-105271160D01*
X190551767Y-105271160D01*
X190351344Y-105271160D01*
X190150897Y-105271160D01*
X189950448Y-105271160D01*
X189750000Y-105271160D01*
X189750000Y-105471601D01*
X189750000Y-105672044D01*
X189549578Y-105672044D01*
X189549578Y-105471601D01*
X189549578Y-105271160D01*
X189549578Y-105070717D01*
X189750000Y-105070717D01*
X189950448Y-105070717D01*
X190150897Y-105070717D01*
X190351344Y-105070717D01*
X190551767Y-105070717D01*
X190752215Y-105070717D01*
X190952664Y-105070717D01*
X190952664Y-105271160D01*
G37*
G36*
X185340290Y-107075137D02*
G01*
X185139847Y-107075137D01*
X185139847Y-106874694D01*
X185340290Y-106874694D01*
X185340290Y-107075137D01*
G37*
G36*
X186542940Y-107676466D02*
G01*
X186342500Y-107676466D01*
X186342500Y-107876914D01*
X186142057Y-107876914D01*
X185941617Y-107876914D01*
X185941617Y-108077336D01*
X185741174Y-108077336D01*
X185540730Y-108077336D01*
X185540730Y-107876914D01*
X185741174Y-107876914D01*
X185741174Y-107676466D01*
X185941617Y-107676466D01*
X186142057Y-107676466D01*
X186142057Y-107476018D01*
X186342500Y-107476018D01*
X186542940Y-107476018D01*
X186542940Y-107676466D01*
G37*
G36*
X184738964Y-106874694D02*
G01*
X184738964Y-107075137D01*
X184738964Y-107275577D01*
X184538523Y-107275577D01*
X184538523Y-107075137D01*
X184338080Y-107075137D01*
X184338080Y-106874694D01*
X184538523Y-106874694D01*
X184538523Y-106674254D01*
X184738964Y-106674254D01*
X184738964Y-106874694D01*
G37*
G36*
X188948233Y-107275577D02*
G01*
X188948233Y-107476018D01*
X188747811Y-107476018D01*
X188747811Y-107676466D01*
X188547363Y-107676466D01*
X188346914Y-107676466D01*
X188346914Y-107476018D01*
X188547363Y-107476018D01*
X188547363Y-107275577D01*
X188747811Y-107275577D01*
X188747811Y-107075137D01*
X188948233Y-107075137D01*
X188948233Y-107275577D01*
G37*
G36*
X184738964Y-108277785D02*
G01*
X184538523Y-108277785D01*
X184338080Y-108277785D01*
X184338080Y-108077336D01*
X184538523Y-108077336D01*
X184738964Y-108077336D01*
X184738964Y-108277785D01*
G37*
G36*
X186943829Y-105271160D02*
G01*
X186743381Y-105271160D01*
X186743381Y-105070717D01*
X186943829Y-105070717D01*
X186943829Y-105271160D01*
G37*
G36*
X187144277Y-105471601D02*
G01*
X187144277Y-105672044D01*
X186943829Y-105672044D01*
X186943829Y-105872484D01*
X186943829Y-106072927D01*
X186743381Y-106072927D01*
X186743381Y-105872484D01*
X186542940Y-105872484D01*
X186342500Y-105872484D01*
X186342500Y-106072927D01*
X186542940Y-106072927D01*
X186542940Y-106273367D01*
X186542940Y-106473811D01*
X186342500Y-106473811D01*
X186342500Y-106273367D01*
X186142057Y-106273367D01*
X186142057Y-106473811D01*
X186342500Y-106473811D01*
X186342500Y-106674254D01*
X186142057Y-106674254D01*
X186142057Y-106874694D01*
X185941617Y-106874694D01*
X185941617Y-107075137D01*
X186142057Y-107075137D01*
X186142057Y-107275577D01*
X186142057Y-107476018D01*
X185941617Y-107476018D01*
X185741174Y-107476018D01*
X185741174Y-107275577D01*
X185540730Y-107275577D01*
X185540730Y-107476018D01*
X185741174Y-107476018D01*
X185741174Y-107676466D01*
X185540730Y-107676466D01*
X185540730Y-107876914D01*
X185340290Y-107876914D01*
X185340290Y-108077336D01*
X185340290Y-108277785D01*
X185340290Y-108478233D01*
X185139847Y-108478233D01*
X185139847Y-108277785D01*
X184939407Y-108277785D01*
X184939407Y-108077336D01*
X185139847Y-108077336D01*
X185139847Y-107876914D01*
X185139847Y-107676466D01*
X185340290Y-107676466D01*
X185340290Y-107476018D01*
X185340290Y-107275577D01*
X185340290Y-107075137D01*
X185540730Y-107075137D01*
X185741174Y-107075137D01*
X185741174Y-106874694D01*
X185540730Y-106874694D01*
X185340290Y-106874694D01*
X185340290Y-106674254D01*
X185540730Y-106674254D01*
X185741174Y-106674254D01*
X185941617Y-106674254D01*
X185941617Y-106473811D01*
X185941617Y-106273367D01*
X185941617Y-106072927D01*
X186142057Y-106072927D01*
X186142057Y-105872484D01*
X185941617Y-105872484D01*
X185941617Y-105672044D01*
X185941617Y-105471601D01*
X186142057Y-105471601D01*
X186142057Y-105672044D01*
X186342500Y-105672044D01*
X186542940Y-105672044D01*
X186542940Y-105471601D01*
X186743381Y-105471601D01*
X186943829Y-105471601D01*
X186943829Y-105271160D01*
X187144277Y-105271160D01*
X187144277Y-105471601D01*
G37*
G36*
X184939407Y-107876914D02*
G01*
X184939407Y-108077336D01*
X184738964Y-108077336D01*
X184738964Y-107876914D01*
X184538523Y-107876914D01*
X184538523Y-107676466D01*
X184738964Y-107676466D01*
X184939407Y-107676466D01*
X184939407Y-107876914D01*
G37*
G36*
X190351344Y-108678681D02*
G01*
X190150897Y-108678681D01*
X190150897Y-108478233D01*
X190351344Y-108478233D01*
X190351344Y-108678681D01*
G37*
G36*
X188346914Y-106072927D02*
G01*
X188146466Y-106072927D01*
X188146466Y-105872484D01*
X188346914Y-105872484D01*
X188346914Y-106072927D01*
G37*
G36*
X184939407Y-107476018D02*
G01*
X184738964Y-107476018D01*
X184738964Y-107275577D01*
X184939407Y-107275577D01*
X184939407Y-107476018D01*
G37*
G36*
X187745596Y-108678681D02*
G01*
X187745596Y-108879103D01*
X187545148Y-108879103D01*
X187344699Y-108879103D01*
X187344699Y-108678681D01*
X187545148Y-108678681D01*
X187545148Y-108478233D01*
X187745596Y-108478233D01*
X187745596Y-108678681D01*
G37*
G36*
X190952664Y-110282215D02*
G01*
X190752215Y-110282215D01*
X190752215Y-110081767D01*
X190952664Y-110081767D01*
X190952664Y-110282215D01*
G37*
G36*
X185741174Y-110482637D02*
G01*
X185741174Y-110683085D01*
X185741174Y-110883534D01*
X185741174Y-111083981D01*
X185741174Y-111284404D01*
X185741174Y-111484852D01*
X185741174Y-111685301D01*
X185540730Y-111685301D01*
X185340290Y-111685301D01*
X185139847Y-111685301D01*
X184939407Y-111685301D01*
X184738964Y-111685301D01*
X184538523Y-111685301D01*
X184338080Y-111685301D01*
X184338080Y-111484852D01*
X184338080Y-111284404D01*
X184338080Y-111083981D01*
X184338080Y-110883534D01*
X184538523Y-110883534D01*
X184538523Y-111083981D01*
X184538523Y-111284404D01*
X184538523Y-111484852D01*
X184738964Y-111484852D01*
X184939407Y-111484852D01*
X185139847Y-111484852D01*
X185340290Y-111484852D01*
X185540730Y-111484852D01*
X185540730Y-111284404D01*
X185540730Y-111083981D01*
X185540730Y-110883534D01*
X185540730Y-110683085D01*
X185540730Y-110482637D01*
X185340290Y-110482637D01*
X185139847Y-110482637D01*
X184939407Y-110482637D01*
X184738964Y-110482637D01*
X184538523Y-110482637D01*
X184538523Y-110683085D01*
X184538523Y-110883534D01*
X184338080Y-110883534D01*
X184338080Y-110683085D01*
X184338080Y-110482637D01*
X184338080Y-110282215D01*
X184538523Y-110282215D01*
X184738964Y-110282215D01*
X184939407Y-110282215D01*
X185139847Y-110282215D01*
X185340290Y-110282215D01*
X185540730Y-110282215D01*
X185741174Y-110282215D01*
X185741174Y-110482637D01*
G37*
G36*
X187946044Y-109079551D02*
G01*
X187745596Y-109079551D01*
X187745596Y-108879103D01*
X187946044Y-108879103D01*
X187946044Y-109079551D01*
G37*
G36*
X190351344Y-109480448D02*
G01*
X190150897Y-109480448D01*
X190150897Y-109280000D01*
X190351344Y-109280000D01*
X190351344Y-109480448D01*
G37*
G36*
X186142057Y-111484852D02*
G01*
X185941617Y-111484852D01*
X185941617Y-111284404D01*
X186142057Y-111284404D01*
X186142057Y-111484852D01*
G37*
G36*
X189950448Y-108678681D02*
G01*
X189750000Y-108678681D01*
X189750000Y-108478233D01*
X189950448Y-108478233D01*
X189950448Y-108678681D01*
G37*
G36*
X185340290Y-110883534D02*
G01*
X185340290Y-111083981D01*
X185340290Y-111284404D01*
X185139847Y-111284404D01*
X184939407Y-111284404D01*
X184738964Y-111284404D01*
X184738964Y-111083981D01*
X184738964Y-110883534D01*
X184738964Y-110683085D01*
X184939407Y-110683085D01*
X185139847Y-110683085D01*
X185340290Y-110683085D01*
X185340290Y-110883534D01*
G37*
G36*
X186342500Y-108277785D02*
G01*
X186142057Y-108277785D01*
X186142057Y-108478233D01*
X186142057Y-108678681D01*
X185941617Y-108678681D01*
X185741174Y-108678681D01*
X185741174Y-108478233D01*
X185941617Y-108478233D01*
X185941617Y-108277785D01*
X185941617Y-108077336D01*
X186142057Y-108077336D01*
X186342500Y-108077336D01*
X186342500Y-108277785D01*
G37*
G36*
X189950448Y-106874694D02*
G01*
X189950448Y-107075137D01*
X190150897Y-107075137D01*
X190150897Y-107275577D01*
X190351344Y-107275577D01*
X190351344Y-107476018D01*
X190351344Y-107676466D01*
X190551767Y-107676466D01*
X190551767Y-107476018D01*
X190551767Y-107275577D01*
X190752215Y-107275577D01*
X190752215Y-107075137D01*
X190551767Y-107075137D01*
X190551767Y-106874694D01*
X190752215Y-106874694D01*
X190752215Y-106674254D01*
X190952664Y-106674254D01*
X190952664Y-106874694D01*
X190952664Y-107075137D01*
X190952664Y-107275577D01*
X190952664Y-107476018D01*
X190952664Y-107676466D01*
X190952664Y-107876914D01*
X190752215Y-107876914D01*
X190752215Y-108077336D01*
X190752215Y-108277785D01*
X190752215Y-108478233D01*
X190752215Y-108678681D01*
X190952664Y-108678681D01*
X190952664Y-108879103D01*
X190952664Y-109079551D01*
X190952664Y-109280000D01*
X190952664Y-109480448D01*
X190952664Y-109680870D01*
X190752215Y-109680870D01*
X190752215Y-109480448D01*
X190551767Y-109480448D01*
X190551767Y-109280000D01*
X190551767Y-109079551D01*
X190752215Y-109079551D01*
X190752215Y-108879103D01*
X190551767Y-108879103D01*
X190351344Y-108879103D01*
X190351344Y-108678681D01*
X190551767Y-108678681D01*
X190551767Y-108478233D01*
X190551767Y-108277785D01*
X190551767Y-108077336D01*
X190351344Y-108077336D01*
X190351344Y-107876914D01*
X190150897Y-107876914D01*
X190150897Y-108077336D01*
X189950448Y-108077336D01*
X189750000Y-108077336D01*
X189750000Y-108277785D01*
X189750000Y-108478233D01*
X189549578Y-108478233D01*
X189549578Y-108277785D01*
X189549578Y-108077336D01*
X189349130Y-108077336D01*
X189349130Y-107876914D01*
X189549578Y-107876914D01*
X189549578Y-107676466D01*
X189750000Y-107676466D01*
X189750000Y-107876914D01*
X189950448Y-107876914D01*
X189950448Y-107676466D01*
X190150897Y-107676466D01*
X190150897Y-107476018D01*
X189950448Y-107476018D01*
X189950448Y-107275577D01*
X189750000Y-107275577D01*
X189750000Y-107476018D01*
X189750000Y-107676466D01*
X189549578Y-107676466D01*
X189349130Y-107676466D01*
X189148681Y-107676466D01*
X188948233Y-107676466D01*
X188948233Y-107476018D01*
X189148681Y-107476018D01*
X189349130Y-107476018D01*
X189349130Y-107275577D01*
X189549578Y-107275577D01*
X189549578Y-107075137D01*
X189349130Y-107075137D01*
X189349130Y-107275577D01*
X189148681Y-107275577D01*
X189148681Y-107075137D01*
X189148681Y-106874694D01*
X189349130Y-106874694D01*
X189349130Y-106674254D01*
X189549578Y-106674254D01*
X189750000Y-106674254D01*
X189950448Y-106674254D01*
X189950448Y-106874694D01*
G37*
G36*
X185741174Y-109680870D02*
G01*
X185540730Y-109680870D01*
X185540730Y-109480448D01*
X185741174Y-109480448D01*
X185741174Y-109680870D01*
G37*
G36*
X185139847Y-106874694D02*
G01*
X184939407Y-106874694D01*
X184939407Y-106674254D01*
X185139847Y-106674254D01*
X185139847Y-106874694D01*
G37*
G36*
X184538523Y-110081767D02*
G01*
X184338080Y-110081767D01*
X184338080Y-109881318D01*
X184538523Y-109881318D01*
X184538523Y-110081767D01*
G37*
G36*
X188547363Y-111083981D02*
G01*
X188346914Y-111083981D01*
X188346914Y-110883534D01*
X188547363Y-110883534D01*
X188547363Y-111083981D01*
G37*
G36*
X189750000Y-110482637D02*
G01*
X189549578Y-110482637D01*
X189549578Y-110282215D01*
X189750000Y-110282215D01*
X189750000Y-110482637D01*
G37*
G36*
X190752215Y-111685301D02*
G01*
X190551767Y-111685301D01*
X190551767Y-111484852D01*
X190752215Y-111484852D01*
X190752215Y-111685301D01*
G37*
G36*
X186943829Y-106473811D02*
G01*
X186743381Y-106473811D01*
X186743381Y-106273367D01*
X186943829Y-106273367D01*
X186943829Y-106473811D01*
G37*
G36*
X188747811Y-108077336D02*
G01*
X188747811Y-108277785D01*
X188948233Y-108277785D01*
X189148681Y-108277785D01*
X189148681Y-108077336D01*
X189349130Y-108077336D01*
X189349130Y-108277785D01*
X189349130Y-108478233D01*
X189549578Y-108478233D01*
X189549578Y-108678681D01*
X189349130Y-108678681D01*
X189349130Y-108879103D01*
X189549578Y-108879103D01*
X189549578Y-109079551D01*
X189549578Y-109280000D01*
X189349130Y-109280000D01*
X189349130Y-109480448D01*
X189349130Y-109680870D01*
X189349130Y-109881318D01*
X189549578Y-109881318D01*
X189750000Y-109881318D01*
X189950448Y-109881318D01*
X189950448Y-109680870D01*
X189950448Y-109480448D01*
X190150897Y-109480448D01*
X190150897Y-109680870D01*
X190351344Y-109680870D01*
X190351344Y-109881318D01*
X190150897Y-109881318D01*
X190150897Y-110081767D01*
X190351344Y-110081767D01*
X190351344Y-110282215D01*
X190551767Y-110282215D01*
X190752215Y-110282215D01*
X190752215Y-110482637D01*
X190551767Y-110482637D01*
X190351344Y-110482637D01*
X190150897Y-110482637D01*
X190150897Y-110683085D01*
X190351344Y-110683085D01*
X190351344Y-110883534D01*
X190351344Y-111083981D01*
X190551767Y-111083981D01*
X190551767Y-111284404D01*
X190351344Y-111284404D01*
X190150897Y-111284404D01*
X189950448Y-111284404D01*
X189950448Y-111083981D01*
X189950448Y-110883534D01*
X189750000Y-110883534D01*
X189750000Y-111083981D01*
X189549578Y-111083981D01*
X189549578Y-110883534D01*
X189349130Y-110883534D01*
X189148681Y-110883534D01*
X189148681Y-110683085D01*
X189148681Y-110482637D01*
X189349130Y-110482637D01*
X189349130Y-110683085D01*
X189549578Y-110683085D01*
X189750000Y-110683085D01*
X189950448Y-110683085D01*
X189950448Y-110482637D01*
X189950448Y-110282215D01*
X189950448Y-110081767D01*
X189750000Y-110081767D01*
X189549578Y-110081767D01*
X189349130Y-110081767D01*
X189349130Y-110282215D01*
X189349130Y-110482637D01*
X189148681Y-110482637D01*
X189148681Y-110282215D01*
X189148681Y-110081767D01*
X189148681Y-109881318D01*
X189148681Y-109680870D01*
X189148681Y-109480448D01*
X189148681Y-109280000D01*
X188948233Y-109280000D01*
X188948233Y-109079551D01*
X188747811Y-109079551D01*
X188747811Y-109280000D01*
X188747811Y-109480448D01*
X188747811Y-109680870D01*
X188948233Y-109680870D01*
X188948233Y-109881318D01*
X188747811Y-109881318D01*
X188747811Y-110081767D01*
X188547363Y-110081767D01*
X188346914Y-110081767D01*
X188346914Y-109881318D01*
X188547363Y-109881318D01*
X188547363Y-109680870D01*
X188346914Y-109680870D01*
X188146466Y-109680870D01*
X187946044Y-109680870D01*
X187946044Y-109480448D01*
X188146466Y-109480448D01*
X188346914Y-109480448D01*
X188547363Y-109480448D01*
X188547363Y-109280000D01*
X188547363Y-109079551D01*
X188346914Y-109079551D01*
X188346914Y-109280000D01*
X188146466Y-109280000D01*
X187946044Y-109280000D01*
X187946044Y-109079551D01*
X188146466Y-109079551D01*
X188146466Y-108879103D01*
X188346914Y-108879103D01*
X188547363Y-108879103D01*
X188747811Y-108879103D01*
X188948233Y-108879103D01*
X189148681Y-108879103D01*
X189148681Y-108678681D01*
X188948233Y-108678681D01*
X188948233Y-108478233D01*
X188747811Y-108478233D01*
X188547363Y-108478233D01*
X188346914Y-108478233D01*
X188346914Y-108277785D01*
X188346914Y-108077336D01*
X188346914Y-107876914D01*
X188547363Y-107876914D01*
X188747811Y-107876914D01*
X188747811Y-108077336D01*
G37*
G36*
X185741174Y-105271160D02*
G01*
X185741174Y-105471601D01*
X185741174Y-105672044D01*
X185741174Y-105872484D01*
X185741174Y-106072927D01*
X185741174Y-106273367D01*
X185741174Y-106473811D01*
X185540730Y-106473811D01*
X185340290Y-106473811D01*
X185139847Y-106473811D01*
X184939407Y-106473811D01*
X184738964Y-106473811D01*
X184538523Y-106473811D01*
X184338080Y-106473811D01*
X184338080Y-106273367D01*
X184338080Y-106072927D01*
X184338080Y-105872484D01*
X184338080Y-105672044D01*
X184538523Y-105672044D01*
X184538523Y-105872484D01*
X184538523Y-106072927D01*
X184538523Y-106273367D01*
X184738964Y-106273367D01*
X184939407Y-106273367D01*
X185139847Y-106273367D01*
X185340290Y-106273367D01*
X185540730Y-106273367D01*
X185540730Y-106072927D01*
X185540730Y-105872484D01*
X185540730Y-105672044D01*
X185540730Y-105471601D01*
X185540730Y-105271160D01*
X185340290Y-105271160D01*
X185139847Y-105271160D01*
X184939407Y-105271160D01*
X184738964Y-105271160D01*
X184538523Y-105271160D01*
X184538523Y-105471601D01*
X184538523Y-105672044D01*
X184338080Y-105672044D01*
X184338080Y-105471601D01*
X184338080Y-105271160D01*
X184338080Y-105070717D01*
X184538523Y-105070717D01*
X184738964Y-105070717D01*
X184939407Y-105070717D01*
X185139847Y-105070717D01*
X185340290Y-105070717D01*
X185540730Y-105070717D01*
X185741174Y-105070717D01*
X185741174Y-105271160D01*
G37*
G36*
X189148681Y-111083981D02*
G01*
X188948233Y-111083981D01*
X188747811Y-111083981D01*
X188747811Y-110883534D01*
X188948233Y-110883534D01*
X189148681Y-110883534D01*
X189148681Y-111083981D01*
G37*
G36*
X188948233Y-110282215D02*
G01*
X188747811Y-110282215D01*
X188747811Y-110081767D01*
X188948233Y-110081767D01*
X188948233Y-110282215D01*
G37*
G36*
X190952664Y-110883534D02*
G01*
X190752215Y-110883534D01*
X190752215Y-111083981D01*
X190551767Y-111083981D01*
X190551767Y-110883534D01*
X190551767Y-110683085D01*
X190752215Y-110683085D01*
X190952664Y-110683085D01*
X190952664Y-110883534D01*
G37*
G36*
X188146466Y-111083981D02*
G01*
X188146466Y-111284404D01*
X187946044Y-111284404D01*
X187946044Y-111083981D01*
X187946044Y-110883534D01*
X188146466Y-110883534D01*
X188146466Y-111083981D01*
G37*
G36*
X186342500Y-105471601D02*
G01*
X186142057Y-105471601D01*
X186142057Y-105271160D01*
X186342500Y-105271160D01*
X186342500Y-105471601D01*
G37*
G36*
X187745596Y-111083981D02*
G01*
X187545148Y-111083981D01*
X187545148Y-110883534D01*
X187745596Y-110883534D01*
X187745596Y-111083981D01*
G37*
G36*
X189950448Y-109079551D02*
G01*
X189750000Y-109079551D01*
X189750000Y-108879103D01*
X189950448Y-108879103D01*
X189950448Y-109079551D01*
G37*
G36*
X187144277Y-110482637D02*
G01*
X187144277Y-110683085D01*
X186943829Y-110683085D01*
X186943829Y-110482637D01*
X186943829Y-110282215D01*
X187144277Y-110282215D01*
X187144277Y-110482637D01*
G37*
G36*
X185540730Y-109881318D02*
G01*
X185340290Y-109881318D01*
X185340290Y-109680870D01*
X185540730Y-109680870D01*
X185540730Y-109881318D01*
G37*
G36*
X190952664Y-111284404D02*
G01*
X190752215Y-111284404D01*
X190752215Y-111083981D01*
X190952664Y-111083981D01*
X190952664Y-111284404D01*
G37*
G36*
X189349130Y-106273367D02*
G01*
X189349130Y-106473811D01*
X189349130Y-106674254D01*
X189148681Y-106674254D01*
X189148681Y-106473811D01*
X189148681Y-106273367D01*
X189148681Y-106072927D01*
X189349130Y-106072927D01*
X189349130Y-106273367D01*
G37*
G36*
X187745596Y-110081767D02*
G01*
X187946044Y-110081767D01*
X188146466Y-110081767D01*
X188346914Y-110081767D01*
X188346914Y-110282215D01*
X188146466Y-110282215D01*
X188146466Y-110482637D01*
X188346914Y-110482637D01*
X188346914Y-110282215D01*
X188547363Y-110282215D01*
X188547363Y-110482637D01*
X188747811Y-110482637D01*
X188747811Y-110683085D01*
X188747811Y-110883534D01*
X188547363Y-110883534D01*
X188547363Y-110683085D01*
X188346914Y-110683085D01*
X188146466Y-110683085D01*
X187946044Y-110683085D01*
X187745596Y-110683085D01*
X187545148Y-110683085D01*
X187344699Y-110683085D01*
X187344699Y-110482637D01*
X187344699Y-110282215D01*
X187745596Y-110282215D01*
X187745596Y-110482637D01*
X187946044Y-110482637D01*
X187946044Y-110282215D01*
X187745596Y-110282215D01*
X187344699Y-110282215D01*
X187344699Y-110081767D01*
X187545148Y-110081767D01*
X187545148Y-109881318D01*
X187745596Y-109881318D01*
X187745596Y-110081767D01*
G37*
D11*
X198327200Y-94227731D02*
X198374819Y-94084874D01*
X198374819Y-94084874D02*
X198374819Y-93846779D01*
X198374819Y-93846779D02*
X198327200Y-93751541D01*
X198327200Y-93751541D02*
X198279580Y-93703922D01*
X198279580Y-93703922D02*
X198184342Y-93656303D01*
X198184342Y-93656303D02*
X198089104Y-93656303D01*
X198089104Y-93656303D02*
X197993866Y-93703922D01*
X197993866Y-93703922D02*
X197946247Y-93751541D01*
X197946247Y-93751541D02*
X197898628Y-93846779D01*
X197898628Y-93846779D02*
X197851009Y-94037255D01*
X197851009Y-94037255D02*
X197803390Y-94132493D01*
X197803390Y-94132493D02*
X197755771Y-94180112D01*
X197755771Y-94180112D02*
X197660533Y-94227731D01*
X197660533Y-94227731D02*
X197565295Y-94227731D01*
X197565295Y-94227731D02*
X197470057Y-94180112D01*
X197470057Y-94180112D02*
X197422438Y-94132493D01*
X197422438Y-94132493D02*
X197374819Y-94037255D01*
X197374819Y-94037255D02*
X197374819Y-93799160D01*
X197374819Y-93799160D02*
X197422438Y-93656303D01*
X198374819Y-93227731D02*
X197374819Y-93227731D01*
X197374819Y-93227731D02*
X197374819Y-92989636D01*
X197374819Y-92989636D02*
X197422438Y-92846779D01*
X197422438Y-92846779D02*
X197517676Y-92751541D01*
X197517676Y-92751541D02*
X197612914Y-92703922D01*
X197612914Y-92703922D02*
X197803390Y-92656303D01*
X197803390Y-92656303D02*
X197946247Y-92656303D01*
X197946247Y-92656303D02*
X198136723Y-92703922D01*
X198136723Y-92703922D02*
X198231961Y-92751541D01*
X198231961Y-92751541D02*
X198327200Y-92846779D01*
X198327200Y-92846779D02*
X198374819Y-92989636D01*
X198374819Y-92989636D02*
X198374819Y-93227731D01*
X198089104Y-92275350D02*
X198089104Y-91799160D01*
X198374819Y-92370588D02*
X197374819Y-92037255D01*
X197374819Y-92037255D02*
X198374819Y-91703922D01*
X195787200Y-94180112D02*
X195834819Y-94037255D01*
X195834819Y-94037255D02*
X195834819Y-93799160D01*
X195834819Y-93799160D02*
X195787200Y-93703922D01*
X195787200Y-93703922D02*
X195739580Y-93656303D01*
X195739580Y-93656303D02*
X195644342Y-93608684D01*
X195644342Y-93608684D02*
X195549104Y-93608684D01*
X195549104Y-93608684D02*
X195453866Y-93656303D01*
X195453866Y-93656303D02*
X195406247Y-93703922D01*
X195406247Y-93703922D02*
X195358628Y-93799160D01*
X195358628Y-93799160D02*
X195311009Y-93989636D01*
X195311009Y-93989636D02*
X195263390Y-94084874D01*
X195263390Y-94084874D02*
X195215771Y-94132493D01*
X195215771Y-94132493D02*
X195120533Y-94180112D01*
X195120533Y-94180112D02*
X195025295Y-94180112D01*
X195025295Y-94180112D02*
X194930057Y-94132493D01*
X194930057Y-94132493D02*
X194882438Y-94084874D01*
X194882438Y-94084874D02*
X194834819Y-93989636D01*
X194834819Y-93989636D02*
X194834819Y-93751541D01*
X194834819Y-93751541D02*
X194882438Y-93608684D01*
X195739580Y-92608684D02*
X195787200Y-92656303D01*
X195787200Y-92656303D02*
X195834819Y-92799160D01*
X195834819Y-92799160D02*
X195834819Y-92894398D01*
X195834819Y-92894398D02*
X195787200Y-93037255D01*
X195787200Y-93037255D02*
X195691961Y-93132493D01*
X195691961Y-93132493D02*
X195596723Y-93180112D01*
X195596723Y-93180112D02*
X195406247Y-93227731D01*
X195406247Y-93227731D02*
X195263390Y-93227731D01*
X195263390Y-93227731D02*
X195072914Y-93180112D01*
X195072914Y-93180112D02*
X194977676Y-93132493D01*
X194977676Y-93132493D02*
X194882438Y-93037255D01*
X194882438Y-93037255D02*
X194834819Y-92894398D01*
X194834819Y-92894398D02*
X194834819Y-92799160D01*
X194834819Y-92799160D02*
X194882438Y-92656303D01*
X194882438Y-92656303D02*
X194930057Y-92608684D01*
X195834819Y-91703922D02*
X195834819Y-92180112D01*
X195834819Y-92180112D02*
X194834819Y-92180112D01*
X192294819Y-94370588D02*
X193294819Y-94037255D01*
X193294819Y-94037255D02*
X192294819Y-93703922D01*
X193199580Y-92799160D02*
X193247200Y-92846779D01*
X193247200Y-92846779D02*
X193294819Y-92989636D01*
X193294819Y-92989636D02*
X193294819Y-93084874D01*
X193294819Y-93084874D02*
X193247200Y-93227731D01*
X193247200Y-93227731D02*
X193151961Y-93322969D01*
X193151961Y-93322969D02*
X193056723Y-93370588D01*
X193056723Y-93370588D02*
X192866247Y-93418207D01*
X192866247Y-93418207D02*
X192723390Y-93418207D01*
X192723390Y-93418207D02*
X192532914Y-93370588D01*
X192532914Y-93370588D02*
X192437676Y-93322969D01*
X192437676Y-93322969D02*
X192342438Y-93227731D01*
X192342438Y-93227731D02*
X192294819Y-93084874D01*
X192294819Y-93084874D02*
X192294819Y-92989636D01*
X192294819Y-92989636D02*
X192342438Y-92846779D01*
X192342438Y-92846779D02*
X192390057Y-92799160D01*
X193199580Y-91799160D02*
X193247200Y-91846779D01*
X193247200Y-91846779D02*
X193294819Y-91989636D01*
X193294819Y-91989636D02*
X193294819Y-92084874D01*
X193294819Y-92084874D02*
X193247200Y-92227731D01*
X193247200Y-92227731D02*
X193151961Y-92322969D01*
X193151961Y-92322969D02*
X193056723Y-92370588D01*
X193056723Y-92370588D02*
X192866247Y-92418207D01*
X192866247Y-92418207D02*
X192723390Y-92418207D01*
X192723390Y-92418207D02*
X192532914Y-92370588D01*
X192532914Y-92370588D02*
X192437676Y-92322969D01*
X192437676Y-92322969D02*
X192342438Y-92227731D01*
X192342438Y-92227731D02*
X192294819Y-92084874D01*
X192294819Y-92084874D02*
X192294819Y-91989636D01*
X192294819Y-91989636D02*
X192342438Y-91846779D01*
X192342438Y-91846779D02*
X192390057Y-91799160D01*
X189802438Y-93894398D02*
X189754819Y-93989636D01*
X189754819Y-93989636D02*
X189754819Y-94132493D01*
X189754819Y-94132493D02*
X189802438Y-94275350D01*
X189802438Y-94275350D02*
X189897676Y-94370588D01*
X189897676Y-94370588D02*
X189992914Y-94418207D01*
X189992914Y-94418207D02*
X190183390Y-94465826D01*
X190183390Y-94465826D02*
X190326247Y-94465826D01*
X190326247Y-94465826D02*
X190516723Y-94418207D01*
X190516723Y-94418207D02*
X190611961Y-94370588D01*
X190611961Y-94370588D02*
X190707200Y-94275350D01*
X190707200Y-94275350D02*
X190754819Y-94132493D01*
X190754819Y-94132493D02*
X190754819Y-94037255D01*
X190754819Y-94037255D02*
X190707200Y-93894398D01*
X190707200Y-93894398D02*
X190659580Y-93846779D01*
X190659580Y-93846779D02*
X190326247Y-93846779D01*
X190326247Y-93846779D02*
X190326247Y-94037255D01*
X190754819Y-93418207D02*
X189754819Y-93418207D01*
X189754819Y-93418207D02*
X190754819Y-92846779D01*
X190754819Y-92846779D02*
X189754819Y-92846779D01*
X190754819Y-92370588D02*
X189754819Y-92370588D01*
X189754819Y-92370588D02*
X189754819Y-92132493D01*
X189754819Y-92132493D02*
X189802438Y-91989636D01*
X189802438Y-91989636D02*
X189897676Y-91894398D01*
X189897676Y-91894398D02*
X189992914Y-91846779D01*
X189992914Y-91846779D02*
X190183390Y-91799160D01*
X190183390Y-91799160D02*
X190326247Y-91799160D01*
X190326247Y-91799160D02*
X190516723Y-91846779D01*
X190516723Y-91846779D02*
X190611961Y-91894398D01*
X190611961Y-91894398D02*
X190707200Y-91989636D01*
X190707200Y-91989636D02*
X190754819Y-92132493D01*
X190754819Y-92132493D02*
X190754819Y-92370588D01*
X188259048Y-82164819D02*
X188259048Y-81164819D01*
X188259048Y-81641009D02*
X188830476Y-81641009D01*
X188830476Y-82164819D02*
X188830476Y-81164819D01*
X189497143Y-81164819D02*
X189687619Y-81164819D01*
X189687619Y-81164819D02*
X189782857Y-81212438D01*
X189782857Y-81212438D02*
X189878095Y-81307676D01*
X189878095Y-81307676D02*
X189925714Y-81498152D01*
X189925714Y-81498152D02*
X189925714Y-81831485D01*
X189925714Y-81831485D02*
X189878095Y-82021961D01*
X189878095Y-82021961D02*
X189782857Y-82117200D01*
X189782857Y-82117200D02*
X189687619Y-82164819D01*
X189687619Y-82164819D02*
X189497143Y-82164819D01*
X189497143Y-82164819D02*
X189401905Y-82117200D01*
X189401905Y-82117200D02*
X189306667Y-82021961D01*
X189306667Y-82021961D02*
X189259048Y-81831485D01*
X189259048Y-81831485D02*
X189259048Y-81498152D01*
X189259048Y-81498152D02*
X189306667Y-81307676D01*
X189306667Y-81307676D02*
X189401905Y-81212438D01*
X189401905Y-81212438D02*
X189497143Y-81164819D01*
X190354286Y-82164819D02*
X190354286Y-81164819D01*
X190354286Y-81164819D02*
X190687619Y-81879104D01*
X190687619Y-81879104D02*
X191020952Y-81164819D01*
X191020952Y-81164819D02*
X191020952Y-82164819D01*
X188901905Y-59304819D02*
X188901905Y-58304819D01*
X188901905Y-58304819D02*
X189282857Y-58304819D01*
X189282857Y-58304819D02*
X189378095Y-58352438D01*
X189378095Y-58352438D02*
X189425714Y-58400057D01*
X189425714Y-58400057D02*
X189473333Y-58495295D01*
X189473333Y-58495295D02*
X189473333Y-58638152D01*
X189473333Y-58638152D02*
X189425714Y-58733390D01*
X189425714Y-58733390D02*
X189378095Y-58781009D01*
X189378095Y-58781009D02*
X189282857Y-58828628D01*
X189282857Y-58828628D02*
X188901905Y-58828628D01*
X190092381Y-58304819D02*
X190187619Y-58304819D01*
X190187619Y-58304819D02*
X190282857Y-58352438D01*
X190282857Y-58352438D02*
X190330476Y-58400057D01*
X190330476Y-58400057D02*
X190378095Y-58495295D01*
X190378095Y-58495295D02*
X190425714Y-58685771D01*
X190425714Y-58685771D02*
X190425714Y-58923866D01*
X190425714Y-58923866D02*
X190378095Y-59114342D01*
X190378095Y-59114342D02*
X190330476Y-59209580D01*
X190330476Y-59209580D02*
X190282857Y-59257200D01*
X190282857Y-59257200D02*
X190187619Y-59304819D01*
X190187619Y-59304819D02*
X190092381Y-59304819D01*
X190092381Y-59304819D02*
X189997143Y-59257200D01*
X189997143Y-59257200D02*
X189949524Y-59209580D01*
X189949524Y-59209580D02*
X189901905Y-59114342D01*
X189901905Y-59114342D02*
X189854286Y-58923866D01*
X189854286Y-58923866D02*
X189854286Y-58685771D01*
X189854286Y-58685771D02*
X189901905Y-58495295D01*
X189901905Y-58495295D02*
X189949524Y-58400057D01*
X189949524Y-58400057D02*
X189997143Y-58352438D01*
X189997143Y-58352438D02*
X190092381Y-58304819D01*
X188901905Y-56764819D02*
X188901905Y-55764819D01*
X188901905Y-55764819D02*
X189282857Y-55764819D01*
X189282857Y-55764819D02*
X189378095Y-55812438D01*
X189378095Y-55812438D02*
X189425714Y-55860057D01*
X189425714Y-55860057D02*
X189473333Y-55955295D01*
X189473333Y-55955295D02*
X189473333Y-56098152D01*
X189473333Y-56098152D02*
X189425714Y-56193390D01*
X189425714Y-56193390D02*
X189378095Y-56241009D01*
X189378095Y-56241009D02*
X189282857Y-56288628D01*
X189282857Y-56288628D02*
X188901905Y-56288628D01*
X190425714Y-56764819D02*
X189854286Y-56764819D01*
X190140000Y-56764819D02*
X190140000Y-55764819D01*
X190140000Y-55764819D02*
X190044762Y-55907676D01*
X190044762Y-55907676D02*
X189949524Y-56002914D01*
X189949524Y-56002914D02*
X189854286Y-56050533D01*
X197246667Y-83704819D02*
X197818095Y-83704819D01*
X197532381Y-84704819D02*
X197532381Y-83704819D01*
X198151429Y-84704819D02*
X198151429Y-83704819D01*
X198151429Y-84181009D02*
X198722857Y-84181009D01*
X198722857Y-84704819D02*
X198722857Y-83704819D01*
X199199048Y-83704819D02*
X199199048Y-84514342D01*
X199199048Y-84514342D02*
X199246667Y-84609580D01*
X199246667Y-84609580D02*
X199294286Y-84657200D01*
X199294286Y-84657200D02*
X199389524Y-84704819D01*
X199389524Y-84704819D02*
X199580000Y-84704819D01*
X199580000Y-84704819D02*
X199675238Y-84657200D01*
X199675238Y-84657200D02*
X199722857Y-84609580D01*
X199722857Y-84609580D02*
X199770476Y-84514342D01*
X199770476Y-84514342D02*
X199770476Y-83704819D01*
X188806666Y-84181009D02*
X188949523Y-84228628D01*
X188949523Y-84228628D02*
X188997142Y-84276247D01*
X188997142Y-84276247D02*
X189044761Y-84371485D01*
X189044761Y-84371485D02*
X189044761Y-84514342D01*
X189044761Y-84514342D02*
X188997142Y-84609580D01*
X188997142Y-84609580D02*
X188949523Y-84657200D01*
X188949523Y-84657200D02*
X188854285Y-84704819D01*
X188854285Y-84704819D02*
X188473333Y-84704819D01*
X188473333Y-84704819D02*
X188473333Y-83704819D01*
X188473333Y-83704819D02*
X188806666Y-83704819D01*
X188806666Y-83704819D02*
X188901904Y-83752438D01*
X188901904Y-83752438D02*
X188949523Y-83800057D01*
X188949523Y-83800057D02*
X188997142Y-83895295D01*
X188997142Y-83895295D02*
X188997142Y-83990533D01*
X188997142Y-83990533D02*
X188949523Y-84085771D01*
X188949523Y-84085771D02*
X188901904Y-84133390D01*
X188901904Y-84133390D02*
X188806666Y-84181009D01*
X188806666Y-84181009D02*
X188473333Y-84181009D01*
X189663809Y-83704819D02*
X189854285Y-83704819D01*
X189854285Y-83704819D02*
X189949523Y-83752438D01*
X189949523Y-83752438D02*
X190044761Y-83847676D01*
X190044761Y-83847676D02*
X190092380Y-84038152D01*
X190092380Y-84038152D02*
X190092380Y-84371485D01*
X190092380Y-84371485D02*
X190044761Y-84561961D01*
X190044761Y-84561961D02*
X189949523Y-84657200D01*
X189949523Y-84657200D02*
X189854285Y-84704819D01*
X189854285Y-84704819D02*
X189663809Y-84704819D01*
X189663809Y-84704819D02*
X189568571Y-84657200D01*
X189568571Y-84657200D02*
X189473333Y-84561961D01*
X189473333Y-84561961D02*
X189425714Y-84371485D01*
X189425714Y-84371485D02*
X189425714Y-84038152D01*
X189425714Y-84038152D02*
X189473333Y-83847676D01*
X189473333Y-83847676D02*
X189568571Y-83752438D01*
X189568571Y-83752438D02*
X189663809Y-83704819D01*
X190378095Y-83704819D02*
X190949523Y-83704819D01*
X190663809Y-84704819D02*
X190663809Y-83704819D01*
X197365714Y-82117200D02*
X197508571Y-82164819D01*
X197508571Y-82164819D02*
X197746666Y-82164819D01*
X197746666Y-82164819D02*
X197841904Y-82117200D01*
X197841904Y-82117200D02*
X197889523Y-82069580D01*
X197889523Y-82069580D02*
X197937142Y-81974342D01*
X197937142Y-81974342D02*
X197937142Y-81879104D01*
X197937142Y-81879104D02*
X197889523Y-81783866D01*
X197889523Y-81783866D02*
X197841904Y-81736247D01*
X197841904Y-81736247D02*
X197746666Y-81688628D01*
X197746666Y-81688628D02*
X197556190Y-81641009D01*
X197556190Y-81641009D02*
X197460952Y-81593390D01*
X197460952Y-81593390D02*
X197413333Y-81545771D01*
X197413333Y-81545771D02*
X197365714Y-81450533D01*
X197365714Y-81450533D02*
X197365714Y-81355295D01*
X197365714Y-81355295D02*
X197413333Y-81260057D01*
X197413333Y-81260057D02*
X197460952Y-81212438D01*
X197460952Y-81212438D02*
X197556190Y-81164819D01*
X197556190Y-81164819D02*
X197794285Y-81164819D01*
X197794285Y-81164819D02*
X197937142Y-81212438D01*
X198365714Y-82164819D02*
X198365714Y-81164819D01*
X198365714Y-81164819D02*
X198603809Y-81164819D01*
X198603809Y-81164819D02*
X198746666Y-81212438D01*
X198746666Y-81212438D02*
X198841904Y-81307676D01*
X198841904Y-81307676D02*
X198889523Y-81402914D01*
X198889523Y-81402914D02*
X198937142Y-81593390D01*
X198937142Y-81593390D02*
X198937142Y-81736247D01*
X198937142Y-81736247D02*
X198889523Y-81926723D01*
X198889523Y-81926723D02*
X198841904Y-82021961D01*
X198841904Y-82021961D02*
X198746666Y-82117200D01*
X198746666Y-82117200D02*
X198603809Y-82164819D01*
X198603809Y-82164819D02*
X198365714Y-82164819D01*
X199318095Y-81879104D02*
X199794285Y-81879104D01*
X199222857Y-82164819D02*
X199556190Y-81164819D01*
X199556190Y-81164819D02*
X199889523Y-82164819D01*
X197389524Y-79577200D02*
X197532381Y-79624819D01*
X197532381Y-79624819D02*
X197770476Y-79624819D01*
X197770476Y-79624819D02*
X197865714Y-79577200D01*
X197865714Y-79577200D02*
X197913333Y-79529580D01*
X197913333Y-79529580D02*
X197960952Y-79434342D01*
X197960952Y-79434342D02*
X197960952Y-79339104D01*
X197960952Y-79339104D02*
X197913333Y-79243866D01*
X197913333Y-79243866D02*
X197865714Y-79196247D01*
X197865714Y-79196247D02*
X197770476Y-79148628D01*
X197770476Y-79148628D02*
X197580000Y-79101009D01*
X197580000Y-79101009D02*
X197484762Y-79053390D01*
X197484762Y-79053390D02*
X197437143Y-79005771D01*
X197437143Y-79005771D02*
X197389524Y-78910533D01*
X197389524Y-78910533D02*
X197389524Y-78815295D01*
X197389524Y-78815295D02*
X197437143Y-78720057D01*
X197437143Y-78720057D02*
X197484762Y-78672438D01*
X197484762Y-78672438D02*
X197580000Y-78624819D01*
X197580000Y-78624819D02*
X197818095Y-78624819D01*
X197818095Y-78624819D02*
X197960952Y-78672438D01*
X198960952Y-79529580D02*
X198913333Y-79577200D01*
X198913333Y-79577200D02*
X198770476Y-79624819D01*
X198770476Y-79624819D02*
X198675238Y-79624819D01*
X198675238Y-79624819D02*
X198532381Y-79577200D01*
X198532381Y-79577200D02*
X198437143Y-79481961D01*
X198437143Y-79481961D02*
X198389524Y-79386723D01*
X198389524Y-79386723D02*
X198341905Y-79196247D01*
X198341905Y-79196247D02*
X198341905Y-79053390D01*
X198341905Y-79053390D02*
X198389524Y-78862914D01*
X198389524Y-78862914D02*
X198437143Y-78767676D01*
X198437143Y-78767676D02*
X198532381Y-78672438D01*
X198532381Y-78672438D02*
X198675238Y-78624819D01*
X198675238Y-78624819D02*
X198770476Y-78624819D01*
X198770476Y-78624819D02*
X198913333Y-78672438D01*
X198913333Y-78672438D02*
X198960952Y-78720057D01*
X199865714Y-79624819D02*
X199389524Y-79624819D01*
X199389524Y-79624819D02*
X199389524Y-78624819D01*
X188330476Y-78624819D02*
X188901904Y-78624819D01*
X188616190Y-79624819D02*
X188616190Y-78624819D01*
X189425714Y-78624819D02*
X189616190Y-78624819D01*
X189616190Y-78624819D02*
X189711428Y-78672438D01*
X189711428Y-78672438D02*
X189806666Y-78767676D01*
X189806666Y-78767676D02*
X189854285Y-78958152D01*
X189854285Y-78958152D02*
X189854285Y-79291485D01*
X189854285Y-79291485D02*
X189806666Y-79481961D01*
X189806666Y-79481961D02*
X189711428Y-79577200D01*
X189711428Y-79577200D02*
X189616190Y-79624819D01*
X189616190Y-79624819D02*
X189425714Y-79624819D01*
X189425714Y-79624819D02*
X189330476Y-79577200D01*
X189330476Y-79577200D02*
X189235238Y-79481961D01*
X189235238Y-79481961D02*
X189187619Y-79291485D01*
X189187619Y-79291485D02*
X189187619Y-78958152D01*
X189187619Y-78958152D02*
X189235238Y-78767676D01*
X189235238Y-78767676D02*
X189330476Y-78672438D01*
X189330476Y-78672438D02*
X189425714Y-78624819D01*
X190282857Y-79624819D02*
X190282857Y-78624819D01*
X190282857Y-78624819D02*
X190663809Y-78624819D01*
X190663809Y-78624819D02*
X190759047Y-78672438D01*
X190759047Y-78672438D02*
X190806666Y-78720057D01*
X190806666Y-78720057D02*
X190854285Y-78815295D01*
X190854285Y-78815295D02*
X190854285Y-78958152D01*
X190854285Y-78958152D02*
X190806666Y-79053390D01*
X190806666Y-79053390D02*
X190759047Y-79101009D01*
X190759047Y-79101009D02*
X190663809Y-79148628D01*
X190663809Y-79148628D02*
X190282857Y-79148628D01*
X197365714Y-77084819D02*
X197365714Y-76084819D01*
X197365714Y-76084819D02*
X197746666Y-76084819D01*
X197746666Y-76084819D02*
X197841904Y-76132438D01*
X197841904Y-76132438D02*
X197889523Y-76180057D01*
X197889523Y-76180057D02*
X197937142Y-76275295D01*
X197937142Y-76275295D02*
X197937142Y-76418152D01*
X197937142Y-76418152D02*
X197889523Y-76513390D01*
X197889523Y-76513390D02*
X197841904Y-76561009D01*
X197841904Y-76561009D02*
X197746666Y-76608628D01*
X197746666Y-76608628D02*
X197365714Y-76608628D01*
X198889523Y-77084819D02*
X198318095Y-77084819D01*
X198603809Y-77084819D02*
X198603809Y-76084819D01*
X198603809Y-76084819D02*
X198508571Y-76227676D01*
X198508571Y-76227676D02*
X198413333Y-76322914D01*
X198413333Y-76322914D02*
X198318095Y-76370533D01*
X199794285Y-76084819D02*
X199318095Y-76084819D01*
X199318095Y-76084819D02*
X199270476Y-76561009D01*
X199270476Y-76561009D02*
X199318095Y-76513390D01*
X199318095Y-76513390D02*
X199413333Y-76465771D01*
X199413333Y-76465771D02*
X199651428Y-76465771D01*
X199651428Y-76465771D02*
X199746666Y-76513390D01*
X199746666Y-76513390D02*
X199794285Y-76561009D01*
X199794285Y-76561009D02*
X199841904Y-76656247D01*
X199841904Y-76656247D02*
X199841904Y-76894342D01*
X199841904Y-76894342D02*
X199794285Y-76989580D01*
X199794285Y-76989580D02*
X199746666Y-77037200D01*
X199746666Y-77037200D02*
X199651428Y-77084819D01*
X199651428Y-77084819D02*
X199413333Y-77084819D01*
X199413333Y-77084819D02*
X199318095Y-77037200D01*
X199318095Y-77037200D02*
X199270476Y-76989580D01*
X188592381Y-77084819D02*
X188592381Y-76084819D01*
X189068571Y-77084819D02*
X189068571Y-76084819D01*
X189068571Y-76084819D02*
X189639999Y-77084819D01*
X189639999Y-77084819D02*
X189639999Y-76084819D01*
X190116190Y-77084819D02*
X190116190Y-76084819D01*
X190116190Y-76084819D02*
X190687618Y-77084819D01*
X190687618Y-77084819D02*
X190687618Y-76084819D01*
X197365714Y-74544819D02*
X197365714Y-73544819D01*
X197365714Y-73544819D02*
X197746666Y-73544819D01*
X197746666Y-73544819D02*
X197841904Y-73592438D01*
X197841904Y-73592438D02*
X197889523Y-73640057D01*
X197889523Y-73640057D02*
X197937142Y-73735295D01*
X197937142Y-73735295D02*
X197937142Y-73878152D01*
X197937142Y-73878152D02*
X197889523Y-73973390D01*
X197889523Y-73973390D02*
X197841904Y-74021009D01*
X197841904Y-74021009D02*
X197746666Y-74068628D01*
X197746666Y-74068628D02*
X197365714Y-74068628D01*
X198889523Y-74544819D02*
X198318095Y-74544819D01*
X198603809Y-74544819D02*
X198603809Y-73544819D01*
X198603809Y-73544819D02*
X198508571Y-73687676D01*
X198508571Y-73687676D02*
X198413333Y-73782914D01*
X198413333Y-73782914D02*
X198318095Y-73830533D01*
X199460952Y-73973390D02*
X199365714Y-73925771D01*
X199365714Y-73925771D02*
X199318095Y-73878152D01*
X199318095Y-73878152D02*
X199270476Y-73782914D01*
X199270476Y-73782914D02*
X199270476Y-73735295D01*
X199270476Y-73735295D02*
X199318095Y-73640057D01*
X199318095Y-73640057D02*
X199365714Y-73592438D01*
X199365714Y-73592438D02*
X199460952Y-73544819D01*
X199460952Y-73544819D02*
X199651428Y-73544819D01*
X199651428Y-73544819D02*
X199746666Y-73592438D01*
X199746666Y-73592438D02*
X199794285Y-73640057D01*
X199794285Y-73640057D02*
X199841904Y-73735295D01*
X199841904Y-73735295D02*
X199841904Y-73782914D01*
X199841904Y-73782914D02*
X199794285Y-73878152D01*
X199794285Y-73878152D02*
X199746666Y-73925771D01*
X199746666Y-73925771D02*
X199651428Y-73973390D01*
X199651428Y-73973390D02*
X199460952Y-73973390D01*
X199460952Y-73973390D02*
X199365714Y-74021009D01*
X199365714Y-74021009D02*
X199318095Y-74068628D01*
X199318095Y-74068628D02*
X199270476Y-74163866D01*
X199270476Y-74163866D02*
X199270476Y-74354342D01*
X199270476Y-74354342D02*
X199318095Y-74449580D01*
X199318095Y-74449580D02*
X199365714Y-74497200D01*
X199365714Y-74497200D02*
X199460952Y-74544819D01*
X199460952Y-74544819D02*
X199651428Y-74544819D01*
X199651428Y-74544819D02*
X199746666Y-74497200D01*
X199746666Y-74497200D02*
X199794285Y-74449580D01*
X199794285Y-74449580D02*
X199841904Y-74354342D01*
X199841904Y-74354342D02*
X199841904Y-74163866D01*
X199841904Y-74163866D02*
X199794285Y-74068628D01*
X199794285Y-74068628D02*
X199746666Y-74021009D01*
X199746666Y-74021009D02*
X199651428Y-73973390D01*
X188616191Y-74544819D02*
X188616191Y-73544819D01*
X189092381Y-74544819D02*
X189092381Y-73544819D01*
X189092381Y-73544819D02*
X189663809Y-74544819D01*
X189663809Y-74544819D02*
X189663809Y-73544819D01*
X190140000Y-74544819D02*
X190140000Y-73544819D01*
X190140000Y-73544819D02*
X190378095Y-73544819D01*
X190378095Y-73544819D02*
X190520952Y-73592438D01*
X190520952Y-73592438D02*
X190616190Y-73687676D01*
X190616190Y-73687676D02*
X190663809Y-73782914D01*
X190663809Y-73782914D02*
X190711428Y-73973390D01*
X190711428Y-73973390D02*
X190711428Y-74116247D01*
X190711428Y-74116247D02*
X190663809Y-74306723D01*
X190663809Y-74306723D02*
X190616190Y-74401961D01*
X190616190Y-74401961D02*
X190520952Y-74497200D01*
X190520952Y-74497200D02*
X190378095Y-74544819D01*
X190378095Y-74544819D02*
X190140000Y-74544819D01*
X197365714Y-72004819D02*
X197365714Y-71004819D01*
X197365714Y-71004819D02*
X197746666Y-71004819D01*
X197746666Y-71004819D02*
X197841904Y-71052438D01*
X197841904Y-71052438D02*
X197889523Y-71100057D01*
X197889523Y-71100057D02*
X197937142Y-71195295D01*
X197937142Y-71195295D02*
X197937142Y-71338152D01*
X197937142Y-71338152D02*
X197889523Y-71433390D01*
X197889523Y-71433390D02*
X197841904Y-71481009D01*
X197841904Y-71481009D02*
X197746666Y-71528628D01*
X197746666Y-71528628D02*
X197365714Y-71528628D01*
X198889523Y-72004819D02*
X198318095Y-72004819D01*
X198603809Y-72004819D02*
X198603809Y-71004819D01*
X198603809Y-71004819D02*
X198508571Y-71147676D01*
X198508571Y-71147676D02*
X198413333Y-71242914D01*
X198413333Y-71242914D02*
X198318095Y-71290533D01*
X199365714Y-72004819D02*
X199556190Y-72004819D01*
X199556190Y-72004819D02*
X199651428Y-71957200D01*
X199651428Y-71957200D02*
X199699047Y-71909580D01*
X199699047Y-71909580D02*
X199794285Y-71766723D01*
X199794285Y-71766723D02*
X199841904Y-71576247D01*
X199841904Y-71576247D02*
X199841904Y-71195295D01*
X199841904Y-71195295D02*
X199794285Y-71100057D01*
X199794285Y-71100057D02*
X199746666Y-71052438D01*
X199746666Y-71052438D02*
X199651428Y-71004819D01*
X199651428Y-71004819D02*
X199460952Y-71004819D01*
X199460952Y-71004819D02*
X199365714Y-71052438D01*
X199365714Y-71052438D02*
X199318095Y-71100057D01*
X199318095Y-71100057D02*
X199270476Y-71195295D01*
X199270476Y-71195295D02*
X199270476Y-71433390D01*
X199270476Y-71433390D02*
X199318095Y-71528628D01*
X199318095Y-71528628D02*
X199365714Y-71576247D01*
X199365714Y-71576247D02*
X199460952Y-71623866D01*
X199460952Y-71623866D02*
X199651428Y-71623866D01*
X199651428Y-71623866D02*
X199746666Y-71576247D01*
X199746666Y-71576247D02*
X199794285Y-71528628D01*
X199794285Y-71528628D02*
X199841904Y-71433390D01*
X188568572Y-72004819D02*
X188568572Y-71004819D01*
X188568572Y-71004819D02*
X188901905Y-71719104D01*
X188901905Y-71719104D02*
X189235238Y-71004819D01*
X189235238Y-71004819D02*
X189235238Y-72004819D01*
X189711429Y-72004819D02*
X189711429Y-71004819D01*
X190187619Y-72004819D02*
X190187619Y-71004819D01*
X190187619Y-71004819D02*
X190425714Y-71004819D01*
X190425714Y-71004819D02*
X190568571Y-71052438D01*
X190568571Y-71052438D02*
X190663809Y-71147676D01*
X190663809Y-71147676D02*
X190711428Y-71242914D01*
X190711428Y-71242914D02*
X190759047Y-71433390D01*
X190759047Y-71433390D02*
X190759047Y-71576247D01*
X190759047Y-71576247D02*
X190711428Y-71766723D01*
X190711428Y-71766723D02*
X190663809Y-71861961D01*
X190663809Y-71861961D02*
X190568571Y-71957200D01*
X190568571Y-71957200D02*
X190425714Y-72004819D01*
X190425714Y-72004819D02*
X190187619Y-72004819D01*
X197365714Y-69464819D02*
X197365714Y-68464819D01*
X197365714Y-68464819D02*
X197746666Y-68464819D01*
X197746666Y-68464819D02*
X197841904Y-68512438D01*
X197841904Y-68512438D02*
X197889523Y-68560057D01*
X197889523Y-68560057D02*
X197937142Y-68655295D01*
X197937142Y-68655295D02*
X197937142Y-68798152D01*
X197937142Y-68798152D02*
X197889523Y-68893390D01*
X197889523Y-68893390D02*
X197841904Y-68941009D01*
X197841904Y-68941009D02*
X197746666Y-68988628D01*
X197746666Y-68988628D02*
X197365714Y-68988628D01*
X198318095Y-68560057D02*
X198365714Y-68512438D01*
X198365714Y-68512438D02*
X198460952Y-68464819D01*
X198460952Y-68464819D02*
X198699047Y-68464819D01*
X198699047Y-68464819D02*
X198794285Y-68512438D01*
X198794285Y-68512438D02*
X198841904Y-68560057D01*
X198841904Y-68560057D02*
X198889523Y-68655295D01*
X198889523Y-68655295D02*
X198889523Y-68750533D01*
X198889523Y-68750533D02*
X198841904Y-68893390D01*
X198841904Y-68893390D02*
X198270476Y-69464819D01*
X198270476Y-69464819D02*
X198889523Y-69464819D01*
X199508571Y-68464819D02*
X199603809Y-68464819D01*
X199603809Y-68464819D02*
X199699047Y-68512438D01*
X199699047Y-68512438D02*
X199746666Y-68560057D01*
X199746666Y-68560057D02*
X199794285Y-68655295D01*
X199794285Y-68655295D02*
X199841904Y-68845771D01*
X199841904Y-68845771D02*
X199841904Y-69083866D01*
X199841904Y-69083866D02*
X199794285Y-69274342D01*
X199794285Y-69274342D02*
X199746666Y-69369580D01*
X199746666Y-69369580D02*
X199699047Y-69417200D01*
X199699047Y-69417200D02*
X199603809Y-69464819D01*
X199603809Y-69464819D02*
X199508571Y-69464819D01*
X199508571Y-69464819D02*
X199413333Y-69417200D01*
X199413333Y-69417200D02*
X199365714Y-69369580D01*
X199365714Y-69369580D02*
X199318095Y-69274342D01*
X199318095Y-69274342D02*
X199270476Y-69083866D01*
X199270476Y-69083866D02*
X199270476Y-68845771D01*
X199270476Y-68845771D02*
X199318095Y-68655295D01*
X199318095Y-68655295D02*
X199365714Y-68560057D01*
X199365714Y-68560057D02*
X199413333Y-68512438D01*
X199413333Y-68512438D02*
X199508571Y-68464819D01*
X189187619Y-69464819D02*
X188854286Y-68988628D01*
X188616191Y-69464819D02*
X188616191Y-68464819D01*
X188616191Y-68464819D02*
X188997143Y-68464819D01*
X188997143Y-68464819D02*
X189092381Y-68512438D01*
X189092381Y-68512438D02*
X189140000Y-68560057D01*
X189140000Y-68560057D02*
X189187619Y-68655295D01*
X189187619Y-68655295D02*
X189187619Y-68798152D01*
X189187619Y-68798152D02*
X189140000Y-68893390D01*
X189140000Y-68893390D02*
X189092381Y-68941009D01*
X189092381Y-68941009D02*
X188997143Y-68988628D01*
X188997143Y-68988628D02*
X188616191Y-68988628D01*
X189616191Y-69464819D02*
X189616191Y-68464819D01*
X190092381Y-69464819D02*
X190092381Y-68464819D01*
X190092381Y-68464819D02*
X190663809Y-69464819D01*
X190663809Y-69464819D02*
X190663809Y-68464819D01*
X197365714Y-66924819D02*
X197365714Y-65924819D01*
X197365714Y-65924819D02*
X197746666Y-65924819D01*
X197746666Y-65924819D02*
X197841904Y-65972438D01*
X197841904Y-65972438D02*
X197889523Y-66020057D01*
X197889523Y-66020057D02*
X197937142Y-66115295D01*
X197937142Y-66115295D02*
X197937142Y-66258152D01*
X197937142Y-66258152D02*
X197889523Y-66353390D01*
X197889523Y-66353390D02*
X197841904Y-66401009D01*
X197841904Y-66401009D02*
X197746666Y-66448628D01*
X197746666Y-66448628D02*
X197365714Y-66448628D01*
X198318095Y-66020057D02*
X198365714Y-65972438D01*
X198365714Y-65972438D02*
X198460952Y-65924819D01*
X198460952Y-65924819D02*
X198699047Y-65924819D01*
X198699047Y-65924819D02*
X198794285Y-65972438D01*
X198794285Y-65972438D02*
X198841904Y-66020057D01*
X198841904Y-66020057D02*
X198889523Y-66115295D01*
X198889523Y-66115295D02*
X198889523Y-66210533D01*
X198889523Y-66210533D02*
X198841904Y-66353390D01*
X198841904Y-66353390D02*
X198270476Y-66924819D01*
X198270476Y-66924819D02*
X198889523Y-66924819D01*
X199841904Y-66924819D02*
X199270476Y-66924819D01*
X199556190Y-66924819D02*
X199556190Y-65924819D01*
X199556190Y-65924819D02*
X199460952Y-66067676D01*
X199460952Y-66067676D02*
X199365714Y-66162914D01*
X199365714Y-66162914D02*
X199270476Y-66210533D01*
X188616191Y-66924819D02*
X188616191Y-65924819D01*
X188616191Y-65924819D02*
X188997143Y-65924819D01*
X188997143Y-65924819D02*
X189092381Y-65972438D01*
X189092381Y-65972438D02*
X189140000Y-66020057D01*
X189140000Y-66020057D02*
X189187619Y-66115295D01*
X189187619Y-66115295D02*
X189187619Y-66258152D01*
X189187619Y-66258152D02*
X189140000Y-66353390D01*
X189140000Y-66353390D02*
X189092381Y-66401009D01*
X189092381Y-66401009D02*
X188997143Y-66448628D01*
X188997143Y-66448628D02*
X188616191Y-66448628D01*
X189616191Y-66924819D02*
X189616191Y-65924819D01*
X190092381Y-66924819D02*
X190092381Y-65924819D01*
X190092381Y-65924819D02*
X190663809Y-66924819D01*
X190663809Y-66924819D02*
X190663809Y-65924819D01*
X197246667Y-63384819D02*
X197580000Y-64384819D01*
X197580000Y-64384819D02*
X197913333Y-63384819D01*
X198818095Y-64289580D02*
X198770476Y-64337200D01*
X198770476Y-64337200D02*
X198627619Y-64384819D01*
X198627619Y-64384819D02*
X198532381Y-64384819D01*
X198532381Y-64384819D02*
X198389524Y-64337200D01*
X198389524Y-64337200D02*
X198294286Y-64241961D01*
X198294286Y-64241961D02*
X198246667Y-64146723D01*
X198246667Y-64146723D02*
X198199048Y-63956247D01*
X198199048Y-63956247D02*
X198199048Y-63813390D01*
X198199048Y-63813390D02*
X198246667Y-63622914D01*
X198246667Y-63622914D02*
X198294286Y-63527676D01*
X198294286Y-63527676D02*
X198389524Y-63432438D01*
X198389524Y-63432438D02*
X198532381Y-63384819D01*
X198532381Y-63384819D02*
X198627619Y-63384819D01*
X198627619Y-63384819D02*
X198770476Y-63432438D01*
X198770476Y-63432438D02*
X198818095Y-63480057D01*
X199818095Y-64289580D02*
X199770476Y-64337200D01*
X199770476Y-64337200D02*
X199627619Y-64384819D01*
X199627619Y-64384819D02*
X199532381Y-64384819D01*
X199532381Y-64384819D02*
X199389524Y-64337200D01*
X199389524Y-64337200D02*
X199294286Y-64241961D01*
X199294286Y-64241961D02*
X199246667Y-64146723D01*
X199246667Y-64146723D02*
X199199048Y-63956247D01*
X199199048Y-63956247D02*
X199199048Y-63813390D01*
X199199048Y-63813390D02*
X199246667Y-63622914D01*
X199246667Y-63622914D02*
X199294286Y-63527676D01*
X199294286Y-63527676D02*
X199389524Y-63432438D01*
X199389524Y-63432438D02*
X199532381Y-63384819D01*
X199532381Y-63384819D02*
X199627619Y-63384819D01*
X199627619Y-63384819D02*
X199770476Y-63432438D01*
X199770476Y-63432438D02*
X199818095Y-63480057D01*
X188878095Y-63432438D02*
X188782857Y-63384819D01*
X188782857Y-63384819D02*
X188640000Y-63384819D01*
X188640000Y-63384819D02*
X188497143Y-63432438D01*
X188497143Y-63432438D02*
X188401905Y-63527676D01*
X188401905Y-63527676D02*
X188354286Y-63622914D01*
X188354286Y-63622914D02*
X188306667Y-63813390D01*
X188306667Y-63813390D02*
X188306667Y-63956247D01*
X188306667Y-63956247D02*
X188354286Y-64146723D01*
X188354286Y-64146723D02*
X188401905Y-64241961D01*
X188401905Y-64241961D02*
X188497143Y-64337200D01*
X188497143Y-64337200D02*
X188640000Y-64384819D01*
X188640000Y-64384819D02*
X188735238Y-64384819D01*
X188735238Y-64384819D02*
X188878095Y-64337200D01*
X188878095Y-64337200D02*
X188925714Y-64289580D01*
X188925714Y-64289580D02*
X188925714Y-63956247D01*
X188925714Y-63956247D02*
X188735238Y-63956247D01*
X189354286Y-64384819D02*
X189354286Y-63384819D01*
X189354286Y-63384819D02*
X189925714Y-64384819D01*
X189925714Y-64384819D02*
X189925714Y-63384819D01*
X190401905Y-64384819D02*
X190401905Y-63384819D01*
X190401905Y-63384819D02*
X190640000Y-63384819D01*
X190640000Y-63384819D02*
X190782857Y-63432438D01*
X190782857Y-63432438D02*
X190878095Y-63527676D01*
X190878095Y-63527676D02*
X190925714Y-63622914D01*
X190925714Y-63622914D02*
X190973333Y-63813390D01*
X190973333Y-63813390D02*
X190973333Y-63956247D01*
X190973333Y-63956247D02*
X190925714Y-64146723D01*
X190925714Y-64146723D02*
X190878095Y-64241961D01*
X190878095Y-64241961D02*
X190782857Y-64337200D01*
X190782857Y-64337200D02*
X190640000Y-64384819D01*
X190640000Y-64384819D02*
X190401905Y-64384819D01*
X198032380Y-61844819D02*
X197699047Y-61368628D01*
X197460952Y-61844819D02*
X197460952Y-60844819D01*
X197460952Y-60844819D02*
X197841904Y-60844819D01*
X197841904Y-60844819D02*
X197937142Y-60892438D01*
X197937142Y-60892438D02*
X197984761Y-60940057D01*
X197984761Y-60940057D02*
X198032380Y-61035295D01*
X198032380Y-61035295D02*
X198032380Y-61178152D01*
X198032380Y-61178152D02*
X197984761Y-61273390D01*
X197984761Y-61273390D02*
X197937142Y-61321009D01*
X197937142Y-61321009D02*
X197841904Y-61368628D01*
X197841904Y-61368628D02*
X197460952Y-61368628D01*
X198413333Y-61797200D02*
X198556190Y-61844819D01*
X198556190Y-61844819D02*
X198794285Y-61844819D01*
X198794285Y-61844819D02*
X198889523Y-61797200D01*
X198889523Y-61797200D02*
X198937142Y-61749580D01*
X198937142Y-61749580D02*
X198984761Y-61654342D01*
X198984761Y-61654342D02*
X198984761Y-61559104D01*
X198984761Y-61559104D02*
X198937142Y-61463866D01*
X198937142Y-61463866D02*
X198889523Y-61416247D01*
X198889523Y-61416247D02*
X198794285Y-61368628D01*
X198794285Y-61368628D02*
X198603809Y-61321009D01*
X198603809Y-61321009D02*
X198508571Y-61273390D01*
X198508571Y-61273390D02*
X198460952Y-61225771D01*
X198460952Y-61225771D02*
X198413333Y-61130533D01*
X198413333Y-61130533D02*
X198413333Y-61035295D01*
X198413333Y-61035295D02*
X198460952Y-60940057D01*
X198460952Y-60940057D02*
X198508571Y-60892438D01*
X198508571Y-60892438D02*
X198603809Y-60844819D01*
X198603809Y-60844819D02*
X198841904Y-60844819D01*
X198841904Y-60844819D02*
X198984761Y-60892438D01*
X199270476Y-60844819D02*
X199841904Y-60844819D01*
X199556190Y-61844819D02*
X199556190Y-60844819D01*
X188878095Y-60892438D02*
X188782857Y-60844819D01*
X188782857Y-60844819D02*
X188640000Y-60844819D01*
X188640000Y-60844819D02*
X188497143Y-60892438D01*
X188497143Y-60892438D02*
X188401905Y-60987676D01*
X188401905Y-60987676D02*
X188354286Y-61082914D01*
X188354286Y-61082914D02*
X188306667Y-61273390D01*
X188306667Y-61273390D02*
X188306667Y-61416247D01*
X188306667Y-61416247D02*
X188354286Y-61606723D01*
X188354286Y-61606723D02*
X188401905Y-61701961D01*
X188401905Y-61701961D02*
X188497143Y-61797200D01*
X188497143Y-61797200D02*
X188640000Y-61844819D01*
X188640000Y-61844819D02*
X188735238Y-61844819D01*
X188735238Y-61844819D02*
X188878095Y-61797200D01*
X188878095Y-61797200D02*
X188925714Y-61749580D01*
X188925714Y-61749580D02*
X188925714Y-61416247D01*
X188925714Y-61416247D02*
X188735238Y-61416247D01*
X189354286Y-61844819D02*
X189354286Y-60844819D01*
X189354286Y-60844819D02*
X189925714Y-61844819D01*
X189925714Y-61844819D02*
X189925714Y-60844819D01*
X190401905Y-61844819D02*
X190401905Y-60844819D01*
X190401905Y-60844819D02*
X190640000Y-60844819D01*
X190640000Y-60844819D02*
X190782857Y-60892438D01*
X190782857Y-60892438D02*
X190878095Y-60987676D01*
X190878095Y-60987676D02*
X190925714Y-61082914D01*
X190925714Y-61082914D02*
X190973333Y-61273390D01*
X190973333Y-61273390D02*
X190973333Y-61416247D01*
X190973333Y-61416247D02*
X190925714Y-61606723D01*
X190925714Y-61606723D02*
X190878095Y-61701961D01*
X190878095Y-61701961D02*
X190782857Y-61797200D01*
X190782857Y-61797200D02*
X190640000Y-61844819D01*
X190640000Y-61844819D02*
X190401905Y-61844819D01*
X197818095Y-58352438D02*
X197722857Y-58304819D01*
X197722857Y-58304819D02*
X197580000Y-58304819D01*
X197580000Y-58304819D02*
X197437143Y-58352438D01*
X197437143Y-58352438D02*
X197341905Y-58447676D01*
X197341905Y-58447676D02*
X197294286Y-58542914D01*
X197294286Y-58542914D02*
X197246667Y-58733390D01*
X197246667Y-58733390D02*
X197246667Y-58876247D01*
X197246667Y-58876247D02*
X197294286Y-59066723D01*
X197294286Y-59066723D02*
X197341905Y-59161961D01*
X197341905Y-59161961D02*
X197437143Y-59257200D01*
X197437143Y-59257200D02*
X197580000Y-59304819D01*
X197580000Y-59304819D02*
X197675238Y-59304819D01*
X197675238Y-59304819D02*
X197818095Y-59257200D01*
X197818095Y-59257200D02*
X197865714Y-59209580D01*
X197865714Y-59209580D02*
X197865714Y-58876247D01*
X197865714Y-58876247D02*
X197675238Y-58876247D01*
X198294286Y-59304819D02*
X198294286Y-58304819D01*
X198294286Y-58304819D02*
X198865714Y-59304819D01*
X198865714Y-59304819D02*
X198865714Y-58304819D01*
X199341905Y-59304819D02*
X199341905Y-58304819D01*
X199341905Y-58304819D02*
X199580000Y-58304819D01*
X199580000Y-58304819D02*
X199722857Y-58352438D01*
X199722857Y-58352438D02*
X199818095Y-58447676D01*
X199818095Y-58447676D02*
X199865714Y-58542914D01*
X199865714Y-58542914D02*
X199913333Y-58733390D01*
X199913333Y-58733390D02*
X199913333Y-58876247D01*
X199913333Y-58876247D02*
X199865714Y-59066723D01*
X199865714Y-59066723D02*
X199818095Y-59161961D01*
X199818095Y-59161961D02*
X199722857Y-59257200D01*
X199722857Y-59257200D02*
X199580000Y-59304819D01*
X199580000Y-59304819D02*
X199341905Y-59304819D01*
X197889523Y-56764819D02*
X197556190Y-56288628D01*
X197318095Y-56764819D02*
X197318095Y-55764819D01*
X197318095Y-55764819D02*
X197699047Y-55764819D01*
X197699047Y-55764819D02*
X197794285Y-55812438D01*
X197794285Y-55812438D02*
X197841904Y-55860057D01*
X197841904Y-55860057D02*
X197889523Y-55955295D01*
X197889523Y-55955295D02*
X197889523Y-56098152D01*
X197889523Y-56098152D02*
X197841904Y-56193390D01*
X197841904Y-56193390D02*
X197794285Y-56241009D01*
X197794285Y-56241009D02*
X197699047Y-56288628D01*
X197699047Y-56288628D02*
X197318095Y-56288628D01*
X198270476Y-56479104D02*
X198746666Y-56479104D01*
X198175238Y-56764819D02*
X198508571Y-55764819D01*
X198508571Y-55764819D02*
X198841904Y-56764819D01*
X199080000Y-55764819D02*
X199318095Y-56764819D01*
X199318095Y-56764819D02*
X199508571Y-56050533D01*
X199508571Y-56050533D02*
X199699047Y-56764819D01*
X199699047Y-56764819D02*
X199937143Y-55764819D01*
X200157619Y-107714819D02*
X200348095Y-107714819D01*
X200348095Y-107714819D02*
X200443333Y-107762438D01*
X200443333Y-107762438D02*
X200538571Y-107857676D01*
X200538571Y-107857676D02*
X200586190Y-108048152D01*
X200586190Y-108048152D02*
X200586190Y-108381485D01*
X200586190Y-108381485D02*
X200538571Y-108571961D01*
X200538571Y-108571961D02*
X200443333Y-108667200D01*
X200443333Y-108667200D02*
X200348095Y-108714819D01*
X200348095Y-108714819D02*
X200157619Y-108714819D01*
X200157619Y-108714819D02*
X200062381Y-108667200D01*
X200062381Y-108667200D02*
X199967143Y-108571961D01*
X199967143Y-108571961D02*
X199919524Y-108381485D01*
X199919524Y-108381485D02*
X199919524Y-108048152D01*
X199919524Y-108048152D02*
X199967143Y-107857676D01*
X199967143Y-107857676D02*
X200062381Y-107762438D01*
X200062381Y-107762438D02*
X200157619Y-107714819D01*
X201348095Y-108191009D02*
X201014762Y-108191009D01*
X201014762Y-108714819D02*
X201014762Y-107714819D01*
X201014762Y-107714819D02*
X201490952Y-107714819D01*
X202205238Y-108191009D02*
X201871905Y-108191009D01*
X201871905Y-108714819D02*
X201871905Y-107714819D01*
X201871905Y-107714819D02*
X202348095Y-107714819D01*
X200490952Y-117714819D02*
X200681428Y-117714819D01*
X200681428Y-117714819D02*
X200776666Y-117762438D01*
X200776666Y-117762438D02*
X200871904Y-117857676D01*
X200871904Y-117857676D02*
X200919523Y-118048152D01*
X200919523Y-118048152D02*
X200919523Y-118381485D01*
X200919523Y-118381485D02*
X200871904Y-118571961D01*
X200871904Y-118571961D02*
X200776666Y-118667200D01*
X200776666Y-118667200D02*
X200681428Y-118714819D01*
X200681428Y-118714819D02*
X200490952Y-118714819D01*
X200490952Y-118714819D02*
X200395714Y-118667200D01*
X200395714Y-118667200D02*
X200300476Y-118571961D01*
X200300476Y-118571961D02*
X200252857Y-118381485D01*
X200252857Y-118381485D02*
X200252857Y-118048152D01*
X200252857Y-118048152D02*
X200300476Y-117857676D01*
X200300476Y-117857676D02*
X200395714Y-117762438D01*
X200395714Y-117762438D02*
X200490952Y-117714819D01*
X201348095Y-118714819D02*
X201348095Y-117714819D01*
X201348095Y-117714819D02*
X201919523Y-118714819D01*
X201919523Y-118714819D02*
X201919523Y-117714819D01*
X201564819Y-99557619D02*
X201088628Y-99890952D01*
X201564819Y-100129047D02*
X200564819Y-100129047D01*
X200564819Y-100129047D02*
X200564819Y-99748095D01*
X200564819Y-99748095D02*
X200612438Y-99652857D01*
X200612438Y-99652857D02*
X200660057Y-99605238D01*
X200660057Y-99605238D02*
X200755295Y-99557619D01*
X200755295Y-99557619D02*
X200898152Y-99557619D01*
X200898152Y-99557619D02*
X200993390Y-99605238D01*
X200993390Y-99605238D02*
X201041009Y-99652857D01*
X201041009Y-99652857D02*
X201088628Y-99748095D01*
X201088628Y-99748095D02*
X201088628Y-100129047D01*
X201517200Y-99176666D02*
X201564819Y-99033809D01*
X201564819Y-99033809D02*
X201564819Y-98795714D01*
X201564819Y-98795714D02*
X201517200Y-98700476D01*
X201517200Y-98700476D02*
X201469580Y-98652857D01*
X201469580Y-98652857D02*
X201374342Y-98605238D01*
X201374342Y-98605238D02*
X201279104Y-98605238D01*
X201279104Y-98605238D02*
X201183866Y-98652857D01*
X201183866Y-98652857D02*
X201136247Y-98700476D01*
X201136247Y-98700476D02*
X201088628Y-98795714D01*
X201088628Y-98795714D02*
X201041009Y-98986190D01*
X201041009Y-98986190D02*
X200993390Y-99081428D01*
X200993390Y-99081428D02*
X200945771Y-99129047D01*
X200945771Y-99129047D02*
X200850533Y-99176666D01*
X200850533Y-99176666D02*
X200755295Y-99176666D01*
X200755295Y-99176666D02*
X200660057Y-99129047D01*
X200660057Y-99129047D02*
X200612438Y-99081428D01*
X200612438Y-99081428D02*
X200564819Y-98986190D01*
X200564819Y-98986190D02*
X200564819Y-98748095D01*
X200564819Y-98748095D02*
X200612438Y-98605238D01*
X200564819Y-98319523D02*
X200564819Y-97748095D01*
X201564819Y-98033809D02*
X200564819Y-98033809D01*
D12*
%TO.C,S1*%
X97110000Y-107490000D02*
X98990000Y-107490000D01*
X95890000Y-106240000D02*
X97110000Y-107490000D01*
%TO.C,S2*%
X97110000Y-88490000D02*
X98990000Y-88490000D01*
X95890000Y-87240000D02*
X97110000Y-88490000D01*
%TO.C,S3*%
X97110000Y-69490000D02*
X98990000Y-69490000D01*
X95890000Y-68240000D02*
X97110000Y-69490000D01*
%TO.C,S4*%
X116110000Y-88490000D02*
X117990000Y-88490000D01*
X114890000Y-87240000D02*
X116110000Y-88490000D01*
%TO.C,S5*%
X116110000Y-69490000D02*
X117990000Y-69490000D01*
X114890000Y-68240000D02*
X116110000Y-69490000D01*
%TO.C,S6*%
X116110000Y-50490000D02*
X117990000Y-50490000D01*
X114890000Y-49240000D02*
X116110000Y-50490000D01*
%TO.C,S7*%
X135110000Y-83740000D02*
X136990000Y-83740000D01*
X133890000Y-82490000D02*
X135110000Y-83740000D01*
%TO.C,S8*%
X135110000Y-64740000D02*
X136990000Y-64740000D01*
X133890000Y-63490000D02*
X135110000Y-64740000D01*
%TO.C,S9*%
X135110000Y-45740000D02*
X136990000Y-45740000D01*
X133890000Y-44490000D02*
X135110000Y-45740000D01*
%TO.C,S10*%
X154110000Y-93240000D02*
X155990000Y-93240000D01*
X152890000Y-91990000D02*
X154110000Y-93240000D01*
%TO.C,S11*%
X154110000Y-74240000D02*
X155990000Y-74240000D01*
X152890000Y-72990000D02*
X154110000Y-74240000D01*
%TO.C,S12*%
X154110000Y-55240000D02*
X155990000Y-55240000D01*
X152890000Y-53990000D02*
X154110000Y-55240000D01*
%TO.C,S13*%
X173110000Y-97990000D02*
X174990000Y-97990000D01*
X171890000Y-96740000D02*
X173110000Y-97990000D01*
%TO.C,S14*%
X173110000Y-78990000D02*
X174990000Y-78990000D01*
X171890000Y-77740000D02*
X173110000Y-78990000D01*
%TO.C,S15*%
X173110000Y-59990000D02*
X174990000Y-59990000D01*
X171890000Y-58740000D02*
X173110000Y-59990000D01*
%TO.C,S16*%
X154110000Y-116990000D02*
X155990000Y-116990000D01*
X152890000Y-115740000D02*
X154110000Y-116990000D01*
%TO.C,S17*%
X176762224Y-119450867D02*
X178578165Y-119937447D01*
X175907318Y-117927700D02*
X176762224Y-119450867D01*
%TO.C,S18*%
X198370000Y-129202616D02*
X199998128Y-130142616D01*
X197938449Y-127510084D02*
X198370000Y-129202616D01*
%TO.C,D1*%
X103560000Y-113010000D02*
X103160000Y-113010000D01*
X103160000Y-113010000D02*
X103160000Y-113560000D01*
X103160000Y-113010000D02*
X103160000Y-112460000D01*
X103160000Y-113010000D02*
X102560000Y-113410000D01*
X102560000Y-113410000D02*
X102560000Y-112610000D01*
X102560000Y-112610000D02*
X103160000Y-113010000D01*
X102560000Y-113010000D02*
X102060000Y-113010000D01*
%TO.C,D2*%
X103560000Y-94010000D02*
X103160000Y-94010000D01*
X103160000Y-94010000D02*
X103160000Y-94560000D01*
X103160000Y-94010000D02*
X103160000Y-93460000D01*
X103160000Y-94010000D02*
X102560000Y-94410000D01*
X102560000Y-94410000D02*
X102560000Y-93610000D01*
X102560000Y-93610000D02*
X103160000Y-94010000D01*
X102560000Y-94010000D02*
X102060000Y-94010000D01*
%TO.C,D3*%
X103560000Y-75010000D02*
X103160000Y-75010000D01*
X103160000Y-75010000D02*
X103160000Y-75560000D01*
X103160000Y-75010000D02*
X103160000Y-74460000D01*
X103160000Y-75010000D02*
X102560000Y-75410000D01*
X102560000Y-75410000D02*
X102560000Y-74610000D01*
X102560000Y-74610000D02*
X103160000Y-75010000D01*
X102560000Y-75010000D02*
X102060000Y-75010000D01*
%TO.C,D4*%
X122560000Y-94010000D02*
X122160000Y-94010000D01*
X122160000Y-94010000D02*
X122160000Y-94560000D01*
X122160000Y-94010000D02*
X122160000Y-93460000D01*
X122160000Y-94010000D02*
X121560000Y-94410000D01*
X121560000Y-94410000D02*
X121560000Y-93610000D01*
X121560000Y-93610000D02*
X122160000Y-94010000D01*
X121560000Y-94010000D02*
X121060000Y-94010000D01*
%TO.C,D5*%
X122560000Y-75010000D02*
X122160000Y-75010000D01*
X122160000Y-75010000D02*
X122160000Y-75560000D01*
X122160000Y-75010000D02*
X122160000Y-74460000D01*
X122160000Y-75010000D02*
X121560000Y-75410000D01*
X121560000Y-75410000D02*
X121560000Y-74610000D01*
X121560000Y-74610000D02*
X122160000Y-75010000D01*
X121560000Y-75010000D02*
X121060000Y-75010000D01*
%TO.C,D6*%
X122560000Y-56010000D02*
X122160000Y-56010000D01*
X122160000Y-56010000D02*
X122160000Y-56560000D01*
X122160000Y-56010000D02*
X122160000Y-55460000D01*
X122160000Y-56010000D02*
X121560000Y-56410000D01*
X121560000Y-56410000D02*
X121560000Y-55610000D01*
X121560000Y-55610000D02*
X122160000Y-56010000D01*
X121560000Y-56010000D02*
X121060000Y-56010000D01*
%TO.C,D7*%
X141560000Y-89260000D02*
X141160000Y-89260000D01*
X141160000Y-89260000D02*
X141160000Y-89810000D01*
X141160000Y-89260000D02*
X141160000Y-88710000D01*
X141160000Y-89260000D02*
X140560000Y-89660000D01*
X140560000Y-89660000D02*
X140560000Y-88860000D01*
X140560000Y-88860000D02*
X141160000Y-89260000D01*
X140560000Y-89260000D02*
X140060000Y-89260000D01*
%TO.C,D8*%
X141560000Y-70260000D02*
X141160000Y-70260000D01*
X141160000Y-70260000D02*
X141160000Y-70810000D01*
X141160000Y-70260000D02*
X141160000Y-69710000D01*
X141160000Y-70260000D02*
X140560000Y-70660000D01*
X140560000Y-70660000D02*
X140560000Y-69860000D01*
X140560000Y-69860000D02*
X141160000Y-70260000D01*
X140560000Y-70260000D02*
X140060000Y-70260000D01*
%TO.C,D9*%
X141560000Y-51260000D02*
X141160000Y-51260000D01*
X141160000Y-51260000D02*
X141160000Y-51810000D01*
X141160000Y-51260000D02*
X141160000Y-50710000D01*
X141160000Y-51260000D02*
X140560000Y-51660000D01*
X140560000Y-51660000D02*
X140560000Y-50860000D01*
X140560000Y-50860000D02*
X141160000Y-51260000D01*
X140560000Y-51260000D02*
X140060000Y-51260000D01*
%TO.C,D10*%
X160560000Y-98760000D02*
X160160000Y-98760000D01*
X160160000Y-98760000D02*
X160160000Y-99310000D01*
X160160000Y-98760000D02*
X160160000Y-98210000D01*
X160160000Y-98760000D02*
X159560000Y-99160000D01*
X159560000Y-99160000D02*
X159560000Y-98360000D01*
X159560000Y-98360000D02*
X160160000Y-98760000D01*
X159560000Y-98760000D02*
X159060000Y-98760000D01*
%TO.C,D11*%
X160560000Y-79760000D02*
X160160000Y-79760000D01*
X160160000Y-79760000D02*
X160160000Y-80310000D01*
X160160000Y-79760000D02*
X160160000Y-79210000D01*
X160160000Y-79760000D02*
X159560000Y-80160000D01*
X159560000Y-80160000D02*
X159560000Y-79360000D01*
X159560000Y-79360000D02*
X160160000Y-79760000D01*
X159560000Y-79760000D02*
X159060000Y-79760000D01*
%TO.C,D12*%
X160560000Y-60760000D02*
X160160000Y-60760000D01*
X160160000Y-60760000D02*
X160160000Y-61310000D01*
X160160000Y-60760000D02*
X160160000Y-60210000D01*
X160160000Y-60760000D02*
X159560000Y-61160000D01*
X159560000Y-61160000D02*
X159560000Y-60360000D01*
X159560000Y-60360000D02*
X160160000Y-60760000D01*
X159560000Y-60760000D02*
X159060000Y-60760000D01*
%TO.C,D13*%
X179560000Y-103510000D02*
X179160000Y-103510000D01*
X179160000Y-103510000D02*
X179160000Y-104060000D01*
X179160000Y-103510000D02*
X179160000Y-102960000D01*
X179160000Y-103510000D02*
X178560000Y-103910000D01*
X178560000Y-103910000D02*
X178560000Y-103110000D01*
X178560000Y-103110000D02*
X179160000Y-103510000D01*
X178560000Y-103510000D02*
X178060000Y-103510000D01*
%TO.C,D14*%
X179560000Y-84510000D02*
X179160000Y-84510000D01*
X179160000Y-84510000D02*
X179160000Y-85060000D01*
X179160000Y-84510000D02*
X179160000Y-83960000D01*
X179160000Y-84510000D02*
X178560000Y-84910000D01*
X178560000Y-84910000D02*
X178560000Y-84110000D01*
X178560000Y-84110000D02*
X179160000Y-84510000D01*
X178560000Y-84510000D02*
X178060000Y-84510000D01*
%TO.C,D15*%
X179560000Y-65510000D02*
X179160000Y-65510000D01*
X179160000Y-65510000D02*
X179160000Y-66060000D01*
X179160000Y-65510000D02*
X179160000Y-64960000D01*
X179160000Y-65510000D02*
X178560000Y-65910000D01*
X178560000Y-65910000D02*
X178560000Y-65110000D01*
X178560000Y-65110000D02*
X179160000Y-65510000D01*
X178560000Y-65510000D02*
X178060000Y-65510000D01*
%TO.C,D16*%
X160560000Y-122510000D02*
X160160000Y-122510000D01*
X160160000Y-122510000D02*
X160160000Y-123060000D01*
X160160000Y-122510000D02*
X160160000Y-121960000D01*
X160160000Y-122510000D02*
X159560000Y-122910000D01*
X159560000Y-122910000D02*
X159560000Y-122110000D01*
X159560000Y-122110000D02*
X160160000Y-122510000D01*
X159560000Y-122510000D02*
X159060000Y-122510000D01*
%TO.C,D17*%
X181563764Y-126452160D02*
X181177394Y-126348633D01*
X181177394Y-126348633D02*
X181035044Y-126879892D01*
X181177394Y-126348633D02*
X181319745Y-125817373D01*
X181177394Y-126348633D02*
X180494311Y-126579712D01*
X180494311Y-126579712D02*
X180701366Y-125806971D01*
X180701366Y-125806971D02*
X181177394Y-126348633D01*
X180597839Y-126193341D02*
X180114876Y-126063932D01*
%TO.C,D18*%
X201195864Y-137208076D02*
X200849454Y-137008076D01*
X200849454Y-137008076D02*
X200574454Y-137484390D01*
X200849454Y-137008076D02*
X201124454Y-136531762D01*
X200849454Y-137008076D02*
X200129839Y-137054486D01*
X200129839Y-137054486D02*
X200529839Y-136361666D01*
X200529839Y-136361666D02*
X200849454Y-137008076D01*
X200329839Y-136708076D02*
X199896826Y-136458076D01*
D13*
%TO.C,DISP1*%
X188970000Y-88380000D02*
X188970000Y-91040000D01*
X199250000Y-91040000D02*
X188970000Y-91040000D01*
X199250000Y-88380000D02*
X188970000Y-88380000D01*
X199250000Y-88380000D02*
X199250000Y-91040000D01*
%TO.C,MCU1*%
X187820000Y-57580000D02*
X185160000Y-57580000D01*
X185160000Y-85580000D02*
X187820000Y-85580000D01*
X185160000Y-54980000D02*
X185160000Y-85580000D01*
X185160000Y-54980000D02*
X187820000Y-54980000D01*
X203060000Y-54980000D02*
X203060000Y-85580000D01*
X187820000Y-54980000D02*
X187820000Y-85580000D01*
X200400000Y-85580000D02*
X203060000Y-85580000D01*
X200400000Y-54980000D02*
X200400000Y-85580000D01*
X200400000Y-54980000D02*
X203060000Y-54980000D01*
%TO.C,JST1*%
X195470000Y-95950000D02*
X194470000Y-95950000D01*
X195470000Y-96870000D02*
X195470000Y-95950000D01*
X195470000Y-102070000D02*
X194470000Y-102070000D01*
X195470000Y-101150000D02*
X195470000Y-102070000D01*
X187650000Y-95950000D02*
X188650000Y-95950000D01*
X187650000Y-96870000D02*
X187650000Y-95950000D01*
X187650000Y-102070000D02*
X188650000Y-102070000D01*
X187650000Y-101070000D02*
X187650000Y-102070000D01*
D12*
X196010000Y-98010000D02*
X197010000Y-98010000D01*
X196510000Y-97510000D02*
X196510000Y-98510000D01*
X196510000Y-100510000D02*
X196510000Y-99510000D01*
D13*
%TO.C,PWR1*%
X199685000Y-111860000D02*
X199685000Y-111660000D01*
X202535000Y-116110000D02*
X202535000Y-110410000D01*
X199685000Y-114860000D02*
X199685000Y-113160000D01*
X200735000Y-116710000D02*
X201525000Y-116710000D01*
X201525000Y-109810000D02*
X200735000Y-109810000D01*
D11*
%TO.C,RST1*%
X199360000Y-96010000D02*
X199610000Y-96010000D01*
X199360000Y-102010000D02*
X199360000Y-96010000D01*
X199360000Y-102010000D02*
X199610000Y-102010000D01*
X202860000Y-102010000D02*
X202610000Y-102010000D01*
X202860000Y-96010000D02*
X202610000Y-96010000D01*
X202860000Y-102010000D02*
X202860000Y-96010000D01*
%TD*%
M02*
