M48
; DRILL file {KiCad 9.0.7} date 2026-01-28T21:56:43-0500
; FORMAT={-:-/ absolute / metric / decimal}
; #@! TF.CreationDate,2026-01-28T21:56:43-05:00
; #@! TF.GenerationSoftware,Kicad,Pcbnew,9.0.7
; #@! TF.FileFunction,NonPlated,1,2,NPTH
FMAT,2
METRIC
; #@! TA.AperFunction,NonPlated,NPTH,ComponentDrill
T1C0.900
; #@! TA.AperFunction,NonPlated,NPTH,ComponentDrill
T2C1.900
; #@! TA.AperFunction,NonPlated,NPTH,ComponentDrill
T3C2.200
; #@! TA.AperFunction,NonPlated,NPTH,ComponentDrill
T4C3.000
; #@! TA.AperFunction,NonPlated,NPTH,ComponentDrill
T5C4.100
%
G90
G05
T1
X201.135Y-111.76
X201.135Y-114.76
T2
X92.03Y-72.01
X92.03Y-91.01
X92.03Y-110.01
X102.19Y-72.01
X102.19Y-91.01
X102.19Y-110.01
X111.03Y-53.01
X111.03Y-72.01
X111.03Y-91.01
X121.19Y-53.01
X121.19Y-72.01
X121.19Y-91.01
X130.03Y-48.26
X130.03Y-67.26
X130.03Y-86.26
X140.19Y-48.26
X140.19Y-67.26
X140.19Y-86.26
X149.03Y-57.76
X149.03Y-76.76
X149.03Y-95.76
X149.03Y-119.51
X159.19Y-57.76
X159.19Y-76.76
X159.19Y-95.76
X159.19Y-119.51
X168.03Y-62.51
X168.03Y-81.51
X168.03Y-100.51
X171.203Y-120.57
X178.19Y-62.51
X178.19Y-81.51
X178.19Y-100.51
X181.017Y-123.2
X192.711Y-128.845
X201.509Y-133.925
T3
X106.61Y-100.51
X125.61Y-60.135
X144.61Y-105.26
X180.61Y-72.01
X190.245Y-117.858
T4
X93.3Y-69.47
X93.3Y-88.47
X93.3Y-107.47
X94.57Y-66.93
X94.57Y-85.93
X94.57Y-104.93
X99.65Y-66.93
X99.65Y-85.93
X99.65Y-104.93
X100.92Y-69.47
X100.92Y-88.47
X100.92Y-107.47
X112.3Y-50.47
X112.3Y-69.47
X112.3Y-88.47
X113.57Y-47.93
X113.57Y-66.93
X113.57Y-85.93
X118.65Y-47.93
X118.65Y-66.93
X118.65Y-85.93
X119.92Y-50.47
X119.92Y-69.47
X119.92Y-88.47
X131.3Y-45.72
X131.3Y-64.72
X131.3Y-83.72
X132.57Y-43.18
X132.57Y-62.18
X132.57Y-81.18
X137.65Y-43.18
X137.65Y-62.18
X137.65Y-81.18
X138.92Y-45.72
X138.92Y-64.72
X138.92Y-83.72
X150.3Y-55.22
X150.3Y-74.22
X150.3Y-93.22
X150.3Y-116.97
X151.57Y-52.68
X151.57Y-71.68
X151.57Y-90.68
X151.57Y-114.43
X156.65Y-52.68
X156.65Y-71.68
X156.65Y-90.68
X156.65Y-114.43
X157.92Y-55.22
X157.92Y-74.22
X157.92Y-93.22
X157.92Y-116.97
X169.3Y-59.97
X169.3Y-78.97
X169.3Y-97.97
X170.57Y-57.43
X170.57Y-76.43
X170.57Y-95.43
X173.087Y-118.445
X174.971Y-116.321
X175.65Y-57.43
X175.65Y-76.43
X175.65Y-95.43
X176.92Y-59.97
X176.92Y-78.97
X176.92Y-97.97
X179.878Y-117.635
X180.448Y-120.418
X195.08Y-127.28
X197.45Y-125.716
X201.68Y-131.09
X201.85Y-128.256
T5
X97.11Y-72.01
X97.11Y-91.01
X97.11Y-110.01
X116.11Y-53.01
X116.11Y-72.01
X116.11Y-91.01
X135.11Y-48.26
X135.11Y-67.26
X135.11Y-86.26
X154.11Y-57.76
X154.11Y-76.76
X154.11Y-95.76
X154.11Y-119.51
X173.11Y-62.51
X173.11Y-81.51
X173.11Y-100.51
X176.11Y-121.885
X197.11Y-131.385
M30
