M48
; DRILL file {KiCad 9.0.7} date 2026-01-30T15:32:56-0500
; FORMAT={-:-/ absolute / metric / decimal}
; #@! TF.CreationDate,2026-01-30T15:32:56-05:00
; #@! TF.GenerationSoftware,Kicad,Pcbnew,9.0.7
; #@! TF.FileFunction,Plated,1,2,PTH
FMAT,2
METRIC
; #@! TA.AperFunction,Plated,PTH,ViaDrill
T1C0.300
; #@! TA.AperFunction,Plated,PTH,ComponentDrill
T2C0.750
; #@! TA.AperFunction,Plated,PTH,ComponentDrill
T3C1.000
%
G90
G05
T1
X97.11Y-65.051
X97.11Y-66.08
X97.11Y-84.051
X97.11Y-85.08
X97.11Y-103.051
X97.11Y-104.08
X105.771Y-92.699
X106.21Y-111.26
X106.27Y-73.2
X111.62Y-64.1
X116.11Y-46.051
X116.11Y-47.08
X116.11Y-65.051
X116.11Y-66.08
X116.11Y-84.051
X116.11Y-85.08
X125.35Y-56.01
X125.45Y-75.01
X126.17Y-94.01
X135.11Y-41.301
X135.11Y-42.33
X135.11Y-60.301
X135.11Y-61.33
X135.11Y-79.301
X135.11Y-80.33
X142.46Y-53.03
X142.46Y-72.03
X142.46Y-91.03
X154.11Y-50.801
X154.11Y-51.83
X154.11Y-69.801
X154.11Y-70.83
X154.11Y-88.801
X154.11Y-89.83
X154.11Y-112.551
X154.11Y-113.58
X162.905Y-100.205
X163.02Y-81.32
X163.18Y-62.48
X164.23Y-125.28
X173.11Y-55.551
X173.11Y-56.58
X173.11Y-74.551
X173.11Y-75.58
X173.11Y-93.551
X173.11Y-94.58
X177.645Y-116.157
X177.911Y-115.163
X180.35Y-66.65
X181.235Y-67.293
X181.278Y-68.092
X181.33Y-68.89
X181.8Y-102.17
X181.93Y-84.51
X183.29Y-65.51
X183.634Y-125.484
X195.33Y-80.52
X195.359Y-85.389
X197.08Y-80.55
X197.08Y-82.85
X197.28Y-113.81
X199.82Y-137.658
X200.075Y-126.249
X200.589Y-125.358
T2
X189.11Y-98.01
X189.11Y-100.01
T3
X186.49Y-56.31
X186.49Y-58.85
X186.49Y-61.39
X186.49Y-63.93
X186.49Y-66.47
X186.49Y-69.01
X186.49Y-71.55
X186.49Y-74.09
X186.49Y-76.63
X186.49Y-79.17
X186.49Y-81.71
X186.49Y-84.25
X190.3Y-89.71
X192.84Y-89.71
X195.38Y-89.71
X197.92Y-89.71
X201.11Y-95.76
X201.11Y-102.26
X201.73Y-56.31
X201.73Y-58.85
X201.73Y-61.39
X201.73Y-63.93
X201.73Y-66.47
X201.73Y-69.01
X201.73Y-71.55
X201.73Y-74.09
X201.73Y-76.63
X201.73Y-79.17
X201.73Y-81.71
X201.73Y-84.25
M30
